<?xml version="1.0" encoding="utf-8" standalone="no"?>
<!DOCTYPE svg PUBLIC "-//W3C//DTD SVG 1.1//EN"
  "http://www.w3.org/Graphics/SVG/1.1/DTD/svg11.dtd">
<!-- Created with matplotlib (http://matplotlib.org/) -->
<svg height="288pt" version="1.1" viewBox="0 0 432 288" width="432pt" xmlns="http://www.w3.org/2000/svg" xmlns:xlink="http://www.w3.org/1999/xlink">
 <defs>
  <style type="text/css">
*{stroke-linecap:butt;stroke-linejoin:round;}
  </style>
 </defs>
 <g id="figure_1">
  <g id="patch_1">
   <path d="M 0 288 
L 432 288 
L 432 0 
L 0 0 
z
" style="fill:#ffffff;"/>
  </g>
  <g id="axes_1">
   <g id="patch_2">
    <path d="M 54 252 
L 388.8 252 
L 388.8 34.56 
L 54 34.56 
z
" style="fill:#ffffff;"/>
   </g>
   <g id="matplotlib.axis_1">
    <g id="xtick_1">
     <g id="line2d_1">
      <path clip-path="url(#pb337136f1d)" d="M 54 252 
L 54 34.56 
" style="fill:none;stroke:#cccccc;stroke-linecap:round;stroke-width:0.8;"/>
     </g>
     <g id="line2d_2"/>
     <g id="text_1">
      <!-- 0 -->
      <defs>
       <path d="M 31.78125 66.40625 
Q 24.171875 66.40625 20.328125 58.90625 
Q 16.5 51.421875 16.5 36.375 
Q 16.5 21.390625 20.328125 13.890625 
Q 24.171875 6.390625 31.78125 6.390625 
Q 39.453125 6.390625 43.28125 13.890625 
Q 47.125 21.390625 47.125 36.375 
Q 47.125 51.421875 43.28125 58.90625 
Q 39.453125 66.40625 31.78125 66.40625 
z
M 31.78125 74.21875 
Q 44.046875 74.21875 50.515625 64.515625 
Q 56.984375 54.828125 56.984375 36.375 
Q 56.984375 17.96875 50.515625 8.265625 
Q 44.046875 -1.421875 31.78125 -1.421875 
Q 19.53125 -1.421875 13.0625 8.265625 
Q 6.59375 17.96875 6.59375 36.375 
Q 6.59375 54.828125 13.0625 64.515625 
Q 19.53125 74.21875 31.78125 74.21875 
z
" id="DejaVuSans-30"/>
      </defs>
      <g style="fill:#262626;" transform="translate(50.81875 263.098437)scale(0.1 -0.1)">
       <use xlink:href="#DejaVuSans-30"/>
      </g>
     </g>
    </g>
    <g id="xtick_2">
     <g id="line2d_3">
      <path clip-path="url(#pb337136f1d)" d="M 110.826739 252 
L 110.826739 34.56 
" style="fill:none;stroke:#cccccc;stroke-linecap:round;stroke-width:0.8;"/>
     </g>
     <g id="line2d_4"/>
     <g id="text_2">
      <!-- 20 -->
      <defs>
       <path d="M 19.1875 8.296875 
L 53.609375 8.296875 
L 53.609375 0 
L 7.328125 0 
L 7.328125 8.296875 
Q 12.9375 14.109375 22.625 23.890625 
Q 32.328125 33.6875 34.8125 36.53125 
Q 39.546875 41.84375 41.421875 45.53125 
Q 43.3125 49.21875 43.3125 52.78125 
Q 43.3125 58.59375 39.234375 62.25 
Q 35.15625 65.921875 28.609375 65.921875 
Q 23.96875 65.921875 18.8125 64.3125 
Q 13.671875 62.703125 7.8125 59.421875 
L 7.8125 69.390625 
Q 13.765625 71.78125 18.9375 73 
Q 24.125 74.21875 28.421875 74.21875 
Q 39.75 74.21875 46.484375 68.546875 
Q 53.21875 62.890625 53.21875 53.421875 
Q 53.21875 48.921875 51.53125 44.890625 
Q 49.859375 40.875 45.40625 35.40625 
Q 44.1875 33.984375 37.640625 27.21875 
Q 31.109375 20.453125 19.1875 8.296875 
z
" id="DejaVuSans-32"/>
      </defs>
      <g style="fill:#262626;" transform="translate(104.464239 263.098437)scale(0.1 -0.1)">
       <use xlink:href="#DejaVuSans-32"/>
       <use x="63.623047" xlink:href="#DejaVuSans-30"/>
      </g>
     </g>
    </g>
    <g id="xtick_3">
     <g id="line2d_5">
      <path clip-path="url(#pb337136f1d)" d="M 167.653478 252 
L 167.653478 34.56 
" style="fill:none;stroke:#cccccc;stroke-linecap:round;stroke-width:0.8;"/>
     </g>
     <g id="line2d_6"/>
     <g id="text_3">
      <!-- 40 -->
      <defs>
       <path d="M 37.796875 64.3125 
L 12.890625 25.390625 
L 37.796875 25.390625 
z
M 35.203125 72.90625 
L 47.609375 72.90625 
L 47.609375 25.390625 
L 58.015625 25.390625 
L 58.015625 17.1875 
L 47.609375 17.1875 
L 47.609375 0 
L 37.796875 0 
L 37.796875 17.1875 
L 4.890625 17.1875 
L 4.890625 26.703125 
z
" id="DejaVuSans-34"/>
      </defs>
      <g style="fill:#262626;" transform="translate(161.290978 263.098437)scale(0.1 -0.1)">
       <use xlink:href="#DejaVuSans-34"/>
       <use x="63.623047" xlink:href="#DejaVuSans-30"/>
      </g>
     </g>
    </g>
    <g id="xtick_4">
     <g id="line2d_7">
      <path clip-path="url(#pb337136f1d)" d="M 224.480216 252 
L 224.480216 34.56 
" style="fill:none;stroke:#cccccc;stroke-linecap:round;stroke-width:0.8;"/>
     </g>
     <g id="line2d_8"/>
     <g id="text_4">
      <!-- 60 -->
      <defs>
       <path d="M 33.015625 40.375 
Q 26.375 40.375 22.484375 35.828125 
Q 18.609375 31.296875 18.609375 23.390625 
Q 18.609375 15.53125 22.484375 10.953125 
Q 26.375 6.390625 33.015625 6.390625 
Q 39.65625 6.390625 43.53125 10.953125 
Q 47.40625 15.53125 47.40625 23.390625 
Q 47.40625 31.296875 43.53125 35.828125 
Q 39.65625 40.375 33.015625 40.375 
z
M 52.59375 71.296875 
L 52.59375 62.3125 
Q 48.875 64.0625 45.09375 64.984375 
Q 41.3125 65.921875 37.59375 65.921875 
Q 27.828125 65.921875 22.671875 59.328125 
Q 17.53125 52.734375 16.796875 39.40625 
Q 19.671875 43.65625 24.015625 45.921875 
Q 28.375 48.1875 33.59375 48.1875 
Q 44.578125 48.1875 50.953125 41.515625 
Q 57.328125 34.859375 57.328125 23.390625 
Q 57.328125 12.15625 50.6875 5.359375 
Q 44.046875 -1.421875 33.015625 -1.421875 
Q 20.359375 -1.421875 13.671875 8.265625 
Q 6.984375 17.96875 6.984375 36.375 
Q 6.984375 53.65625 15.1875 63.9375 
Q 23.390625 74.21875 37.203125 74.21875 
Q 40.921875 74.21875 44.703125 73.484375 
Q 48.484375 72.75 52.59375 71.296875 
z
" id="DejaVuSans-36"/>
      </defs>
      <g style="fill:#262626;" transform="translate(218.117716 263.098437)scale(0.1 -0.1)">
       <use xlink:href="#DejaVuSans-36"/>
       <use x="63.623047" xlink:href="#DejaVuSans-30"/>
      </g>
     </g>
    </g>
    <g id="xtick_5">
     <g id="line2d_9">
      <path clip-path="url(#pb337136f1d)" d="M 281.306955 252 
L 281.306955 34.56 
" style="fill:none;stroke:#cccccc;stroke-linecap:round;stroke-width:0.8;"/>
     </g>
     <g id="line2d_10"/>
     <g id="text_5">
      <!-- 80 -->
      <defs>
       <path d="M 31.78125 34.625 
Q 24.75 34.625 20.71875 30.859375 
Q 16.703125 27.09375 16.703125 20.515625 
Q 16.703125 13.921875 20.71875 10.15625 
Q 24.75 6.390625 31.78125 6.390625 
Q 38.8125 6.390625 42.859375 10.171875 
Q 46.921875 13.96875 46.921875 20.515625 
Q 46.921875 27.09375 42.890625 30.859375 
Q 38.875 34.625 31.78125 34.625 
z
M 21.921875 38.8125 
Q 15.578125 40.375 12.03125 44.71875 
Q 8.5 49.078125 8.5 55.328125 
Q 8.5 64.0625 14.71875 69.140625 
Q 20.953125 74.21875 31.78125 74.21875 
Q 42.671875 74.21875 48.875 69.140625 
Q 55.078125 64.0625 55.078125 55.328125 
Q 55.078125 49.078125 51.53125 44.71875 
Q 48 40.375 41.703125 38.8125 
Q 48.828125 37.15625 52.796875 32.3125 
Q 56.78125 27.484375 56.78125 20.515625 
Q 56.78125 9.90625 50.3125 4.234375 
Q 43.84375 -1.421875 31.78125 -1.421875 
Q 19.734375 -1.421875 13.25 4.234375 
Q 6.78125 9.90625 6.78125 20.515625 
Q 6.78125 27.484375 10.78125 32.3125 
Q 14.796875 37.15625 21.921875 38.8125 
z
M 18.3125 54.390625 
Q 18.3125 48.734375 21.84375 45.5625 
Q 25.390625 42.390625 31.78125 42.390625 
Q 38.140625 42.390625 41.71875 45.5625 
Q 45.3125 48.734375 45.3125 54.390625 
Q 45.3125 60.0625 41.71875 63.234375 
Q 38.140625 66.40625 31.78125 66.40625 
Q 25.390625 66.40625 21.84375 63.234375 
Q 18.3125 60.0625 18.3125 54.390625 
z
" id="DejaVuSans-38"/>
      </defs>
      <g style="fill:#262626;" transform="translate(274.944455 263.098437)scale(0.1 -0.1)">
       <use xlink:href="#DejaVuSans-38"/>
       <use x="63.623047" xlink:href="#DejaVuSans-30"/>
      </g>
     </g>
    </g>
    <g id="xtick_6">
     <g id="line2d_11">
      <path clip-path="url(#pb337136f1d)" d="M 338.133694 252 
L 338.133694 34.56 
" style="fill:none;stroke:#cccccc;stroke-linecap:round;stroke-width:0.8;"/>
     </g>
     <g id="line2d_12"/>
     <g id="text_6">
      <!-- 100 -->
      <defs>
       <path d="M 12.40625 8.296875 
L 28.515625 8.296875 
L 28.515625 63.921875 
L 10.984375 60.40625 
L 10.984375 69.390625 
L 28.421875 72.90625 
L 38.28125 72.90625 
L 38.28125 8.296875 
L 54.390625 8.296875 
L 54.390625 0 
L 12.40625 0 
z
" id="DejaVuSans-31"/>
      </defs>
      <g style="fill:#262626;" transform="translate(328.589944 263.098437)scale(0.1 -0.1)">
       <use xlink:href="#DejaVuSans-31"/>
       <use x="63.623047" xlink:href="#DejaVuSans-30"/>
       <use x="127.246094" xlink:href="#DejaVuSans-30"/>
      </g>
     </g>
    </g>
    <g id="text_7">
     <!-- Time (s) -->
     <defs>
      <path d="M -0.296875 72.90625 
L 61.375 72.90625 
L 61.375 64.59375 
L 35.5 64.59375 
L 35.5 0 
L 25.59375 0 
L 25.59375 64.59375 
L -0.296875 64.59375 
z
" id="DejaVuSans-54"/>
      <path d="M 9.421875 54.6875 
L 18.40625 54.6875 
L 18.40625 0 
L 9.421875 0 
z
M 9.421875 75.984375 
L 18.40625 75.984375 
L 18.40625 64.59375 
L 9.421875 64.59375 
z
" id="DejaVuSans-69"/>
      <path d="M 52 44.1875 
Q 55.375 50.25 60.0625 53.125 
Q 64.75 56 71.09375 56 
Q 79.640625 56 84.28125 50.015625 
Q 88.921875 44.046875 88.921875 33.015625 
L 88.921875 0 
L 79.890625 0 
L 79.890625 32.71875 
Q 79.890625 40.578125 77.09375 44.375 
Q 74.3125 48.1875 68.609375 48.1875 
Q 61.625 48.1875 57.5625 43.546875 
Q 53.515625 38.921875 53.515625 30.90625 
L 53.515625 0 
L 44.484375 0 
L 44.484375 32.71875 
Q 44.484375 40.625 41.703125 44.40625 
Q 38.921875 48.1875 33.109375 48.1875 
Q 26.21875 48.1875 22.15625 43.53125 
Q 18.109375 38.875 18.109375 30.90625 
L 18.109375 0 
L 9.078125 0 
L 9.078125 54.6875 
L 18.109375 54.6875 
L 18.109375 46.1875 
Q 21.1875 51.21875 25.484375 53.609375 
Q 29.78125 56 35.6875 56 
Q 41.65625 56 45.828125 52.96875 
Q 50 49.953125 52 44.1875 
z
" id="DejaVuSans-6d"/>
      <path d="M 56.203125 29.59375 
L 56.203125 25.203125 
L 14.890625 25.203125 
Q 15.484375 15.921875 20.484375 11.0625 
Q 25.484375 6.203125 34.421875 6.203125 
Q 39.59375 6.203125 44.453125 7.46875 
Q 49.3125 8.734375 54.109375 11.28125 
L 54.109375 2.78125 
Q 49.265625 0.734375 44.1875 -0.34375 
Q 39.109375 -1.421875 33.890625 -1.421875 
Q 20.796875 -1.421875 13.15625 6.1875 
Q 5.515625 13.8125 5.515625 26.8125 
Q 5.515625 40.234375 12.765625 48.109375 
Q 20.015625 56 32.328125 56 
Q 43.359375 56 49.78125 48.890625 
Q 56.203125 41.796875 56.203125 29.59375 
z
M 47.21875 32.234375 
Q 47.125 39.59375 43.09375 43.984375 
Q 39.0625 48.390625 32.421875 48.390625 
Q 24.90625 48.390625 20.390625 44.140625 
Q 15.875 39.890625 15.1875 32.171875 
z
" id="DejaVuSans-65"/>
      <path id="DejaVuSans-20"/>
      <path d="M 31 75.875 
Q 24.46875 64.65625 21.28125 53.65625 
Q 18.109375 42.671875 18.109375 31.390625 
Q 18.109375 20.125 21.3125 9.0625 
Q 24.515625 -2 31 -13.1875 
L 23.1875 -13.1875 
Q 15.875 -1.703125 12.234375 9.375 
Q 8.59375 20.453125 8.59375 31.390625 
Q 8.59375 42.28125 12.203125 53.3125 
Q 15.828125 64.359375 23.1875 75.875 
z
" id="DejaVuSans-28"/>
      <path d="M 44.28125 53.078125 
L 44.28125 44.578125 
Q 40.484375 46.53125 36.375 47.5 
Q 32.28125 48.484375 27.875 48.484375 
Q 21.1875 48.484375 17.84375 46.4375 
Q 14.5 44.390625 14.5 40.28125 
Q 14.5 37.15625 16.890625 35.375 
Q 19.28125 33.59375 26.515625 31.984375 
L 29.59375 31.296875 
Q 39.15625 29.25 43.1875 25.515625 
Q 47.21875 21.78125 47.21875 15.09375 
Q 47.21875 7.46875 41.1875 3.015625 
Q 35.15625 -1.421875 24.609375 -1.421875 
Q 20.21875 -1.421875 15.453125 -0.5625 
Q 10.6875 0.296875 5.421875 2 
L 5.421875 11.28125 
Q 10.40625 8.6875 15.234375 7.390625 
Q 20.0625 6.109375 24.8125 6.109375 
Q 31.15625 6.109375 34.5625 8.28125 
Q 37.984375 10.453125 37.984375 14.40625 
Q 37.984375 18.0625 35.515625 20.015625 
Q 33.0625 21.96875 24.703125 23.78125 
L 21.578125 24.515625 
Q 13.234375 26.265625 9.515625 29.90625 
Q 5.8125 33.546875 5.8125 39.890625 
Q 5.8125 47.609375 11.28125 51.796875 
Q 16.75 56 26.8125 56 
Q 31.78125 56 36.171875 55.265625 
Q 40.578125 54.546875 44.28125 53.078125 
z
" id="DejaVuSans-73"/>
      <path d="M 8.015625 75.875 
L 15.828125 75.875 
Q 23.140625 64.359375 26.78125 53.3125 
Q 30.421875 42.28125 30.421875 31.390625 
Q 30.421875 20.453125 26.78125 9.375 
Q 23.140625 -1.703125 15.828125 -13.1875 
L 8.015625 -13.1875 
Q 14.5 -2 17.703125 9.0625 
Q 20.90625 20.125 20.90625 31.390625 
Q 20.90625 42.671875 17.703125 53.65625 
Q 14.5 64.65625 8.015625 75.875 
z
" id="DejaVuSans-29"/>
     </defs>
     <g style="fill:#262626;" transform="translate(200.917188 276.776563)scale(0.1 -0.1)">
      <use xlink:href="#DejaVuSans-54"/>
      <use x="61.037109" xlink:href="#DejaVuSans-69"/>
      <use x="88.820312" xlink:href="#DejaVuSans-6d"/>
      <use x="186.232422" xlink:href="#DejaVuSans-65"/>
      <use x="247.755859" xlink:href="#DejaVuSans-20"/>
      <use x="279.542969" xlink:href="#DejaVuSans-28"/>
      <use x="318.556641" xlink:href="#DejaVuSans-73"/>
      <use x="370.65625" xlink:href="#DejaVuSans-29"/>
     </g>
    </g>
   </g>
   <g id="matplotlib.axis_2">
    <g id="ytick_1">
     <g id="line2d_13">
      <path clip-path="url(#pb337136f1d)" d="M 54 252 
L 388.8 252 
" style="fill:none;stroke:#cccccc;stroke-linecap:round;stroke-width:0.8;"/>
     </g>
     <g id="line2d_14"/>
     <g id="text_8">
      <!-- 0% -->
      <defs>
       <path d="M 72.703125 32.078125 
Q 68.453125 32.078125 66.03125 28.46875 
Q 63.625 24.859375 63.625 18.40625 
Q 63.625 12.0625 66.03125 8.421875 
Q 68.453125 4.78125 72.703125 4.78125 
Q 76.859375 4.78125 79.265625 8.421875 
Q 81.6875 12.0625 81.6875 18.40625 
Q 81.6875 24.8125 79.265625 28.4375 
Q 76.859375 32.078125 72.703125 32.078125 
z
M 72.703125 38.28125 
Q 80.421875 38.28125 84.953125 32.90625 
Q 89.5 27.546875 89.5 18.40625 
Q 89.5 9.28125 84.9375 3.921875 
Q 80.375 -1.421875 72.703125 -1.421875 
Q 64.890625 -1.421875 60.34375 3.921875 
Q 55.8125 9.28125 55.8125 18.40625 
Q 55.8125 27.59375 60.375 32.9375 
Q 64.9375 38.28125 72.703125 38.28125 
z
M 22.3125 68.015625 
Q 18.109375 68.015625 15.6875 64.375 
Q 13.28125 60.75 13.28125 54.390625 
Q 13.28125 47.953125 15.671875 44.328125 
Q 18.0625 40.71875 22.3125 40.71875 
Q 26.5625 40.71875 28.96875 44.328125 
Q 31.390625 47.953125 31.390625 54.390625 
Q 31.390625 60.6875 28.953125 64.34375 
Q 26.515625 68.015625 22.3125 68.015625 
z
M 66.40625 74.21875 
L 74.21875 74.21875 
L 28.609375 -1.421875 
L 20.796875 -1.421875 
z
M 22.3125 74.21875 
Q 30.03125 74.21875 34.609375 68.875 
Q 39.203125 63.53125 39.203125 54.390625 
Q 39.203125 45.171875 34.640625 39.84375 
Q 30.078125 34.515625 22.3125 34.515625 
Q 14.546875 34.515625 10.03125 39.859375 
Q 5.515625 45.21875 5.515625 54.390625 
Q 5.515625 63.484375 10.046875 68.84375 
Q 14.59375 74.21875 22.3125 74.21875 
z
" id="DejaVuSans-25"/>
      </defs>
      <g style="fill:#262626;" transform="translate(34.635937 255.799219)scale(0.1 -0.1)">
       <use xlink:href="#DejaVuSans-30"/>
       <use x="63.623047" xlink:href="#DejaVuSans-25"/>
      </g>
     </g>
    </g>
    <g id="ytick_2">
     <g id="line2d_15">
      <path clip-path="url(#pb337136f1d)" d="M 54 210.581612 
L 388.8 210.581612 
" style="fill:none;stroke:#cccccc;stroke-linecap:round;stroke-width:0.8;"/>
     </g>
     <g id="line2d_16"/>
     <g id="text_9">
      <!-- 20% -->
      <g style="fill:#262626;" transform="translate(28.273438 214.380831)scale(0.1 -0.1)">
       <use xlink:href="#DejaVuSans-32"/>
       <use x="63.623047" xlink:href="#DejaVuSans-30"/>
       <use x="127.246094" xlink:href="#DejaVuSans-25"/>
      </g>
     </g>
    </g>
    <g id="ytick_3">
     <g id="line2d_17">
      <path clip-path="url(#pb337136f1d)" d="M 54 169.163224 
L 388.8 169.163224 
" style="fill:none;stroke:#cccccc;stroke-linecap:round;stroke-width:0.8;"/>
     </g>
     <g id="line2d_18"/>
     <g id="text_10">
      <!-- 40% -->
      <g style="fill:#262626;" transform="translate(28.273438 172.962443)scale(0.1 -0.1)">
       <use xlink:href="#DejaVuSans-34"/>
       <use x="63.623047" xlink:href="#DejaVuSans-30"/>
       <use x="127.246094" xlink:href="#DejaVuSans-25"/>
      </g>
     </g>
    </g>
    <g id="ytick_4">
     <g id="line2d_19">
      <path clip-path="url(#pb337136f1d)" d="M 54 127.744836 
L 388.8 127.744836 
" style="fill:none;stroke:#cccccc;stroke-linecap:round;stroke-width:0.8;"/>
     </g>
     <g id="line2d_20"/>
     <g id="text_11">
      <!-- 60% -->
      <g style="fill:#262626;" transform="translate(28.273438 131.544055)scale(0.1 -0.1)">
       <use xlink:href="#DejaVuSans-36"/>
       <use x="63.623047" xlink:href="#DejaVuSans-30"/>
       <use x="127.246094" xlink:href="#DejaVuSans-25"/>
      </g>
     </g>
    </g>
    <g id="ytick_5">
     <g id="line2d_21">
      <path clip-path="url(#pb337136f1d)" d="M 54 86.326448 
L 388.8 86.326448 
" style="fill:none;stroke:#cccccc;stroke-linecap:round;stroke-width:0.8;"/>
     </g>
     <g id="line2d_22"/>
     <g id="text_12">
      <!-- 80% -->
      <g style="fill:#262626;" transform="translate(28.273438 90.125667)scale(0.1 -0.1)">
       <use xlink:href="#DejaVuSans-38"/>
       <use x="63.623047" xlink:href="#DejaVuSans-30"/>
       <use x="127.246094" xlink:href="#DejaVuSans-25"/>
      </g>
     </g>
    </g>
    <g id="ytick_6">
     <g id="line2d_23">
      <path clip-path="url(#pb337136f1d)" d="M 54 44.90806 
L 388.8 44.90806 
" style="fill:none;stroke:#cccccc;stroke-linecap:round;stroke-width:0.8;"/>
     </g>
     <g id="line2d_24"/>
     <g id="text_13">
      <!-- 100% -->
      <g style="fill:#262626;" transform="translate(21.910937 48.707279)scale(0.1 -0.1)">
       <use xlink:href="#DejaVuSans-31"/>
       <use x="63.623047" xlink:href="#DejaVuSans-30"/>
       <use x="127.246094" xlink:href="#DejaVuSans-30"/>
       <use x="190.869141" xlink:href="#DejaVuSans-25"/>
      </g>
     </g>
    </g>
    <g id="text_14">
     <!-- CDF (%) -->
     <defs>
      <path d="M 64.40625 67.28125 
L 64.40625 56.890625 
Q 59.421875 61.53125 53.78125 63.8125 
Q 48.140625 66.109375 41.796875 66.109375 
Q 29.296875 66.109375 22.65625 58.46875 
Q 16.015625 50.828125 16.015625 36.375 
Q 16.015625 21.96875 22.65625 14.328125 
Q 29.296875 6.6875 41.796875 6.6875 
Q 48.140625 6.6875 53.78125 8.984375 
Q 59.421875 11.28125 64.40625 15.921875 
L 64.40625 5.609375 
Q 59.234375 2.09375 53.4375 0.328125 
Q 47.65625 -1.421875 41.21875 -1.421875 
Q 24.65625 -1.421875 15.125 8.703125 
Q 5.609375 18.84375 5.609375 36.375 
Q 5.609375 53.953125 15.125 64.078125 
Q 24.65625 74.21875 41.21875 74.21875 
Q 47.75 74.21875 53.53125 72.484375 
Q 59.328125 70.75 64.40625 67.28125 
z
" id="DejaVuSans-43"/>
      <path d="M 19.671875 64.796875 
L 19.671875 8.109375 
L 31.59375 8.109375 
Q 46.6875 8.109375 53.6875 14.9375 
Q 60.6875 21.78125 60.6875 36.53125 
Q 60.6875 51.171875 53.6875 57.984375 
Q 46.6875 64.796875 31.59375 64.796875 
z
M 9.8125 72.90625 
L 30.078125 72.90625 
Q 51.265625 72.90625 61.171875 64.09375 
Q 71.09375 55.28125 71.09375 36.53125 
Q 71.09375 17.671875 61.125 8.828125 
Q 51.171875 0 30.078125 0 
L 9.8125 0 
z
" id="DejaVuSans-44"/>
      <path d="M 9.8125 72.90625 
L 51.703125 72.90625 
L 51.703125 64.59375 
L 19.671875 64.59375 
L 19.671875 43.109375 
L 48.578125 43.109375 
L 48.578125 34.8125 
L 19.671875 34.8125 
L 19.671875 0 
L 9.8125 0 
z
" id="DejaVuSans-46"/>
     </defs>
     <g style="fill:#262626;" transform="translate(15.83125 163.738594)rotate(-90)scale(0.1 -0.1)">
      <use xlink:href="#DejaVuSans-43"/>
      <use x="69.824219" xlink:href="#DejaVuSans-44"/>
      <use x="146.826172" xlink:href="#DejaVuSans-46"/>
      <use x="204.345703" xlink:href="#DejaVuSans-20"/>
      <use x="236.132812" xlink:href="#DejaVuSans-28"/>
      <use x="275.146484" xlink:href="#DejaVuSans-25"/>
      <use x="370.166016" xlink:href="#DejaVuSans-29"/>
     </g>
    </g>
   </g>
   <g id="line2d_25">
    <path clip-path="url(#pb337136f1d)" d="M 54 246.178571 
L 65.451013 246.070767 
L 65.518782 245.962963 
L 65.63841 245.531746 
L 65.864538 245.316137 
L 66.319388 244.130291 
L 66.503637 243.914682 
L 66.597278 243.483465 
L 67.091728 243.052248 
L 67.369624 241.974206 
L 68.295598 240.249338 
L 68.500859 239.602513 
L 68.826372 238.416666 
L 70.007392 233.781084 
L 70.215007 233.565475 
L 70.610973 232.703042 
L 70.784492 232.271825 
L 70.890796 232.056216 
L 71.028124 231.732803 
L 71.69852 230.870369 
L 71.974386 229.900131 
L 72.145969 229.684523 
L 72.302502 229.253306 
L 72.467063 228.822089 
L 72.575344 228.283068 
L 72.695154 227.851851 
L 72.9108 227.636242 
L 72.954364 227.205025 
L 73.132682 226.989417 
L 73.40618 226.126983 
L 73.607364 225.911375 
L 73.721598 225.372353 
L 73.950895 225.264549 
L 74.455258 225.048941 
L 75.001492 224.402115 
L 75.022057 224.294311 
L 75.933871 223.863094 
L 76.26815 223.216269 
L 76.661519 222.892856 
L 76.679014 222.785052 
L 76.927623 222.461639 
L 77.55369 221.167988 
L 77.764116 220.95238 
L 77.783822 220.844575 
L 78.134501 220.628967 
L 78.228068 220.19775 
L 78.313411 219.766533 
L 78.421506 219.335316 
L 78.814835 218.688491 
L 79.848576 218.149469 
L 79.850523 218.041665 
L 79.983343 217.933861 
L 80.303201 217.718253 
L 80.318769 217.610448 
L 80.631954 217.39484 
L 80.915318 216.855819 
L 81.563121 216.424602 
L 81.599531 216.208993 
L 82.765048 215.993385 
L 83.112754 215.669972 
L 83.330461 214.807538 
L 83.711829 214.268517 
L 83.770639 214.052908 
L 84.224325 213.729496 
L 84.82247 213.513887 
L 85.18863 213.298279 
L 85.288534 213.190475 
L 85.641537 212.974866 
L 86.791236 212.543649 
L 87.096556 212.435845 
L 88.07691 212.220236 
L 88.271349 211.465607 
L 89.081037 210.171956 
L 90.024952 209.956347 
L 90.910627 209.632935 
L 91.031657 209.52513 
L 92.605011 209.093914 
L 92.620784 208.986109 
L 92.93187 208.770501 
L 93.672489 207.47685 
L 93.819795 207.045633 
L 94.033334 206.72222 
L 94.148228 206.075395 
L 94.256015 205.644178 
L 95.029695 205.428569 
L 95.326878 205.212961 
L 96.073835 204.458331 
L 96.767408 204.242723 
L 96.86227 204.134919 
L 97.890555 203.91931 
L 99.607247 203.16468 
L 99.753686 202.733464 
L 100.393512 202.410051 
L 100.492689 202.194442 
L 100.878754 201.655421 
L 101.32902 201.439813 
L 101.654339 200.253966 
L 101.847494 200.038358 
L 102.309348 199.607141 
L 104.103078 199.175924 
L 104.489201 198.636903 
L 104.695391 198.529098 
L 106.564733 198.31349 
L 106.746941 198.097881 
L 107.392718 197.882273 
L 107.75204 197.666664 
L 107.758245 197.55886 
L 108.487737 197.019839 
L 109.73725 196.480818 
L 110.866237 196.049601 
L 110.969245 195.941797 
L 112.034919 195.726188 
L 113.053133 195.079363 
L 113.299169 194.648146 
L 113.910125 194.432537 
L 114.023155 194.324733 
L 115.886018 194.00132 
L 117.470694 192.923278 
L 117.80477 192.707669 
L 117.965176 192.384257 
L 118.175085 191.95304 
L 119.496656 191.19841 
L 119.893786 190.659389 
L 120.141115 190.228172 
L 120.352249 189.904759 
L 120.745787 189.689151 
L 120.802904 189.473542 
L 120.902802 189.365738 
L 122.453944 188.611108 
L 123.278599 188.072087 
L 123.724283 187.856479 
L 124.118125 187.425262 
L 125.096898 187.209653 
L 125.101257 187.101849 
L 125.230226 186.994045 
L 125.787189 186.778436 
L 126.382875 185.916002 
L 126.563702 185.376981 
L 126.90397 184.945764 
L 127.429031 183.544309 
L 127.760741 183.328701 
L 128.107705 182.574071 
L 128.950224 182.03505 
L 129.123786 181.819441 
L 129.348996 181.172616 
L 129.663763 180.957008 
L 129.999972 180.202378 
L 130.140089 179.771161 
L 130.313506 179.447748 
L 130.465698 179.016531 
L 130.629397 178.800923 
L 130.80183 178.261902 
L 130.881568 178.154097 
L 131.17849 177.938489 
L 131.241118 177.507272 
L 131.387851 177.183859 
L 131.542447 176.752642 
L 131.710616 176.42923 
L 131.900694 175.998013 
L 132.076987 175.6746 
L 132.138534 175.351187 
L 132.800159 174.165341 
L 133.036631 173.949732 
L 133.179609 173.518515 
L 133.392353 173.302907 
L 133.47861 172.763886 
L 133.879379 172.440473 
L 133.985334 172.11706 
L 134.213846 171.901452 
L 134.267833 171.685843 
L 134.489481 171.470235 
L 135.234325 170.392192 
L 135.379503 170.06878 
L 135.536863 169.421954 
L 135.770904 168.882933 
L 136.431765 166.834652 
L 136.537304 166.080023 
L 136.672823 165.75661 
L 136.780014 165.433197 
L 137.346951 163.169308 
L 137.458962 162.9537 
L 137.679845 161.767853 
L 137.77945 161.336636 
L 137.877283 161.013224 
L 137.983345 160.366398 
L 138.095281 160.042986 
L 138.112661 159.935181 
L 138.354378 159.719573 
L 138.489982 158.533726 
L 138.595852 158.102509 
L 138.70577 157.779097 
L 138.920045 157.563488 
L 139.562263 155.191795 
L 139.764974 154.976186 
L 140.532549 152.820102 
L 140.857292 152.496689 
L 141.001793 151.849863 
L 141.187395 151.634255 
L 141.718838 150.664017 
L 141.894586 150.124996 
L 142.14364 149.909387 
L 142.398417 149.262562 
L 142.575992 148.723541 
L 142.790865 148.076715 
L 143.401356 146.028435 
L 143.578691 145.812826 
L 143.844429 144.087958 
L 143.960716 143.87235 
L 144.074469 143.225524 
L 144.604782 141.177244 
L 144.722631 140.961636 
L 145.086084 139.667985 
L 145.186137 139.236768 
L 145.289118 139.021159 
L 145.397621 138.589942 
L 145.549817 137.943117 
L 145.993465 136.326053 
L 146.071503 136.110445 
L 146.559743 133.091926 
L 146.670768 132.768513 
L 146.93022 131.367058 
L 147.613936 128.34854 
L 148.055153 125.976847 
L 148.285788 125.006608 
L 148.291858 124.898804 
L 148.437333 124.683196 
L 148.550468 124.144174 
L 148.76575 123.497349 
L 148.814239 123.066132 
L 149.04606 122.634915 
L 149.211015 121.98809 
L 149.851483 119.939809 
L 149.961054 119.616397 
L 150.493318 117.460312 
L 151.032312 115.196423 
L 151.395642 113.687163 
L 151.681254 112.285708 
L 151.826585 111.746687 
L 152.677613 107.973539 
L 152.93732 107.326713 
L 153.205946 106.895496 
L 153.651907 105.494041 
L 153.864049 105.278433 
L 153.989135 104.95502 
L 154.09044 104.739412 
L 154.110572 104.631608 
L 154.407302 104.308195 
L 154.944911 103.014544 
L 155.31663 102.475523 
L 156.372459 100.427242 
L 156.462517 99.996025 
L 156.767698 99.241396 
L 156.823422 99.133591 
L 157.047704 98.917983 
L 157.063309 98.702374 
L 157.425668 98.486766 
L 157.839949 97.947745 
L 157.94871 97.516528 
L 158.180044 97.300919 
L 158.664821 96.115073 
L 158.914558 95.899464 
L 158.985937 95.683856 
L 159.372759 95.468247 
L 159.501115 95.03703 
L 159.969235 94.713618 
L 160.751447 94.498009 
L 160.886017 94.174596 
L 161.269613 93.204358 
L 161.534416 92.98875 
L 161.876296 92.449729 
L 162.307426 92.126316 
L 162.457716 91.371686 
L 163.398495 90.293644 
L 163.471882 90.18584 
L 163.882511 89.970231 
L 164.258609 89.539014 
L 164.551063 89.323406 
L 164.875293 88.245363 
L 165.755993 87.167321 
L 165.947655 86.951713 
L 166.64436 85.87367 
L 166.724788 85.658062 
L 166.844222 85.442453 
L 167.070901 84.903432 
L 167.327877 84.580019 
L 167.340998 84.472215 
L 167.682325 84.148802 
L 168.191392 83.178564 
L 168.216793 83.07076 
L 168.530019 82.747347 
L 168.85496 82.31613 
L 168.857918 82.208326 
L 169.171705 81.884913 
L 169.338096 81.561501 
L 169.65436 81.238088 
L 169.973761 80.914675 
L 170.244637 80.591263 
L 170.464104 80.160046 
L 170.587961 79.728829 
L 170.83241 79.51322 
L 170.949932 79.189807 
L 171.270187 78.650786 
L 172.082835 76.386897 
L 172.336568 76.171289 
L 172.498111 75.740072 
L 172.722342 75.524463 
L 173.140037 74.554225 
L 173.423007 74.338617 
L 173.677436 74.123008 
L 173.716736 74.015204 
L 174.067844 73.691791 
L 174.80607 72.829357 
L 175.028875 72.505945 
L 175.170011 72.398141 
L 175.855994 72.074728 
L 175.882012 71.966924 
L 176.052787 71.751315 
L 176.147754 71.427902 
L 176.387698 71.212294 
L 176.538526 70.996685 
L 176.708821 70.781077 
L 176.766581 70.673273 
L 177.093925 70.457664 
L 177.239711 70.026447 
L 179.051512 69.271818 
L 179.516552 68.840601 
L 179.522717 68.624992 
L 180.452944 68.30158 
L 180.554064 68.193775 
L 181.076486 67.978167 
L 181.262803 67.762558 
L 181.700854 67.439146 
L 182.130064 67.007929 
L 182.798385 66.79232 
L 183.464122 66.361103 
L 183.565296 66.253299 
L 184.668819 66.037691 
L 184.841229 65.822082 
L 185.076017 65.606474 
L 186.210542 65.390865 
L 187.182066 64.959648 
L 187.70269 64.74404 
L 188.107597 64.420627 
L 188.723176 64.205018 
L 188.730582 64.097214 
L 188.882482 63.881606 
L 188.900784 63.773802 
L 189.500297 63.558193 
L 189.601292 63.23478 
L 190.047509 63.019172 
L 190.623961 62.372346 
L 190.934574 62.048934 
L 191.035108 61.94113 
L 191.846459 61.617717 
L 191.888514 61.509913 
L 192.976469 61.078696 
L 192.995895 60.970891 
L 193.406582 60.755283 
L 194.762151 60.216262 
L 194.852761 60.000653 
L 195.640905 59.569436 
L 195.798253 59.353828 
L 196.019682 58.922611 
L 196.021687 58.814807 
L 196.683352 58.491394 
L 196.874243 57.952373 
L 197.193587 57.736764 
L 197.460241 57.413352 
L 197.49624 57.197743 
L 197.870986 56.982135 
L 199.178765 55.796288 
L 199.364071 55.58068 
L 199.945024 54.933854 
L 200.99578 54.718246 
L 201.120817 54.502637 
L 201.999169 53.748007 
L 202.805617 53.532399 
L 202.921446 53.316791 
L 203.310833 53.101182 
L 203.67748 52.777769 
L 203.742515 52.669965 
L 204.48123 52.346552 
L 204.876739 51.915335 
L 205.001986 51.699727 
L 205.020266 51.591923 
L 206.385953 51.26851 
L 206.701555 51.052902 
L 207.601974 50.837293 
L 208.540635 50.621685 
L 208.742181 50.51388 
L 210.401248 50.190468 
L 210.836594 49.867055 
L 213.333041 49.651446 
L 213.431337 49.543642 
L 213.745509 49.435838 
L 214.474561 49.328034 
L 217.251054 49.112425 
L 218.78739 48.573404 
L 224.559326 47.926579 
L 224.576942 47.818774 
L 227.893594 47.171949 
L 229.156712 46.956341 
L 229.161264 46.848536 
L 233.034724 46.525124 
L 233.201842 46.417319 
L 233.794842 46.309515 
L 236.169504 46.093907 
L 242.886286 45.878298 
L 243.053746 45.770494 
L 248.015546 45.554885 
L 249.620731 45.231473 
L 253.504611 45.015864 
L 253.82452 44.90806 
L 253.82452 44.90806 
" style="fill:none;stroke:#1f77b4;stroke-linecap:round;stroke-width:1.5;"/>
   </g>
   <g id="line2d_26">
    <path clip-path="url(#pb337136f1d)" d="M 54 243.240429 
L 57.435681 243.109689 
L 57.489386 242.97895 
L 57.853027 242.71747 
L 58.030062 242.58673 
L 58.507229 242.32525 
L 58.701105 241.933031 
L 59.333788 241.671551 
L 62.947979 241.540811 
L 63.041809 241.148592 
L 63.91748 241.017852 
L 64.095154 240.102673 
L 64.271168 239.579713 
L 64.352669 239.318233 
L 64.923874 239.056754 
L 65.049438 238.533794 
L 65.163387 238.010835 
L 65.834431 237.095656 
L 66.496121 236.834176 
L 66.633036 236.180477 
L 66.711441 235.918997 
L 66.769701 235.526778 
L 67.024718 235.396038 
L 67.040571 235.134558 
L 67.205962 234.873078 
L 67.487585 234.350119 
L 68.128208 233.957899 
L 68.227321 233.43494 
L 68.405537 233.17346 
L 68.419482 233.04272 
L 68.632729 232.91198 
L 69.300788 232.650501 
L 69.451615 232.127541 
L 70.10544 230.689403 
L 71.388226 230.166443 
L 71.689234 229.643484 
L 71.714367 229.382004 
L 71.929852 229.120524 
L 72.217965 228.074605 
L 72.839241 227.943866 
L 73.54284 225.590548 
L 73.664324 224.936849 
L 73.769325 224.544629 
L 74.018817 223.106491 
L 74.542958 222.452791 
L 75.46354 220.099474 
L 75.75893 218.399856 
L 76.110446 218.138376 
L 76.328862 217.223197 
L 76.461164 216.700238 
L 76.706195 216.308018 
L 76.80573 215.785058 
L 76.944629 215.392839 
L 76.977539 215.131359 
L 77.630681 214.08544 
L 77.821905 213.170261 
L 77.920904 212.908782 
L 78.129712 212.385822 
L 78.329499 211.601383 
L 78.335436 211.339903 
L 78.495006 211.078423 
L 78.827302 210.555464 
L 79.036713 210.293984 
L 79.44954 209.771025 
L 79.577301 209.378805 
L 79.954707 208.463626 
L 80.573811 208.071407 
L 80.591842 207.940667 
L 80.864344 207.679187 
L 80.877782 207.548447 
L 81.035017 207.286968 
L 81.118844 207.025488 
L 81.189214 206.502528 
L 81.293498 206.241049 
L 81.61236 205.979569 
L 82.044841 205.456609 
L 82.324886 205.19513 
L 82.346093 204.93365 
L 82.589717 204.67217 
L 82.603299 204.54143 
L 83.183678 204.279951 
L 83.391071 203.364772 
L 84.178901 203.234032 
L 84.380723 202.972552 
L 84.715781 202.711072 
L 84.969376 202.188113 
L 85.333323 201.926633 
L 85.520307 201.272934 
L 85.798801 200.619235 
L 86.735734 199.050356 
L 86.909081 198.788877 
L 88.016948 196.697039 
L 88.658833 196.043339 
L 88.709304 195.78186 
L 88.940563 195.52038 
L 89.146234 194.866681 
L 89.281681 193.820762 
L 89.501312 193.036323 
L 89.650362 192.644103 
L 89.982813 192.382623 
L 90.058057 191.990404 
L 90.080434 191.728924 
L 90.298509 191.467444 
L 90.702952 190.683005 
L 91.069835 190.290786 
L 91.840764 190.029306 
L 92.032009 189.637086 
L 92.373029 189.114127 
L 92.464723 188.852647 
L 92.846949 188.591167 
L 93.130375 187.675988 
L 93.388019 187.414509 
L 94.228321 185.453411 
L 94.454761 185.191931 
L 94.469995 185.061191 
L 95.366074 184.407492 
L 95.422153 184.146012 
L 95.655268 184.015272 
L 96.322259 183.753793 
L 96.41076 183.361573 
L 96.920803 183.100093 
L 97.070275 182.838613 
L 97.203256 182.184914 
L 97.31237 181.792695 
L 97.464224 181.269735 
L 98.305375 179.700857 
L 98.368925 179.439377 
L 98.738769 179.047158 
L 98.885213 178.654938 
L 98.999136 178.393458 
L 99.161612 177.870499 
L 99.25002 177.609019 
L 99.52768 177.347539 
L 99.670888 177.08606 
L 99.746197 176.82458 
L 99.981302 176.5631 
L 99.987177 176.43236 
L 100.430703 176.040141 
L 101.171653 175.255702 
L 101.255214 174.863482 
L 101.417502 174.602002 
L 101.704634 174.079043 
L 101.712725 173.948303 
L 101.86362 173.686823 
L 102.688223 171.856465 
L 102.906088 171.594985 
L 103.0553 171.072026 
L 103.45177 170.941286 
L 103.677894 170.418327 
L 104.505658 168.195749 
L 104.576719 167.803529 
L 105.210551 165.842432 
L 105.68447 165.580952 
L 105.871405 165.057992 
L 106.092275 164.796513 
L 106.201894 164.535033 
L 107.437738 159.828398 
L 107.500145 159.436178 
L 107.770937 159.043959 
L 108.111627 158.651739 
L 108.207588 158.25952 
L 108.355087 157.99804 
L 108.747145 156.821381 
L 109.017112 156.559901 
L 110.138279 154.337324 
L 110.267336 153.683624 
L 110.420292 153.029925 
L 110.908393 152.114746 
L 111.04242 151.591787 
L 111.382782 150.807348 
L 111.516182 149.892168 
L 111.679792 149.238469 
L 112.082356 147.538851 
L 112.20906 146.754412 
L 112.315104 146.100713 
L 112.605665 144.401094 
L 113.172482 144.139615 
L 113.321155 143.878135 
L 113.613265 143.747395 
L 113.774531 143.224436 
L 114.641678 141.917037 
L 114.700051 141.655557 
L 115.008417 141.263338 
L 115.234261 140.086679 
L 115.652408 139.694459 
L 115.860562 139.1715 
L 116.31065 138.91002 
L 116.587828 138.517801 
L 117.051106 138.256321 
L 117.563653 136.948922 
L 117.709653 136.556703 
L 117.852664 136.295223 
L 118.008328 136.164483 
L 119.44649 135.903003 
L 119.488507 135.772263 
L 120.15546 135.249304 
L 120.762743 135.118564 
L 120.777284 134.987824 
L 121.344573 134.595605 
L 121.683564 134.334125 
L 121.792668 134.203385 
L 123.152595 133.549686 
L 123.288582 133.288206 
L 123.467791 133.026726 
L 123.580175 132.634507 
L 123.729822 131.850068 
L 124.231313 131.327108 
L 124.479381 131.065628 
L 124.814316 130.281189 
L 124.903298 129.88897 
L 124.99895 129.36601 
L 125.622838 129.104531 
L 125.971342 128.320091 
L 126.597032 127.666392 
L 126.813344 126.881953 
L 127.567485 124.136416 
L 127.822886 123.874936 
L 127.892335 123.613456 
L 128.589812 123.482717 
L 128.825562 122.698277 
L 129.270705 122.436798 
L 129.377686 122.175318 
L 129.521582 121.783098 
L 129.540112 121.521619 
L 129.757876 121.260139 
L 130.795166 118.906821 
L 131.717635 118.514602 
L 132.026013 118.383862 
L 132.105956 117.730163 
L 132.565217 117.468683 
L 132.606999 117.337943 
L 132.946603 117.076463 
L 133.165406 116.814984 
L 133.300349 116.553504 
L 133.956989 116.422764 
L 134.017327 116.161284 
L 134.262856 115.899805 
L 134.366706 115.507585 
L 134.863492 114.984626 
L 134.900824 114.592406 
L 135.126719 114.200186 
L 135.136113 114.069447 
L 135.700133 113.807967 
L 136.212393 113.023528 
L 137.355683 112.762048 
L 137.55174 112.631308 
L 138.086894 112.369828 
L 138.663877 111.846869 
L 139.260313 111.716129 
L 139.550541 110.93169 
L 139.671576 110.277991 
L 139.910345 108.970592 
L 140.13605 108.578372 
L 140.200464 108.186153 
L 140.413999 107.924673 
L 140.604872 107.663193 
L 141.199039 106.486535 
L 141.358292 106.225055 
L 141.472409 105.571356 
L 142.979997 99.818802 
L 143.061782 99.295842 
L 143.216068 99.034363 
L 143.566977 96.811785 
L 143.65622 95.765866 
L 143.783492 95.242907 
L 144.086728 93.804768 
L 144.214865 93.412548 
L 144.300157 93.151069 
L 144.434279 92.36663 
L 145.072234 89.359613 
L 145.184303 88.575174 
L 145.363452 87.267775 
L 145.546727 86.483336 
L 145.762645 84.783718 
L 146.145298 83.084099 
L 146.324369 82.16892 
L 146.4876 81.907441 
L 146.611651 81.515221 
L 147.111305 79.815603 
L 147.358516 79.423383 
L 147.747071 78.377464 
L 147.944007 78.115985 
L 148.116666 77.331546 
L 148.344607 76.416367 
L 148.502924 76.154887 
L 148.653811 75.631927 
L 148.971838 73.27861 
L 149.355588 71.709732 
L 149.682372 71.448252 
L 149.938431 70.925292 
L 150.055109 70.140853 
L 150.158726 69.879373 
L 150.281271 69.225674 
L 150.361145 68.833455 
L 150.412185 68.441235 
L 150.625739 68.049015 
L 150.719654 67.787536 
L 150.819184 67.003097 
L 150.852689 66.741617 
L 151.004973 66.480137 
L 151.115989 65.826438 
L 151.249261 65.303478 
L 151.432751 65.041999 
L 151.587312 64.519039 
L 152.569908 63.99608 
L 152.637528 63.60386 
L 152.840307 63.34238 
L 153.178117 62.427201 
L 153.557288 62.034982 
L 153.828828 61.773502 
L 154.295457 60.989063 
L 154.943293 60.596843 
L 155.281044 60.335364 
L 155.843827 59.812404 
L 156.091331 58.897225 
L 156.188824 58.766485 
L 157.21046 58.374266 
L 157.386718 57.982046 
L 157.425235 57.851306 
L 158.008921 57.328347 
L 158.024527 57.197607 
L 158.807383 56.413168 
L 158.886211 56.151688 
L 159.524662 55.759468 
L 159.644885 55.497989 
L 160.027575 55.105769 
L 160.350521 54.975029 
L 160.468858 54.58281 
L 160.739679 54.32133 
L 160.749263 54.19059 
L 161.171937 54.05985 
L 162.277915 53.92911 
L 162.292912 53.798371 
L 163.385933 52.883192 
L 163.402555 52.752452 
L 164.521619 52.229492 
L 164.980965 51.968013 
L 166.799717 51.706533 
L 167.150989 51.445053 
L 167.176549 51.314313 
L 168.921367 51.183573 
L 169.084429 50.791354 
L 169.35994 50.660614 
L 172.483792 50.529874 
L 178.557186 50.399134 
L 179.391434 50.137654 
L 179.482719 50.006915 
L 183.839182 49.614695 
L 184.220922 49.483955 
L 185.341665 49.222475 
L 185.615852 48.830256 
L 185.624786 48.699516 
L 189.202861 48.568776 
L 189.26514 48.438036 
L 189.484006 48.307296 
L 191.401541 48.045817 
L 191.982346 47.784337 
L 194.109978 47.261378 
L 194.650956 46.738418 
L 195.854345 46.476938 
L 196.390555 46.215459 
L 199.786944 46.084719 
L 200.127744 45.953979 
L 203.371613 45.823239 
L 203.408141 45.692499 
L 205.682831 45.561759 
L 205.727662 45.431019 
L 207.565213 45.30028 
L 233.880674 44.90806 
L 233.880674 44.90806 
" style="fill:none;stroke:#ff7f0e;stroke-linecap:round;stroke-width:1.5;"/>
   </g>
   <g id="line2d_27">
    <path clip-path="url(#pb337136f1d)" d="M 69.867305 251.86926 
L 75.782018 251.73852 
L 75.896361 251.60778 
L 78.236592 251.346301 
L 80.921712 251.215561 
L 81.024435 251.084821 
L 82.288272 250.823341 
L 90.497495 250.561862 
L 92.115725 250.169642 
L 96.451687 250.038902 
L 96.510402 249.908162 
L 100.47337 249.254463 
L 102.526032 248.600764 
L 104.41074 248.208544 
L 106.286591 247.947064 
L 107.326851 247.554845 
L 107.537198 247.424105 
L 108.23835 247.162625 
L 108.267621 247.031885 
L 108.742008 246.901145 
L 113.296405 246.508926 
L 113.544111 246.378186 
L 114.912778 245.985966 
L 114.922187 245.855227 
L 115.225853 245.724487 
L 117.180639 245.332267 
L 118.001252 245.070787 
L 120.312592 244.809308 
L 120.341623 244.678568 
L 120.531046 244.547828 
L 122.059463 244.155608 
L 122.168101 244.024868 
L 123.605581 243.632649 
L 123.70851 243.501909 
L 125.070978 242.97895 
L 125.388878 242.71747 
L 126.298338 242.32525 
L 126.90397 241.540811 
L 127.329317 241.279331 
L 127.36526 241.017852 
L 127.532517 240.887112 
L 128.616399 240.625632 
L 128.749249 240.494892 
L 129.460289 240.102673 
L 129.783455 239.710453 
L 129.912833 239.448973 
L 130.563108 239.056754 
L 131.161622 238.533794 
L 133.360759 237.749355 
L 133.467385 237.618615 
L 133.879379 237.487875 
L 135.279918 237.226396 
L 135.485279 237.095656 
L 136.316795 236.834176 
L 137.772441 236.049737 
L 138.370419 235.265298 
L 138.635805 235.003818 
L 138.705132 234.873078 
L 139.327379 234.742338 
L 141.036721 234.480859 
L 142.629767 234.088639 
L 143.732458 233.17346 
L 143.742869 233.04272 
L 143.935611 232.91198 
L 144.367779 232.78124 
L 144.438177 232.389021 
L 145.244661 232.127541 
L 145.344772 231.996801 
L 145.798853 231.735322 
L 145.830321 231.604582 
L 145.990037 231.473842 
L 147.482551 230.820143 
L 147.983714 230.427923 
L 148.099014 230.166443 
L 148.502005 229.904963 
L 148.637658 229.643484 
L 149.087632 229.251264 
L 149.401683 228.989784 
L 150.611599 228.205345 
L 150.881217 228.074605 
L 150.900291 227.813126 
L 152.079285 227.682386 
L 152.17363 227.420906 
L 153.45989 226.897947 
L 153.764551 226.767207 
L 153.765357 226.636467 
L 154.167321 226.374987 
L 154.542309 226.113508 
L 155.258021 225.982768 
L 155.396483 225.721288 
L 156.45103 224.936849 
L 156.566379 224.806109 
L 157.551454 224.283149 
L 157.654739 224.02167 
L 158.350826 223.76019 
L 158.443824 223.62945 
L 158.741212 223.49871 
L 159.769547 223.237231 
L 160.432811 222.322052 
L 160.446006 222.060572 
L 160.93824 221.668352 
L 161.236235 220.753173 
L 161.64716 220.491693 
L 161.969138 220.099474 
L 162.004901 219.837994 
L 162.286147 219.576514 
L 162.842885 218.922815 
L 162.850154 218.792075 
L 163.347827 218.138376 
L 163.392842 217.876896 
L 163.680628 217.484677 
L 163.799608 217.223197 
L 164.159436 216.830977 
L 164.628924 216.046538 
L 165.029346 215.262099 
L 165.341634 215.000619 
L 165.366988 214.869879 
L 165.872564 214.6084 
L 165.919975 214.47766 
L 166.343651 214.21618 
L 166.432216 213.9547 
L 166.568907 213.693221 
L 166.762855 213.301001 
L 167.121483 212.516562 
L 167.283589 212.255082 
L 167.725241 211.470643 
L 167.860093 211.078423 
L 168.181003 210.816944 
L 168.416549 210.163244 
L 168.570497 209.901765 
L 168.786029 209.117326 
L 168.936783 208.855846 
L 168.947546 208.725106 
L 169.233114 208.332886 
L 169.735252 207.156228 
L 170.064023 206.764008 
L 170.10774 206.371788 
L 170.387492 206.110309 
L 170.555536 205.587349 
L 170.867443 204.80291 
L 171.229885 204.410691 
L 171.47 204.149211 
L 171.790483 203.626251 
L 171.922583 203.364772 
L 172.161667 202.841812 
L 172.164489 202.711072 
L 173.120966 201.665153 
L 173.210238 201.403674 
L 173.476963 201.142194 
L 173.931224 200.488495 
L 174.089591 199.965535 
L 174.640095 199.050356 
L 175.040335 198.527397 
L 175.419411 198.396657 
L 175.455002 198.135177 
L 175.707714 197.873698 
L 175.990539 197.219998 
L 176.142783 196.958518 
L 176.494029 196.304819 
L 176.890555 195.9126 
L 176.960636 195.65112 
L 177.541457 194.866681 
L 177.542017 194.735941 
L 177.802221 194.343721 
L 177.939607 193.951502 
L 178.185274 193.167063 
L 178.740344 192.382623 
L 178.746497 192.251883 
L 179.010939 191.990404 
L 179.125648 191.598184 
L 179.375006 191.336704 
L 179.433237 191.075225 
L 179.863088 190.290786 
L 180.042425 189.898566 
L 180.304087 189.506346 
L 180.626301 189.375607 
L 180.873774 188.460428 
L 181.241363 187.545248 
L 181.502635 187.283769 
L 181.649572 187.022289 
L 181.757764 186.630069 
L 181.930822 186.36859 
L 181.93473 186.23785 
L 182.164168 185.84563 
L 182.302736 185.453411 
L 182.380577 185.191931 
L 182.569789 184.930451 
L 182.591484 184.668972 
L 183.17682 184.015272 
L 183.782569 183.230833 
L 183.794644 183.100093 
L 184.446421 182.315654 
L 184.558504 182.054174 
L 184.834591 181.923434 
L 184.935191 181.400475 
L 185.118466 181.138995 
L 186.211336 178.524198 
L 186.304199 178.262718 
L 186.534851 178.001239 
L 186.636156 177.478279 
L 186.856431 177.216799 
L 187.111005 176.43236 
L 187.35986 176.30162 
L 187.455923 176.040141 
L 188.054294 175.778661 
L 188.200442 175.386441 
L 188.467097 175.255702 
L 188.540034 174.863482 
L 188.662294 174.602002 
L 188.723176 174.209783 
L 188.943883 173.948303 
L 188.951345 173.817563 
L 189.265312 173.425343 
L 189.500297 172.771644 
L 189.591084 172.379425 
L 190.041169 171.856465 
L 190.04504 171.725725 
L 190.577984 171.072026 
L 190.68825 170.810546 
L 191.028168 170.418327 
L 191.405456 169.503148 
L 191.599885 168.980188 
L 191.863529 168.587969 
L 192.331025 168.457229 
L 192.394829 167.934269 
L 193.200829 165.973171 
L 193.221032 165.711692 
L 193.588779 165.450212 
L 194.757022 163.881334 
L 195.331495 163.750594 
L 195.464901 163.489114 
L 196.074913 162.181715 
L 196.540122 161.920236 
L 196.873522 161.135797 
L 197.65202 160.612837 
L 197.668462 160.482097 
L 197.870986 160.220618 
L 198.00602 159.959138 
L 198.148416 159.828398 
L 198.520081 159.697658 
L 198.665554 159.305438 
L 199.023245 158.782479 
L 199.341958 158.520999 
L 199.632615 157.99804 
L 199.78432 157.73656 
L 199.788227 157.60582 
L 200.064964 157.213601 
L 200.274456 156.952121 
L 200.514602 156.690641 
L 200.763858 156.167682 
L 200.969305 155.906202 
L 201.632036 155.121763 
L 201.729111 154.598803 
L 202.061912 154.337324 
L 202.067394 154.206584 
L 202.420278 154.075844 
L 202.597443 153.683624 
L 202.953173 153.422145 
L 202.957203 153.291405 
L 203.244923 153.029925 
L 203.421033 152.637706 
L 203.857248 152.245486 
L 204.035474 151.984006 
L 204.15615 151.591787 
L 204.402821 151.199567 
L 204.639818 150.807348 
L 205.200166 150.545868 
L 205.436826 150.284388 
L 205.473192 150.153648 
L 205.724366 149.892168 
L 205.828203 149.630689 
L 206.332 149.369209 
L 206.541059 149.107729 
L 207.207115 148.71551 
L 207.264574 148.45403 
L 207.527037 148.32329 
L 207.53718 148.19255 
L 207.797577 148.06181 
L 207.798142 147.931071 
L 207.986319 147.669591 
L 208.118496 147.408111 
L 208.73877 146.492932 
L 208.808677 146.231452 
L 209.134305 145.839233 
L 209.409217 144.924054 
L 209.674297 144.662574 
L 209.694666 144.531834 
L 209.876809 144.270354 
L 209.92773 144.139615 
L 210.310115 143.747395 
L 210.448268 143.485915 
L 210.605278 143.224436 
L 210.715086 142.701476 
L 210.833416 142.439996 
L 210.950329 142.047777 
L 211.121622 141.524817 
L 211.392893 140.740378 
L 211.85322 140.609638 
L 211.897976 140.348159 
L 212.453648 140.086679 
L 212.715784 139.30224 
L 212.793122 139.04076 
L 213.067027 138.77928 
L 213.112275 138.64854 
L 213.568209 138.256321 
L 213.944362 137.210402 
L 213.947011 137.079662 
L 214.145172 136.818182 
L 214.728887 135.510784 
L 214.827344 135.380044 
L 215.138525 135.118564 
L 215.294445 134.595605 
L 215.363691 134.072645 
L 215.541817 133.811166 
L 215.724931 133.157466 
L 215.997593 132.765247 
L 216.284164 131.980808 
L 216.756974 131.065628 
L 216.931334 130.411929 
L 217.124508 130.150449 
L 217.832257 128.450831 
L 217.838792 128.320091 
L 218.311911 127.797132 
L 218.40619 127.404912 
L 218.514984 127.143433 
L 218.56455 126.881953 
L 218.78739 126.620473 
L 218.796447 126.358993 
L 219.529674 125.966774 
L 220.431188 124.790115 
L 220.665782 124.397896 
L 221.026795 124.267156 
L 221.161357 123.874936 
L 221.906465 122.306058 
L 222.025064 122.044578 
L 222.183092 121.260139 
L 222.348547 120.737179 
L 222.540755 119.822 
L 222.915148 118.906821 
L 223.027878 118.645342 
L 223.169195 118.122382 
L 223.374785 117.860903 
L 223.462095 117.468683 
L 223.726285 117.207203 
L 223.794619 116.814984 
L 223.922819 116.422764 
L 223.972716 116.161284 
L 224.112748 115.769065 
L 224.680569 114.200186 
L 224.873213 113.938707 
L 225.826787 112.239088 
L 226.046427 111.977609 
L 226.22977 111.585389 
L 226.390092 110.67021 
L 226.472057 110.277991 
L 226.648459 109.624291 
L 226.765034 109.232072 
L 226.91181 108.709112 
L 227.071213 108.316893 
L 227.142389 108.055413 
L 227.327332 107.401714 
L 227.440921 106.878754 
L 227.511919 106.355795 
L 227.680374 106.094315 
L 227.758599 105.832835 
L 227.953404 105.571356 
L 228.11249 105.048396 
L 228.300158 104.656177 
L 228.420844 104.394697 
L 229.639951 100.472501 
L 229.737762 100.211021 
L 229.740451 100.080281 
L 229.956188 99.818802 
L 230.102535 98.772883 
L 231.01683 95.504386 
L 231.157649 94.981427 
L 231.264249 94.589207 
L 231.473943 93.674028 
L 231.561719 93.020329 
L 231.753756 92.36663 
L 231.882406 91.451451 
L 232.044712 91.059231 
L 232.549658 89.098133 
L 232.754081 88.575174 
L 232.916498 87.921474 
L 233.021481 87.006295 
L 233.290871 86.091116 
L 233.444706 85.045197 
L 233.53455 84.652978 
L 233.651542 84.130018 
L 233.900078 83.868539 
L 234.092671 82.82262 
L 234.146579 82.69188 
L 234.407029 82.4304 
L 234.597886 82.16892 
L 234.691215 81.645961 
L 234.86292 81.384481 
L 235.493162 79.031164 
L 235.646926 78.508204 
L 235.708526 78.246725 
L 235.981427 78.115985 
L 235.987208 77.854505 
L 236.107755 77.593025 
L 236.217479 76.808586 
L 236.394482 76.285627 
L 236.450746 76.024147 
L 236.72856 75.631927 
L 236.833818 75.108968 
L 237.062119 74.324529 
L 237.115468 73.932309 
L 237.191861 73.40935 
L 237.421546 73.01713 
L 237.706963 71.578992 
L 237.873912 71.317512 
L 237.96624 71.056032 
L 238.032038 70.663813 
L 238.175898 70.402333 
L 238.575064 68.833455 
L 238.692865 68.310495 
L 238.845475 67.656796 
L 239.117048 66.349397 
L 239.146019 66.087918 
L 239.383996 65.695698 
L 239.437959 65.434218 
L 239.770515 65.041999 
L 239.953055 64.519039 
L 240.491494 63.99608 
L 240.681633 63.34238 
L 240.772532 63.080901 
L 240.925372 62.819421 
L 241.567029 60.989063 
L 241.907494 60.727583 
L 242.180799 60.073884 
L 242.426756 59.812404 
L 243.201503 59.420185 
L 243.239781 59.158705 
L 243.868858 58.374266 
L 243.975899 57.982046 
L 244.2255 57.459087 
L 245.096033 57.197607 
L 245.264006 56.805387 
L 245.640421 56.543908 
L 245.900786 56.151688 
L 246.276382 55.890208 
L 246.97025 55.367249 
L 247.385955 54.844289 
L 247.728018 54.58281 
L 248.022106 54.19059 
L 248.035787 53.92911 
L 248.359321 53.667631 
L 248.436379 53.536891 
L 248.765204 53.275411 
L 248.902748 53.013931 
L 249.52635 52.752452 
L 249.559695 52.621712 
L 250.313434 52.360232 
L 250.429265 52.098752 
L 250.71558 51.837273 
L 250.803194 51.575793 
L 251.97493 51.052833 
L 252.029668 50.922094 
L 252.292971 50.660614 
L 252.330805 50.529874 
L 253.509818 50.268394 
L 254.254681 50.006915 
L 254.688661 49.745435 
L 255.207561 49.222475 
L 255.254077 49.091736 
L 255.826462 48.830256 
L 256.355512 48.307296 
L 257.865412 48.045817 
L 257.894858 47.784337 
L 260.038649 46.999898 
L 278.091265 46.607678 
L 278.289513 46.476938 
L 290.585908 45.823239 
L 297.068455 45.561759 
L 342.698689 45.16954 
L 345.552343 45.0388 
L 372.857143 44.90806 
L 372.857143 44.90806 
" style="fill:none;stroke:#2ca02c;stroke-linecap:round;stroke-width:1.5;"/>
   </g>
   <g id="patch_3">
    <path d="M 54 252 
L 54 34.56 
" style="fill:none;stroke:#cccccc;stroke-linecap:square;stroke-linejoin:miter;"/>
   </g>
   <g id="patch_4">
    <path d="M 54 252 
L 388.8 252 
" style="fill:none;stroke:#cccccc;stroke-linecap:square;stroke-linejoin:miter;"/>
   </g>
   <g id="legend_1">
    <g id="line2d_28">
     <path d="M 63 47.658438 
L 83 47.658438 
" style="fill:none;stroke:#1f77b4;stroke-linecap:round;stroke-width:1.5;"/>
    </g>
    <g id="line2d_29"/>
    <g id="text_15">
     <!-- Chunks -->
     <defs>
      <path d="M 54.890625 33.015625 
L 54.890625 0 
L 45.90625 0 
L 45.90625 32.71875 
Q 45.90625 40.484375 42.875 44.328125 
Q 39.84375 48.1875 33.796875 48.1875 
Q 26.515625 48.1875 22.3125 43.546875 
Q 18.109375 38.921875 18.109375 30.90625 
L 18.109375 0 
L 9.078125 0 
L 9.078125 75.984375 
L 18.109375 75.984375 
L 18.109375 46.1875 
Q 21.34375 51.125 25.703125 53.5625 
Q 30.078125 56 35.796875 56 
Q 45.21875 56 50.046875 50.171875 
Q 54.890625 44.34375 54.890625 33.015625 
z
" id="DejaVuSans-68"/>
      <path d="M 8.5 21.578125 
L 8.5 54.6875 
L 17.484375 54.6875 
L 17.484375 21.921875 
Q 17.484375 14.15625 20.5 10.265625 
Q 23.53125 6.390625 29.59375 6.390625 
Q 36.859375 6.390625 41.078125 11.03125 
Q 45.3125 15.671875 45.3125 23.6875 
L 45.3125 54.6875 
L 54.296875 54.6875 
L 54.296875 0 
L 45.3125 0 
L 45.3125 8.40625 
Q 42.046875 3.421875 37.71875 1 
Q 33.40625 -1.421875 27.6875 -1.421875 
Q 18.265625 -1.421875 13.375 4.4375 
Q 8.5 10.296875 8.5 21.578125 
z
M 31.109375 56 
z
" id="DejaVuSans-75"/>
      <path d="M 54.890625 33.015625 
L 54.890625 0 
L 45.90625 0 
L 45.90625 32.71875 
Q 45.90625 40.484375 42.875 44.328125 
Q 39.84375 48.1875 33.796875 48.1875 
Q 26.515625 48.1875 22.3125 43.546875 
Q 18.109375 38.921875 18.109375 30.90625 
L 18.109375 0 
L 9.078125 0 
L 9.078125 54.6875 
L 18.109375 54.6875 
L 18.109375 46.1875 
Q 21.34375 51.125 25.703125 53.5625 
Q 30.078125 56 35.796875 56 
Q 45.21875 56 50.046875 50.171875 
Q 54.890625 44.34375 54.890625 33.015625 
z
" id="DejaVuSans-6e"/>
      <path d="M 9.078125 75.984375 
L 18.109375 75.984375 
L 18.109375 31.109375 
L 44.921875 54.6875 
L 56.390625 54.6875 
L 27.390625 29.109375 
L 57.625 0 
L 45.90625 0 
L 18.109375 26.703125 
L 18.109375 0 
L 9.078125 0 
z
" id="DejaVuSans-6b"/>
     </defs>
     <g style="fill:#262626;" transform="translate(91 51.158438)scale(0.1 -0.1)">
      <use xlink:href="#DejaVuSans-43"/>
      <use x="69.824219" xlink:href="#DejaVuSans-68"/>
      <use x="133.203125" xlink:href="#DejaVuSans-75"/>
      <use x="196.582031" xlink:href="#DejaVuSans-6e"/>
      <use x="259.960938" xlink:href="#DejaVuSans-6b"/>
      <use x="317.871094" xlink:href="#DejaVuSans-73"/>
     </g>
    </g>
    <g id="line2d_30">
     <path d="M 63 62.336563 
L 83 62.336563 
" style="fill:none;stroke:#ff7f0e;stroke-linecap:round;stroke-width:1.5;"/>
    </g>
    <g id="line2d_31"/>
    <g id="text_16">
     <!-- Acks -->
     <defs>
      <path d="M 34.1875 63.1875 
L 20.796875 26.90625 
L 47.609375 26.90625 
z
M 28.609375 72.90625 
L 39.796875 72.90625 
L 67.578125 0 
L 57.328125 0 
L 50.6875 18.703125 
L 17.828125 18.703125 
L 11.1875 0 
L 0.78125 0 
z
" id="DejaVuSans-41"/>
      <path d="M 48.78125 52.59375 
L 48.78125 44.1875 
Q 44.96875 46.296875 41.140625 47.34375 
Q 37.3125 48.390625 33.40625 48.390625 
Q 24.65625 48.390625 19.8125 42.84375 
Q 14.984375 37.3125 14.984375 27.296875 
Q 14.984375 17.28125 19.8125 11.734375 
Q 24.65625 6.203125 33.40625 6.203125 
Q 37.3125 6.203125 41.140625 7.25 
Q 44.96875 8.296875 48.78125 10.40625 
L 48.78125 2.09375 
Q 45.015625 0.34375 40.984375 -0.53125 
Q 36.96875 -1.421875 32.421875 -1.421875 
Q 20.0625 -1.421875 12.78125 6.34375 
Q 5.515625 14.109375 5.515625 27.296875 
Q 5.515625 40.671875 12.859375 48.328125 
Q 20.21875 56 33.015625 56 
Q 37.15625 56 41.109375 55.140625 
Q 45.0625 54.296875 48.78125 52.59375 
z
" id="DejaVuSans-63"/>
     </defs>
     <g style="fill:#262626;" transform="translate(91 65.836563)scale(0.1 -0.1)">
      <use xlink:href="#DejaVuSans-41"/>
      <use x="68.392578" xlink:href="#DejaVuSans-63"/>
      <use x="123.373047" xlink:href="#DejaVuSans-6b"/>
      <use x="181.283203" xlink:href="#DejaVuSans-73"/>
     </g>
    </g>
    <g id="line2d_32">
     <path d="M 63 77.014688 
L 83 77.014688 
" style="fill:none;stroke:#2ca02c;stroke-linecap:round;stroke-width:1.5;"/>
    </g>
    <g id="line2d_33"/>
    <g id="text_17">
     <!-- RTT -->
     <defs>
      <path d="M 44.390625 34.1875 
Q 47.5625 33.109375 50.5625 29.59375 
Q 53.5625 26.078125 56.59375 19.921875 
L 66.609375 0 
L 56 0 
L 46.6875 18.703125 
Q 43.0625 26.03125 39.671875 28.421875 
Q 36.28125 30.8125 30.421875 30.8125 
L 19.671875 30.8125 
L 19.671875 0 
L 9.8125 0 
L 9.8125 72.90625 
L 32.078125 72.90625 
Q 44.578125 72.90625 50.734375 67.671875 
Q 56.890625 62.453125 56.890625 51.90625 
Q 56.890625 45.015625 53.6875 40.46875 
Q 50.484375 35.9375 44.390625 34.1875 
z
M 19.671875 64.796875 
L 19.671875 38.921875 
L 32.078125 38.921875 
Q 39.203125 38.921875 42.84375 42.21875 
Q 46.484375 45.515625 46.484375 51.90625 
Q 46.484375 58.296875 42.84375 61.546875 
Q 39.203125 64.796875 32.078125 64.796875 
z
" id="DejaVuSans-52"/>
     </defs>
     <g style="fill:#262626;" transform="translate(91 80.514688)scale(0.1 -0.1)">
      <use xlink:href="#DejaVuSans-52"/>
      <use x="69.373047" xlink:href="#DejaVuSans-54"/>
      <use x="130.441406" xlink:href="#DejaVuSans-54"/>
     </g>
    </g>
   </g>
  </g>
  <g id="text_18">
   <!-- Cumulative distribution function of messages transmission time -->
   <defs>
    <path d="M 9.421875 75.984375 
L 18.40625 75.984375 
L 18.40625 0 
L 9.421875 0 
z
" id="DejaVuSans-6c"/>
    <path d="M 34.28125 27.484375 
Q 23.390625 27.484375 19.1875 25 
Q 14.984375 22.515625 14.984375 16.5 
Q 14.984375 11.71875 18.140625 8.90625 
Q 21.296875 6.109375 26.703125 6.109375 
Q 34.1875 6.109375 38.703125 11.40625 
Q 43.21875 16.703125 43.21875 25.484375 
L 43.21875 27.484375 
z
M 52.203125 31.203125 
L 52.203125 0 
L 43.21875 0 
L 43.21875 8.296875 
Q 40.140625 3.328125 35.546875 0.953125 
Q 30.953125 -1.421875 24.3125 -1.421875 
Q 15.921875 -1.421875 10.953125 3.296875 
Q 6 8.015625 6 15.921875 
Q 6 25.140625 12.171875 29.828125 
Q 18.359375 34.515625 30.609375 34.515625 
L 43.21875 34.515625 
L 43.21875 35.40625 
Q 43.21875 41.609375 39.140625 45 
Q 35.0625 48.390625 27.6875 48.390625 
Q 23 48.390625 18.546875 47.265625 
Q 14.109375 46.140625 10.015625 43.890625 
L 10.015625 52.203125 
Q 14.9375 54.109375 19.578125 55.046875 
Q 24.21875 56 28.609375 56 
Q 40.484375 56 46.34375 49.84375 
Q 52.203125 43.703125 52.203125 31.203125 
z
" id="DejaVuSans-61"/>
    <path d="M 18.3125 70.21875 
L 18.3125 54.6875 
L 36.8125 54.6875 
L 36.8125 47.703125 
L 18.3125 47.703125 
L 18.3125 18.015625 
Q 18.3125 11.328125 20.140625 9.421875 
Q 21.96875 7.515625 27.59375 7.515625 
L 36.8125 7.515625 
L 36.8125 0 
L 27.59375 0 
Q 17.1875 0 13.234375 3.875 
Q 9.28125 7.765625 9.28125 18.015625 
L 9.28125 47.703125 
L 2.6875 47.703125 
L 2.6875 54.6875 
L 9.28125 54.6875 
L 9.28125 70.21875 
z
" id="DejaVuSans-74"/>
    <path d="M 2.984375 54.6875 
L 12.5 54.6875 
L 29.59375 8.796875 
L 46.6875 54.6875 
L 56.203125 54.6875 
L 35.6875 0 
L 23.484375 0 
z
" id="DejaVuSans-76"/>
    <path d="M 45.40625 46.390625 
L 45.40625 75.984375 
L 54.390625 75.984375 
L 54.390625 0 
L 45.40625 0 
L 45.40625 8.203125 
Q 42.578125 3.328125 38.25 0.953125 
Q 33.9375 -1.421875 27.875 -1.421875 
Q 17.96875 -1.421875 11.734375 6.484375 
Q 5.515625 14.40625 5.515625 27.296875 
Q 5.515625 40.1875 11.734375 48.09375 
Q 17.96875 56 27.875 56 
Q 33.9375 56 38.25 53.625 
Q 42.578125 51.265625 45.40625 46.390625 
z
M 14.796875 27.296875 
Q 14.796875 17.390625 18.875 11.75 
Q 22.953125 6.109375 30.078125 6.109375 
Q 37.203125 6.109375 41.296875 11.75 
Q 45.40625 17.390625 45.40625 27.296875 
Q 45.40625 37.203125 41.296875 42.84375 
Q 37.203125 48.484375 30.078125 48.484375 
Q 22.953125 48.484375 18.875 42.84375 
Q 14.796875 37.203125 14.796875 27.296875 
z
" id="DejaVuSans-64"/>
    <path d="M 41.109375 46.296875 
Q 39.59375 47.171875 37.8125 47.578125 
Q 36.03125 48 33.890625 48 
Q 26.265625 48 22.1875 43.046875 
Q 18.109375 38.09375 18.109375 28.8125 
L 18.109375 0 
L 9.078125 0 
L 9.078125 54.6875 
L 18.109375 54.6875 
L 18.109375 46.1875 
Q 20.953125 51.171875 25.484375 53.578125 
Q 30.03125 56 36.53125 56 
Q 37.453125 56 38.578125 55.875 
Q 39.703125 55.765625 41.0625 55.515625 
z
" id="DejaVuSans-72"/>
    <path d="M 48.6875 27.296875 
Q 48.6875 37.203125 44.609375 42.84375 
Q 40.53125 48.484375 33.40625 48.484375 
Q 26.265625 48.484375 22.1875 42.84375 
Q 18.109375 37.203125 18.109375 27.296875 
Q 18.109375 17.390625 22.1875 11.75 
Q 26.265625 6.109375 33.40625 6.109375 
Q 40.53125 6.109375 44.609375 11.75 
Q 48.6875 17.390625 48.6875 27.296875 
z
M 18.109375 46.390625 
Q 20.953125 51.265625 25.265625 53.625 
Q 29.59375 56 35.59375 56 
Q 45.5625 56 51.78125 48.09375 
Q 58.015625 40.1875 58.015625 27.296875 
Q 58.015625 14.40625 51.78125 6.484375 
Q 45.5625 -1.421875 35.59375 -1.421875 
Q 29.59375 -1.421875 25.265625 0.953125 
Q 20.953125 3.328125 18.109375 8.203125 
L 18.109375 0 
L 9.078125 0 
L 9.078125 75.984375 
L 18.109375 75.984375 
z
" id="DejaVuSans-62"/>
    <path d="M 30.609375 48.390625 
Q 23.390625 48.390625 19.1875 42.75 
Q 14.984375 37.109375 14.984375 27.296875 
Q 14.984375 17.484375 19.15625 11.84375 
Q 23.34375 6.203125 30.609375 6.203125 
Q 37.796875 6.203125 41.984375 11.859375 
Q 46.1875 17.53125 46.1875 27.296875 
Q 46.1875 37.015625 41.984375 42.703125 
Q 37.796875 48.390625 30.609375 48.390625 
z
M 30.609375 56 
Q 42.328125 56 49.015625 48.375 
Q 55.71875 40.765625 55.71875 27.296875 
Q 55.71875 13.875 49.015625 6.21875 
Q 42.328125 -1.421875 30.609375 -1.421875 
Q 18.84375 -1.421875 12.171875 6.21875 
Q 5.515625 13.875 5.515625 27.296875 
Q 5.515625 40.765625 12.171875 48.375 
Q 18.84375 56 30.609375 56 
z
" id="DejaVuSans-6f"/>
    <path d="M 37.109375 75.984375 
L 37.109375 68.5 
L 28.515625 68.5 
Q 23.6875 68.5 21.796875 66.546875 
Q 19.921875 64.59375 19.921875 59.515625 
L 19.921875 54.6875 
L 34.71875 54.6875 
L 34.71875 47.703125 
L 19.921875 47.703125 
L 19.921875 0 
L 10.890625 0 
L 10.890625 47.703125 
L 2.296875 47.703125 
L 2.296875 54.6875 
L 10.890625 54.6875 
L 10.890625 58.5 
Q 10.890625 67.625 15.140625 71.796875 
Q 19.390625 75.984375 28.609375 75.984375 
z
" id="DejaVuSans-66"/>
    <path d="M 45.40625 27.984375 
Q 45.40625 37.75 41.375 43.109375 
Q 37.359375 48.484375 30.078125 48.484375 
Q 22.859375 48.484375 18.828125 43.109375 
Q 14.796875 37.75 14.796875 27.984375 
Q 14.796875 18.265625 18.828125 12.890625 
Q 22.859375 7.515625 30.078125 7.515625 
Q 37.359375 7.515625 41.375 12.890625 
Q 45.40625 18.265625 45.40625 27.984375 
z
M 54.390625 6.78125 
Q 54.390625 -7.171875 48.1875 -13.984375 
Q 42 -20.796875 29.203125 -20.796875 
Q 24.46875 -20.796875 20.265625 -20.09375 
Q 16.0625 -19.390625 12.109375 -17.921875 
L 12.109375 -9.1875 
Q 16.0625 -11.328125 19.921875 -12.34375 
Q 23.78125 -13.375 27.78125 -13.375 
Q 36.625 -13.375 41.015625 -8.765625 
Q 45.40625 -4.15625 45.40625 5.171875 
L 45.40625 9.625 
Q 42.625 4.78125 38.28125 2.390625 
Q 33.9375 0 27.875 0 
Q 17.828125 0 11.671875 7.65625 
Q 5.515625 15.328125 5.515625 27.984375 
Q 5.515625 40.671875 11.671875 48.328125 
Q 17.828125 56 27.875 56 
Q 33.9375 56 38.28125 53.609375 
Q 42.625 51.21875 45.40625 46.390625 
L 45.40625 54.6875 
L 54.390625 54.6875 
z
" id="DejaVuSans-67"/>
   </defs>
   <g style="fill:#262626;" transform="translate(23.856562 14.878125)scale(0.12 -0.12)">
    <use xlink:href="#DejaVuSans-43"/>
    <use x="69.824219" xlink:href="#DejaVuSans-75"/>
    <use x="133.203125" xlink:href="#DejaVuSans-6d"/>
    <use x="230.615234" xlink:href="#DejaVuSans-75"/>
    <use x="293.994141" xlink:href="#DejaVuSans-6c"/>
    <use x="321.777344" xlink:href="#DejaVuSans-61"/>
    <use x="383.056641" xlink:href="#DejaVuSans-74"/>
    <use x="422.265625" xlink:href="#DejaVuSans-69"/>
    <use x="450.048828" xlink:href="#DejaVuSans-76"/>
    <use x="509.228516" xlink:href="#DejaVuSans-65"/>
    <use x="570.751953" xlink:href="#DejaVuSans-20"/>
    <use x="602.539062" xlink:href="#DejaVuSans-64"/>
    <use x="666.015625" xlink:href="#DejaVuSans-69"/>
    <use x="693.798828" xlink:href="#DejaVuSans-73"/>
    <use x="745.898438" xlink:href="#DejaVuSans-74"/>
    <use x="785.107422" xlink:href="#DejaVuSans-72"/>
    <use x="826.220703" xlink:href="#DejaVuSans-69"/>
    <use x="854.003906" xlink:href="#DejaVuSans-62"/>
    <use x="917.480469" xlink:href="#DejaVuSans-75"/>
    <use x="980.859375" xlink:href="#DejaVuSans-74"/>
    <use x="1020.068359" xlink:href="#DejaVuSans-69"/>
    <use x="1047.851562" xlink:href="#DejaVuSans-6f"/>
    <use x="1109.033203" xlink:href="#DejaVuSans-6e"/>
    <use x="1172.412109" xlink:href="#DejaVuSans-20"/>
    <use x="1204.199219" xlink:href="#DejaVuSans-66"/>
    <use x="1239.404297" xlink:href="#DejaVuSans-75"/>
    <use x="1302.783203" xlink:href="#DejaVuSans-6e"/>
    <use x="1366.162109" xlink:href="#DejaVuSans-63"/>
    <use x="1421.142578" xlink:href="#DejaVuSans-74"/>
    <use x="1460.351562" xlink:href="#DejaVuSans-69"/>
    <use x="1488.134766" xlink:href="#DejaVuSans-6f"/>
    <use x="1549.316406" xlink:href="#DejaVuSans-6e"/>
    <use x="1612.695312" xlink:href="#DejaVuSans-20"/>
    <use x="1644.482422" xlink:href="#DejaVuSans-6f"/>
    <use x="1705.664062" xlink:href="#DejaVuSans-66"/>
    <use x="1740.869141" xlink:href="#DejaVuSans-20"/>
    <use x="1772.65625" xlink:href="#DejaVuSans-6d"/>
    <use x="1870.068359" xlink:href="#DejaVuSans-65"/>
    <use x="1931.591797" xlink:href="#DejaVuSans-73"/>
    <use x="1983.691406" xlink:href="#DejaVuSans-73"/>
    <use x="2035.791016" xlink:href="#DejaVuSans-61"/>
    <use x="2097.070312" xlink:href="#DejaVuSans-67"/>
    <use x="2160.546875" xlink:href="#DejaVuSans-65"/>
    <use x="2222.070312" xlink:href="#DejaVuSans-73"/>
    <use x="2274.169922" xlink:href="#DejaVuSans-20"/>
    <use x="2305.957031" xlink:href="#DejaVuSans-74"/>
    <use x="2345.166016" xlink:href="#DejaVuSans-72"/>
    <use x="2386.279297" xlink:href="#DejaVuSans-61"/>
    <use x="2447.558594" xlink:href="#DejaVuSans-6e"/>
    <use x="2510.9375" xlink:href="#DejaVuSans-73"/>
    <use x="2563.037109" xlink:href="#DejaVuSans-6d"/>
    <use x="2660.449219" xlink:href="#DejaVuSans-69"/>
    <use x="2688.232422" xlink:href="#DejaVuSans-73"/>
    <use x="2740.332031" xlink:href="#DejaVuSans-73"/>
    <use x="2792.431641" xlink:href="#DejaVuSans-69"/>
    <use x="2820.214844" xlink:href="#DejaVuSans-6f"/>
    <use x="2881.396484" xlink:href="#DejaVuSans-6e"/>
    <use x="2944.775391" xlink:href="#DejaVuSans-20"/>
    <use x="2976.5625" xlink:href="#DejaVuSans-74"/>
    <use x="3015.771484" xlink:href="#DejaVuSans-69"/>
    <use x="3043.554688" xlink:href="#DejaVuSans-6d"/>
    <use x="3140.966797" xlink:href="#DejaVuSans-65"/>
   </g>
  </g>
 </g>
 <defs>
  <clipPath id="pb337136f1d">
   <rect height="217.44" width="334.8" x="54" y="34.56"/>
  </clipPath>
 </defs>
</svg>
