<?xml version="1.0" encoding="utf-8" standalone="no"?>
<!DOCTYPE svg PUBLIC "-//W3C//DTD SVG 1.1//EN"
  "http://www.w3.org/Graphics/SVG/1.1/DTD/svg11.dtd">
<!-- Created with matplotlib (http://matplotlib.org/) -->
<svg height="288pt" version="1.1" viewBox="0 0 432 288" width="432pt" xmlns="http://www.w3.org/2000/svg" xmlns:xlink="http://www.w3.org/1999/xlink">
 <defs>
  <style type="text/css">
*{stroke-linecap:butt;stroke-linejoin:round;}
  </style>
 </defs>
 <g id="figure_1">
  <g id="patch_1">
   <path d="M 0 288 
L 432 288 
L 432 0 
L 0 0 
z
" style="fill:#ffffff;"/>
  </g>
  <g id="axes_1">
   <g id="patch_2">
    <path d="M 54 252 
L 388.8 252 
L 388.8 34.56 
L 54 34.56 
z
" style="fill:#ffffff;"/>
   </g>
   <g id="matplotlib.axis_1">
    <g id="xtick_1">
     <g id="line2d_1">
      <path clip-path="url(#p6ff13be993)" d="M 54 252 
L 54 34.56 
" style="fill:none;stroke:#cccccc;stroke-linecap:round;stroke-width:0.8;"/>
     </g>
     <g id="line2d_2"/>
     <g id="text_1">
      <!-- 0 -->
      <defs>
       <path d="M 31.78125 66.40625 
Q 24.171875 66.40625 20.328125 58.90625 
Q 16.5 51.421875 16.5 36.375 
Q 16.5 21.390625 20.328125 13.890625 
Q 24.171875 6.390625 31.78125 6.390625 
Q 39.453125 6.390625 43.28125 13.890625 
Q 47.125 21.390625 47.125 36.375 
Q 47.125 51.421875 43.28125 58.90625 
Q 39.453125 66.40625 31.78125 66.40625 
z
M 31.78125 74.21875 
Q 44.046875 74.21875 50.515625 64.515625 
Q 56.984375 54.828125 56.984375 36.375 
Q 56.984375 17.96875 50.515625 8.265625 
Q 44.046875 -1.421875 31.78125 -1.421875 
Q 19.53125 -1.421875 13.0625 8.265625 
Q 6.59375 17.96875 6.59375 36.375 
Q 6.59375 54.828125 13.0625 64.515625 
Q 19.53125 74.21875 31.78125 74.21875 
z
" id="DejaVuSans-30"/>
      </defs>
      <g style="fill:#262626;" transform="translate(50.81875 263.098437)scale(0.1 -0.1)">
       <use xlink:href="#DejaVuSans-30"/>
      </g>
     </g>
    </g>
    <g id="xtick_2">
     <g id="line2d_3">
      <path clip-path="url(#p6ff13be993)" d="M 96.541661 252 
L 96.541661 34.56 
" style="fill:none;stroke:#cccccc;stroke-linecap:round;stroke-width:0.8;"/>
     </g>
     <g id="line2d_4"/>
     <g id="text_2">
      <!-- 10 -->
      <defs>
       <path d="M 12.40625 8.296875 
L 28.515625 8.296875 
L 28.515625 63.921875 
L 10.984375 60.40625 
L 10.984375 69.390625 
L 28.421875 72.90625 
L 38.28125 72.90625 
L 38.28125 8.296875 
L 54.390625 8.296875 
L 54.390625 0 
L 12.40625 0 
z
" id="DejaVuSans-31"/>
      </defs>
      <g style="fill:#262626;" transform="translate(90.179161 263.098437)scale(0.1 -0.1)">
       <use xlink:href="#DejaVuSans-31"/>
       <use x="63.623047" xlink:href="#DejaVuSans-30"/>
      </g>
     </g>
    </g>
    <g id="xtick_3">
     <g id="line2d_5">
      <path clip-path="url(#p6ff13be993)" d="M 139.083323 252 
L 139.083323 34.56 
" style="fill:none;stroke:#cccccc;stroke-linecap:round;stroke-width:0.8;"/>
     </g>
     <g id="line2d_6"/>
     <g id="text_3">
      <!-- 20 -->
      <defs>
       <path d="M 19.1875 8.296875 
L 53.609375 8.296875 
L 53.609375 0 
L 7.328125 0 
L 7.328125 8.296875 
Q 12.9375 14.109375 22.625 23.890625 
Q 32.328125 33.6875 34.8125 36.53125 
Q 39.546875 41.84375 41.421875 45.53125 
Q 43.3125 49.21875 43.3125 52.78125 
Q 43.3125 58.59375 39.234375 62.25 
Q 35.15625 65.921875 28.609375 65.921875 
Q 23.96875 65.921875 18.8125 64.3125 
Q 13.671875 62.703125 7.8125 59.421875 
L 7.8125 69.390625 
Q 13.765625 71.78125 18.9375 73 
Q 24.125 74.21875 28.421875 74.21875 
Q 39.75 74.21875 46.484375 68.546875 
Q 53.21875 62.890625 53.21875 53.421875 
Q 53.21875 48.921875 51.53125 44.890625 
Q 49.859375 40.875 45.40625 35.40625 
Q 44.1875 33.984375 37.640625 27.21875 
Q 31.109375 20.453125 19.1875 8.296875 
z
" id="DejaVuSans-32"/>
      </defs>
      <g style="fill:#262626;" transform="translate(132.720823 263.098437)scale(0.1 -0.1)">
       <use xlink:href="#DejaVuSans-32"/>
       <use x="63.623047" xlink:href="#DejaVuSans-30"/>
      </g>
     </g>
    </g>
    <g id="xtick_4">
     <g id="line2d_7">
      <path clip-path="url(#p6ff13be993)" d="M 181.624984 252 
L 181.624984 34.56 
" style="fill:none;stroke:#cccccc;stroke-linecap:round;stroke-width:0.8;"/>
     </g>
     <g id="line2d_8"/>
     <g id="text_4">
      <!-- 30 -->
      <defs>
       <path d="M 40.578125 39.3125 
Q 47.65625 37.796875 51.625 33 
Q 55.609375 28.21875 55.609375 21.1875 
Q 55.609375 10.40625 48.1875 4.484375 
Q 40.765625 -1.421875 27.09375 -1.421875 
Q 22.515625 -1.421875 17.65625 -0.515625 
Q 12.796875 0.390625 7.625 2.203125 
L 7.625 11.71875 
Q 11.71875 9.328125 16.59375 8.109375 
Q 21.484375 6.890625 26.8125 6.890625 
Q 36.078125 6.890625 40.9375 10.546875 
Q 45.796875 14.203125 45.796875 21.1875 
Q 45.796875 27.640625 41.28125 31.265625 
Q 36.765625 34.90625 28.71875 34.90625 
L 20.21875 34.90625 
L 20.21875 43.015625 
L 29.109375 43.015625 
Q 36.375 43.015625 40.234375 45.921875 
Q 44.09375 48.828125 44.09375 54.296875 
Q 44.09375 59.90625 40.109375 62.90625 
Q 36.140625 65.921875 28.71875 65.921875 
Q 24.65625 65.921875 20.015625 65.03125 
Q 15.375 64.15625 9.8125 62.3125 
L 9.8125 71.09375 
Q 15.4375 72.65625 20.34375 73.4375 
Q 25.25 74.21875 29.59375 74.21875 
Q 40.828125 74.21875 47.359375 69.109375 
Q 53.90625 64.015625 53.90625 55.328125 
Q 53.90625 49.265625 50.4375 45.09375 
Q 46.96875 40.921875 40.578125 39.3125 
z
" id="DejaVuSans-33"/>
      </defs>
      <g style="fill:#262626;" transform="translate(175.262484 263.098437)scale(0.1 -0.1)">
       <use xlink:href="#DejaVuSans-33"/>
       <use x="63.623047" xlink:href="#DejaVuSans-30"/>
      </g>
     </g>
    </g>
    <g id="xtick_5">
     <g id="line2d_9">
      <path clip-path="url(#p6ff13be993)" d="M 224.166645 252 
L 224.166645 34.56 
" style="fill:none;stroke:#cccccc;stroke-linecap:round;stroke-width:0.8;"/>
     </g>
     <g id="line2d_10"/>
     <g id="text_5">
      <!-- 40 -->
      <defs>
       <path d="M 37.796875 64.3125 
L 12.890625 25.390625 
L 37.796875 25.390625 
z
M 35.203125 72.90625 
L 47.609375 72.90625 
L 47.609375 25.390625 
L 58.015625 25.390625 
L 58.015625 17.1875 
L 47.609375 17.1875 
L 47.609375 0 
L 37.796875 0 
L 37.796875 17.1875 
L 4.890625 17.1875 
L 4.890625 26.703125 
z
" id="DejaVuSans-34"/>
      </defs>
      <g style="fill:#262626;" transform="translate(217.804145 263.098437)scale(0.1 -0.1)">
       <use xlink:href="#DejaVuSans-34"/>
       <use x="63.623047" xlink:href="#DejaVuSans-30"/>
      </g>
     </g>
    </g>
    <g id="xtick_6">
     <g id="line2d_11">
      <path clip-path="url(#p6ff13be993)" d="M 266.708307 252 
L 266.708307 34.56 
" style="fill:none;stroke:#cccccc;stroke-linecap:round;stroke-width:0.8;"/>
     </g>
     <g id="line2d_12"/>
     <g id="text_6">
      <!-- 50 -->
      <defs>
       <path d="M 10.796875 72.90625 
L 49.515625 72.90625 
L 49.515625 64.59375 
L 19.828125 64.59375 
L 19.828125 46.734375 
Q 21.96875 47.46875 24.109375 47.828125 
Q 26.265625 48.1875 28.421875 48.1875 
Q 40.625 48.1875 47.75 41.5 
Q 54.890625 34.8125 54.890625 23.390625 
Q 54.890625 11.625 47.5625 5.09375 
Q 40.234375 -1.421875 26.90625 -1.421875 
Q 22.3125 -1.421875 17.546875 -0.640625 
Q 12.796875 0.140625 7.71875 1.703125 
L 7.71875 11.625 
Q 12.109375 9.234375 16.796875 8.0625 
Q 21.484375 6.890625 26.703125 6.890625 
Q 35.15625 6.890625 40.078125 11.328125 
Q 45.015625 15.765625 45.015625 23.390625 
Q 45.015625 31 40.078125 35.4375 
Q 35.15625 39.890625 26.703125 39.890625 
Q 22.75 39.890625 18.8125 39.015625 
Q 14.890625 38.140625 10.796875 36.28125 
z
" id="DejaVuSans-35"/>
      </defs>
      <g style="fill:#262626;" transform="translate(260.345807 263.098437)scale(0.1 -0.1)">
       <use xlink:href="#DejaVuSans-35"/>
       <use x="63.623047" xlink:href="#DejaVuSans-30"/>
      </g>
     </g>
    </g>
    <g id="xtick_7">
     <g id="line2d_13">
      <path clip-path="url(#p6ff13be993)" d="M 309.249968 252 
L 309.249968 34.56 
" style="fill:none;stroke:#cccccc;stroke-linecap:round;stroke-width:0.8;"/>
     </g>
     <g id="line2d_14"/>
     <g id="text_7">
      <!-- 60 -->
      <defs>
       <path d="M 33.015625 40.375 
Q 26.375 40.375 22.484375 35.828125 
Q 18.609375 31.296875 18.609375 23.390625 
Q 18.609375 15.53125 22.484375 10.953125 
Q 26.375 6.390625 33.015625 6.390625 
Q 39.65625 6.390625 43.53125 10.953125 
Q 47.40625 15.53125 47.40625 23.390625 
Q 47.40625 31.296875 43.53125 35.828125 
Q 39.65625 40.375 33.015625 40.375 
z
M 52.59375 71.296875 
L 52.59375 62.3125 
Q 48.875 64.0625 45.09375 64.984375 
Q 41.3125 65.921875 37.59375 65.921875 
Q 27.828125 65.921875 22.671875 59.328125 
Q 17.53125 52.734375 16.796875 39.40625 
Q 19.671875 43.65625 24.015625 45.921875 
Q 28.375 48.1875 33.59375 48.1875 
Q 44.578125 48.1875 50.953125 41.515625 
Q 57.328125 34.859375 57.328125 23.390625 
Q 57.328125 12.15625 50.6875 5.359375 
Q 44.046875 -1.421875 33.015625 -1.421875 
Q 20.359375 -1.421875 13.671875 8.265625 
Q 6.984375 17.96875 6.984375 36.375 
Q 6.984375 53.65625 15.1875 63.9375 
Q 23.390625 74.21875 37.203125 74.21875 
Q 40.921875 74.21875 44.703125 73.484375 
Q 48.484375 72.75 52.59375 71.296875 
z
" id="DejaVuSans-36"/>
      </defs>
      <g style="fill:#262626;" transform="translate(302.887468 263.098437)scale(0.1 -0.1)">
       <use xlink:href="#DejaVuSans-36"/>
       <use x="63.623047" xlink:href="#DejaVuSans-30"/>
      </g>
     </g>
    </g>
    <g id="xtick_8">
     <g id="line2d_15">
      <path clip-path="url(#p6ff13be993)" d="M 351.791629 252 
L 351.791629 34.56 
" style="fill:none;stroke:#cccccc;stroke-linecap:round;stroke-width:0.8;"/>
     </g>
     <g id="line2d_16"/>
     <g id="text_8">
      <!-- 70 -->
      <defs>
       <path d="M 8.203125 72.90625 
L 55.078125 72.90625 
L 55.078125 68.703125 
L 28.609375 0 
L 18.3125 0 
L 43.21875 64.59375 
L 8.203125 64.59375 
z
" id="DejaVuSans-37"/>
      </defs>
      <g style="fill:#262626;" transform="translate(345.429129 263.098437)scale(0.1 -0.1)">
       <use xlink:href="#DejaVuSans-37"/>
       <use x="63.623047" xlink:href="#DejaVuSans-30"/>
      </g>
     </g>
    </g>
    <g id="text_9">
     <!-- time (s) -->
     <defs>
      <path d="M 18.3125 70.21875 
L 18.3125 54.6875 
L 36.8125 54.6875 
L 36.8125 47.703125 
L 18.3125 47.703125 
L 18.3125 18.015625 
Q 18.3125 11.328125 20.140625 9.421875 
Q 21.96875 7.515625 27.59375 7.515625 
L 36.8125 7.515625 
L 36.8125 0 
L 27.59375 0 
Q 17.1875 0 13.234375 3.875 
Q 9.28125 7.765625 9.28125 18.015625 
L 9.28125 47.703125 
L 2.6875 47.703125 
L 2.6875 54.6875 
L 9.28125 54.6875 
L 9.28125 70.21875 
z
" id="DejaVuSans-74"/>
      <path d="M 9.421875 54.6875 
L 18.40625 54.6875 
L 18.40625 0 
L 9.421875 0 
z
M 9.421875 75.984375 
L 18.40625 75.984375 
L 18.40625 64.59375 
L 9.421875 64.59375 
z
" id="DejaVuSans-69"/>
      <path d="M 52 44.1875 
Q 55.375 50.25 60.0625 53.125 
Q 64.75 56 71.09375 56 
Q 79.640625 56 84.28125 50.015625 
Q 88.921875 44.046875 88.921875 33.015625 
L 88.921875 0 
L 79.890625 0 
L 79.890625 32.71875 
Q 79.890625 40.578125 77.09375 44.375 
Q 74.3125 48.1875 68.609375 48.1875 
Q 61.625 48.1875 57.5625 43.546875 
Q 53.515625 38.921875 53.515625 30.90625 
L 53.515625 0 
L 44.484375 0 
L 44.484375 32.71875 
Q 44.484375 40.625 41.703125 44.40625 
Q 38.921875 48.1875 33.109375 48.1875 
Q 26.21875 48.1875 22.15625 43.53125 
Q 18.109375 38.875 18.109375 30.90625 
L 18.109375 0 
L 9.078125 0 
L 9.078125 54.6875 
L 18.109375 54.6875 
L 18.109375 46.1875 
Q 21.1875 51.21875 25.484375 53.609375 
Q 29.78125 56 35.6875 56 
Q 41.65625 56 45.828125 52.96875 
Q 50 49.953125 52 44.1875 
z
" id="DejaVuSans-6d"/>
      <path d="M 56.203125 29.59375 
L 56.203125 25.203125 
L 14.890625 25.203125 
Q 15.484375 15.921875 20.484375 11.0625 
Q 25.484375 6.203125 34.421875 6.203125 
Q 39.59375 6.203125 44.453125 7.46875 
Q 49.3125 8.734375 54.109375 11.28125 
L 54.109375 2.78125 
Q 49.265625 0.734375 44.1875 -0.34375 
Q 39.109375 -1.421875 33.890625 -1.421875 
Q 20.796875 -1.421875 13.15625 6.1875 
Q 5.515625 13.8125 5.515625 26.8125 
Q 5.515625 40.234375 12.765625 48.109375 
Q 20.015625 56 32.328125 56 
Q 43.359375 56 49.78125 48.890625 
Q 56.203125 41.796875 56.203125 29.59375 
z
M 47.21875 32.234375 
Q 47.125 39.59375 43.09375 43.984375 
Q 39.0625 48.390625 32.421875 48.390625 
Q 24.90625 48.390625 20.390625 44.140625 
Q 15.875 39.890625 15.1875 32.171875 
z
" id="DejaVuSans-65"/>
      <path id="DejaVuSans-20"/>
      <path d="M 31 75.875 
Q 24.46875 64.65625 21.28125 53.65625 
Q 18.109375 42.671875 18.109375 31.390625 
Q 18.109375 20.125 21.3125 9.0625 
Q 24.515625 -2 31 -13.1875 
L 23.1875 -13.1875 
Q 15.875 -1.703125 12.234375 9.375 
Q 8.59375 20.453125 8.59375 31.390625 
Q 8.59375 42.28125 12.203125 53.3125 
Q 15.828125 64.359375 23.1875 75.875 
z
" id="DejaVuSans-28"/>
      <path d="M 44.28125 53.078125 
L 44.28125 44.578125 
Q 40.484375 46.53125 36.375 47.5 
Q 32.28125 48.484375 27.875 48.484375 
Q 21.1875 48.484375 17.84375 46.4375 
Q 14.5 44.390625 14.5 40.28125 
Q 14.5 37.15625 16.890625 35.375 
Q 19.28125 33.59375 26.515625 31.984375 
L 29.59375 31.296875 
Q 39.15625 29.25 43.1875 25.515625 
Q 47.21875 21.78125 47.21875 15.09375 
Q 47.21875 7.46875 41.1875 3.015625 
Q 35.15625 -1.421875 24.609375 -1.421875 
Q 20.21875 -1.421875 15.453125 -0.5625 
Q 10.6875 0.296875 5.421875 2 
L 5.421875 11.28125 
Q 10.40625 8.6875 15.234375 7.390625 
Q 20.0625 6.109375 24.8125 6.109375 
Q 31.15625 6.109375 34.5625 8.28125 
Q 37.984375 10.453125 37.984375 14.40625 
Q 37.984375 18.0625 35.515625 20.015625 
Q 33.0625 21.96875 24.703125 23.78125 
L 21.578125 24.515625 
Q 13.234375 26.265625 9.515625 29.90625 
Q 5.8125 33.546875 5.8125 39.890625 
Q 5.8125 47.609375 11.28125 51.796875 
Q 16.75 56 26.8125 56 
Q 31.78125 56 36.171875 55.265625 
Q 40.578125 54.546875 44.28125 53.078125 
z
" id="DejaVuSans-73"/>
      <path d="M 8.015625 75.875 
L 15.828125 75.875 
Q 23.140625 64.359375 26.78125 53.3125 
Q 30.421875 42.28125 30.421875 31.390625 
Q 30.421875 20.453125 26.78125 9.375 
Q 23.140625 -1.703125 15.828125 -13.1875 
L 8.015625 -13.1875 
Q 14.5 -2 17.703125 9.0625 
Q 20.90625 20.125 20.90625 31.390625 
Q 20.90625 42.671875 17.703125 53.65625 
Q 14.5 64.65625 8.015625 75.875 
z
" id="DejaVuSans-29"/>
     </defs>
     <g style="fill:#262626;" transform="translate(202.008594 276.776563)scale(0.1 -0.1)">
      <use xlink:href="#DejaVuSans-74"/>
      <use x="39.208984" xlink:href="#DejaVuSans-69"/>
      <use x="66.992188" xlink:href="#DejaVuSans-6d"/>
      <use x="164.404297" xlink:href="#DejaVuSans-65"/>
      <use x="225.927734" xlink:href="#DejaVuSans-20"/>
      <use x="257.714844" xlink:href="#DejaVuSans-28"/>
      <use x="296.728516" xlink:href="#DejaVuSans-73"/>
      <use x="348.828125" xlink:href="#DejaVuSans-29"/>
     </g>
    </g>
   </g>
   <g id="matplotlib.axis_2">
    <g id="ytick_1">
     <g id="line2d_17">
      <path clip-path="url(#p6ff13be993)" d="M 54 252 
L 388.8 252 
" style="fill:none;stroke:#cccccc;stroke-linecap:round;stroke-width:0.8;"/>
     </g>
     <g id="line2d_18"/>
     <g id="text_10">
      <!-- 0 -->
      <g style="fill:#262626;" transform="translate(44.1375 255.799219)scale(0.1 -0.1)">
       <use xlink:href="#DejaVuSans-30"/>
      </g>
     </g>
    </g>
    <g id="ytick_2">
     <g id="line2d_19">
      <path clip-path="url(#p6ff13be993)" d="M 54 208.12219 
L 388.8 208.12219 
" style="fill:none;stroke:#cccccc;stroke-linecap:round;stroke-width:0.8;"/>
     </g>
     <g id="line2d_20"/>
     <g id="text_11">
      <!-- 20000 -->
      <g style="fill:#262626;" transform="translate(18.6875 211.921408)scale(0.1 -0.1)">
       <use xlink:href="#DejaVuSans-32"/>
       <use x="63.623047" xlink:href="#DejaVuSans-30"/>
       <use x="127.246094" xlink:href="#DejaVuSans-30"/>
       <use x="190.869141" xlink:href="#DejaVuSans-30"/>
       <use x="254.492188" xlink:href="#DejaVuSans-30"/>
      </g>
     </g>
    </g>
    <g id="ytick_3">
     <g id="line2d_21">
      <path clip-path="url(#p6ff13be993)" d="M 54 164.244379 
L 388.8 164.244379 
" style="fill:none;stroke:#cccccc;stroke-linecap:round;stroke-width:0.8;"/>
     </g>
     <g id="line2d_22"/>
     <g id="text_12">
      <!-- 40000 -->
      <g style="fill:#262626;" transform="translate(18.6875 168.043598)scale(0.1 -0.1)">
       <use xlink:href="#DejaVuSans-34"/>
       <use x="63.623047" xlink:href="#DejaVuSans-30"/>
       <use x="127.246094" xlink:href="#DejaVuSans-30"/>
       <use x="190.869141" xlink:href="#DejaVuSans-30"/>
       <use x="254.492188" xlink:href="#DejaVuSans-30"/>
      </g>
     </g>
    </g>
    <g id="ytick_4">
     <g id="line2d_23">
      <path clip-path="url(#p6ff13be993)" d="M 54 120.366569 
L 388.8 120.366569 
" style="fill:none;stroke:#cccccc;stroke-linecap:round;stroke-width:0.8;"/>
     </g>
     <g id="line2d_24"/>
     <g id="text_13">
      <!-- 60000 -->
      <g style="fill:#262626;" transform="translate(18.6875 124.165787)scale(0.1 -0.1)">
       <use xlink:href="#DejaVuSans-36"/>
       <use x="63.623047" xlink:href="#DejaVuSans-30"/>
       <use x="127.246094" xlink:href="#DejaVuSans-30"/>
       <use x="190.869141" xlink:href="#DejaVuSans-30"/>
       <use x="254.492188" xlink:href="#DejaVuSans-30"/>
      </g>
     </g>
    </g>
    <g id="ytick_5">
     <g id="line2d_25">
      <path clip-path="url(#p6ff13be993)" d="M 54 76.488758 
L 388.8 76.488758 
" style="fill:none;stroke:#cccccc;stroke-linecap:round;stroke-width:0.8;"/>
     </g>
     <g id="line2d_26"/>
     <g id="text_14">
      <!-- 80000 -->
      <defs>
       <path d="M 31.78125 34.625 
Q 24.75 34.625 20.71875 30.859375 
Q 16.703125 27.09375 16.703125 20.515625 
Q 16.703125 13.921875 20.71875 10.15625 
Q 24.75 6.390625 31.78125 6.390625 
Q 38.8125 6.390625 42.859375 10.171875 
Q 46.921875 13.96875 46.921875 20.515625 
Q 46.921875 27.09375 42.890625 30.859375 
Q 38.875 34.625 31.78125 34.625 
z
M 21.921875 38.8125 
Q 15.578125 40.375 12.03125 44.71875 
Q 8.5 49.078125 8.5 55.328125 
Q 8.5 64.0625 14.71875 69.140625 
Q 20.953125 74.21875 31.78125 74.21875 
Q 42.671875 74.21875 48.875 69.140625 
Q 55.078125 64.0625 55.078125 55.328125 
Q 55.078125 49.078125 51.53125 44.71875 
Q 48 40.375 41.703125 38.8125 
Q 48.828125 37.15625 52.796875 32.3125 
Q 56.78125 27.484375 56.78125 20.515625 
Q 56.78125 9.90625 50.3125 4.234375 
Q 43.84375 -1.421875 31.78125 -1.421875 
Q 19.734375 -1.421875 13.25 4.234375 
Q 6.78125 9.90625 6.78125 20.515625 
Q 6.78125 27.484375 10.78125 32.3125 
Q 14.796875 37.15625 21.921875 38.8125 
z
M 18.3125 54.390625 
Q 18.3125 48.734375 21.84375 45.5625 
Q 25.390625 42.390625 31.78125 42.390625 
Q 38.140625 42.390625 41.71875 45.5625 
Q 45.3125 48.734375 45.3125 54.390625 
Q 45.3125 60.0625 41.71875 63.234375 
Q 38.140625 66.40625 31.78125 66.40625 
Q 25.390625 66.40625 21.84375 63.234375 
Q 18.3125 60.0625 18.3125 54.390625 
z
" id="DejaVuSans-38"/>
      </defs>
      <g style="fill:#262626;" transform="translate(18.6875 80.287977)scale(0.1 -0.1)">
       <use xlink:href="#DejaVuSans-38"/>
       <use x="63.623047" xlink:href="#DejaVuSans-30"/>
       <use x="127.246094" xlink:href="#DejaVuSans-30"/>
       <use x="190.869141" xlink:href="#DejaVuSans-30"/>
       <use x="254.492188" xlink:href="#DejaVuSans-30"/>
      </g>
     </g>
    </g>
    <g id="text_15">
     <!-- traffic (kB/s) -->
     <defs>
      <path d="M 41.109375 46.296875 
Q 39.59375 47.171875 37.8125 47.578125 
Q 36.03125 48 33.890625 48 
Q 26.265625 48 22.1875 43.046875 
Q 18.109375 38.09375 18.109375 28.8125 
L 18.109375 0 
L 9.078125 0 
L 9.078125 54.6875 
L 18.109375 54.6875 
L 18.109375 46.1875 
Q 20.953125 51.171875 25.484375 53.578125 
Q 30.03125 56 36.53125 56 
Q 37.453125 56 38.578125 55.875 
Q 39.703125 55.765625 41.0625 55.515625 
z
" id="DejaVuSans-72"/>
      <path d="M 34.28125 27.484375 
Q 23.390625 27.484375 19.1875 25 
Q 14.984375 22.515625 14.984375 16.5 
Q 14.984375 11.71875 18.140625 8.90625 
Q 21.296875 6.109375 26.703125 6.109375 
Q 34.1875 6.109375 38.703125 11.40625 
Q 43.21875 16.703125 43.21875 25.484375 
L 43.21875 27.484375 
z
M 52.203125 31.203125 
L 52.203125 0 
L 43.21875 0 
L 43.21875 8.296875 
Q 40.140625 3.328125 35.546875 0.953125 
Q 30.953125 -1.421875 24.3125 -1.421875 
Q 15.921875 -1.421875 10.953125 3.296875 
Q 6 8.015625 6 15.921875 
Q 6 25.140625 12.171875 29.828125 
Q 18.359375 34.515625 30.609375 34.515625 
L 43.21875 34.515625 
L 43.21875 35.40625 
Q 43.21875 41.609375 39.140625 45 
Q 35.0625 48.390625 27.6875 48.390625 
Q 23 48.390625 18.546875 47.265625 
Q 14.109375 46.140625 10.015625 43.890625 
L 10.015625 52.203125 
Q 14.9375 54.109375 19.578125 55.046875 
Q 24.21875 56 28.609375 56 
Q 40.484375 56 46.34375 49.84375 
Q 52.203125 43.703125 52.203125 31.203125 
z
" id="DejaVuSans-61"/>
      <path d="M 37.109375 75.984375 
L 37.109375 68.5 
L 28.515625 68.5 
Q 23.6875 68.5 21.796875 66.546875 
Q 19.921875 64.59375 19.921875 59.515625 
L 19.921875 54.6875 
L 34.71875 54.6875 
L 34.71875 47.703125 
L 19.921875 47.703125 
L 19.921875 0 
L 10.890625 0 
L 10.890625 47.703125 
L 2.296875 47.703125 
L 2.296875 54.6875 
L 10.890625 54.6875 
L 10.890625 58.5 
Q 10.890625 67.625 15.140625 71.796875 
Q 19.390625 75.984375 28.609375 75.984375 
z
" id="DejaVuSans-66"/>
      <path d="M 48.78125 52.59375 
L 48.78125 44.1875 
Q 44.96875 46.296875 41.140625 47.34375 
Q 37.3125 48.390625 33.40625 48.390625 
Q 24.65625 48.390625 19.8125 42.84375 
Q 14.984375 37.3125 14.984375 27.296875 
Q 14.984375 17.28125 19.8125 11.734375 
Q 24.65625 6.203125 33.40625 6.203125 
Q 37.3125 6.203125 41.140625 7.25 
Q 44.96875 8.296875 48.78125 10.40625 
L 48.78125 2.09375 
Q 45.015625 0.34375 40.984375 -0.53125 
Q 36.96875 -1.421875 32.421875 -1.421875 
Q 20.0625 -1.421875 12.78125 6.34375 
Q 5.515625 14.109375 5.515625 27.296875 
Q 5.515625 40.671875 12.859375 48.328125 
Q 20.21875 56 33.015625 56 
Q 37.15625 56 41.109375 55.140625 
Q 45.0625 54.296875 48.78125 52.59375 
z
" id="DejaVuSans-63"/>
      <path d="M 9.078125 75.984375 
L 18.109375 75.984375 
L 18.109375 31.109375 
L 44.921875 54.6875 
L 56.390625 54.6875 
L 27.390625 29.109375 
L 57.625 0 
L 45.90625 0 
L 18.109375 26.703125 
L 18.109375 0 
L 9.078125 0 
z
" id="DejaVuSans-6b"/>
      <path d="M 19.671875 34.8125 
L 19.671875 8.109375 
L 35.5 8.109375 
Q 43.453125 8.109375 47.28125 11.40625 
Q 51.125 14.703125 51.125 21.484375 
Q 51.125 28.328125 47.28125 31.5625 
Q 43.453125 34.8125 35.5 34.8125 
z
M 19.671875 64.796875 
L 19.671875 42.828125 
L 34.28125 42.828125 
Q 41.5 42.828125 45.03125 45.53125 
Q 48.578125 48.25 48.578125 53.8125 
Q 48.578125 59.328125 45.03125 62.0625 
Q 41.5 64.796875 34.28125 64.796875 
z
M 9.8125 72.90625 
L 35.015625 72.90625 
Q 46.296875 72.90625 52.390625 68.21875 
Q 58.5 63.53125 58.5 54.890625 
Q 58.5 48.1875 55.375 44.234375 
Q 52.25 40.28125 46.1875 39.3125 
Q 53.46875 37.75 57.5 32.78125 
Q 61.53125 27.828125 61.53125 20.40625 
Q 61.53125 10.640625 54.890625 5.3125 
Q 48.25 0 35.984375 0 
L 9.8125 0 
z
" id="DejaVuSans-42"/>
      <path d="M 25.390625 72.90625 
L 33.6875 72.90625 
L 8.296875 -9.28125 
L 0 -9.28125 
z
" id="DejaVuSans-2f"/>
     </defs>
     <g style="fill:#262626;" transform="translate(12.607812 174.12375)rotate(-90)scale(0.1 -0.1)">
      <use xlink:href="#DejaVuSans-74"/>
      <use x="39.208984" xlink:href="#DejaVuSans-72"/>
      <use x="80.322266" xlink:href="#DejaVuSans-61"/>
      <use x="141.601562" xlink:href="#DejaVuSans-66"/>
      <use x="176.806641" xlink:href="#DejaVuSans-66"/>
      <use x="212.011719" xlink:href="#DejaVuSans-69"/>
      <use x="239.794922" xlink:href="#DejaVuSans-63"/>
      <use x="294.775391" xlink:href="#DejaVuSans-20"/>
      <use x="326.5625" xlink:href="#DejaVuSans-28"/>
      <use x="365.576172" xlink:href="#DejaVuSans-6b"/>
      <use x="423.486328" xlink:href="#DejaVuSans-42"/>
      <use x="492.089844" xlink:href="#DejaVuSans-2f"/>
      <use x="525.78125" xlink:href="#DejaVuSans-73"/>
      <use x="577.880859" xlink:href="#DejaVuSans-29"/>
     </g>
    </g>
   </g>
   <g id="PolyCollection_1">
    <path clip-path="url(#p6ff13be993)" d="M 58.311655 252 
L 58.311655 252 
L 62.62331 252 
L 66.934965 252 
L 71.246619 252 
L 75.558274 252 
L 79.869929 252 
L 84.181584 252 
L 88.493239 252 
L 92.804894 252 
L 97.116549 252 
L 101.428203 252 
L 105.739858 252 
L 110.051513 252 
L 114.363168 252 
L 118.674823 252 
L 122.986478 252 
L 127.298133 252 
L 131.609788 252 
L 135.921442 252 
L 140.233097 252 
L 144.544752 252 
L 148.856407 252 
L 153.168062 252 
L 157.479717 252 
L 161.791372 252 
L 166.103026 252 
L 170.414681 252 
L 174.726336 252 
L 179.037991 252 
L 183.349646 252 
L 187.661301 252 
L 191.972956 252 
L 196.28461 252 
L 200.596265 252 
L 204.90792 252 
L 209.219575 252 
L 213.53123 252 
L 217.842885 252 
L 222.15454 252 
L 226.466194 252 
L 230.777849 252 
L 235.089504 252 
L 239.401159 252 
L 243.712814 252 
L 248.024469 252 
L 252.336124 252 
L 256.647778 252 
L 260.959433 252 
L 265.271088 252 
L 269.582743 252 
L 273.894398 252 
L 278.206053 252 
L 282.517708 252 
L 286.829363 252 
L 291.141017 252 
L 295.452672 252 
L 299.764327 252 
L 304.075982 252 
L 308.387637 252 
L 312.699292 252 
L 317.010947 252 
L 321.322601 252 
L 325.634256 252 
L 329.945911 252 
L 334.257566 252 
L 338.569221 252 
L 342.880876 252 
L 347.192531 252 
L 351.504185 252 
L 355.81584 252 
L 360.127495 252 
L 364.43915 252 
L 368.750805 252 
L 373.06246 252 
L 373.06246 252 
L 373.06246 252 
L 368.750805 247.612219 
L 364.43915 233.255399 
L 360.127495 234.738469 
L 355.81584 249.58672 
L 351.504185 243.005049 
L 347.192531 246.295885 
L 342.880876 247.068134 
L 338.569221 252 
L 334.257566 226.243725 
L 329.945911 224.874738 
L 325.634256 224.927391 
L 321.322601 252 
L 317.010947 252 
L 312.699292 252 
L 308.387637 241.69749 
L 304.075982 232.272536 
L 299.764327 252 
L 295.452672 252 
L 291.141017 252 
L 286.829363 229.806603 
L 282.517708 239.670335 
L 278.206053 192.817609 
L 273.894398 252 
L 269.582743 252 
L 265.271088 252 
L 260.959433 252 
L 256.647778 252 
L 252.336124 252 
L 248.024469 222.408805 
L 243.712814 244.602201 
L 239.401159 237.204402 
L 235.089504 244.602201 
L 230.777849 252 
L 226.466194 252 
L 222.15454 252 
L 217.842885 200.215408 
L 213.53123 202.681341 
L 209.219575 222.408805 
L 204.90792 252 
L 200.596265 252 
L 196.28461 252 
L 191.972956 227.340671 
L 187.661301 252 
L 183.349646 252 
L 179.037991 252 
L 174.726336 227.340671 
L 170.414681 252 
L 166.103026 252 
L 161.791372 252 
L 157.479717 252 
L 153.168062 252 
L 148.856407 252 
L 144.544752 252 
L 140.233097 252 
L 135.921442 252 
L 131.609788 252 
L 127.298133 252 
L 122.986478 252 
L 118.674823 252 
L 114.363168 252 
L 110.051513 252 
L 105.739858 252 
L 101.428203 252 
L 97.116549 252 
L 92.804894 252 
L 88.493239 252 
L 84.181584 252 
L 79.869929 252 
L 75.558274 252 
L 71.246619 252 
L 66.934965 252 
L 62.62331 252 
L 58.311655 252 
z
" style="fill:#f77189;"/>
   </g>
   <g id="PolyCollection_2">
    <path clip-path="url(#p6ff13be993)" d="M 58.311655 252 
L 58.311655 252 
L 62.62331 252 
L 66.934965 252 
L 71.246619 252 
L 75.558274 252 
L 79.869929 252 
L 84.181584 252 
L 88.493239 252 
L 92.804894 252 
L 97.116549 252 
L 101.428203 252 
L 105.739858 252 
L 110.051513 252 
L 114.363168 252 
L 118.674823 252 
L 122.986478 252 
L 127.298133 252 
L 131.609788 252 
L 135.921442 252 
L 140.233097 252 
L 144.544752 252 
L 148.856407 252 
L 153.168062 252 
L 157.479717 252 
L 161.791372 252 
L 166.103026 252 
L 170.414681 252 
L 174.726336 227.340671 
L 179.037991 252 
L 183.349646 252 
L 187.661301 252 
L 191.972956 227.340671 
L 196.28461 252 
L 200.596265 252 
L 204.90792 252 
L 209.219575 222.408805 
L 213.53123 202.681341 
L 217.842885 200.215408 
L 222.15454 252 
L 226.466194 252 
L 230.777849 252 
L 235.089504 244.602201 
L 239.401159 237.204402 
L 243.712814 244.602201 
L 248.024469 222.408805 
L 252.336124 252 
L 256.647778 252 
L 260.959433 252 
L 265.271088 252 
L 269.582743 252 
L 273.894398 252 
L 278.206053 192.817609 
L 282.517708 239.670335 
L 286.829363 229.806603 
L 291.141017 252 
L 295.452672 252 
L 299.764327 252 
L 304.075982 232.272536 
L 308.387637 241.69749 
L 312.699292 252 
L 317.010947 252 
L 321.322601 252 
L 325.634256 224.927391 
L 329.945911 224.874738 
L 334.257566 226.243725 
L 338.569221 252 
L 342.880876 247.068134 
L 347.192531 246.295885 
L 351.504185 243.005049 
L 355.81584 249.58672 
L 360.127495 234.738469 
L 364.43915 233.255399 
L 368.750805 247.612219 
L 373.06246 252 
L 373.06246 252 
L 373.06246 252 
L 368.750805 246.954052 
L 364.43915 227.331895 
L 360.127495 234.738469 
L 355.81584 249.58672 
L 351.504185 242.566271 
L 347.192531 243.663216 
L 342.880876 247.068134 
L 338.569221 244.163423 
L 334.257566 226.243725 
L 329.945911 223.119625 
L 325.634256 221.855944 
L 321.322601 252 
L 317.010947 237.204402 
L 312.699292 252 
L 308.387637 239.231557 
L 304.075982 231.175591 
L 299.764327 251.341833 
L 295.452672 251.561222 
L 291.141017 252 
L 286.829363 229.587214 
L 282.517708 239.231557 
L 278.206053 155.609226 
L 273.894398 242.136268 
L 269.582743 202.681341 
L 265.271088 249.314678 
L 260.959433 251.122444 
L 256.647778 252 
L 252.336124 252 
L 248.024469 192.378831 
L 243.712814 234.738469 
L 239.401159 232.272536 
L 235.089504 239.942378 
L 230.777849 239.670335 
L 226.466194 239.450946 
L 222.15454 244.602201 
L 217.842885 200.215408 
L 213.53123 195.064153 
L 209.219575 222.408805 
L 204.90792 251.341833 
L 200.596265 242.136268 
L 196.28461 252 
L 191.972956 222.189416 
L 187.661301 251.780611 
L 183.349646 244.602201 
L 179.037991 252 
L 174.726336 227.340671 
L 170.414681 252 
L 166.103026 249.534067 
L 161.791372 222.408805 
L 157.479717 252 
L 153.168062 252 
L 148.856407 239.670335 
L 144.544752 252 
L 140.233097 252 
L 135.921442 252 
L 131.609788 229.806603 
L 127.298133 252 
L 122.986478 252 
L 118.674823 252 
L 114.363168 232.272536 
L 110.051513 252 
L 105.739858 239.670335 
L 101.428203 247.068134 
L 97.116549 252 
L 92.804894 219.942872 
L 88.493239 252 
L 84.181584 242.136268 
L 79.869929 252 
L 75.558274 244.602201 
L 71.246619 252 
L 66.934965 252 
L 62.62331 252 
L 58.311655 252 
z
" style="fill:#dc8932;"/>
   </g>
   <g id="PolyCollection_3">
    <path clip-path="url(#p6ff13be993)" d="M 58.311655 252 
L 58.311655 252 
L 62.62331 252 
L 66.934965 252 
L 71.246619 252 
L 75.558274 244.602201 
L 79.869929 252 
L 84.181584 242.136268 
L 88.493239 252 
L 92.804894 219.942872 
L 97.116549 252 
L 101.428203 247.068134 
L 105.739858 239.670335 
L 110.051513 252 
L 114.363168 232.272536 
L 118.674823 252 
L 122.986478 252 
L 127.298133 252 
L 131.609788 229.806603 
L 135.921442 252 
L 140.233097 252 
L 144.544752 252 
L 148.856407 239.670335 
L 153.168062 252 
L 157.479717 252 
L 161.791372 222.408805 
L 166.103026 249.534067 
L 170.414681 252 
L 174.726336 227.340671 
L 179.037991 252 
L 183.349646 244.602201 
L 187.661301 251.780611 
L 191.972956 222.189416 
L 196.28461 252 
L 200.596265 242.136268 
L 204.90792 251.341833 
L 209.219575 222.408805 
L 213.53123 195.064153 
L 217.842885 200.215408 
L 222.15454 244.602201 
L 226.466194 239.450946 
L 230.777849 239.670335 
L 235.089504 239.942378 
L 239.401159 232.272536 
L 243.712814 234.738469 
L 248.024469 192.378831 
L 252.336124 252 
L 256.647778 252 
L 260.959433 251.122444 
L 265.271088 249.314678 
L 269.582743 202.681341 
L 273.894398 242.136268 
L 278.206053 155.609226 
L 282.517708 239.231557 
L 286.829363 229.587214 
L 291.141017 252 
L 295.452672 251.561222 
L 299.764327 251.341833 
L 304.075982 231.175591 
L 308.387637 239.231557 
L 312.699292 252 
L 317.010947 237.204402 
L 321.322601 252 
L 325.634256 221.855944 
L 329.945911 223.119625 
L 334.257566 226.243725 
L 338.569221 244.163423 
L 342.880876 247.068134 
L 347.192531 243.663216 
L 351.504185 242.566271 
L 355.81584 249.58672 
L 360.127495 234.738469 
L 364.43915 227.331895 
L 368.750805 246.954052 
L 373.06246 252 
L 373.06246 252 
L 373.06246 252 
L 368.750805 237.300933 
L 364.43915 224.479837 
L 360.127495 232.272536 
L 355.81584 248.489775 
L 351.504185 234.887654 
L 347.192531 239.714213 
L 342.880876 247.068134 
L 338.569221 244.163423 
L 334.257566 223.611057 
L 329.945911 223.119625 
L 325.634256 218.073677 
L 321.322601 252 
L 317.010947 237.204402 
L 312.699292 251.780611 
L 308.387637 239.012168 
L 304.075982 226.243725 
L 299.764327 251.341833 
L 295.452672 251.561222 
L 291.141017 252 
L 286.829363 182.734488 
L 282.517708 239.231557 
L 278.206053 111.222433 
L 273.894398 187.885743 
L 269.582743 202.681341 
L 265.271088 249.314678 
L 260.959433 251.122444 
L 256.647778 252 
L 252.336124 252 
L 248.024469 177.583233 
L 243.712814 217.476939 
L 239.401159 232.272536 
L 235.089504 210.351182 
L 230.777849 239.670335 
L 226.466194 239.450946 
L 222.15454 244.602201 
L 217.842885 200.215408 
L 213.53123 135.881762 
L 209.219575 222.408805 
L 204.90792 187.227576 
L 200.596265 242.136268 
L 196.28461 252 
L 191.972956 212.325684 
L 187.661301 224.655349 
L 183.349646 244.602201 
L 179.037991 252 
L 174.726336 217.476939 
L 170.414681 249.534067 
L 166.103026 249.534067 
L 161.791372 222.408805 
L 157.479717 252 
L 153.168062 252 
L 148.856407 239.670335 
L 144.544752 252 
L 140.233097 252 
L 135.921442 252 
L 131.609788 229.806603 
L 127.298133 252 
L 122.986478 252 
L 118.674823 252 
L 114.363168 232.272536 
L 110.051513 252 
L 105.739858 239.670335 
L 101.428203 247.068134 
L 97.116549 252 
L 92.804894 219.942872 
L 88.493239 252 
L 84.181584 242.136268 
L 79.869929 252 
L 75.558274 244.602201 
L 71.246619 252 
L 66.934965 252 
L 62.62331 252 
L 58.311655 252 
z
" style="fill:#ae9d31;"/>
   </g>
   <g id="PolyCollection_4">
    <path clip-path="url(#p6ff13be993)" d="M 58.311655 252 
L 58.311655 252 
L 62.62331 252 
L 66.934965 252 
L 71.246619 252 
L 75.558274 244.602201 
L 79.869929 252 
L 84.181584 242.136268 
L 88.493239 252 
L 92.804894 219.942872 
L 97.116549 252 
L 101.428203 247.068134 
L 105.739858 239.670335 
L 110.051513 252 
L 114.363168 232.272536 
L 118.674823 252 
L 122.986478 252 
L 127.298133 252 
L 131.609788 229.806603 
L 135.921442 252 
L 140.233097 252 
L 144.544752 252 
L 148.856407 239.670335 
L 153.168062 252 
L 157.479717 252 
L 161.791372 222.408805 
L 166.103026 249.534067 
L 170.414681 249.534067 
L 174.726336 217.476939 
L 179.037991 252 
L 183.349646 244.602201 
L 187.661301 224.655349 
L 191.972956 212.325684 
L 196.28461 252 
L 200.596265 242.136268 
L 204.90792 187.227576 
L 209.219575 222.408805 
L 213.53123 135.881762 
L 217.842885 200.215408 
L 222.15454 244.602201 
L 226.466194 239.450946 
L 230.777849 239.670335 
L 235.089504 210.351182 
L 239.401159 232.272536 
L 243.712814 217.476939 
L 248.024469 177.583233 
L 252.336124 252 
L 256.647778 252 
L 260.959433 251.122444 
L 265.271088 249.314678 
L 269.582743 202.681341 
L 273.894398 187.885743 
L 278.206053 111.222433 
L 282.517708 239.231557 
L 286.829363 182.734488 
L 291.141017 252 
L 295.452672 251.561222 
L 299.764327 251.341833 
L 304.075982 226.243725 
L 308.387637 239.012168 
L 312.699292 251.780611 
L 317.010947 237.204402 
L 321.322601 252 
L 325.634256 218.073677 
L 329.945911 223.119625 
L 334.257566 223.611057 
L 338.569221 244.163423 
L 342.880876 247.068134 
L 347.192531 239.714213 
L 351.504185 234.887654 
L 355.81584 248.489775 
L 360.127495 232.272536 
L 364.43915 224.479837 
L 368.750805 237.300933 
L 373.06246 252 
L 373.06246 251.341833 
L 373.06246 251.341833 
L 368.750805 235.545821 
L 364.43915 219.433889 
L 360.127495 232.272536 
L 355.81584 248.489775 
L 351.504185 227.209037 
L 347.192531 239.714213 
L 342.880876 246.629356 
L 338.569221 236.765624 
L 334.257566 223.611057 
L 329.945911 213.747325 
L 325.634256 212.044866 
L 321.322601 252 
L 317.010947 202.681341 
L 312.699292 251.122444 
L 308.387637 239.012168 
L 304.075982 225.804947 
L 299.764327 250.025499 
L 295.452672 251.561222 
L 291.141017 252 
L 286.829363 180.049166 
L 282.517708 197.310697 
L 278.206053 109.028542 
L 273.894398 187.885743 
L 269.582743 175.556079 
L 265.271088 249.314678 
L 260.959433 250.903055 
L 256.647778 249.367331 
L 252.336124 244.602201 
L 248.024469 166.622556 
L 243.712814 195.283542 
L 239.401159 215.011006 
L 235.089504 209.693015 
L 230.777849 237.204402 
L 226.466194 219.723483 
L 222.15454 229.806603 
L 217.842885 160.760481 
L 213.53123 135.881762 
L 209.219575 221.531248 
L 204.90792 187.227576 
L 200.596265 242.136268 
L 196.28461 202.681341 
L 191.972956 197.530086 
L 187.661301 224.655349 
L 183.349646 242.136268 
L 179.037991 242.136268 
L 174.726336 211.228739 
L 170.414681 249.534067 
L 166.103026 249.534067 
L 161.791372 222.408805 
L 157.479717 237.204402 
L 153.168062 244.602201 
L 148.856407 239.670335 
L 144.544752 252 
L 140.233097 252 
L 135.921442 252 
L 131.609788 229.806603 
L 127.298133 232.272536 
L 122.986478 232.272536 
L 118.674823 252 
L 114.363168 232.272536 
L 110.051513 252 
L 105.739858 239.670335 
L 101.428203 247.068134 
L 97.116549 252 
L 92.804894 219.942872 
L 88.493239 252 
L 84.181584 242.136268 
L 79.869929 252 
L 75.558274 244.602201 
L 71.246619 252 
L 66.934965 252 
L 62.62331 252 
L 58.311655 252 
z
" style="fill:#77ab31;"/>
   </g>
   <g id="PolyCollection_5">
    <path clip-path="url(#p6ff13be993)" d="M 58.311655 252 
L 58.311655 252 
L 62.62331 252 
L 66.934965 252 
L 71.246619 252 
L 75.558274 244.602201 
L 79.869929 252 
L 84.181584 242.136268 
L 88.493239 252 
L 92.804894 219.942872 
L 97.116549 252 
L 101.428203 247.068134 
L 105.739858 239.670335 
L 110.051513 252 
L 114.363168 232.272536 
L 118.674823 252 
L 122.986478 232.272536 
L 127.298133 232.272536 
L 131.609788 229.806603 
L 135.921442 252 
L 140.233097 252 
L 144.544752 252 
L 148.856407 239.670335 
L 153.168062 244.602201 
L 157.479717 237.204402 
L 161.791372 222.408805 
L 166.103026 249.534067 
L 170.414681 249.534067 
L 174.726336 211.228739 
L 179.037991 242.136268 
L 183.349646 242.136268 
L 187.661301 224.655349 
L 191.972956 197.530086 
L 196.28461 202.681341 
L 200.596265 242.136268 
L 204.90792 187.227576 
L 209.219575 221.531248 
L 213.53123 135.881762 
L 217.842885 160.760481 
L 222.15454 229.806603 
L 226.466194 219.723483 
L 230.777849 237.204402 
L 235.089504 209.693015 
L 239.401159 215.011006 
L 243.712814 195.283542 
L 248.024469 166.622556 
L 252.336124 244.602201 
L 256.647778 249.367331 
L 260.959433 250.903055 
L 265.271088 249.314678 
L 269.582743 175.556079 
L 273.894398 187.885743 
L 278.206053 109.028542 
L 282.517708 197.310697 
L 286.829363 180.049166 
L 291.141017 252 
L 295.452672 251.561222 
L 299.764327 250.025499 
L 304.075982 225.804947 
L 308.387637 239.012168 
L 312.699292 251.122444 
L 317.010947 202.681341 
L 321.322601 252 
L 325.634256 212.044866 
L 329.945911 213.747325 
L 334.257566 223.611057 
L 338.569221 236.765624 
L 342.880876 246.629356 
L 347.192531 239.714213 
L 351.504185 227.209037 
L 355.81584 248.489775 
L 360.127495 232.272536 
L 364.43915 219.433889 
L 368.750805 235.545821 
L 373.06246 251.341833 
L 373.06246 251.341833 
L 373.06246 251.341833 
L 368.750805 235.545821 
L 364.43915 219.433889 
L 360.127495 232.053147 
L 355.81584 248.489775 
L 351.504185 225.453925 
L 347.192531 239.056046 
L 342.880876 244.874244 
L 338.569221 229.367825 
L 334.257566 218.679191 
L 329.945911 213.747325 
L 325.634256 206.016055 
L 321.322601 239.670335 
L 317.010947 197.310697 
L 312.699292 251.122444 
L 308.387637 238.354001 
L 304.075982 224.488613 
L 299.764327 243.777298 
L 295.452672 251.561222 
L 291.141017 249.806109 
L 286.829363 180.049166 
L 282.517708 197.310697 
L 278.206053 109.028542 
L 273.894398 182.953877 
L 269.582743 153.143293 
L 265.271088 246.848745 
L 260.959433 248.270386 
L 256.647778 248.270386 
L 252.336124 243.505256 
L 248.024469 146.236926 
L 243.712814 188.815953 
L 239.401159 213.914061 
L 235.089504 199.829283 
L 230.777849 217.529592 
L 226.466194 197.530086 
L 222.15454 221.970027 
L 217.842885 160.760481 
L 213.53123 130.949896 
L 209.219575 221.531248 
L 204.90792 187.227576 
L 200.596265 228.051491 
L 196.28461 202.461952 
L 191.972956 192.59822 
L 187.661301 224.655349 
L 183.349646 223.339014 
L 179.037991 242.136268 
L 174.726336 208.762806 
L 170.414681 249.534067 
L 166.103026 247.068134 
L 161.791372 204.708496 
L 157.479717 237.204402 
L 153.168062 244.602201 
L 148.856407 219.942872 
L 144.544752 250.903055 
L 140.233097 252 
L 135.921442 252 
L 131.609788 211.886906 
L 127.298133 232.272536 
L 122.986478 232.272536 
L 118.674823 252 
L 114.363168 212.106295 
L 110.051513 252 
L 105.739858 224.874738 
L 101.428203 227.340671 
L 97.116549 252 
L 92.804894 155.828615 
L 88.493239 252 
L 84.181584 217.476939 
L 79.869929 252 
L 75.558274 222.408805 
L 71.246619 252 
L 66.934965 252 
L 62.62331 252 
L 58.311655 252 
z
" style="fill:#33b07a;"/>
   </g>
   <g id="PolyCollection_6">
    <path clip-path="url(#p6ff13be993)" d="M 58.311655 252 
L 58.311655 252 
L 62.62331 252 
L 66.934965 252 
L 71.246619 252 
L 75.558274 222.408805 
L 79.869929 252 
L 84.181584 217.476939 
L 88.493239 252 
L 92.804894 155.828615 
L 97.116549 252 
L 101.428203 227.340671 
L 105.739858 224.874738 
L 110.051513 252 
L 114.363168 212.106295 
L 118.674823 252 
L 122.986478 232.272536 
L 127.298133 232.272536 
L 131.609788 211.886906 
L 135.921442 252 
L 140.233097 252 
L 144.544752 250.903055 
L 148.856407 219.942872 
L 153.168062 244.602201 
L 157.479717 237.204402 
L 161.791372 204.708496 
L 166.103026 247.068134 
L 170.414681 249.534067 
L 174.726336 208.762806 
L 179.037991 242.136268 
L 183.349646 223.339014 
L 187.661301 224.655349 
L 191.972956 192.59822 
L 196.28461 202.461952 
L 200.596265 228.051491 
L 204.90792 187.227576 
L 209.219575 221.531248 
L 213.53123 130.949896 
L 217.842885 160.760481 
L 222.15454 221.970027 
L 226.466194 197.530086 
L 230.777849 217.529592 
L 235.089504 199.829283 
L 239.401159 213.914061 
L 243.712814 188.815953 
L 248.024469 146.236926 
L 252.336124 243.505256 
L 256.647778 248.270386 
L 260.959433 248.270386 
L 265.271088 246.848745 
L 269.582743 153.143293 
L 273.894398 182.953877 
L 278.206053 109.028542 
L 282.517708 197.310697 
L 286.829363 180.049166 
L 291.141017 249.806109 
L 295.452672 251.561222 
L 299.764327 243.777298 
L 304.075982 224.488613 
L 308.387637 238.354001 
L 312.699292 251.122444 
L 317.010947 197.310697 
L 321.322601 239.670335 
L 325.634256 206.016055 
L 329.945911 213.747325 
L 334.257566 218.679191 
L 338.569221 229.367825 
L 342.880876 244.874244 
L 347.192531 239.056046 
L 351.504185 225.453925 
L 355.81584 248.489775 
L 360.127495 232.053147 
L 364.43915 219.433889 
L 368.750805 235.545821 
L 373.06246 251.341833 
L 373.06246 251.341833 
L 373.06246 251.341833 
L 368.750805 235.545821 
L 364.43915 219.433889 
L 360.127495 229.587214 
L 355.81584 248.489775 
L 351.504185 223.040645 
L 347.192531 239.056046 
L 342.880876 242.022186 
L 338.569221 224.435959 
L 334.257566 218.679191 
L 329.945911 212.430991 
L 325.634256 196.152323 
L 321.322601 238.57339 
L 317.010947 197.310697 
L 312.699292 250.244888 
L 308.387637 232.763968 
L 304.075982 207.937903 
L 299.764327 242.460964 
L 295.452672 239.722989 
L 291.141017 249.806109 
L 286.829363 180.049166 
L 282.517708 195.555585 
L 278.206053 86.835146 
L 273.894398 150.457971 
L 269.582743 153.143293 
L 265.271088 245.093633 
L 260.959433 248.270386 
L 256.647778 246.295885 
L 252.336124 243.505256 
L 248.024469 141.30506 
L 243.712814 181.418154 
L 239.401159 213.914061 
L 235.089504 182.567753 
L 230.777849 217.529592 
L 226.466194 197.530086 
L 222.15454 221.311859 
L 217.842885 160.760481 
L 213.53123 93.960902 
L 209.219575 221.531248 
L 204.90792 157.636381 
L 200.596265 228.051491 
L 196.28461 202.461952 
L 191.972956 175.33669 
L 187.661301 204.927885 
L 183.349646 222.900236 
L 179.037991 242.136268 
L 174.726336 196.433141 
L 170.414681 229.806603 
L 166.103026 247.068134 
L 161.791372 204.708496 
L 157.479717 237.204402 
L 153.168062 229.806603 
L 148.856407 219.942872 
L 144.544752 250.903055 
L 140.233097 202.681341 
L 135.921442 252 
L 131.609788 211.886906 
L 127.298133 232.272536 
L 122.986478 232.272536 
L 118.674823 222.408805 
L 114.363168 212.106295 
L 110.051513 252 
L 105.739858 219.942872 
L 101.428203 227.340671 
L 97.116549 229.806603 
L 92.804894 155.828615 
L 88.493239 252 
L 84.181584 210.07914 
L 79.869929 247.068134 
L 75.558274 222.408805 
L 71.246619 252 
L 66.934965 252 
L 62.62331 252 
L 58.311655 252 
z
" style="fill:#36ada4;"/>
   </g>
   <g id="PolyCollection_7">
    <path clip-path="url(#p6ff13be993)" d="M 58.311655 252 
L 58.311655 252 
L 62.62331 252 
L 66.934965 252 
L 71.246619 252 
L 75.558274 222.408805 
L 79.869929 247.068134 
L 84.181584 210.07914 
L 88.493239 252 
L 92.804894 155.828615 
L 97.116549 229.806603 
L 101.428203 227.340671 
L 105.739858 219.942872 
L 110.051513 252 
L 114.363168 212.106295 
L 118.674823 222.408805 
L 122.986478 232.272536 
L 127.298133 232.272536 
L 131.609788 211.886906 
L 135.921442 252 
L 140.233097 202.681341 
L 144.544752 250.903055 
L 148.856407 219.942872 
L 153.168062 229.806603 
L 157.479717 237.204402 
L 161.791372 204.708496 
L 166.103026 247.068134 
L 170.414681 229.806603 
L 174.726336 196.433141 
L 179.037991 242.136268 
L 183.349646 222.900236 
L 187.661301 204.927885 
L 191.972956 175.33669 
L 196.28461 202.461952 
L 200.596265 228.051491 
L 204.90792 157.636381 
L 209.219575 221.531248 
L 213.53123 93.960902 
L 217.842885 160.760481 
L 222.15454 221.311859 
L 226.466194 197.530086 
L 230.777849 217.529592 
L 235.089504 182.567753 
L 239.401159 213.914061 
L 243.712814 181.418154 
L 248.024469 141.30506 
L 252.336124 243.505256 
L 256.647778 246.295885 
L 260.959433 248.270386 
L 265.271088 245.093633 
L 269.582743 153.143293 
L 273.894398 150.457971 
L 278.206053 86.835146 
L 282.517708 195.555585 
L 286.829363 180.049166 
L 291.141017 249.806109 
L 295.452672 239.722989 
L 299.764327 242.460964 
L 304.075982 207.937903 
L 308.387637 232.763968 
L 312.699292 250.244888 
L 317.010947 197.310697 
L 321.322601 238.57339 
L 325.634256 196.152323 
L 329.945911 212.430991 
L 334.257566 218.679191 
L 338.569221 224.435959 
L 342.880876 242.022186 
L 347.192531 239.056046 
L 351.504185 223.040645 
L 355.81584 248.489775 
L 360.127495 229.587214 
L 364.43915 219.433889 
L 368.750805 235.545821 
L 373.06246 251.341833 
L 373.06246 251.341833 
L 373.06246 251.341833 
L 368.750805 234.887654 
L 364.43915 212.03609 
L 360.127495 224.655349 
L 355.81584 248.489775 
L 351.504185 223.040645 
L 347.192531 231.377429 
L 342.880876 242.022186 
L 338.569221 224.435959 
L 334.257566 218.679191 
L 329.945911 211.114656 
L 325.634256 193.300265 
L 321.322601 238.57339 
L 317.010947 197.310697 
L 312.699292 250.244888 
L 308.387637 232.763968 
L 304.075982 207.937903 
L 299.764327 242.460964 
L 295.452672 239.722989 
L 291.141017 249.806109 
L 286.829363 180.049166 
L 282.517708 195.555585 
L 278.206053 86.835146 
L 273.894398 150.457971 
L 269.582743 153.143293 
L 265.271088 243.557909 
L 260.959433 248.270386 
L 256.647778 246.295885 
L 252.336124 243.505256 
L 248.024469 141.30506 
L 243.712814 181.418154 
L 239.401159 213.914061 
L 235.089504 170.238088 
L 230.777849 217.529592 
L 226.466194 197.530086 
L 222.15454 221.311859 
L 217.842885 160.760481 
L 213.53123 93.960902 
L 209.219575 115.496132 
L 204.90792 157.636381 
L 200.596265 228.051491 
L 196.28461 202.461952 
L 191.972956 172.870757 
L 187.661301 158.075159 
L 183.349646 222.900236 
L 179.037991 242.136268 
L 174.726336 174.239744 
L 170.414681 222.408805 
L 166.103026 247.068134 
L 161.791372 204.708496 
L 157.479717 237.204402 
L 153.168062 229.806603 
L 148.856407 219.942872 
L 144.544752 250.903055 
L 140.233097 202.681341 
L 135.921442 252 
L 131.609788 211.886906 
L 127.298133 232.272536 
L 122.986478 232.272536 
L 118.674823 222.408805 
L 114.363168 212.106295 
L 110.051513 252 
L 105.739858 219.942872 
L 101.428203 227.340671 
L 97.116549 229.806603 
L 92.804894 155.828615 
L 88.493239 252 
L 84.181584 210.07914 
L 79.869929 247.068134 
L 75.558274 222.408805 
L 71.246619 252 
L 66.934965 252 
L 62.62331 252 
L 58.311655 252 
z
" style="fill:#38a9c5;"/>
   </g>
   <g id="PolyCollection_8">
    <path clip-path="url(#p6ff13be993)" d="M 58.311655 252 
L 58.311655 252 
L 62.62331 252 
L 66.934965 252 
L 71.246619 252 
L 75.558274 222.408805 
L 79.869929 247.068134 
L 84.181584 210.07914 
L 88.493239 252 
L 92.804894 155.828615 
L 97.116549 229.806603 
L 101.428203 227.340671 
L 105.739858 219.942872 
L 110.051513 252 
L 114.363168 212.106295 
L 118.674823 222.408805 
L 122.986478 232.272536 
L 127.298133 232.272536 
L 131.609788 211.886906 
L 135.921442 252 
L 140.233097 202.681341 
L 144.544752 250.903055 
L 148.856407 219.942872 
L 153.168062 229.806603 
L 157.479717 237.204402 
L 161.791372 204.708496 
L 166.103026 247.068134 
L 170.414681 222.408805 
L 174.726336 174.239744 
L 179.037991 242.136268 
L 183.349646 222.900236 
L 187.661301 158.075159 
L 191.972956 172.870757 
L 196.28461 202.461952 
L 200.596265 228.051491 
L 204.90792 157.636381 
L 209.219575 115.496132 
L 213.53123 93.960902 
L 217.842885 160.760481 
L 222.15454 221.311859 
L 226.466194 197.530086 
L 230.777849 217.529592 
L 235.089504 170.238088 
L 239.401159 213.914061 
L 243.712814 181.418154 
L 248.024469 141.30506 
L 252.336124 243.505256 
L 256.647778 246.295885 
L 260.959433 248.270386 
L 265.271088 243.557909 
L 269.582743 153.143293 
L 273.894398 150.457971 
L 278.206053 86.835146 
L 282.517708 195.555585 
L 286.829363 180.049166 
L 291.141017 249.806109 
L 295.452672 239.722989 
L 299.764327 242.460964 
L 304.075982 207.937903 
L 308.387637 232.763968 
L 312.699292 250.244888 
L 317.010947 197.310697 
L 321.322601 238.57339 
L 325.634256 193.300265 
L 329.945911 211.114656 
L 334.257566 218.679191 
L 338.569221 224.435959 
L 342.880876 242.022186 
L 347.192531 231.377429 
L 351.504185 223.040645 
L 355.81584 248.489775 
L 360.127495 224.655349 
L 364.43915 212.03609 
L 368.750805 234.887654 
L 373.06246 251.341833 
L 373.06246 251.341833 
L 373.06246 251.341833 
L 368.750805 234.887654 
L 364.43915 212.03609 
L 360.127495 157.85577 
L 355.81584 245.418328 
L 351.504185 221.724311 
L 347.192531 230.280484 
L 342.880876 214.019367 
L 338.569221 215.283048 
L 334.257566 218.679191 
L 329.945911 202.839301 
L 325.634256 193.300265 
L 321.322601 236.818278 
L 317.010947 197.091308 
L 312.699292 250.244888 
L 308.387637 226.621074 
L 304.075982 180.81264 
L 299.764327 242.022186 
L 295.452672 235.993375 
L 291.141017 249.806109 
L 286.829363 155.389837 
L 282.517708 143.770993 
L 278.206053 44.914286 
L 273.894398 149.799804 
L 269.582743 153.143293 
L 265.271088 243.557909 
L 260.959433 248.270386 
L 256.647778 242.566271 
L 252.336124 231.175591 
L 248.024469 106.781998 
L 243.712814 166.622556 
L 239.401159 191.720664 
L 235.089504 150.510624 
L 230.777849 216.652036 
L 226.466194 187.666354 
L 222.15454 221.311859 
L 217.842885 160.760481 
L 213.53123 47.108176 
L 209.219575 80.97307 
L 204.90792 148.922248 
L 200.596265 228.051491 
L 196.28461 202.461952 
L 191.972956 172.870757 
L 187.661301 138.347695 
L 183.349646 222.900236 
L 179.037991 242.136268 
L 174.726336 174.239744 
L 170.414681 180.487944 
L 166.103026 247.068134 
L 161.791372 204.708496 
L 157.479717 237.204402 
L 153.168062 224.874738 
L 148.856407 219.942872 
L 144.544752 250.903055 
L 140.233097 197.749475 
L 135.921442 252 
L 131.609788 211.886906 
L 127.298133 232.272536 
L 122.986478 232.272536 
L 118.674823 222.408805 
L 114.363168 212.106295 
L 110.051513 252 
L 105.739858 219.942872 
L 101.428203 227.340671 
L 97.116549 229.806603 
L 92.804894 155.828615 
L 88.493239 252 
L 84.181584 210.07914 
L 79.869929 247.068134 
L 75.558274 222.408805 
L 71.246619 252 
L 66.934965 252 
L 62.62331 252 
L 58.311655 252 
z
" style="fill:#6e9bf4;"/>
   </g>
   <g id="PolyCollection_9">
    <path clip-path="url(#p6ff13be993)" d="M 58.311655 252 
L 58.311655 252 
L 62.62331 252 
L 66.934965 252 
L 71.246619 252 
L 75.558274 222.408805 
L 79.869929 247.068134 
L 84.181584 210.07914 
L 88.493239 252 
L 92.804894 155.828615 
L 97.116549 229.806603 
L 101.428203 227.340671 
L 105.739858 219.942872 
L 110.051513 252 
L 114.363168 212.106295 
L 118.674823 222.408805 
L 122.986478 232.272536 
L 127.298133 232.272536 
L 131.609788 211.886906 
L 135.921442 252 
L 140.233097 197.749475 
L 144.544752 250.903055 
L 148.856407 219.942872 
L 153.168062 224.874738 
L 157.479717 237.204402 
L 161.791372 204.708496 
L 166.103026 247.068134 
L 170.414681 180.487944 
L 174.726336 174.239744 
L 179.037991 242.136268 
L 183.349646 222.900236 
L 187.661301 138.347695 
L 191.972956 172.870757 
L 196.28461 202.461952 
L 200.596265 228.051491 
L 204.90792 148.922248 
L 209.219575 80.97307 
L 213.53123 47.108176 
L 217.842885 160.760481 
L 222.15454 221.311859 
L 226.466194 187.666354 
L 230.777849 216.652036 
L 235.089504 150.510624 
L 239.401159 191.720664 
L 243.712814 166.622556 
L 248.024469 106.781998 
L 252.336124 231.175591 
L 256.647778 242.566271 
L 260.959433 248.270386 
L 265.271088 243.557909 
L 269.582743 153.143293 
L 273.894398 149.799804 
L 278.206053 44.914286 
L 282.517708 143.770993 
L 286.829363 155.389837 
L 291.141017 249.806109 
L 295.452672 235.993375 
L 299.764327 242.022186 
L 304.075982 180.81264 
L 308.387637 226.621074 
L 312.699292 250.244888 
L 317.010947 197.091308 
L 321.322601 236.818278 
L 325.634256 193.300265 
L 329.945911 202.839301 
L 334.257566 218.679191 
L 338.569221 215.283048 
L 342.880876 214.019367 
L 347.192531 230.280484 
L 351.504185 221.724311 
L 355.81584 245.418328 
L 360.127495 157.85577 
L 364.43915 212.03609 
L 368.750805 234.887654 
L 373.06246 251.341833 
L 373.06246 251.341833 
L 373.06246 251.341833 
L 368.750805 234.887654 
L 364.43915 212.03609 
L 360.127495 157.416992 
L 355.81584 245.418328 
L 351.504185 220.846755 
L 347.192531 229.841706 
L 342.880876 213.799978 
L 338.569221 202.953383 
L 334.257566 215.827133 
L 329.945911 202.400523 
L 325.634256 193.080876 
L 321.322601 236.818278 
L 317.010947 159.444147 
L 312.699292 250.244888 
L 308.387637 223.935752 
L 304.075982 180.81264 
L 299.764327 241.364019 
L 295.452672 235.993375 
L 291.141017 246.515274 
L 286.829363 150.457971 
L 282.517708 79.656736 
L 278.206053 44.914286 
L 273.894398 149.799804 
L 269.582743 131.660717 
L 265.271088 243.557909 
L 260.959433 245.637717 
L 256.647778 241.908104 
L 252.336124 220.925735 
L 248.024469 88.862301 
L 243.712814 151.388181 
L 239.401159 183.884087 
L 235.089504 150.510624 
L 230.777849 205.691359 
L 226.466194 165.472958 
L 222.15454 191.720664 
L 217.842885 116.373688 
L 213.53123 47.108176 
L 209.219575 80.97307 
L 204.90792 148.922248 
L 200.596265 227.612713 
L 196.28461 154.951059 
L 191.972956 158.075159 
L 187.661301 138.347695 
L 183.349646 210.570571 
L 179.037991 234.738469 
L 174.726336 171.773811 
L 170.414681 180.487944 
L 166.103026 247.068134 
L 161.791372 204.708496 
L 157.479717 219.942872 
L 153.168062 224.874738 
L 148.856407 219.942872 
L 144.544752 250.903055 
L 140.233097 197.749475 
L 135.921442 252 
L 131.609788 211.886906 
L 127.298133 232.272536 
L 122.986478 232.272536 
L 118.674823 222.408805 
L 114.363168 212.106295 
L 110.051513 252 
L 105.739858 219.942872 
L 101.428203 227.340671 
L 97.116549 229.806603 
L 92.804894 155.828615 
L 88.493239 252 
L 84.181584 210.07914 
L 79.869929 247.068134 
L 75.558274 222.408805 
L 71.246619 252 
L 66.934965 252 
L 62.62331 252 
L 58.311655 252 
z
" style="fill:#cc7af4;"/>
   </g>
   <g id="PolyCollection_10">
    <path clip-path="url(#p6ff13be993)" d="M 58.311655 252 
L 58.311655 252 
L 62.62331 252 
L 66.934965 252 
L 71.246619 252 
L 75.558274 222.408805 
L 79.869929 247.068134 
L 84.181584 210.07914 
L 88.493239 252 
L 92.804894 155.828615 
L 97.116549 229.806603 
L 101.428203 227.340671 
L 105.739858 219.942872 
L 110.051513 252 
L 114.363168 212.106295 
L 118.674823 222.408805 
L 122.986478 232.272536 
L 127.298133 232.272536 
L 131.609788 211.886906 
L 135.921442 252 
L 140.233097 197.749475 
L 144.544752 250.903055 
L 148.856407 219.942872 
L 153.168062 224.874738 
L 157.479717 219.942872 
L 161.791372 204.708496 
L 166.103026 247.068134 
L 170.414681 180.487944 
L 174.726336 171.773811 
L 179.037991 234.738469 
L 183.349646 210.570571 
L 187.661301 138.347695 
L 191.972956 158.075159 
L 196.28461 154.951059 
L 200.596265 227.612713 
L 204.90792 148.922248 
L 209.219575 80.97307 
L 213.53123 47.108176 
L 217.842885 116.373688 
L 222.15454 191.720664 
L 226.466194 165.472958 
L 230.777849 205.691359 
L 235.089504 150.510624 
L 239.401159 183.884087 
L 243.712814 151.388181 
L 248.024469 88.862301 
L 252.336124 220.925735 
L 256.647778 241.908104 
L 260.959433 245.637717 
L 265.271088 243.557909 
L 269.582743 131.660717 
L 273.894398 149.799804 
L 278.206053 44.914286 
L 282.517708 79.656736 
L 286.829363 150.457971 
L 291.141017 246.515274 
L 295.452672 235.993375 
L 299.764327 241.364019 
L 304.075982 180.81264 
L 308.387637 223.935752 
L 312.699292 250.244888 
L 317.010947 159.444147 
L 321.322601 236.818278 
L 325.634256 193.080876 
L 329.945911 202.400523 
L 334.257566 215.827133 
L 338.569221 202.953383 
L 342.880876 213.799978 
L 347.192531 229.841706 
L 351.504185 220.846755 
L 355.81584 245.418328 
L 360.127495 157.416992 
L 364.43915 212.03609 
L 368.750805 234.887654 
L 373.06246 251.341833 
L 373.06246 251.341833 
L 373.06246 251.341833 
L 368.750805 234.887654 
L 364.43915 212.03609 
L 360.127495 157.416992 
L 355.81584 244.97955 
L 351.504185 220.627366 
L 347.192531 229.622317 
L 342.880876 207.551778 
L 338.569221 202.953383 
L 334.257566 215.388355 
L 329.945911 192.536791 
L 325.634256 192.642098 
L 321.322601 234.843776 
L 317.010947 152.046348 
L 312.699292 249.806109 
L 308.387637 223.277585 
L 304.075982 173.195452 
L 299.764327 240.047684 
L 295.452672 235.993375 
L 291.141017 243.663216 
L 286.829363 135.662373 
L 282.517708 79.656736 
L 278.206053 44.914286 
L 273.894398 139.936072 
L 269.582743 131.221939 
L 265.271088 242.680353 
L 260.959433 242.78566 
L 256.647778 240.811158 
L 252.336124 211.062003 
L 248.024469 83.052879 
L 243.712814 148.702859 
L 239.401159 173.800966 
L 235.089504 150.510624 
L 230.777849 194.950071 
L 226.466194 115.496132 
L 222.15454 191.720664 
L 217.842885 106.509956 
L 213.53123 47.108176 
L 209.219575 80.97307 
L 204.90792 148.922248 
L 200.596265 196.485794 
L 196.28461 154.951059 
L 191.972956 153.143293 
L 187.661301 138.347695 
L 183.349646 207.227082 
L 179.037991 232.272536 
L 174.726336 171.773811 
L 170.414681 180.487944 
L 166.103026 234.738469 
L 161.791372 204.269718 
L 157.479717 219.942872 
L 153.168062 224.874738 
L 148.856407 202.023174 
L 144.544752 250.903055 
L 140.233097 197.749475 
L 135.921442 232.272536 
L 131.609788 204.269718 
L 127.298133 232.272536 
L 122.986478 232.272536 
L 118.674823 207.613207 
L 114.363168 206.077484 
L 110.051513 252 
L 105.739858 199.77663 
L 101.428203 227.340671 
L 97.116549 229.806603 
L 92.804894 120.427998 
L 88.493239 252 
L 84.181584 195.283542 
L 79.869929 227.340671 
L 75.558274 222.408805 
L 71.246619 252 
L 66.934965 252 
L 62.62331 252 
L 58.311655 252 
z
" style="fill:#f565cc;"/>
   </g>
   <g id="patch_3">
    <path d="M 54 252 
L 54 34.56 
" style="fill:none;stroke:#cccccc;stroke-linecap:square;stroke-linejoin:miter;"/>
   </g>
   <g id="patch_4">
    <path d="M 54 252 
L 388.8 252 
" style="fill:none;stroke:#cccccc;stroke-linecap:square;stroke-linejoin:miter;"/>
   </g>
  </g>
  <g id="text_16">
   <!-- Traffic per file -->
   <defs>
    <path d="M -0.296875 72.90625 
L 61.375 72.90625 
L 61.375 64.59375 
L 35.5 64.59375 
L 35.5 0 
L 25.59375 0 
L 25.59375 64.59375 
L -0.296875 64.59375 
z
" id="DejaVuSans-54"/>
    <path d="M 18.109375 8.203125 
L 18.109375 -20.796875 
L 9.078125 -20.796875 
L 9.078125 54.6875 
L 18.109375 54.6875 
L 18.109375 46.390625 
Q 20.953125 51.265625 25.265625 53.625 
Q 29.59375 56 35.59375 56 
Q 45.5625 56 51.78125 48.09375 
Q 58.015625 40.1875 58.015625 27.296875 
Q 58.015625 14.40625 51.78125 6.484375 
Q 45.5625 -1.421875 35.59375 -1.421875 
Q 29.59375 -1.421875 25.265625 0.953125 
Q 20.953125 3.328125 18.109375 8.203125 
z
M 48.6875 27.296875 
Q 48.6875 37.203125 44.609375 42.84375 
Q 40.53125 48.484375 33.40625 48.484375 
Q 26.265625 48.484375 22.1875 42.84375 
Q 18.109375 37.203125 18.109375 27.296875 
Q 18.109375 17.390625 22.1875 11.75 
Q 26.265625 6.109375 33.40625 6.109375 
Q 40.53125 6.109375 44.609375 11.75 
Q 48.6875 17.390625 48.6875 27.296875 
z
" id="DejaVuSans-70"/>
    <path d="M 9.421875 75.984375 
L 18.40625 75.984375 
L 18.40625 0 
L 9.421875 0 
z
" id="DejaVuSans-6c"/>
   </defs>
   <g style="fill:#262626;" transform="translate(174.095625 14.878125)scale(0.12 -0.12)">
    <use xlink:href="#DejaVuSans-54"/>
    <use x="60.865234" xlink:href="#DejaVuSans-72"/>
    <use x="101.978516" xlink:href="#DejaVuSans-61"/>
    <use x="163.257812" xlink:href="#DejaVuSans-66"/>
    <use x="198.462891" xlink:href="#DejaVuSans-66"/>
    <use x="233.667969" xlink:href="#DejaVuSans-69"/>
    <use x="261.451172" xlink:href="#DejaVuSans-63"/>
    <use x="316.431641" xlink:href="#DejaVuSans-20"/>
    <use x="348.21875" xlink:href="#DejaVuSans-70"/>
    <use x="411.695312" xlink:href="#DejaVuSans-65"/>
    <use x="473.21875" xlink:href="#DejaVuSans-72"/>
    <use x="514.332031" xlink:href="#DejaVuSans-20"/>
    <use x="546.119141" xlink:href="#DejaVuSans-66"/>
    <use x="581.324219" xlink:href="#DejaVuSans-69"/>
    <use x="609.107422" xlink:href="#DejaVuSans-6c"/>
    <use x="636.890625" xlink:href="#DejaVuSans-65"/>
   </g>
  </g>
 </g>
 <defs>
  <clipPath id="p6ff13be993">
   <rect height="217.44" width="334.8" x="54" y="34.56"/>
  </clipPath>
 </defs>
</svg>
