<?xml version="1.0" encoding="UTF-8" standalone="no"?>
<!-- Created with matplotlib (http://matplotlib.org/) -->

<svg
   xmlns:dc="http://purl.org/dc/elements/1.1/"
   xmlns:cc="http://creativecommons.org/ns#"
   xmlns:rdf="http://www.w3.org/1999/02/22-rdf-syntax-ns#"
   xmlns:svg="http://www.w3.org/2000/svg"
   xmlns="http://www.w3.org/2000/svg"
   xmlns:xlink="http://www.w3.org/1999/xlink"
   xmlns:sodipodi="http://sodipodi.sourceforge.net/DTD/sodipodi-0.dtd"
   xmlns:inkscape="http://www.inkscape.org/namespaces/inkscape"
   height="108pt"
   version="1.1"
   viewBox="0 0 432 108"
   width="432pt"
   id="svg2"
   inkscape:version="0.91 r13725"
   sodipodi:docname="sample.svg">
  <metadata
     id="metadata327">
    <rdf:RDF>
      <cc:Work
         rdf:about="">
        <dc:format>image/svg+xml</dc:format>
        <dc:type
           rdf:resource="http://purl.org/dc/dcmitype/StillImage" />
      </cc:Work>
    </rdf:RDF>
  </metadata>
  <sodipodi:namedview
     pagecolor="#ffffff"
     bordercolor="#666666"
     borderopacity="1"
     objecttolerance="10"
     gridtolerance="10"
     guidetolerance="10"
     inkscape:pageopacity="0"
     inkscape:pageshadow="2"
     inkscape:window-width="1920"
     inkscape:window-height="1053"
     id="namedview325"
     showgrid="false"
     inkscape:zoom="2.6293897"
     inkscape:cx="265.68473"
     inkscape:cy="23.367492"
     inkscape:window-x="0"
     inkscape:window-y="0"
     inkscape:window-maximized="1"
     inkscape:current-layer="svg2" />
  <defs
     id="defs4">
    <style
       type="text/css"
       id="style6">
*{stroke-linecap:butt;stroke-linejoin:round;}
  </style>
  </defs>
  <g
     id="figure_1">
    <path
       d="m 29.791528,84.844323 391.408472,0 0,-74.044323 -391.408472,0 z"
       style="fill:#ffffff;stroke-linecap:butt;stroke-linejoin:round"
       id="path14"
       inkscape:connector-curvature="0" />
    <g
       style="stroke-linecap:butt;stroke-linejoin:round"
       id="line2d_1">
      <path
         inkscape:connector-curvature="0"
         id="path19"
         style="fill:none;stroke:#cccccc;stroke-width:0.80000001;stroke-linecap:round;stroke-linejoin:round"
         d="m 29.791528,84.844323 0,-74.044323"
         clip-path="url(#pb92dc635cb)" />
    </g>
    <g
       style="stroke-linecap:butt;stroke-linejoin:round"
       id="line2d_2" />
    <g
       style="stroke-linecap:butt;stroke-linejoin:round"
       id="text_1"
       transform="translate(12.495747,0)">
      <!-- H -->
      <defs
         id="defs23">
        <path
           style="stroke-linecap:butt;stroke-linejoin:round"
           inkscape:connector-curvature="0"
           id="CMR17-72"
           d="m 56.09375,61.015625 c 0,4.484375 1.109375,4.484375 8,4.484375 l 0,2.5 c -2.890625,0 -8.1875,0 -11.296875,0 C 49.703125,68 44.40625,68 41.5,68 l 0,-2.5 c 6.90625,0 8,0 8,-4.5 l 0,-24.421875 -29.796875,0 0,24.421875 c 0,4.5 1.09375,4.5 8,4.5 l 0,2.5 C 24.796875,68 19.5,68 16.40625,68 13.296875,68 8,68 5.09375,68 l 0,-2.5 c 6.90625,0 8,0 8,-4.484375 l 0,-54.03125 C 13.09375,2.5 12,2.5 5.09375,2.5 l 0,-2.5 C 8,0 13.296875,0 16.40625,0 19.5,0 24.796875,0 27.703125,0 l 0,2.5 c -6.90625,0 -8,0 -8,4.46875 L 19.703125,34 49.5,34 49.5,6.96875 C 49.5,2.5 48.40625,2.5 41.5,2.5 l 0,-2.5 c 2.90625,0 8.203125,0 11.296875,0 3.109375,0 8.40625,0 11.296875,0 l 0,2.5 c -6.890625,0 -8,0 -8,4.484375 z" />
      </defs>
      <g
         id="g26"
         transform="matrix(0.1,0,0,-0.1,26.055531,95.262822)"
         style="fill:#262626;stroke-linecap:butt;stroke-linejoin:round">
        <use
           height="100%"
           width="100%"
           y="0"
           x="0"
           style="stroke-linecap:butt;stroke-linejoin:round"
           id="use28"
           xlink:href="#CMR17-72"
           transform="scale(0.996264,0.996264)" />
      </g>
    </g>
    <g
       style="stroke-linecap:butt;stroke-linejoin:round"
       id="line2d_3">
      <path
         inkscape:connector-curvature="0"
         id="path32"
         style="fill:none;stroke:#cccccc;stroke-width:0.80000001;stroke-linecap:round;stroke-linejoin:round"
         d="m 54.254558,84.844323 0,-74.044323"
         clip-path="url(#pb92dc635cb)" />
    </g>
    <g
       style="stroke-linecap:butt;stroke-linejoin:round"
       id="line2d_4" />
    <g
       style="stroke-linecap:butt;stroke-linejoin:round"
       id="text_2"
       transform="translate(12.495747,0)">
      <!-- O -->
      <defs
         id="defs36">
        <path
           style="stroke-linecap:butt;stroke-linejoin:round"
           inkscape:connector-curvature="0"
           id="CMR17-79"
           d="M 67.296875,33.359375 C 67.296875,53.703125 52.59375,69 36,69 19,69 4.59375,53.5 4.59375,33.359375 4.59375,13.203125 19.203125,-2 35.90625,-2 53,-2 67.296875,13.5 67.296875,33.359375 Z M 36,-0.203125 c -11.40625,0 -23.796875,11.3125 -23.796875,34.84375 0,23.421875 13.59375,32.5625 23.703125,32.5625 10.59375,0 23.796875,-9.421875 23.796875,-32.5625 C 59.703125,10.71875 47,-0.203125 36,-0.203125 Z" />
      </defs>
      <g
         id="g39"
         transform="matrix(0.1,0,0,-0.1,50.380186,95.262822)"
         style="fill:#262626;stroke-linecap:butt;stroke-linejoin:round">
        <use
           height="100%"
           width="100%"
           y="0"
           x="0"
           style="stroke-linecap:butt;stroke-linejoin:round"
           id="use41"
           xlink:href="#CMR17-79"
           transform="scale(0.996264,0.996264)" />
      </g>
    </g>
    <g
       style="stroke-linecap:butt;stroke-linejoin:round"
       id="line2d_5">
      <path
         inkscape:connector-curvature="0"
         id="path45"
         style="fill:none;stroke:#cccccc;stroke-width:0.80000001;stroke-linecap:round;stroke-linejoin:round"
         d="m 78.717587,84.844323 0,-74.044323"
         clip-path="url(#pb92dc635cb)" />
    </g>
    <g
       style="stroke-linecap:butt;stroke-linejoin:round"
       id="line2d_6" />
    <g
       style="stroke-linecap:butt;stroke-linejoin:round"
       id="text_3"
       transform="translate(12.495747,0)">
      <!-- W -->
      <defs
         id="defs49">
        <path
           style="stroke-linecap:butt;stroke-linejoin:round"
           inkscape:connector-curvature="0"
           id="CMR17-87"
           d="M 86.296875,58.8125 C 87.203125,61.5 88.703125,65 94.5,65 l 0,2.59375 c -1.703125,0 -5.203125,0 -7,0 -2.5,0 -6.90625,0 -9.296875,0.09375 l 0,-2.6875 c 4.5,0 6.390625,-2.5 6.390625,-4.890625 0,-0.703125 -0.09375,-1.09375 -0.5,-2.1875 l -15.5,-49.25 -16.296875,51.84375 C 52,61.515625 51.90625,61.921875 51.90625,62.3125 51.90625,65 56.296875,65 58.203125,65 l 0,2.59375 c -2.90625,0 -7.90625,0 -11,0 -2.5,0 -7,0 -9.296875,0.09375 l 0,-2.6875 c 4.59375,0 5.796875,-0.296875 6.796875,-2.078125 0.390625,-0.90625 2,-6.078125 2,-6.375 0,-0.40625 -0.203125,-1 -0.296875,-1.296875 L 31.703125,8.765625 15.40625,60.421875 c -0.5,1.40625 -0.5,1.59375 -0.5,1.796875 C 14.90625,65 19.296875,65 21.296875,65 l 0,2.59375 c -2.890625,0 -7.890625,0 -11,0 -2.59375,0 -7,0 -9.390625,0.09375 l 0,-2.6875 c 6,0 6.390625,-0.59375 7.390625,-3.78125 l 19.5,-61.53125 c 0.5,-1.484375 0.5,-1.6875 1.40625,-1.6875 0.796875,0 1.09375,0.203125 1.5,1.59375 l 17,54.046875 17,-54.046875 C 65.09375,-1.796875 65.40625,-2 66.203125,-2 c 0.890625,0 0.890625,0.203125 1.390625,1.6875 z" />
      </defs>
      <g
         id="g52"
         transform="matrix(0.1,0,0,-0.1,73.597885,95.262822)"
         style="fill:#262626;stroke-linecap:butt;stroke-linejoin:round">
        <use
           height="100%"
           width="100%"
           y="0"
           x="0"
           style="stroke-linecap:butt;stroke-linejoin:round"
           id="use54"
           xlink:href="#CMR17-87"
           transform="scale(0.996264,0.996264)" />
      </g>
    </g>
    <g
       style="stroke-linecap:butt;stroke-linejoin:round"
       id="line2d_7">
      <path
         inkscape:connector-curvature="0"
         id="path58"
         style="fill:none;stroke:#cccccc;stroke-width:0.80000001;stroke-linecap:round;stroke-linejoin:round"
         d="m 103.18062,84.844323 0,-74.044323"
         clip-path="url(#pb92dc635cb)" />
    </g>
    <g
       style="stroke-linecap:butt;stroke-linejoin:round"
       id="line2d_8" />
    <g
       style="stroke-linecap:butt;stroke-linejoin:round"
       id="text_4"
       transform="translate(12.495747,0)">
      <!-- W -->
      <g
         id="g62"
         transform="matrix(0.1,0,0,-0.1,98.060915,95.262822)"
         style="fill:#262626;stroke-linecap:butt;stroke-linejoin:round">
        <use
           height="100%"
           width="100%"
           y="0"
           x="0"
           style="stroke-linecap:butt;stroke-linejoin:round"
           id="use64"
           xlink:href="#CMR17-87"
           transform="scale(0.996264,0.996264)" />
      </g>
    </g>
    <g
       style="stroke-linecap:butt;stroke-linejoin:round"
       id="line2d_9">
      <path
         inkscape:connector-curvature="0"
         id="path68"
         style="fill:none;stroke:#cccccc;stroke-width:0.80000001;stroke-linecap:round;stroke-linejoin:round"
         d="m 127.64365,84.844323 0,-74.044323"
         clip-path="url(#pb92dc635cb)" />
    </g>
    <g
       style="stroke-linecap:butt;stroke-linejoin:round"
       id="line2d_10" />
    <g
       style="stroke-linecap:butt;stroke-linejoin:round"
       id="text_5"
       transform="translate(12.495747,0)">
      <!-- O -->
      <g
         id="g72"
         transform="matrix(0.1,0,0,-0.1,123.76927,95.262822)"
         style="fill:#262626;stroke-linecap:butt;stroke-linejoin:round">
        <use
           height="100%"
           width="100%"
           y="0"
           x="0"
           style="stroke-linecap:butt;stroke-linejoin:round"
           id="use74"
           xlink:href="#CMR17-79"
           transform="scale(0.996264,0.996264)" />
      </g>
    </g>
    <g
       style="stroke-linecap:butt;stroke-linejoin:round"
       id="line2d_11">
      <path
         inkscape:connector-curvature="0"
         id="path78"
         style="fill:none;stroke:#cccccc;stroke-width:0.80000001;stroke-linecap:round;stroke-linejoin:round"
         d="m 152.10668,84.844323 0,-74.044323"
         clip-path="url(#pb92dc635cb)" />
    </g>
    <g
       style="stroke-linecap:butt;stroke-linejoin:round"
       id="line2d_12" />
    <g
       style="stroke-linecap:butt;stroke-linejoin:round"
       id="text_6"
       transform="translate(12.495747,0)">
      <!-- H -->
      <g
         id="g82"
         transform="matrix(0.1,0,0,-0.1,148.37068,95.262822)"
         style="fill:#262626;stroke-linecap:butt;stroke-linejoin:round">
        <use
           height="100%"
           width="100%"
           y="0"
           x="0"
           style="stroke-linecap:butt;stroke-linejoin:round"
           id="use84"
           xlink:href="#CMR17-72"
           transform="scale(0.996264,0.996264)" />
      </g>
    </g>
    <g
       style="stroke-linecap:butt;stroke-linejoin:round"
       id="line2d_13">
      <path
         inkscape:connector-curvature="0"
         id="path88"
         style="fill:none;stroke:#cccccc;stroke-width:0.80000001;stroke-linecap:round;stroke-linejoin:round"
         d="m 176.5697,84.844323 0,-74.044323"
         clip-path="url(#pb92dc635cb)" />
    </g>
    <g
       style="stroke-linecap:butt;stroke-linejoin:round"
       id="line2d_14" />
    <g
       style="stroke-linecap:butt;stroke-linejoin:round"
       id="text_7"
       transform="translate(12.495747,0)">
      <!-- H -->
      <g
         id="g92"
         transform="matrix(0.1,0,0,-0.1,172.83371,95.262822)"
         style="fill:#262626;stroke-linecap:butt;stroke-linejoin:round">
        <use
           height="100%"
           width="100%"
           y="0"
           x="0"
           style="stroke-linecap:butt;stroke-linejoin:round"
           id="use94"
           xlink:href="#CMR17-72"
           transform="scale(0.996264,0.996264)" />
      </g>
    </g>
    <g
       style="stroke-linecap:butt;stroke-linejoin:round"
       id="line2d_15">
      <path
         inkscape:connector-curvature="0"
         id="path98"
         style="fill:none;stroke:#cccccc;stroke-width:0.80000001;stroke-linecap:round;stroke-linejoin:round"
         d="m 201.03273,84.844323 0,-74.044323"
         clip-path="url(#pb92dc635cb)" />
    </g>
    <g
       style="stroke-linecap:butt;stroke-linejoin:round"
       id="line2d_16" />
    <g
       style="stroke-linecap:butt;stroke-linejoin:round"
       id="text_8"
       transform="translate(12.495747,0)">
      <!-- H -->
      <g
         id="g102"
         transform="matrix(0.1,0,0,-0.1,197.29674,95.262822)"
         style="fill:#262626;stroke-linecap:butt;stroke-linejoin:round">
        <use
           height="100%"
           width="100%"
           y="0"
           x="0"
           style="stroke-linecap:butt;stroke-linejoin:round"
           id="use104"
           xlink:href="#CMR17-72"
           transform="scale(0.996264,0.996264)" />
      </g>
    </g>
    <g
       style="stroke-linecap:butt;stroke-linejoin:round"
       id="line2d_17">
      <path
         inkscape:connector-curvature="0"
         id="path108"
         style="fill:none;stroke:#cccccc;stroke-width:0.80000001;stroke-linecap:round;stroke-linejoin:round"
         d="m 225.49576,84.844323 0,-74.044323"
         clip-path="url(#pb92dc635cb)" />
    </g>
    <g
       style="stroke-linecap:butt;stroke-linejoin:round"
       id="line2d_18" />
    <g
       style="stroke-linecap:butt;stroke-linejoin:round"
       id="text_9"
       transform="translate(12.495747,0)">
      <!-- H -->
      <g
         id="g112"
         transform="matrix(0.1,0,0,-0.1,221.75977,95.262822)"
         style="fill:#262626;stroke-linecap:butt;stroke-linejoin:round">
        <use
           height="100%"
           width="100%"
           y="0"
           x="0"
           style="stroke-linecap:butt;stroke-linejoin:round"
           id="use114"
           xlink:href="#CMR17-72"
           transform="scale(0.996264,0.996264)" />
      </g>
    </g>
    <g
       style="stroke-linecap:butt;stroke-linejoin:round"
       id="line2d_19">
      <path
         inkscape:connector-curvature="0"
         id="path118"
         style="fill:none;stroke:#cccccc;stroke-width:0.80000001;stroke-linecap:round;stroke-linejoin:round"
         d="m 249.95879,84.844323 0,-74.044323"
         clip-path="url(#pb92dc635cb)" />
    </g>
    <g
       style="stroke-linecap:butt;stroke-linejoin:round"
       id="line2d_20" />
    <g
       style="stroke-linecap:butt;stroke-linejoin:round"
       id="text_10"
       transform="translate(12.495747,0)">
      <!-- O -->
      <g
         id="g122"
         transform="matrix(0.1,0,0,-0.1,246.08442,95.262822)"
         style="fill:#262626;stroke-linecap:butt;stroke-linejoin:round">
        <use
           height="100%"
           width="100%"
           y="0"
           x="0"
           style="stroke-linecap:butt;stroke-linejoin:round"
           id="use124"
           xlink:href="#CMR17-79"
           transform="scale(0.996264,0.996264)" />
      </g>
    </g>
    <g
       style="stroke-linecap:butt;stroke-linejoin:round"
       id="line2d_21">
      <path
         inkscape:connector-curvature="0"
         id="path128"
         style="fill:none;stroke:#cccccc;stroke-width:0.80000001;stroke-linecap:round;stroke-linejoin:round"
         d="m 274.42182,84.844323 0,-74.044323"
         clip-path="url(#pb92dc635cb)" />
    </g>
    <g
       style="stroke-linecap:butt;stroke-linejoin:round"
       id="line2d_22" />
    <g
       style="stroke-linecap:butt;stroke-linejoin:round"
       id="text_11"
       transform="translate(12.495747,0)">
      <!-- O -->
      <g
         id="g132"
         transform="matrix(0.1,0,0,-0.1,270.54745,95.262822)"
         style="fill:#262626;stroke-linecap:butt;stroke-linejoin:round">
        <use
           height="100%"
           width="100%"
           y="0"
           x="0"
           style="stroke-linecap:butt;stroke-linejoin:round"
           id="use134"
           xlink:href="#CMR17-79"
           transform="scale(0.996264,0.996264)" />
      </g>
    </g>
    <g
       style="stroke-linecap:butt;stroke-linejoin:round"
       id="line2d_23">
      <path
         inkscape:connector-curvature="0"
         id="path138"
         style="fill:none;stroke:#cccccc;stroke-width:0.80000001;stroke-linecap:round;stroke-linejoin:round"
         d="m 298.88485,84.844323 0,-74.044323"
         clip-path="url(#pb92dc635cb)" />
    </g>
    <g
       style="stroke-linecap:butt;stroke-linejoin:round"
       id="line2d_24" />
    <g
       style="stroke-linecap:butt;stroke-linejoin:round"
       id="text_12"
       transform="translate(12.495747,0)">
      <!-- H -->
      <g
         id="g142"
         transform="matrix(0.1,0,0,-0.1,295.14886,95.262822)"
         style="fill:#262626;stroke-linecap:butt;stroke-linejoin:round">
        <use
           height="100%"
           width="100%"
           y="0"
           x="0"
           style="stroke-linecap:butt;stroke-linejoin:round"
           id="use144"
           xlink:href="#CMR17-72"
           transform="scale(0.996264,0.996264)" />
      </g>
    </g>
    <g
       style="stroke-linecap:butt;stroke-linejoin:round"
       id="line2d_25">
      <path
         inkscape:connector-curvature="0"
         id="path148"
         style="fill:none;stroke:#cccccc;stroke-width:0.80000001;stroke-linecap:round;stroke-linejoin:round"
         d="m 323.34788,84.844323 0,-74.044323"
         clip-path="url(#pb92dc635cb)" />
    </g>
    <g
       style="stroke-linecap:butt;stroke-linejoin:round"
       id="line2d_26" />
    <g
       style="stroke-linecap:butt;stroke-linejoin:round"
       id="text_13"
       transform="translate(12.495747,0)">
      <!-- O -->
      <g
         id="g152"
         transform="matrix(0.1,0,0,-0.1,319.47351,95.262822)"
         style="fill:#262626;stroke-linecap:butt;stroke-linejoin:round">
        <use
           height="100%"
           width="100%"
           y="0"
           x="0"
           style="stroke-linecap:butt;stroke-linejoin:round"
           id="use154"
           xlink:href="#CMR17-79"
           transform="scale(0.996264,0.996264)" />
      </g>
    </g>
    <g
       style="stroke-linecap:butt;stroke-linejoin:round"
       id="line2d_27">
      <path
         inkscape:connector-curvature="0"
         id="path158"
         style="fill:none;stroke:#cccccc;stroke-width:0.80000001;stroke-linecap:round;stroke-linejoin:round"
         d="m 347.81091,84.844323 0,-74.044323"
         clip-path="url(#pb92dc635cb)" />
    </g>
    <g
       style="stroke-linecap:butt;stroke-linejoin:round"
       id="line2d_28" />
    <g
       style="stroke-linecap:butt;stroke-linejoin:round"
       id="text_14"
       transform="translate(12.495747,0)">
      <!-- O -->
      <g
         id="g162"
         transform="matrix(0.1,0,0,-0.1,343.93654,95.262822)"
         style="fill:#262626;stroke-linecap:butt;stroke-linejoin:round">
        <use
           height="100%"
           width="100%"
           y="0"
           x="0"
           style="stroke-linecap:butt;stroke-linejoin:round"
           id="use164"
           xlink:href="#CMR17-79"
           transform="scale(0.996264,0.996264)" />
      </g>
    </g>
    <g
       style="stroke-linecap:butt;stroke-linejoin:round"
       id="line2d_29">
      <path
         inkscape:connector-curvature="0"
         id="path168"
         style="fill:none;stroke:#cccccc;stroke-width:0.80000001;stroke-linecap:round;stroke-linejoin:round"
         d="m 372.27394,84.844323 0,-74.044323"
         clip-path="url(#pb92dc635cb)" />
    </g>
    <g
       style="stroke-linecap:butt;stroke-linejoin:round"
       id="line2d_30" />
    <g
       style="stroke-linecap:butt;stroke-linejoin:round"
       id="text_15"
       transform="translate(12.495747,0)">
      <!-- W -->
      <g
         id="g172"
         transform="matrix(0.1,0,0,-0.1,367.15424,95.262822)"
         style="fill:#262626;stroke-linecap:butt;stroke-linejoin:round">
        <use
           height="100%"
           width="100%"
           y="0"
           x="0"
           style="stroke-linecap:butt;stroke-linejoin:round"
           id="use174"
           xlink:href="#CMR17-87"
           transform="scale(0.996264,0.996264)" />
      </g>
    </g>
    <g
       style="stroke-linecap:butt;stroke-linejoin:round"
       id="line2d_31">
      <path
         inkscape:connector-curvature="0"
         id="path178"
         style="fill:none;stroke:#cccccc;stroke-width:0.80000001;stroke-linecap:round;stroke-linejoin:round"
         d="m 396.73697,84.844323 0,-74.044323"
         clip-path="url(#pb92dc635cb)" />
    </g>
    <g
       style="stroke-linecap:butt;stroke-linejoin:round"
       id="line2d_32" />
    <g
       style="stroke-linecap:butt;stroke-linejoin:round"
       id="text_16"
       transform="translate(12.495747,0)">
      <!-- W -->
      <g
         id="g182"
         transform="matrix(0.1,0,0,-0.1,391.61727,95.262822)"
         style="fill:#262626;stroke-linecap:butt;stroke-linejoin:round">
        <use
           height="100%"
           width="100%"
           y="0"
           x="0"
           style="stroke-linecap:butt;stroke-linejoin:round"
           id="use184"
           xlink:href="#CMR17-87"
           transform="scale(0.996264,0.996264)" />
      </g>
    </g>
    <g
       style="stroke-linecap:butt;stroke-linejoin:round"
       id="line2d_33">
      <path
         inkscape:connector-curvature="0"
         id="path189"
         style="fill:none;stroke:#cccccc;stroke-width:0.80000001;stroke-linecap:round;stroke-linejoin:round"
         d="m 29.791528,75.588783 391.408472,0"
         clip-path="url(#pb92dc635cb)" />
    </g>
    <g
       style="stroke-linecap:butt;stroke-linejoin:round"
       id="line2d_34" />
    <g
       style="stroke-linecap:butt;stroke-linejoin:round"
       id="text_17">
      <!-- $o_{p}$ -->
      <defs
         id="defs193">
        <path
           style="stroke-linecap:butt;stroke-linejoin:round"
           inkscape:connector-curvature="0"
           id="CMMI12-111"
           d="M 45.59375,27.4375 C 45.59375,36.921875 39.40625,44 30.296875,44 17.09375,44 4.09375,29.640625 4.09375,15.5625 4.09375,6.09375 10.296875,-1 19.40625,-1 c 13.296875,0 26.1875,14.375 26.1875,28.4375 z M 19.5,1 c -5,0 -8.703125,3.984375 -8.703125,10.96875 0,4.59375 2.40625,14.78125 5.203125,19.765625 4.5,7.6875 10.09375,10.28125 14.203125,10.28125 4.890625,0 8.703125,-4 8.703125,-10.984375 0,-3.984375 -2.109375,-14.671875 -5.90625,-20.75 C 28.90625,3.59375 23.40625,1 19.5,1 Z" />
        <path
           style="stroke-linecap:butt;stroke-linejoin:round"
           inkscape:connector-curvature="0"
           id="CMMI12-112"
           d="m 4.296875,-12.328125 c -0.703125,-2.984375 -1.09375,-3.78125 -5.203125,-3.78125 -1.1875,0 -2.1875,0 -2.1875,-1.890625 0,-0.203125 0.09375,-1 1.1875,-1 1.3125,0 2.703125,0 4,0 l 4.3125,0 c 2.09375,0 7.1875,0 9.296875,0 0.59375,0 1.796875,0 1.796875,1.796875 0,1.09375 -0.703125,1.09375 -2.40625,1.09375 -4.59375,0 -4.890625,0.6875 -4.890625,1.46875 0,1.1875 4.5,18.0625 5.09375,20.328125 1.109375,-2.796875 3.796875,-6.6875 9,-6.6875 11.296875,0 23.5,14.671875 23.5,29.34375 C 47.796875,37.515625 42.59375,44 35.09375,44 28.703125,44 23.296875,37.8125 22.203125,36.421875 21.40625,41.40625 17.5,44 13.5,44 10.59375,44 8.296875,42.609375 6.40625,38.8125 4.59375,35.21875 3.203125,29.140625 3.203125,28.734375 c 0,-0.390625 0.390625,-0.890625 1.09375,-0.890625 0.796875,0 0.90625,0.09375 1.5,2.390625 1.5,5.890625 3.40625,11.78125 7.40625,11.78125 2.296875,0 3.09375,-1.59375 3.09375,-4.5625 0,-2.375 -0.296875,-3.375 -0.703125,-5.15625 z m 17.296875,43.46875 c 0.703125,2.78125 3.5,5.6875 5.109375,7.078125 1.09375,1 4.390625,3.796875 8.203125,3.796875 4.390625,0 6.390625,-4.390625 6.390625,-9.578125 C 41.296875,27.640625 38.5,16.359375 36,11.171875 33.5,5.78125 28.90625,1 24.296875,1 17.5,1 16.40625,9.578125 16.40625,9.984375 c 0,0.296875 0.1875,1.09375 0.296875,1.59375 z" />
      </defs>
      <g
         id="g197"
         transform="matrix(0.16,0,0,-0.16,13.174351,81.123577)"
         style="fill:#262626;stroke-linecap:butt;stroke-linejoin:round">
        <use
           height="100%"
           width="100%"
           y="0"
           x="0"
           style="stroke-linecap:butt;stroke-linejoin:round"
           id="use199"
           xlink:href="#CMMI12-111"
           transform="matrix(0.996264,0,0,0.996264,0,14.943915)" />
        <use
           height="100%"
           width="100%"
           y="0"
           x="0"
           style="stroke-linecap:butt;stroke-linejoin:round"
           id="use201"
           xlink:href="#CMMI12-112"
           transform="matrix(0.697382,0,0,0.697382,46.89531,0)" />
      </g>
    </g>
    <g
       style="stroke-linecap:butt;stroke-linejoin:round"
       id="line2d_35">
      <path
         inkscape:connector-curvature="0"
         id="path205"
         style="fill:none;stroke:#cccccc;stroke-width:0.80000001;stroke-linecap:round;stroke-linejoin:round"
         d="m 29.791528,57.077702 391.408472,0"
         clip-path="url(#pb92dc635cb)" />
    </g>
    <g
       style="stroke-linecap:butt;stroke-linejoin:round"
       id="line2d_36" />
    <g
       style="stroke-linecap:butt;stroke-linejoin:round"
       id="text_18">
      <!-- $o_{w}$ -->
      <defs
         id="defs209">
        <path
           style="stroke-linecap:butt;stroke-linejoin:round"
           inkscape:connector-curvature="0"
           id="CMMI12-119"
           d="M 34.40625,6.09375 C 36.59375,0.09375 42.796875,-1 46.59375,-1 54.203125,-1 58.703125,5.59375 61.5,12.46875 c 2.296875,5.796875 6,18.96875 6,24.859375 C 67.5,43.40625 64.40625,44 63.5,44 c -2.40625,0 -4.59375,-2.390625 -4.59375,-4.390625 0,-1.1875 0.6875,-1.890625 1.1875,-2.28125 0.90625,-0.90625 3.5,-3.59375 3.5,-8.78125 0,-3.40625 -2.796875,-12.78125 -4.890625,-17.46875 C 55.90625,4.984375 52.203125,1 47,1 c -5.59375,0 -7.40625,4.1875 -7.40625,8.78125 0,2.890625 0.90625,6.390625 1.3125,8.078125 L 45.09375,34.625 c 0.5,2 1.40625,5.484375 1.40625,5.890625 0,1.5 -1.203125,2.5 -2.703125,2.5 -2.890625,0 -3.59375,-2.5 -4.203125,-4.890625 -1,-3.890625 -5.1875,-20.765625 -5.59375,-22.953125 -0.40625,-1.703125 -0.40625,-2.796875 -0.40625,-5 0,-2.390625 -3.1875,-6.1875 -3.296875,-6.375 C 29.203125,2.6875 27.59375,1 24.5,1 c -7.90625,0 -7.90625,7.484375 -7.90625,9.171875 0,3.203125 0.703125,7.59375 5.203125,19.46875 C 23,32.734375 23.5,34.03125 23.5,36.015625 23.5,40.21875 20.5,44 15.59375,44 6.40625,44 2.703125,29.53125 2.703125,28.734375 c 0,-0.390625 0.390625,-0.890625 1.09375,-0.890625 0.90625,0 1,0.390625 1.40625,1.78125 2.5,8.71875 6.390625,12.28125 10.09375,12.28125 1,0 2.609375,0 2.609375,-3.1875 0,-0.5 0,-2.59375 -1.703125,-6.984375 C 11.5,19.265625 10.5,15.171875 10.5,11.375 10.5,0.890625 19.09375,-1 24.203125,-1 25.90625,-1 30.40625,-1 34.40625,6.09375 Z" />
      </defs>
      <g
         id="g212"
         transform="matrix(0.16,0,0,-0.16,10.8,62.612496)"
         style="fill:#262626;stroke-linecap:butt;stroke-linejoin:round">
        <use
           height="100%"
           width="100%"
           y="0"
           x="0"
           style="stroke-linecap:butt;stroke-linejoin:round"
           id="use214"
           xlink:href="#CMMI12-111"
           transform="matrix(0.996264,0,0,0.996264,0,14.943915)" />
        <use
           height="100%"
           width="100%"
           y="0"
           x="0"
           style="stroke-linecap:butt;stroke-linejoin:round"
           id="use216"
           xlink:href="#CMMI12-119"
           transform="matrix(0.697382,0,0,0.697382,46.89531,0)" />
      </g>
    </g>
    <g
       style="stroke-linecap:butt;stroke-linejoin:round"
       id="line2d_37">
      <path
         inkscape:connector-curvature="0"
         id="path220"
         style="fill:none;stroke:#cccccc;stroke-width:0.80000001;stroke-linecap:round;stroke-linejoin:round"
         d="m 29.791528,38.566621 391.408472,0"
         clip-path="url(#pb92dc635cb)" />
    </g>
    <g
       style="stroke-linecap:butt;stroke-linejoin:round"
       id="line2d_38" />
    <g
       style="stroke-linecap:butt;stroke-linejoin:round"
       id="text_19">
      <!-- $o_{h}$ -->
      <defs
         id="defs224">
        <path
           style="stroke-linecap:butt;stroke-linejoin:round"
           inkscape:connector-curvature="0"
           id="CMMI12-104"
           d="m 28.09375,66.515625 c 0.109375,0.40625 0.3125,1 0.3125,1.484375 0,1 -1,1 -1.203125,1 -0.109375,0 -5,-0.4375 -5.5,-0.5625 C 20,68.328125 18.5,68.09375 16.703125,68.09375 14.203125,67.890625 13.5,67.796875 13.5,66 c 0,-1 0.796875,-1 2.203125,-1 4.890625,0 5,-0.890625 5,-1.875 0,-0.59375 -0.203125,-1.390625 -0.296875,-1.6875 L 5.90625,3.875 C 5.5,2.375 5.5,2.1875 5.5,1.578125 5.5,-0.59375 7.203125,-1 8.203125,-1 c 1.703125,0 3,1.296875 3.5,2.390625 l 4.5,18.0625 c 0.5,2.203125 1.09375,4.296875 1.59375,6.484375 1.109375,4.203125 1.109375,4.296875 3,7.1875 1.90625,2.890625 6.40625,8.890625 14.109375,8.890625 4,0 5.390625,-3 5.390625,-6.984375 0,-5.59375 -3.890625,-16.46875 -6.09375,-22.453125 -0.90625,-2.40625 -1.40625,-3.703125 -1.40625,-5.5 C 32.796875,2.59375 35.90625,-1 40.703125,-1 50,-1 53.5,13.671875 53.5,14.265625 c 0,0.5 -0.40625,0.90625 -1,0.90625 -0.90625,0 -1,-0.296875 -1.5,-2 C 48.703125,5.1875 45,1 41,1 40,1 38.40625,1 38.40625,4.203125 38.40625,6.8125 39.59375,10 40,11.09375 c 1.796875,4.8125 6.296875,16.609375 6.296875,22.421875 C 46.296875,39.5 42.796875,44 35.203125,44 29.5,44 24.5,41.3125 20.40625,36.125 Z" />
      </defs>
      <g
         id="g227"
         transform="matrix(0.16,0,0,-0.16,12.359429,44.101415)"
         style="fill:#262626;stroke-linecap:butt;stroke-linejoin:round">
        <use
           height="100%"
           width="100%"
           y="0"
           x="0"
           style="stroke-linecap:butt;stroke-linejoin:round"
           id="use229"
           xlink:href="#CMMI12-111"
           transform="matrix(0.996264,0,0,0.996264,0,14.943915)" />
        <use
           height="100%"
           width="100%"
           y="0"
           x="0"
           style="stroke-linecap:butt;stroke-linejoin:round"
           id="use231"
           xlink:href="#CMMI12-104"
           transform="matrix(0.697382,0,0,0.697382,46.89531,0)" />
      </g>
    </g>
    <g
       style="stroke-linecap:butt;stroke-linejoin:round"
       id="line2d_39">
      <path
         inkscape:connector-curvature="0"
         id="path235"
         style="fill:none;stroke:#cccccc;stroke-width:0.80000001;stroke-linecap:round;stroke-linejoin:round"
         d="m 29.791528,20.05554 391.408472,0"
         clip-path="url(#pb92dc635cb)" />
    </g>
    <g
       style="stroke-linecap:butt;stroke-linejoin:round"
       id="line2d_40" />
    <g
       style="stroke-linecap:butt;stroke-linejoin:round"
       id="text_20">
      <!-- $o_{l}$ -->
      <defs
         id="defs239">
        <path
           style="stroke-linecap:butt;stroke-linejoin:round"
           inkscape:connector-curvature="0"
           id="CMMI12-108"
           d="M 25.40625,66.515625 C 25.5,66.90625 25.703125,67.5 25.703125,68 c 0,1 -1,1 -1.203125,1 -0.09375,0 -3.703125,-0.359375 -5.5,-0.609375 -1.703125,0 -3.203125,-0.296875 -5,-0.296875 C 11.59375,67.890625 10.90625,67.796875 10.90625,66 c 0,-1 1,-1 2,-1 C 18,65 18,64.09375 18,63.109375 c 0,-0.390625 0,-0.59375 -0.5,-2.375 L 5.09375,11.421875 c -0.296875,-1.09375 -0.5,-1.890625 -0.5,-3.46875 C 4.59375,2.984375 8.296875,-1 13.40625,-1 c 3.296875,0 5.5,2.1875 7.09375,5.28125 1.703125,3.265625 3.09375,9.53125 3.09375,9.921875 0,0.5 -0.390625,0.90625 -1,0.90625 -0.890625,0 -1,-0.5 -1.390625,-1.984375 C 19.40625,6.265625 17.59375,1 13.59375,1 c -3,0 -3,3.171875 -3,4.578125 0,0.390625 0,2.46875 0.703125,5.265625 z" />
      </defs>
      <g
         id="g242"
         transform="matrix(0.16,0,0,-0.16,15.458936,25.590335)"
         style="fill:#262626;stroke-linecap:butt;stroke-linejoin:round">
        <use
           height="100%"
           width="100%"
           y="0"
           x="0"
           style="stroke-linecap:butt;stroke-linejoin:round"
           id="use244"
           xlink:href="#CMMI12-111"
           transform="matrix(0.996264,0,0,0.996264,0,14.943915)" />
        <use
           height="100%"
           width="100%"
           y="0"
           x="0"
           style="stroke-linecap:butt;stroke-linejoin:round"
           id="use246"
           xlink:href="#CMMI12-108"
           transform="matrix(0.697382,0,0,0.697382,46.89531,0)" />
      </g>
    </g>
    <path
       clip-path="url(#pb92dc635cb)"
       d="m 29.791528,80.216553 24.46303,0 0,-9.25554 -24.46303,0 z"
       style="fill:#444444;stroke-linecap:butt;stroke-linejoin:round"
       id="path249"
       inkscape:connector-curvature="0" />
    <path
       clip-path="url(#pb92dc635cb)"
       d="m 29.791528,43.194391 24.46303,0 0,-9.25554 -24.46303,0 z"
       style="fill:#444444;stroke-linecap:butt;stroke-linejoin:round"
       id="path252"
       inkscape:connector-curvature="0" />
    <path
       clip-path="url(#pb92dc635cb)"
       d="m 29.791528,24.683311 24.46303,0 0,-9.255541 -24.46303,0 z"
       style="fill:#444444;stroke-linecap:butt;stroke-linejoin:round"
       id="path255"
       inkscape:connector-curvature="0" />
    <path
       clip-path="url(#pb92dc635cb)"
       d="m 78.717587,61.705472 24.463033,0 0,-9.25554 -24.463033,0 z"
       style="fill:#444444;stroke-linecap:butt;stroke-linejoin:round"
       id="path258"
       inkscape:connector-curvature="0" />
    <path
       clip-path="url(#pb92dc635cb)"
       d="m 103.18062,80.216553 24.46303,0 0,-9.25554 -24.46303,0 z"
       style="fill:#444444;stroke-linecap:butt;stroke-linejoin:round"
       id="path261"
       inkscape:connector-curvature="0" />
    <path
       clip-path="url(#pb92dc635cb)"
       d="m 152.10668,80.216553 24.46302,0 0,-9.25554 -24.46302,0 z"
       style="fill:#444444;stroke-linecap:butt;stroke-linejoin:round"
       id="path264"
       inkscape:connector-curvature="0" />
    <path
       clip-path="url(#pb92dc635cb)"
       d="m 152.10668,43.194391 24.46302,0 0,-9.25554 -24.46302,0 z"
       style="fill:#444444;stroke-linecap:butt;stroke-linejoin:round"
       id="path267"
       inkscape:connector-curvature="0" />
    <path
       clip-path="url(#pb92dc635cb)"
       d="m 152.10668,24.683311 24.46302,0 0,-9.255541 -24.46302,0 z"
       style="fill:#444444;stroke-linecap:butt;stroke-linejoin:round"
       id="path270"
       inkscape:connector-curvature="0" />
    <path
       clip-path="url(#pb92dc635cb)"
       d="m 176.5697,80.216553 24.46303,0 0,-9.25554 -24.46303,0 z"
       style="fill:#444444;stroke-linecap:butt;stroke-linejoin:round"
       id="path273"
       inkscape:connector-curvature="0" />
    <path
       clip-path="url(#pb92dc635cb)"
       d="m 176.5697,43.194391 24.46303,0 0,-9.25554 -24.46303,0 z"
       style="fill:#444444;stroke-linecap:butt;stroke-linejoin:round"
       id="path276"
       inkscape:connector-curvature="0" />
    <path
       clip-path="url(#pb92dc635cb)"
       d="m 176.5697,24.683311 24.46303,0 0,-9.255541 -24.46303,0 z"
       style="fill:#444444;stroke-linecap:butt;stroke-linejoin:round"
       id="path279"
       inkscape:connector-curvature="0" />
    <path
       clip-path="url(#pb92dc635cb)"
       d="m 201.03273,80.216553 24.46303,0 0,-9.25554 -24.46303,0 z"
       style="fill:#444444;stroke-linecap:butt;stroke-linejoin:round"
       id="path282"
       inkscape:connector-curvature="0" />
    <path
       clip-path="url(#pb92dc635cb)"
       d="m 201.03273,24.683311 24.46303,0 0,-9.255541 -24.46303,0 z"
       style="fill:#444444;stroke-linecap:butt;stroke-linejoin:round"
       id="path285"
       inkscape:connector-curvature="0" />
    <path
       clip-path="url(#pb92dc635cb)"
       d="m 225.49576,80.216553 24.46303,0 0,-9.25554 -24.46303,0 z"
       style="fill:#444444;stroke-linecap:butt;stroke-linejoin:round"
       id="path288"
       inkscape:connector-curvature="0" />
    <path
       clip-path="url(#pb92dc635cb)"
       d="m 274.42182,80.216553 24.46303,0 0,-9.25554 -24.46303,0 z"
       style="fill:#444444;stroke-linecap:butt;stroke-linejoin:round"
       id="path291"
       inkscape:connector-curvature="0" />
    <path
       clip-path="url(#pb92dc635cb)"
       d="m 274.42182,24.683311 24.46303,0 0,-9.255541 -24.46303,0 z"
       style="fill:#444444;stroke-linecap:butt;stroke-linejoin:round"
       id="path294"
       inkscape:connector-curvature="0" />
    <path
       clip-path="url(#pb92dc635cb)"
       d="m 298.88485,80.216553 24.46303,0 0,-9.25554 -24.46303,0 z"
       style="fill:#444444;stroke-linecap:butt;stroke-linejoin:round"
       id="path297"
       inkscape:connector-curvature="0" />
    <path
       clip-path="url(#pb92dc635cb)"
       d="m 323.34788,24.683311 24.46303,0 0,-9.255541 -24.46303,0 z"
       style="fill:#444444;stroke-linecap:butt;stroke-linejoin:round"
       id="path300"
       inkscape:connector-curvature="0" />
    <path
       clip-path="url(#pb92dc635cb)"
       d="m 372.27394,80.216553 24.46303,0 0,-9.25554 -24.46303,0 z"
       style="fill:#444444;stroke-linecap:butt;stroke-linejoin:round"
       id="path303"
       inkscape:connector-curvature="0" />
    <path
       clip-path="url(#pb92dc635cb)"
       d="m 372.27394,61.705472 24.46303,0 0,-9.25554 -24.46303,0 z"
       style="fill:#444444;stroke-linecap:butt;stroke-linejoin:round"
       id="path306"
       inkscape:connector-curvature="0" />
    <path
       clip-path="url(#pb92dc635cb)"
       d="m 396.73697,80.216553 24.46303,0 0,-9.25554 -24.46303,0 z"
       style="fill:#444444;stroke-linecap:butt;stroke-linejoin:round"
       id="path309"
       inkscape:connector-curvature="0" />
    <path
       clip-path="url(#pb92dc635cb)"
       d="m 396.73697,61.705472 24.46303,0 0,-9.25554 -24.46303,0 z"
       style="fill:#444444;stroke-linecap:butt;stroke-linejoin:round"
       id="path312"
       inkscape:connector-curvature="0" />
    <path
       d="m 29.791528,84.844323 0,-74.044323"
       style="fill:none;stroke:#cccccc;stroke-linecap:square;stroke-linejoin:miter"
       id="path315"
       inkscape:connector-curvature="0" />
    <path
       d="m 29.791528,84.844323 391.408472,0"
       style="fill:none;stroke:#cccccc;stroke-linecap:square;stroke-linejoin:miter"
       id="path318"
       inkscape:connector-curvature="0" />
  </g>
  <defs
     id="defs320">
    <clipPath
       id="pb92dc635cb">
      <rect
         height="74.044323"
         width="391.408472"
         x="29.791528"
         y="10.8"
         id="rect323" />
    </clipPath>
  </defs>
</svg>
