<?xml version="1.0" encoding="utf-8" standalone="no"?>
<!DOCTYPE svg PUBLIC "-//W3C//DTD SVG 1.1//EN"
  "http://www.w3.org/Graphics/SVG/1.1/DTD/svg11.dtd">
<!-- Created with matplotlib (http://matplotlib.org/) -->
<svg height="288pt" version="1.1" viewBox="0 0 432 288" width="432pt" xmlns="http://www.w3.org/2000/svg" xmlns:xlink="http://www.w3.org/1999/xlink">
 <defs>
  <style type="text/css">
*{stroke-linecap:butt;stroke-linejoin:round;}
  </style>
 </defs>
 <g id="figure_1">
  <g id="patch_1">
   <path d="M 0 288 
L 432 288 
L 432 0 
L 0 0 
z
" style="fill:#ffffff;"/>
  </g>
  <g id="axes_1">
   <g id="patch_2">
    <path d="M 54 252 
L 388.8 252 
L 388.8 34.56 
L 54 34.56 
z
" style="fill:#ffffff;"/>
   </g>
   <g id="matplotlib.axis_1">
    <g id="xtick_1">
     <g id="line2d_1">
      <path clip-path="url(#p8584f99d79)" d="M 68.871243 252 
L 68.871243 34.56 
" style="fill:none;stroke:#cccccc;stroke-linecap:round;"/>
     </g>
     <g id="line2d_2"/>
     <g id="text_1">
      <!-- $0$ -->
      <defs>
       <path d="M 42 31.640625 
C 42 37.75 41.90625 48.125 37.703125 56.109375 
C 34 63.109375 28.09375 65.59375 22.90625 65.59375 
C 18.09375 65.59375 12 63.40625 8.203125 56.203125 
C 4.203125 48.71875 3.796875 39.4375 3.796875 31.640625 
C 3.796875 25.953125 3.90625 17.28125 7 9.671875 
C 11.296875 -0.609375 19 -2 22.90625 -2 
C 27.5 -2 34.5 -0.109375 38.59375 9.375 
C 41.59375 16.28125 42 24.359375 42 31.640625 
z
M 22.90625 -0.40625 
C 16.5 -0.40625 12.703125 5.078125 11.296875 12.6875 
C 10.203125 18.5625 10.203125 27.15625 10.203125 32.75 
C 10.203125 40.4375 10.203125 46.828125 11.5 52.921875 
C 13.40625 61.390625 19 64 22.90625 64 
C 27 64 32.296875 61.296875 34.203125 53.125 
C 35.5 47.4375 35.59375 40.734375 35.59375 32.75 
C 35.59375 26.25 35.59375 18.265625 34.40625 12.375 
C 32.296875 1.484375 26.40625 -0.40625 22.90625 -0.40625 
z
" id="CMR17-48"/>
      </defs>
      <g style="fill:#262626;" transform="translate(66.380575 265.918498)scale(0.1 -0.1)">
       <use transform="scale(0.996264)" xlink:href="#CMR17-48"/>
      </g>
     </g>
    </g>
    <g id="xtick_2">
     <g id="line2d_3">
      <path clip-path="url(#p8584f99d79)" d="M 106.537842 252 
L 106.537842 34.56 
" style="fill:none;stroke:#cccccc;stroke-linecap:round;"/>
     </g>
     <g id="line2d_4"/>
     <g id="text_2">
      <!-- $100$ -->
      <defs>
       <path d="M 26.59375 63.40625 
C 26.59375 65.5 26.5 65.5 25.09375 65.5 
C 21.203125 61.1875 15.296875 59.796875 9.703125 59.796875 
C 9.40625 59.796875 8.90625 59.796875 8.796875 59.5 
C 8.703125 59.296875 8.703125 59.09375 8.703125 57 
C 11.796875 57 17 57.59375 21 59.984375 
L 21 7.203125 
C 21 3.6875 20.796875 2.5 12.203125 2.5 
L 9.203125 2.5 
L 9.203125 0 
C 14 0 19 0 23.796875 0 
C 28.59375 0 33.59375 0 38.40625 0 
L 38.40625 2.5 
L 35.40625 2.5 
C 26.796875 2.5 26.59375 3.59375 26.59375 7.15625 
z
" id="CMR17-49"/>
      </defs>
      <g style="fill:#262626;" transform="translate(99.065839 265.918498)scale(0.1 -0.1)">
       <use transform="scale(0.996264)" xlink:href="#CMR17-49"/>
       <use transform="translate(45.690477 0)scale(0.996264)" xlink:href="#CMR17-48"/>
       <use transform="translate(91.380954 0)scale(0.996264)" xlink:href="#CMR17-48"/>
      </g>
     </g>
    </g>
    <g id="xtick_3">
     <g id="line2d_5">
      <path clip-path="url(#p8584f99d79)" d="M 144.20444 252 
L 144.20444 34.56 
" style="fill:none;stroke:#cccccc;stroke-linecap:round;"/>
     </g>
     <g id="line2d_6"/>
     <g id="text_3">
      <!-- $200$ -->
      <defs>
       <path d="M 41.703125 15.453125 
L 39.90625 15.453125 
C 38.90625 8.375 38.09375 7.171875 37.703125 6.5625 
C 37.203125 5.765625 30 5.765625 28.59375 5.765625 
L 9.40625 5.765625 
C 13 9.671875 20 16.75 28.5 24.953125 
C 34.59375 30.734375 41.703125 37.53125 41.703125 47.421875 
C 41.703125 59.21875 32.296875 66 21.796875 66 
C 10.796875 66 4.09375 56.3125 4.09375 47.34375 
C 4.09375 43.4375 7 42.9375 8.203125 42.9375 
C 9.203125 42.9375 12.203125 43.546875 12.203125 47.03125 
C 12.203125 50.109375 9.59375 51 8.203125 51 
C 7.59375 51 7 50.90625 6.59375 50.703125 
C 8.5 59.21875 14.296875 63.40625 20.40625 63.40625 
C 29.09375 63.40625 34.796875 56.515625 34.796875 47.421875 
C 34.796875 38.734375 29.703125 31.25 24 24.75 
L 4.09375 2.28125 
L 4.09375 0 
L 39.296875 0 
z
" id="CMR17-50"/>
      </defs>
      <g style="fill:#262626;" transform="translate(136.732437 265.918498)scale(0.1 -0.1)">
       <use transform="scale(0.996264)" xlink:href="#CMR17-50"/>
       <use transform="translate(45.690477 0)scale(0.996264)" xlink:href="#CMR17-48"/>
       <use transform="translate(91.380954 0)scale(0.996264)" xlink:href="#CMR17-48"/>
      </g>
     </g>
    </g>
    <g id="xtick_4">
     <g id="line2d_7">
      <path clip-path="url(#p8584f99d79)" d="M 181.871039 252 
L 181.871039 34.56 
" style="fill:none;stroke:#cccccc;stroke-linecap:round;"/>
     </g>
     <g id="line2d_8"/>
     <g id="text_4">
      <!-- $300$ -->
      <defs>
       <path d="M 22.09375 33.703125 
C 31 33.703125 34.90625 25.96875 34.90625 17.03125 
C 34.90625 5 28.5 0.390625 22.703125 0.390625 
C 17.40625 0.390625 8.796875 3.03125 6.09375 10.828125 
C 6.59375 10.625 7.09375 10.625 7.59375 10.625 
C 10 10.625 11.796875 12.21875 11.796875 14.8125 
C 11.796875 17.703125 9.59375 19 7.59375 19 
C 5.90625 19 3.296875 18.203125 3.296875 14.46875 
C 3.296875 5.234375 12.296875 -2 22.90625 -2 
C 34 -2 42.5 6.71875 42.5 16.953125 
C 42.5 26.671875 34.5 33.703125 25 34.796875 
C 32.59375 36.375 39.90625 43.0625 39.90625 52.015625 
C 39.90625 59.6875 32 65.296875 23 65.296875 
C 13.90625 65.296875 5.90625 59.828125 5.90625 52.015625 
C 5.90625 48.59375 8.5 48 9.796875 48 
C 11.90625 48 13.703125 49.296875 13.703125 51.890625 
C 13.703125 54.46875 11.90625 55.765625 9.796875 55.765625 
C 9.40625 55.765625 8.90625 55.765625 8.5 55.578125 
C 11.40625 61.859375 19.296875 63 22.796875 63 
C 26.296875 63 32.90625 61.328125 32.90625 51.875 
C 32.90625 49.109375 32.5 44.1875 29.09375 39.84375 
C 26.09375 36 22.703125 36 19.40625 35.6875 
C 18.90625 35.6875 16.59375 35.453125 16.203125 35.453125 
C 15.5 35.359375 15.09375 35.265625 15.09375 34.5 
C 15.09375 33.796875 15.203125 33.703125 17.203125 33.703125 
z
" id="CMR17-51"/>
      </defs>
      <g style="fill:#262626;" transform="translate(174.399036 265.918498)scale(0.1 -0.1)">
       <use transform="scale(0.996264)" xlink:href="#CMR17-51"/>
       <use transform="translate(45.690477 0)scale(0.996264)" xlink:href="#CMR17-48"/>
       <use transform="translate(91.380954 0)scale(0.996264)" xlink:href="#CMR17-48"/>
      </g>
     </g>
    </g>
    <g id="xtick_5">
     <g id="line2d_9">
      <path clip-path="url(#p8584f99d79)" d="M 219.537637 252 
L 219.537637 34.56 
" style="fill:none;stroke:#cccccc;stroke-linecap:round;"/>
     </g>
     <g id="line2d_10"/>
     <g id="text_5">
      <!-- $400$ -->
      <defs>
       <path d="M 33.59375 64.40625 
C 33.59375 66.5 33.5 66.5 31.703125 66.5 
L 2 19.59375 
L 2 17 
L 27.796875 17 
L 27.796875 7.140625 
C 27.796875 3.5 27.59375 2.5 20.59375 2.5 
L 18.703125 2.5 
L 18.703125 0 
C 21.90625 0 27.296875 0 30.703125 0 
C 34.09375 0 39.5 0 42.703125 0 
L 42.703125 2.5 
L 40.796875 2.5 
C 33.796875 2.5 33.59375 3.5 33.59375 7.140625 
L 33.59375 17 
L 43.796875 17 
L 43.796875 19.59375 
L 33.59375 19.59375 
z
M 28.09375 57.859375 
L 28.09375 19.59375 
L 4 19.59375 
z
" id="CMR17-52"/>
      </defs>
      <g style="fill:#262626;" transform="translate(212.065635 265.918498)scale(0.1 -0.1)">
       <use transform="scale(0.996264)" xlink:href="#CMR17-52"/>
       <use transform="translate(45.690477 0)scale(0.996264)" xlink:href="#CMR17-48"/>
       <use transform="translate(91.380954 0)scale(0.996264)" xlink:href="#CMR17-48"/>
      </g>
     </g>
    </g>
    <g id="xtick_6">
     <g id="line2d_11">
      <path clip-path="url(#p8584f99d79)" d="M 257.204236 252 
L 257.204236 34.56 
" style="fill:none;stroke:#cccccc;stroke-linecap:round;"/>
     </g>
     <g id="line2d_12"/>
     <g id="text_6">
      <!-- $500$ -->
      <defs>
       <path d="M 11.40625 57.6875 
C 12.40625 57.28125 16.5 56 20.703125 56 
C 30 56 35.09375 61.109375 38 64.0625 
C 38 64.953125 38 65.5 37.40625 65.5 
C 37.296875 65.5 37.09375 65.5 36.296875 65.046875 
C 32.796875 63.40625 28.703125 62.078125 23.703125 62.078125 
C 20.703125 62.078125 16.203125 62.484375 11.296875 64.671875 
C 10.203125 65.171875 10 65.171875 9.90625 65.171875 
C 9.40625 65.171875 9.296875 65.0625 9.296875 63.078125 
L 9.296875 34.421875 
C 9.296875 32.640625 9.296875 32.140625 10.296875 32.140625 
C 10.796875 32.140625 11 32.34375 11.5 33.03125 
C 14.703125 37.515625 19.09375 39.40625 24.09375 39.40625 
C 27.59375 39.40625 35.09375 37.21875 35.09375 20.140625 
C 35.09375 16.953125 35.09375 11.171875 32.09375 6.578125 
C 29.59375 2.484375 25.703125 0.390625 21.40625 0.390625 
C 14.796875 0.390625 8.09375 5 6.296875 12.71875 
C 6.703125 12.609375 7.5 12.421875 7.90625 12.421875 
C 9.203125 12.421875 11.703125 13.125 11.703125 16.21875 
C 11.703125 18.90625 9.796875 20 7.90625 20 
C 5.59375 20 4.09375 18.59375 4.09375 15.796875 
C 4.09375 7.09375 11 -2 21.59375 -2 
C 31.90625 -2 41.703125 6.875 41.703125 19.75 
C 41.703125 31.71875 33.90625 41 24.203125 41 
C 19.09375 41 14.796875 39.109375 11.40625 35.53125 
z
" id="CMR17-53"/>
      </defs>
      <g style="fill:#262626;" transform="translate(249.732233 265.918498)scale(0.1 -0.1)">
       <use transform="scale(0.996264)" xlink:href="#CMR17-53"/>
       <use transform="translate(45.690477 0)scale(0.996264)" xlink:href="#CMR17-48"/>
       <use transform="translate(91.380954 0)scale(0.996264)" xlink:href="#CMR17-48"/>
      </g>
     </g>
    </g>
    <g id="xtick_7">
     <g id="line2d_13">
      <path clip-path="url(#p8584f99d79)" d="M 294.870835 252 
L 294.870835 34.56 
" style="fill:none;stroke:#cccccc;stroke-linecap:round;"/>
     </g>
     <g id="line2d_14"/>
     <g id="text_7">
      <!-- $600$ -->
      <defs>
       <path d="M 10.59375 34 
C 10.59375 57.65625 21.796875 63 28.296875 63 
C 30.40625 63 35.5 62.640625 37.5 59 
C 35.90625 59 32.90625 59 32.90625 55.515625 
C 32.90625 52.828125 35.09375 51.921875 36.5 51.921875 
C 37.40625 51.921875 40.09375 52.3125 40.09375 55.625 
C 40.09375 61.78125 35.09375 65.296875 28.203125 65.296875 
C 16.296875 65.296875 3.796875 52.96875 3.796875 31 
C 3.796875 3.953125 15.09375 -2 23.09375 -2 
C 32.796875 -2 42 6.671875 42 20.046875 
C 42 32.515625 33.90625 41.59375 23.703125 41.59375 
C 17.59375 41.59375 13.09375 37.609375 10.59375 30.625 
z
M 23.09375 0.390625 
C 10.796875 0.390625 10.796875 18.75 10.796875 22.4375 
C 10.796875 29.625 14.203125 40 23.5 40 
C 25.203125 40 30.09375 40 33.40625 33.125 
C 35.203125 29.21875 35.203125 25.140625 35.203125 20.140625 
C 35.203125 14.75 35.203125 10.78125 33.09375 6.78125 
C 30.90625 2.671875 27.703125 0.390625 23.09375 0.390625 
z
" id="CMR17-54"/>
      </defs>
      <g style="fill:#262626;" transform="translate(287.398832 265.918498)scale(0.1 -0.1)">
       <use transform="scale(0.996264)" xlink:href="#CMR17-54"/>
       <use transform="translate(45.690477 0)scale(0.996264)" xlink:href="#CMR17-48"/>
       <use transform="translate(91.380954 0)scale(0.996264)" xlink:href="#CMR17-48"/>
      </g>
     </g>
    </g>
    <g id="xtick_8">
     <g id="line2d_15">
      <path clip-path="url(#p8584f99d79)" d="M 332.537433 252 
L 332.537433 34.56 
" style="fill:none;stroke:#cccccc;stroke-linecap:round;"/>
     </g>
     <g id="line2d_16"/>
     <g id="text_8">
      <!-- $700$ -->
      <defs>
       <path d="M 45.09375 61.578125 
L 45.09375 63.765625 
L 21.59375 63.765625 
C 9.90625 63.765625 9.703125 65.078125 9.296875 67 
L 7.5 67 
L 4.59375 48.34375 
L 6.40625 48.34375 
C 6.703125 50.234375 7.40625 55.3125 8.59375 57.203125 
C 9.203125 58 16.59375 58 18.296875 58 
L 40.296875 58 
L 29.203125 41.578125 
C 21.796875 30.53125 16.703125 15.609375 16.703125 2.578125 
C 16.703125 1.390625 16.703125 -2 20.296875 -2 
C 23.90625 -2 23.90625 1.390625 23.90625 2.671875 
L 23.90625 7.265625 
C 23.90625 23.5625 26.703125 34.3125 31.296875 41.1875 
z
" id="CMR17-55"/>
      </defs>
      <g style="fill:#262626;" transform="translate(325.06543 265.918498)scale(0.1 -0.1)">
       <use transform="scale(0.996264)" xlink:href="#CMR17-55"/>
       <use transform="translate(45.690477 0)scale(0.996264)" xlink:href="#CMR17-48"/>
       <use transform="translate(91.380954 0)scale(0.996264)" xlink:href="#CMR17-48"/>
      </g>
     </g>
    </g>
    <g id="xtick_9">
     <g id="line2d_17">
      <path clip-path="url(#p8584f99d79)" d="M 370.204032 252 
L 370.204032 34.56 
" style="fill:none;stroke:#cccccc;stroke-linecap:round;"/>
     </g>
     <g id="line2d_18"/>
     <g id="text_9">
      <!-- $800$ -->
      <defs>
       <path d="M 27.203125 35.375 
C 33.5 38.546875 39.90625 43.328125 39.90625 50.984375 
C 39.90625 60.015625 31.09375 65.296875 23 65.296875 
C 13.90625 65.296875 5.90625 58.734375 5.90625 49.6875 
C 5.90625 47.203125 6.5 42.921875 10.40625 39.140625 
C 11.40625 38.15625 15.59375 35.171875 18.296875 33.28125 
C 13.796875 30.984375 3.296875 25.53125 3.296875 14.59375 
C 3.296875 4.359375 13.09375 -2 22.796875 -2 
C 33.5 -2 42.5 5.65625 42.5 15.78125 
C 42.5 24.84375 36.40625 29.015625 32.40625 31.703125 
z
M 14.09375 44.09375 
C 13.296875 44.59375 9.296875 47.671875 9.296875 52.359375 
C 9.296875 58.421875 15.59375 63 22.796875 63 
C 30.703125 63 36.5 57.4375 36.5 50.96875 
C 36.5 41.703125 26.09375 36.421875 25.59375 36.421875 
C 25.5 36.421875 25.40625 36.421875 24.59375 37.03125 
z
M 32.5 23.734375 
C 34 22.640625 38.796875 19.375 38.796875 13.296875 
C 38.796875 5.953125 31.40625 0.390625 23 0.390625 
C 13.90625 0.390625 7 6.84375 7 14.6875 
C 7 22.546875 13.09375 29.09375 20 32.1875 
z
" id="CMR17-56"/>
      </defs>
      <g style="fill:#262626;" transform="translate(362.732029 265.918498)scale(0.1 -0.1)">
       <use transform="scale(0.996264)" xlink:href="#CMR17-56"/>
       <use transform="translate(45.690477 0)scale(0.996264)" xlink:href="#CMR17-48"/>
       <use transform="translate(91.380954 0)scale(0.996264)" xlink:href="#CMR17-48"/>
      </g>
     </g>
    </g>
    <g id="text_10">
     <!-- Time (s) -->
     <defs>
      <path d="M 62.203125 67.59375 
L 4.5 67.59375 
L 2.796875 45.59375 
L 4.59375 45.59375 
C 5.90625 62.125 7.296875 65 22.703125 65 
C 24.5 65 27.40625 65 28.203125 64.90625 
C 30.09375 64.609375 30.09375 63.40625 30.09375 61.125 
L 30.09375 7.171875 
C 30.09375 3.59375 29.796875 2.5 21.5 2.5 
L 18.703125 2.5 
L 18.703125 0 
C 23.5 0 28.5 0 33.40625 0 
C 38.296875 0 43.296875 0 48.09375 0 
L 48.09375 2.5 
L 45.296875 2.5 
C 37 2.5 36.703125 3.59375 36.703125 7.171875 
L 36.703125 61.125 
C 36.703125 63.3125 36.703125 64.515625 38.5 64.90625 
C 39.296875 65 42.203125 65 44 65 
C 59.296875 65 60.796875 62.125 62.09375 45.59375 
L 63.90625 45.59375 
z
" id="CMR17-84"/>
      <path d="M 15.5 61.078125 
C 15.5 63.265625 13.703125 65.15625 11.40625 65.15625 
C 9.203125 65.15625 7.296875 63.375 7.296875 61.078125 
C 7.296875 58.890625 9.09375 57 11.40625 57 
C 13.59375 57 15.5 58.796875 15.5 61.078125 
z
M 3.796875 42.28125 
L 3.796875 39.703125 
C 9.40625 39.703125 10.203125 39.09375 10.203125 34.328125 
L 10.203125 6.671875 
C 10.203125 2.875 9.796875 2.390625 3.40625 2.390625 
L 3.40625 -0.203125 
C 5.796875 0 10.09375 0 12.59375 0 
C 15 0 19.09375 0 21.40625 -0.203125 
L 21.40625 2.390625 
C 15.5 2.390625 15.296875 2.984375 15.296875 6.5625 
L 15.296875 43.375 
z
" id="CMR17-105"/>
      <path d="M 67.59375 30.203125 
C 67.59375 35.1875 66.703125 43.59375 54.796875 43.59375 
C 48 43.59375 43.296875 39 41.5 33.609375 
L 41.40625 33.609375 
C 40.203125 41.8125 34.296875 43.59375 28.703125 43.59375 
C 20.796875 43.59375 16.703125 37.5 15.203125 33.5 
L 15.09375 33.5 
L 15.09375 43.59375 
L 3.296875 42.5 
L 3.296875 39.90625 
C 9.203125 39.90625 10.09375 39.296875 10.09375 34.5 
L 10.09375 6.6875 
C 10.09375 2.875 9.703125 2.390625 3.296875 2.390625 
L 3.296875 -0.203125 
C 5.703125 0 10.09375 0 12.703125 0 
C 15.296875 0 19.796875 0 22.203125 -0.203125 
L 22.203125 2.390625 
C 15.796875 2.390625 15.40625 2.78125 15.40625 6.6875 
L 15.40625 25.90625 
C 15.40625 35.109375 21 42 28 42 
C 35.40625 42 36.203125 35.40625 36.203125 30.59375 
L 36.203125 6.6875 
C 36.203125 2.875 35.796875 2.390625 29.40625 2.390625 
L 29.40625 -0.203125 
C 31.796875 0 36.203125 0 38.796875 0 
C 41.40625 0 45.90625 0 48.296875 -0.203125 
L 48.296875 2.390625 
C 41.90625 2.390625 41.5 2.78125 41.5 6.6875 
L 41.5 25.90625 
C 41.5 35.109375 47.09375 42 54.09375 42 
C 61.5 42 62.296875 35.40625 62.296875 30.59375 
L 62.296875 6.6875 
C 62.296875 2.875 61.90625 2.390625 55.5 2.390625 
L 55.5 -0.203125 
C 57.90625 0 62.296875 0 64.90625 0 
C 67.5 0 72 0 74.40625 -0.203125 
L 74.40625 2.390625 
C 68 2.390625 67.59375 2.78125 67.59375 6.6875 
z
" id="CMR17-109"/>
      <path d="M 38.09375 23 
C 38.5 23.40625 38.5 23.609375 38.5 24.625 
C 38.5 34.96875 33.09375 44 21.703125 44 
C 11.09375 44 2.703125 33.890625 2.703125 21.609375 
C 2.703125 8.609375 12.203125 -1 22.796875 -1 
C 34 -1 38.40625 9.484375 38.40625 11.5625 
C 38.40625 12.25 37.796875 12.25 37.59375 12.25 
C 36.90625 12.25 36.796875 12.046875 36.40625 10.875 
C 34.203125 4.140625 28.703125 0.796875 23.5 0.796875 
C 19.203125 0.796875 14.90625 3.171875 12.203125 7.5 
C 9.09375 12.546875 9.09375 18.375 9.09375 23 
z
M 9.203125 24.5 
C 9.90625 39.140625 17.59375 42.40625 21.59375 42.40625 
C 28.40625 42.40625 33 35.890625 33.09375 24.5 
z
" id="CMR17-101"/>
      <path d="M 30.59375 -24.390625 
C 30.59375 -24.296875 30.59375 -24.09375 30.296875 -23.796875 
C 25.703125 -19.125 13.40625 -6.359375 13.40625 24.703125 
C 13.40625 55.765625 25.5 68.421875 30.40625 73.390625 
C 30.40625 73.5 30.59375 73.703125 30.59375 74 
C 30.59375 74.296875 30.296875 74.5 29.90625 74.5 
C 28.796875 74.5 20.296875 67.125 15.40625 56.15625 
C 10.40625 45.109375 9 34.359375 9 24.8125 
C 9 17.625 9.703125 5.484375 15.703125 -7.359375 
C 20.5 -17.734375 28.703125 -25 29.90625 -25 
C 30.40625 -25 30.59375 -24.796875 30.59375 -24.390625 
z
" id="CMR17-40"/>
      <path d="M 30.90625 42.140625 
C 30.90625 43.953125 30.796875 44.046875 30.203125 44.046875 
C 29.796875 44.046875 29.703125 43.953125 28.5 42.453125 
C 28.203125 42.046875 27.296875 41.03125 27 40.640625 
C 23.796875 44.046875 19.296875 44.046875 17.59375 44.046875 
C 6.5 44.046875 2.5 38.234375 2.5 32.4375 
C 2.5 23.40625 12.703125 21.328125 15.59375 20.703125 
C 21.90625 19.421875 24.09375 19.015625 26.203125 17.203125 
C 27.5 16.015625 29.703125 13.8125 29.703125 10.21875 
C 29.703125 6 27.296875 0.59375 18.09375 0.59375 
C 9.40625 0.59375 6.296875 7.1875 4.5 15.953125 
C 4.203125 17.34375 4.203125 17.453125 3.40625 17.453125 
C 2.59375 17.453125 2.5 17.34375 2.5 15.359375 
L 2.5 0.984375 
C 2.5 -0.796875 2.59375 -0.90625 3.203125 -0.90625 
C 3.703125 -0.90625 3.796875 -0.796875 4.296875 0 
C 4.90625 0.890625 6.40625 3.296875 7 4.3125 
C 9 1.609375 12.5 -1 18.09375 -1 
C 28 -1 33.296875 4.421875 33.296875 12.25 
C 33.296875 17.375 30.59375 20.078125 29.296875 21.28125 
C 26.296875 24.390625 22.796875 25.09375 18.59375 25.890625 
C 13.09375 27.109375 6.09375 28.515625 6.09375 34.640625 
C 6.09375 37.234375 7.5 42.765625 17.59375 42.765625 
C 28.296875 42.765625 28.90625 32.71875 29.09375 29.5 
C 29.203125 29 29.703125 28.890625 30 28.890625 
C 30.90625 28.890625 30.90625 29.203125 30.90625 30.90625 
z
" id="CMR17-115"/>
      <path d="M 26.296875 24.703125 
C 26.296875 31.875 25.59375 44.015625 19.59375 56.859375 
C 14.796875 67.234375 6.59375 74.5 5.40625 74.5 
C 5.09375 74.5 4.703125 74.390625 4.703125 73.890625 
C 4.703125 73.703125 4.796875 73.59375 4.90625 73.390625 
C 9.703125 68.40625 21.90625 55.75 21.90625 24.75 
C 21.90625 -6.359375 9.796875 -19.015625 4.90625 -24.015625 
C 4.796875 -24.203125 4.703125 -24.3125 4.703125 -24.5 
C 4.703125 -25 5.09375 -25 5.40625 -25 
C 6.5 -25 15 -17.625 19.90625 -6.65625 
C 24.90625 4.390625 26.296875 15.140625 26.296875 24.703125 
z
" id="CMR17-41"/>
     </defs>
     <g style="fill:#262626;" transform="translate(200.669367 280.074855)scale(0.11 -0.11)">
      <use transform="scale(0.996264)" xlink:href="#CMR17-84"/>
      <use transform="translate(66.509881 0)scale(0.996264)" xlink:href="#CMR17-105"/>
      <use transform="translate(91.380939 0)scale(0.996264)" xlink:href="#CMR17-109"/>
      <use transform="translate(168.300529 0)scale(0.996264)" xlink:href="#CMR17-101"/>
      <use transform="translate(238.862156 0)scale(0.996264)" xlink:href="#CMR17-40"/>
      <use transform="translate(274.142924 0)scale(0.996264)" xlink:href="#CMR17-115"/>
      <use transform="translate(309.944261 0)scale(0.996264)" xlink:href="#CMR17-41"/>
     </g>
    </g>
   </g>
   <g id="matplotlib.axis_2">
    <g id="ytick_1">
     <g id="line2d_19">
      <path clip-path="url(#p8584f99d79)" d="M 54 252 
L 388.8 252 
" style="fill:none;stroke:#cccccc;stroke-linecap:round;"/>
     </g>
     <g id="line2d_20"/>
     <g id="text_11">
      <!-- 0% -->
      <g style="fill:#262626;" transform="translate(42.018665 255.459249)scale(0.1 -0.1)">
       <use transform="scale(0.996264)" xlink:href="#CMR17-48"/>
      </g>
     </g>
    </g>
    <g id="ytick_2">
     <g id="line2d_21">
      <path clip-path="url(#p8584f99d79)" d="M 54 223.470295 
L 388.8 223.470295 
" style="fill:none;stroke:#cccccc;stroke-linecap:round;"/>
     </g>
     <g id="line2d_22"/>
     <g id="text_12">
      <!-- 2000000% -->
      <g style="fill:#262626;" transform="translate(12.130653 226.929545)scale(0.1 -0.1)">
       <use transform="scale(0.996264)" xlink:href="#CMR17-50"/>
       <use transform="translate(45.690477 0)scale(0.996264)" xlink:href="#CMR17-48"/>
       <use transform="translate(91.380954 0)scale(0.996264)" xlink:href="#CMR17-48"/>
       <use transform="translate(137.071431 0)scale(0.996264)" xlink:href="#CMR17-48"/>
       <use transform="translate(182.761908 0)scale(0.996264)" xlink:href="#CMR17-48"/>
       <use transform="translate(228.452386 0)scale(0.996264)" xlink:href="#CMR17-48"/>
       <use transform="translate(274.142863 0)scale(0.996264)" xlink:href="#CMR17-48"/>
      </g>
     </g>
    </g>
    <g id="ytick_3">
     <g id="line2d_23">
      <path clip-path="url(#p8584f99d79)" d="M 54 194.940591 
L 388.8 194.940591 
" style="fill:none;stroke:#cccccc;stroke-linecap:round;"/>
     </g>
     <g id="line2d_24"/>
     <g id="text_13">
      <!-- 4000000% -->
      <g style="fill:#262626;" transform="translate(12.130653 198.39984)scale(0.1 -0.1)">
       <use transform="scale(0.996264)" xlink:href="#CMR17-52"/>
       <use transform="translate(45.690477 0)scale(0.996264)" xlink:href="#CMR17-48"/>
       <use transform="translate(91.380954 0)scale(0.996264)" xlink:href="#CMR17-48"/>
       <use transform="translate(137.071431 0)scale(0.996264)" xlink:href="#CMR17-48"/>
       <use transform="translate(182.761908 0)scale(0.996264)" xlink:href="#CMR17-48"/>
       <use transform="translate(228.452386 0)scale(0.996264)" xlink:href="#CMR17-48"/>
       <use transform="translate(274.142863 0)scale(0.996264)" xlink:href="#CMR17-48"/>
      </g>
     </g>
    </g>
    <g id="ytick_4">
     <g id="line2d_25">
      <path clip-path="url(#p8584f99d79)" d="M 54 166.410886 
L 388.8 166.410886 
" style="fill:none;stroke:#cccccc;stroke-linecap:round;"/>
     </g>
     <g id="line2d_26"/>
     <g id="text_14">
      <!-- 6000000% -->
      <g style="fill:#262626;" transform="translate(12.130653 169.870135)scale(0.1 -0.1)">
       <use transform="scale(0.996264)" xlink:href="#CMR17-54"/>
       <use transform="translate(45.690477 0)scale(0.996264)" xlink:href="#CMR17-48"/>
       <use transform="translate(91.380954 0)scale(0.996264)" xlink:href="#CMR17-48"/>
       <use transform="translate(137.071431 0)scale(0.996264)" xlink:href="#CMR17-48"/>
       <use transform="translate(182.761908 0)scale(0.996264)" xlink:href="#CMR17-48"/>
       <use transform="translate(228.452386 0)scale(0.996264)" xlink:href="#CMR17-48"/>
       <use transform="translate(274.142863 0)scale(0.996264)" xlink:href="#CMR17-48"/>
      </g>
     </g>
    </g>
    <g id="ytick_5">
     <g id="line2d_27">
      <path clip-path="url(#p8584f99d79)" d="M 54 137.881181 
L 388.8 137.881181 
" style="fill:none;stroke:#cccccc;stroke-linecap:round;"/>
     </g>
     <g id="line2d_28"/>
     <g id="text_15">
      <!-- 8000000% -->
      <g style="fill:#262626;" transform="translate(12.130653 141.340431)scale(0.1 -0.1)">
       <use transform="scale(0.996264)" xlink:href="#CMR17-56"/>
       <use transform="translate(45.690477 0)scale(0.996264)" xlink:href="#CMR17-48"/>
       <use transform="translate(91.380954 0)scale(0.996264)" xlink:href="#CMR17-48"/>
       <use transform="translate(137.071431 0)scale(0.996264)" xlink:href="#CMR17-48"/>
       <use transform="translate(182.761908 0)scale(0.996264)" xlink:href="#CMR17-48"/>
       <use transform="translate(228.452386 0)scale(0.996264)" xlink:href="#CMR17-48"/>
       <use transform="translate(274.142863 0)scale(0.996264)" xlink:href="#CMR17-48"/>
      </g>
     </g>
    </g>
    <g id="ytick_6">
     <g id="line2d_29">
      <path clip-path="url(#p8584f99d79)" d="M 54 109.351477 
L 388.8 109.351477 
" style="fill:none;stroke:#cccccc;stroke-linecap:round;"/>
     </g>
     <g id="line2d_30"/>
     <g id="text_16">
      <!-- 10000000% -->
      <g style="fill:#262626;" transform="translate(7.149318 112.810726)scale(0.1 -0.1)">
       <use transform="scale(0.996264)" xlink:href="#CMR17-49"/>
       <use transform="translate(45.690477 0)scale(0.996264)" xlink:href="#CMR17-48"/>
       <use transform="translate(91.380954 0)scale(0.996264)" xlink:href="#CMR17-48"/>
       <use transform="translate(137.071431 0)scale(0.996264)" xlink:href="#CMR17-48"/>
       <use transform="translate(182.761908 0)scale(0.996264)" xlink:href="#CMR17-48"/>
       <use transform="translate(228.452386 0)scale(0.996264)" xlink:href="#CMR17-48"/>
       <use transform="translate(274.142863 0)scale(0.996264)" xlink:href="#CMR17-48"/>
       <use transform="translate(319.83334 0)scale(0.996264)" xlink:href="#CMR17-48"/>
      </g>
     </g>
    </g>
    <g id="ytick_7">
     <g id="line2d_31">
      <path clip-path="url(#p8584f99d79)" d="M 54 80.821772 
L 388.8 80.821772 
" style="fill:none;stroke:#cccccc;stroke-linecap:round;"/>
     </g>
     <g id="line2d_32"/>
     <g id="text_17">
      <!-- 12000000% -->
      <g style="fill:#262626;" transform="translate(7.149318 84.281021)scale(0.1 -0.1)">
       <use transform="scale(0.996264)" xlink:href="#CMR17-49"/>
       <use transform="translate(45.690477 0)scale(0.996264)" xlink:href="#CMR17-50"/>
       <use transform="translate(91.380954 0)scale(0.996264)" xlink:href="#CMR17-48"/>
       <use transform="translate(137.071431 0)scale(0.996264)" xlink:href="#CMR17-48"/>
       <use transform="translate(182.761908 0)scale(0.996264)" xlink:href="#CMR17-48"/>
       <use transform="translate(228.452386 0)scale(0.996264)" xlink:href="#CMR17-48"/>
       <use transform="translate(274.142863 0)scale(0.996264)" xlink:href="#CMR17-48"/>
       <use transform="translate(319.83334 0)scale(0.996264)" xlink:href="#CMR17-48"/>
      </g>
     </g>
    </g>
    <g id="ytick_8">
     <g id="line2d_33">
      <path clip-path="url(#p8584f99d79)" d="M 54 52.292067 
L 388.8 52.292067 
" style="fill:none;stroke:#cccccc;stroke-linecap:round;"/>
     </g>
     <g id="line2d_34"/>
     <g id="text_18">
      <!-- 14000000% -->
      <g style="fill:#262626;" transform="translate(7.149318 55.751317)scale(0.1 -0.1)">
       <use transform="scale(0.996264)" xlink:href="#CMR17-49"/>
       <use transform="translate(45.690477 0)scale(0.996264)" xlink:href="#CMR17-52"/>
       <use transform="translate(91.380954 0)scale(0.996264)" xlink:href="#CMR17-48"/>
       <use transform="translate(137.071431 0)scale(0.996264)" xlink:href="#CMR17-48"/>
       <use transform="translate(182.761908 0)scale(0.996264)" xlink:href="#CMR17-48"/>
       <use transform="translate(228.452386 0)scale(0.996264)" xlink:href="#CMR17-48"/>
       <use transform="translate(274.142863 0)scale(0.996264)" xlink:href="#CMR17-48"/>
       <use transform="translate(319.83334 0)scale(0.996264)" xlink:href="#CMR17-48"/>
      </g>
     </g>
    </g>
    <g id="text_19">
     <!-- CDF (%) -->
     <defs>
      <path d="M 62.09375 67.015625 
C 62.09375 68.796875 62 68.90625 61.40625 68.90625 
C 61 68.90625 60.90625 68.796875 60.203125 67.609375 
L 55.796875 59.25 
C 50.90625 65.421875 44.90625 69 37.203125 69 
C 20.09375 69 4.59375 54 4.59375 33.5625 
C 4.59375 12.90625 20.09375 -2 37.296875 -2 
C 52.59375 -2 62.09375 11.40625 62.09375 22.828125 
C 62.09375 23.8125 62.09375 24.21875 61.203125 24.21875 
C 60.40625 24.21875 60.40625 23.921875 60.296875 23.03125 
C 59.5 9.140625 49.5 0.59375 38.703125 0.59375 
C 28.5 0.59375 12.203125 7.734375 12.203125 33.546875 
C 12.203125 59.453125 28.796875 66.40625 38.5 66.40625 
C 49.796875 66.40625 58 56.6875 59.90625 42.890625 
C 60.09375 41.6875 60.09375 41.484375 61 41.484375 
C 62.09375 41.484375 62.09375 41.6875 62.09375 43.484375 
z
" id="CMR17-67"/>
      <path d="M 5.203125 68 
L 5.203125 65.40625 
C 12.09375 65.40625 13.203125 65.40625 13.203125 60.9375 
L 13.203125 7.0625 
C 13.203125 2.59375 12.09375 2.59375 5.203125 2.59375 
L 5.203125 0 
L 37 0 
C 53.09375 0 66 14.734375 66 33.453125 
C 66 52.28125 53.296875 68 37 68 
z
M 23.796875 2.59375 
C 19.796875 2.59375 19.59375 3.078125 19.59375 6.46875 
L 19.59375 61.53125 
C 19.59375 64.921875 19.796875 65.40625 23.796875 65.40625 
L 35 65.40625 
C 43.296875 65.40625 58.59375 60.53125 58.59375 33.453125 
C 58.59375 19.40625 54.5 13.734375 52.59375 11.046875 
C 50.203125 7.96875 44.5 2.59375 35 2.59375 
z
" id="CMR17-68"/>
      <path d="M 54.40625 67.578125 
L 5.09375 67.578125 
L 5.09375 65 
C 12 65 13.09375 65 13.09375 60.53125 
L 13.09375 6.96875 
C 13.09375 2.5 12 2.5 5.09375 2.5 
L 5.09375 0 
C 8 0 13.59375 0 16.703125 0 
C 20.796875 0 25.59375 0 29.703125 0 
L 29.703125 2.5 
L 27.5 2.5 
C 19.90625 2.5 19.703125 3.484375 19.703125 7.0625 
L 19.703125 32.421875 
L 28.703125 32.421875 
C 38 32.421875 38.90625 29.140625 38.90625 20.8125 
L 40.703125 20.8125 
L 40.703125 46.671875 
L 38.90625 46.671875 
C 38.90625 38.28125 38 35 28.703125 35 
L 19.703125 35 
L 19.703125 61.109375 
C 19.703125 64.5 19.90625 65 23.90625 65 
L 36.796875 65 
C 51.90625 65 53.59375 58.828125 55 45.5625 
L 56.796875 45.5625 
z
" id="CMR17-70"/>
     </defs>
     <g style="fill:#262626;" transform="translate(0.409592 158.957355)rotate(-90)scale(0.11 -0.11)">
      <use transform="scale(0.996264)" xlink:href="#CMR17-67"/>
      <use transform="translate(66.509881 0)scale(0.996264)" xlink:href="#CMR17-68"/>
      <use transform="translate(136.903436 0)scale(0.996264)" xlink:href="#CMR17-70"/>
      <use transform="translate(226.963249 0)scale(0.996264)" xlink:href="#CMR17-40"/>
     </g>
    </g>
   </g>
   <g id="patch_3">
    <path clip-path="url(#p8584f99d79)" d="M 69.218182 252 
L 72.150908 252 
L 72.150908 245.923173 
L 69.218182 245.923173 
z
" style="fill:#4c72b0;"/>
   </g>
   <g id="patch_4">
    <path clip-path="url(#p8584f99d79)" d="M 72.150908 252 
L 75.083635 252 
L 75.083635 229.204766 
L 72.150908 229.204766 
z
" style="fill:#4c72b0;"/>
   </g>
   <g id="patch_5">
    <path clip-path="url(#p8584f99d79)" d="M 75.083635 252 
L 78.016361 252 
L 78.016361 210.202556 
L 75.083635 210.202556 
z
" style="fill:#4c72b0;"/>
   </g>
   <g id="patch_6">
    <path clip-path="url(#p8584f99d79)" d="M 78.016361 252 
L 80.949087 252 
L 80.949087 189.197561 
L 78.016361 189.197561 
z
" style="fill:#4c72b0;"/>
   </g>
   <g id="patch_7">
    <path clip-path="url(#p8584f99d79)" d="M 80.949087 252 
L 83.881814 252 
L 83.881814 169.746008 
L 80.949087 169.746008 
z
" style="fill:#4c72b0;"/>
   </g>
   <g id="patch_8">
    <path clip-path="url(#p8584f99d79)" d="M 83.881814 252 
L 86.81454 252 
L 86.81454 146.330253 
L 83.881814 146.330253 
z
" style="fill:#4c72b0;"/>
   </g>
   <g id="patch_9">
    <path clip-path="url(#p8584f99d79)" d="M 86.81454 252 
L 89.747266 252 
L 89.747266 116.879039 
L 86.81454 116.879039 
z
" style="fill:#4c72b0;"/>
   </g>
   <g id="patch_10">
    <path clip-path="url(#p8584f99d79)" d="M 89.747266 252 
L 92.679993 252 
L 92.679993 91.945504 
L 89.747266 91.945504 
z
" style="fill:#4c72b0;"/>
   </g>
   <g id="patch_11">
    <path clip-path="url(#p8584f99d79)" d="M 92.679993 252 
L 95.612719 252 
L 95.612719 76.816201 
L 92.679993 76.816201 
z
" style="fill:#4c72b0;"/>
   </g>
   <g id="patch_12">
    <path clip-path="url(#p8584f99d79)" d="M 95.612719 252 
L 98.545445 252 
L 98.545445 67.939184 
L 95.612719 67.939184 
z
" style="fill:#4c72b0;"/>
   </g>
   <g id="patch_13">
    <path clip-path="url(#p8584f99d79)" d="M 98.545445 252 
L 101.478172 252 
L 101.478172 62.461481 
L 98.545445 62.461481 
z
" style="fill:#4c72b0;"/>
   </g>
   <g id="patch_14">
    <path clip-path="url(#p8584f99d79)" d="M 101.478172 252 
L 104.410898 252 
L 104.410898 59.210521 
L 101.478172 59.210521 
z
" style="fill:#4c72b0;"/>
   </g>
   <g id="patch_15">
    <path clip-path="url(#p8584f99d79)" d="M 104.410898 252 
L 107.343624 252 
L 107.343624 57.023719 
L 104.410898 57.023719 
z
" style="fill:#4c72b0;"/>
   </g>
   <g id="patch_16">
    <path clip-path="url(#p8584f99d79)" d="M 107.343624 252 
L 110.276351 252 
L 110.276351 55.610072 
L 107.343624 55.610072 
z
" style="fill:#4c72b0;"/>
   </g>
   <g id="patch_17">
    <path clip-path="url(#p8584f99d79)" d="M 110.276351 252 
L 113.209077 252 
L 113.209077 54.638636 
L 110.276351 54.638636 
z
" style="fill:#4c72b0;"/>
   </g>
   <g id="patch_18">
    <path clip-path="url(#p8584f99d79)" d="M 113.209077 252 
L 116.141803 252 
L 116.141803 53.891157 
L 113.209077 53.891157 
z
" style="fill:#4c72b0;"/>
   </g>
   <g id="patch_19">
    <path clip-path="url(#p8584f99d79)" d="M 116.141803 252 
L 119.07453 252 
L 119.07453 53.316284 
L 116.141803 53.316284 
z
" style="fill:#4c72b0;"/>
   </g>
   <g id="patch_20">
    <path clip-path="url(#p8584f99d79)" d="M 119.07453 252 
L 122.007256 252 
L 122.007256 52.983913 
L 119.07453 52.983913 
z
" style="fill:#4c72b0;"/>
   </g>
   <g id="patch_21">
    <path clip-path="url(#p8584f99d79)" d="M 122.007256 252 
L 124.939982 252 
L 124.939982 52.690057 
L 122.007256 52.690057 
z
" style="fill:#4c72b0;"/>
   </g>
   <g id="patch_22">
    <path clip-path="url(#p8584f99d79)" d="M 124.939982 252 
L 127.872709 252 
L 127.872709 52.426157 
L 124.939982 52.426157 
z
" style="fill:#4c72b0;"/>
   </g>
   <g id="patch_23">
    <path clip-path="url(#p8584f99d79)" d="M 127.872709 252 
L 130.805435 252 
L 130.805435 52.219317 
L 127.872709 52.219317 
z
" style="fill:#4c72b0;"/>
   </g>
   <g id="patch_24">
    <path clip-path="url(#p8584f99d79)" d="M 130.805435 252 
L 133.738161 252 
L 133.738161 52.056697 
L 130.805435 52.056697 
z
" style="fill:#4c72b0;"/>
   </g>
   <g id="patch_25">
    <path clip-path="url(#p8584f99d79)" d="M 133.738161 252 
L 136.670888 252 
L 136.670888 51.868401 
L 133.738161 51.868401 
z
" style="fill:#4c72b0;"/>
   </g>
   <g id="patch_26">
    <path clip-path="url(#p8584f99d79)" d="M 136.670888 252 
L 139.603614 252 
L 139.603614 51.741444 
L 136.670888 51.741444 
z
" style="fill:#4c72b0;"/>
   </g>
   <g id="patch_27">
    <path clip-path="url(#p8584f99d79)" d="M 139.603614 252 
L 142.53634 252 
L 142.53634 51.643017 
L 139.603614 51.643017 
z
" style="fill:#4c72b0;"/>
   </g>
   <g id="patch_28">
    <path clip-path="url(#p8584f99d79)" d="M 142.53634 252 
L 145.469067 252 
L 145.469067 51.547442 
L 142.53634 51.547442 
z
" style="fill:#4c72b0;"/>
   </g>
   <g id="patch_29">
    <path clip-path="url(#p8584f99d79)" d="M 145.469067 252 
L 148.401793 252 
L 148.401793 51.456147 
L 145.469067 51.456147 
z
" style="fill:#4c72b0;"/>
   </g>
   <g id="patch_30">
    <path clip-path="url(#p8584f99d79)" d="M 148.401793 252 
L 151.33452 252 
L 151.33452 51.396235 
L 148.401793 51.396235 
z
" style="fill:#4c72b0;"/>
   </g>
   <g id="patch_31">
    <path clip-path="url(#p8584f99d79)" d="M 151.33452 252 
L 154.267246 252 
L 154.267246 51.294954 
L 151.33452 51.294954 
z
" style="fill:#4c72b0;"/>
   </g>
   <g id="patch_32">
    <path clip-path="url(#p8584f99d79)" d="M 154.267246 252 
L 157.199972 252 
L 157.199972 51.236468 
L 154.267246 51.236468 
z
" style="fill:#4c72b0;"/>
   </g>
   <g id="patch_33">
    <path clip-path="url(#p8584f99d79)" d="M 157.199972 252 
L 160.132699 252 
L 160.132699 51.182262 
L 157.199972 51.182262 
z
" style="fill:#4c72b0;"/>
   </g>
   <g id="patch_34">
    <path clip-path="url(#p8584f99d79)" d="M 160.132699 252 
L 163.065425 252 
L 163.065425 51.125202 
L 160.132699 51.125202 
z
" style="fill:#4c72b0;"/>
   </g>
   <g id="patch_35">
    <path clip-path="url(#p8584f99d79)" d="M 163.065425 252 
L 165.998151 252 
L 165.998151 51.06529 
L 163.065425 51.06529 
z
" style="fill:#4c72b0;"/>
   </g>
   <g id="patch_36">
    <path clip-path="url(#p8584f99d79)" d="M 165.998151 252 
L 168.930878 252 
L 168.930878 51.011084 
L 165.998151 51.011084 
z
" style="fill:#4c72b0;"/>
   </g>
   <g id="patch_37">
    <path clip-path="url(#p8584f99d79)" d="M 168.930878 252 
L 171.863604 252 
L 171.863604 50.973995 
L 168.930878 50.973995 
z
" style="fill:#4c72b0;"/>
   </g>
   <g id="patch_38">
    <path clip-path="url(#p8584f99d79)" d="M 171.863604 252 
L 174.79633 252 
L 174.79633 50.942612 
L 171.863604 50.942612 
z
" style="fill:#4c72b0;"/>
   </g>
   <g id="patch_39">
    <path clip-path="url(#p8584f99d79)" d="M 174.79633 252 
L 177.729057 252 
L 177.729057 50.912656 
L 174.79633 50.912656 
z
" style="fill:#4c72b0;"/>
   </g>
   <g id="patch_40">
    <path clip-path="url(#p8584f99d79)" d="M 177.729057 252 
L 180.661783 252 
L 180.661783 50.87842 
L 177.729057 50.87842 
z
" style="fill:#4c72b0;"/>
   </g>
   <g id="patch_41">
    <path clip-path="url(#p8584f99d79)" d="M 180.661783 252 
L 183.594509 252 
L 183.594509 50.838479 
L 180.661783 50.838479 
z
" style="fill:#4c72b0;"/>
   </g>
   <g id="patch_42">
    <path clip-path="url(#p8584f99d79)" d="M 183.594509 252 
L 186.527236 252 
L 186.527236 50.824214 
L 183.594509 50.824214 
z
" style="fill:#4c72b0;"/>
   </g>
   <g id="patch_43">
    <path clip-path="url(#p8584f99d79)" d="M 186.527236 252 
L 189.459962 252 
L 189.459962 50.80139 
L 186.527236 50.80139 
z
" style="fill:#4c72b0;"/>
   </g>
   <g id="patch_44">
    <path clip-path="url(#p8584f99d79)" d="M 189.459962 252 
L 192.392688 252 
L 192.392688 50.791405 
L 189.459962 50.791405 
z
" style="fill:#4c72b0;"/>
   </g>
   <g id="patch_45">
    <path clip-path="url(#p8584f99d79)" d="M 192.392688 252 
L 195.325415 252 
L 195.325415 50.772861 
L 192.392688 50.772861 
z
" style="fill:#4c72b0;"/>
   </g>
   <g id="patch_46">
    <path clip-path="url(#p8584f99d79)" d="M 195.325415 252 
L 198.258141 252 
L 198.258141 50.754316 
L 195.325415 50.754316 
z
" style="fill:#4c72b0;"/>
   </g>
   <g id="patch_47">
    <path clip-path="url(#p8584f99d79)" d="M 198.258141 252 
L 201.190867 252 
L 201.190867 50.745757 
L 198.258141 50.745757 
z
" style="fill:#4c72b0;"/>
   </g>
   <g id="patch_48">
    <path clip-path="url(#p8584f99d79)" d="M 201.190867 252 
L 204.123594 252 
L 204.123594 50.72864 
L 201.190867 50.72864 
z
" style="fill:#4c72b0;"/>
   </g>
   <g id="patch_49">
    <path clip-path="url(#p8584f99d79)" d="M 204.123594 252 
L 207.05632 252 
L 207.05632 50.708669 
L 204.123594 50.708669 
z
" style="fill:#4c72b0;"/>
   </g>
   <g id="patch_50">
    <path clip-path="url(#p8584f99d79)" d="M 207.05632 252 
L 209.989046 252 
L 209.989046 50.681566 
L 207.05632 50.681566 
z
" style="fill:#4c72b0;"/>
   </g>
   <g id="patch_51">
    <path clip-path="url(#p8584f99d79)" d="M 209.989046 252 
L 212.921773 252 
L 212.921773 50.667301 
L 209.989046 50.667301 
z
" style="fill:#4c72b0;"/>
   </g>
   <g id="patch_52">
    <path clip-path="url(#p8584f99d79)" d="M 212.921773 252 
L 215.854499 252 
L 215.854499 50.653036 
L 212.921773 50.653036 
z
" style="fill:#4c72b0;"/>
   </g>
   <g id="patch_53">
    <path clip-path="url(#p8584f99d79)" d="M 215.854499 252 
L 218.787226 252 
L 218.787226 50.64305 
L 215.854499 50.64305 
z
" style="fill:#4c72b0;"/>
   </g>
   <g id="patch_54">
    <path clip-path="url(#p8584f99d79)" d="M 218.787226 252 
L 221.719952 252 
L 221.719952 50.635918 
L 218.787226 50.635918 
z
" style="fill:#4c72b0;"/>
   </g>
   <g id="patch_55">
    <path clip-path="url(#p8584f99d79)" d="M 221.719952 252 
L 224.652678 252 
L 224.652678 50.62308 
L 221.719952 50.62308 
z
" style="fill:#4c72b0;"/>
   </g>
   <g id="patch_56">
    <path clip-path="url(#p8584f99d79)" d="M 224.652678 252 
L 227.585405 252 
L 227.585405 50.6188 
L 224.652678 50.6188 
z
" style="fill:#4c72b0;"/>
   </g>
   <g id="patch_57">
    <path clip-path="url(#p8584f99d79)" d="M 227.585405 252 
L 230.518131 252 
L 230.518131 50.613094 
L 227.585405 50.613094 
z
" style="fill:#4c72b0;"/>
   </g>
   <g id="patch_58">
    <path clip-path="url(#p8584f99d79)" d="M 230.518131 252 
L 233.450857 252 
L 233.450857 50.611668 
L 230.518131 50.611668 
z
" style="fill:#4c72b0;"/>
   </g>
   <g id="patch_59">
    <path clip-path="url(#p8584f99d79)" d="M 233.450857 252 
L 236.383584 252 
L 236.383584 50.588844 
L 233.450857 50.588844 
z
" style="fill:#4c72b0;"/>
   </g>
   <g id="patch_60">
    <path clip-path="url(#p8584f99d79)" d="M 236.383584 252 
L 239.31631 252 
L 239.31631 50.585991 
L 236.383584 50.585991 
z
" style="fill:#4c72b0;"/>
   </g>
   <g id="patch_61">
    <path clip-path="url(#p8584f99d79)" d="M 239.31631 252 
L 242.249036 252 
L 242.249036 50.578859 
L 239.31631 50.578859 
z
" style="fill:#4c72b0;"/>
   </g>
   <g id="patch_62">
    <path clip-path="url(#p8584f99d79)" d="M 242.249036 252 
L 245.181763 252 
L 245.181763 50.568873 
L 242.249036 50.568873 
z
" style="fill:#4c72b0;"/>
   </g>
   <g id="patch_63">
    <path clip-path="url(#p8584f99d79)" d="M 245.181763 252 
L 248.114489 252 
L 248.114489 50.56602 
L 245.181763 50.56602 
z
" style="fill:#4c72b0;"/>
   </g>
   <g id="patch_64">
    <path clip-path="url(#p8584f99d79)" d="M 248.114489 252 
L 251.047215 252 
L 251.047215 50.561741 
L 248.114489 50.561741 
z
" style="fill:#4c72b0;"/>
   </g>
   <g id="patch_65">
    <path clip-path="url(#p8584f99d79)" d="M 251.047215 252 
L 253.979942 252 
L 253.979942 50.551755 
L 251.047215 50.551755 
z
" style="fill:#4c72b0;"/>
   </g>
   <g id="patch_66">
    <path clip-path="url(#p8584f99d79)" d="M 253.979942 252 
L 256.912668 252 
L 256.912668 50.543196 
L 253.979942 50.543196 
z
" style="fill:#4c72b0;"/>
   </g>
   <g id="patch_67">
    <path clip-path="url(#p8584f99d79)" d="M 256.912668 252 
L 259.845394 252 
L 259.845394 50.543196 
L 256.912668 50.543196 
z
" style="fill:#4c72b0;"/>
   </g>
   <g id="patch_68">
    <path clip-path="url(#p8584f99d79)" d="M 259.845394 252 
L 262.778121 252 
L 262.778121 50.538917 
L 259.845394 50.538917 
z
" style="fill:#4c72b0;"/>
   </g>
   <g id="patch_69">
    <path clip-path="url(#p8584f99d79)" d="M 262.778121 252 
L 265.710847 252 
L 265.710847 50.538917 
L 262.778121 50.538917 
z
" style="fill:#4c72b0;"/>
   </g>
   <g id="patch_70">
    <path clip-path="url(#p8584f99d79)" d="M 265.710847 252 
L 268.643573 252 
L 268.643573 50.537491 
L 265.710847 50.537491 
z
" style="fill:#4c72b0;"/>
   </g>
   <g id="patch_71">
    <path clip-path="url(#p8584f99d79)" d="M 268.643573 252 
L 271.5763 252 
L 271.5763 50.534638 
L 268.643573 50.534638 
z
" style="fill:#4c72b0;"/>
   </g>
   <g id="patch_72">
    <path clip-path="url(#p8584f99d79)" d="M 271.5763 252 
L 274.509026 252 
L 274.509026 50.533211 
L 271.5763 50.533211 
z
" style="fill:#4c72b0;"/>
   </g>
   <g id="patch_73">
    <path clip-path="url(#p8584f99d79)" d="M 274.509026 252 
L 277.441752 252 
L 277.441752 50.530358 
L 274.509026 50.530358 
z
" style="fill:#4c72b0;"/>
   </g>
   <g id="patch_74">
    <path clip-path="url(#p8584f99d79)" d="M 277.441752 252 
L 280.374479 252 
L 280.374479 50.524652 
L 277.441752 50.524652 
z
" style="fill:#4c72b0;"/>
   </g>
   <g id="patch_75">
    <path clip-path="url(#p8584f99d79)" d="M 280.374479 252 
L 283.307205 252 
L 283.307205 50.520373 
L 280.374479 50.520373 
z
" style="fill:#4c72b0;"/>
   </g>
   <g id="patch_76">
    <path clip-path="url(#p8584f99d79)" d="M 283.307205 252 
L 286.239931 252 
L 286.239931 50.516093 
L 283.307205 50.516093 
z
" style="fill:#4c72b0;"/>
   </g>
   <g id="patch_77">
    <path clip-path="url(#p8584f99d79)" d="M 286.239931 252 
L 289.172658 252 
L 289.172658 50.511814 
L 286.239931 50.511814 
z
" style="fill:#4c72b0;"/>
   </g>
   <g id="patch_78">
    <path clip-path="url(#p8584f99d79)" d="M 289.172658 252 
L 292.105384 252 
L 292.105384 50.508961 
L 289.172658 50.508961 
z
" style="fill:#4c72b0;"/>
   </g>
   <g id="patch_79">
    <path clip-path="url(#p8584f99d79)" d="M 292.105384 252 
L 295.038111 252 
L 295.038111 50.501828 
L 292.105384 50.501828 
z
" style="fill:#4c72b0;"/>
   </g>
   <g id="patch_80">
    <path clip-path="url(#p8584f99d79)" d="M 295.038111 252 
L 297.970837 252 
L 297.970837 50.497549 
L 295.038111 50.497549 
z
" style="fill:#4c72b0;"/>
   </g>
   <g id="patch_81">
    <path clip-path="url(#p8584f99d79)" d="M 297.970837 252 
L 300.903563 252 
L 300.903563 50.493269 
L 297.970837 50.493269 
z
" style="fill:#4c72b0;"/>
   </g>
   <g id="patch_82">
    <path clip-path="url(#p8584f99d79)" d="M 300.903563 252 
L 303.83629 252 
L 303.83629 50.48899 
L 300.903563 50.48899 
z
" style="fill:#4c72b0;"/>
   </g>
   <g id="patch_83">
    <path clip-path="url(#p8584f99d79)" d="M 303.83629 252 
L 306.769016 252 
L 306.769016 50.486137 
L 303.83629 50.486137 
z
" style="fill:#4c72b0;"/>
   </g>
   <g id="patch_84">
    <path clip-path="url(#p8584f99d79)" d="M 306.769016 252 
L 309.701742 252 
L 309.701742 50.483284 
L 306.769016 50.483284 
z
" style="fill:#4c72b0;"/>
   </g>
   <g id="patch_85">
    <path clip-path="url(#p8584f99d79)" d="M 309.701742 252 
L 312.634469 252 
L 312.634469 50.481858 
L 309.701742 50.481858 
z
" style="fill:#4c72b0;"/>
   </g>
   <g id="patch_86">
    <path clip-path="url(#p8584f99d79)" d="M 312.634469 252 
L 315.567195 252 
L 315.567195 50.481858 
L 312.634469 50.481858 
z
" style="fill:#4c72b0;"/>
   </g>
   <g id="patch_87">
    <path clip-path="url(#p8584f99d79)" d="M 315.567195 252 
L 318.499921 252 
L 318.499921 50.480431 
L 315.567195 50.480431 
z
" style="fill:#4c72b0;"/>
   </g>
   <g id="patch_88">
    <path clip-path="url(#p8584f99d79)" d="M 318.499921 252 
L 321.432648 252 
L 321.432648 50.480431 
L 318.499921 50.480431 
z
" style="fill:#4c72b0;"/>
   </g>
   <g id="patch_89">
    <path clip-path="url(#p8584f99d79)" d="M 321.432648 252 
L 324.365374 252 
L 324.365374 50.480431 
L 321.432648 50.480431 
z
" style="fill:#4c72b0;"/>
   </g>
   <g id="patch_90">
    <path clip-path="url(#p8584f99d79)" d="M 324.365374 252 
L 327.2981 252 
L 327.2981 50.480431 
L 324.365374 50.480431 
z
" style="fill:#4c72b0;"/>
   </g>
   <g id="patch_91">
    <path clip-path="url(#p8584f99d79)" d="M 327.2981 252 
L 330.230827 252 
L 330.230827 50.479005 
L 327.2981 50.479005 
z
" style="fill:#4c72b0;"/>
   </g>
   <g id="patch_92">
    <path clip-path="url(#p8584f99d79)" d="M 330.230827 252 
L 333.163553 252 
L 333.163553 50.479005 
L 330.230827 50.479005 
z
" style="fill:#4c72b0;"/>
   </g>
   <g id="patch_93">
    <path clip-path="url(#p8584f99d79)" d="M 333.163553 252 
L 336.096279 252 
L 336.096279 50.477578 
L 333.163553 50.477578 
z
" style="fill:#4c72b0;"/>
   </g>
   <g id="patch_94">
    <path clip-path="url(#p8584f99d79)" d="M 336.096279 252 
L 339.029006 252 
L 339.029006 50.477578 
L 336.096279 50.477578 
z
" style="fill:#4c72b0;"/>
   </g>
   <g id="patch_95">
    <path clip-path="url(#p8584f99d79)" d="M 339.029006 252 
L 341.961732 252 
L 341.961732 50.477578 
L 339.029006 50.477578 
z
" style="fill:#4c72b0;"/>
   </g>
   <g id="patch_96">
    <path clip-path="url(#p8584f99d79)" d="M 341.961732 252 
L 344.894458 252 
L 344.894458 50.477578 
L 341.961732 50.477578 
z
" style="fill:#4c72b0;"/>
   </g>
   <g id="patch_97">
    <path clip-path="url(#p8584f99d79)" d="M 344.894458 252 
L 347.827185 252 
L 347.827185 50.477578 
L 344.894458 50.477578 
z
" style="fill:#4c72b0;"/>
   </g>
   <g id="patch_98">
    <path clip-path="url(#p8584f99d79)" d="M 347.827185 252 
L 350.759911 252 
L 350.759911 50.477578 
L 347.827185 50.477578 
z
" style="fill:#4c72b0;"/>
   </g>
   <g id="patch_99">
    <path clip-path="url(#p8584f99d79)" d="M 350.759911 252 
L 353.692637 252 
L 353.692637 50.477578 
L 350.759911 50.477578 
z
" style="fill:#4c72b0;"/>
   </g>
   <g id="patch_100">
    <path clip-path="url(#p8584f99d79)" d="M 353.692637 252 
L 356.625364 252 
L 356.625364 50.477578 
L 353.692637 50.477578 
z
" style="fill:#4c72b0;"/>
   </g>
   <g id="patch_101">
    <path clip-path="url(#p8584f99d79)" d="M 356.625364 252 
L 359.55809 252 
L 359.55809 50.477578 
L 356.625364 50.477578 
z
" style="fill:#4c72b0;"/>
   </g>
   <g id="patch_102">
    <path clip-path="url(#p8584f99d79)" d="M 359.55809 252 
L 362.490816 252 
L 362.490816 50.471872 
L 359.55809 50.471872 
z
" style="fill:#4c72b0;"/>
   </g>
   <g id="patch_103">
    <path clip-path="url(#p8584f99d79)" d="M 69.919519 252 
L 72.956142 252 
L 72.956142 246.88605 
L 69.919519 246.88605 
z
" style="fill:#55a868;"/>
   </g>
   <g id="patch_104">
    <path clip-path="url(#p8584f99d79)" d="M 72.956142 252 
L 75.992765 252 
L 75.992765 240.555309 
L 72.956142 240.555309 
z
" style="fill:#55a868;"/>
   </g>
   <g id="patch_105">
    <path clip-path="url(#p8584f99d79)" d="M 75.992765 252 
L 79.029388 252 
L 79.029388 230.763914 
L 75.992765 230.763914 
z
" style="fill:#55a868;"/>
   </g>
   <g id="patch_106">
    <path clip-path="url(#p8584f99d79)" d="M 79.029388 252 
L 82.066011 252 
L 82.066011 215.332197 
L 79.029388 215.332197 
z
" style="fill:#55a868;"/>
   </g>
   <g id="patch_107">
    <path clip-path="url(#p8584f99d79)" d="M 82.066011 252 
L 85.102634 252 
L 85.102634 192.281622 
L 82.066011 192.281622 
z
" style="fill:#55a868;"/>
   </g>
   <g id="patch_108">
    <path clip-path="url(#p8584f99d79)" d="M 85.102634 252 
L 88.139257 252 
L 88.139257 146.986437 
L 85.102634 146.986437 
z
" style="fill:#55a868;"/>
   </g>
   <g id="patch_109">
    <path clip-path="url(#p8584f99d79)" d="M 88.139257 252 
L 91.17588 252 
L 91.17588 108.710985 
L 88.139257 108.710985 
z
" style="fill:#55a868;"/>
   </g>
   <g id="patch_110">
    <path clip-path="url(#p8584f99d79)" d="M 91.17588 252 
L 94.212503 252 
L 94.212503 84.960006 
L 91.17588 84.960006 
z
" style="fill:#55a868;"/>
   </g>
   <g id="patch_111">
    <path clip-path="url(#p8584f99d79)" d="M 94.212503 252 
L 97.249126 252 
L 97.249126 71.757885 
L 94.212503 71.757885 
z
" style="fill:#55a868;"/>
   </g>
   <g id="patch_112">
    <path clip-path="url(#p8584f99d79)" d="M 97.249126 252 
L 100.285749 252 
L 100.285749 63.786685 
L 97.249126 63.786685 
z
" style="fill:#55a868;"/>
   </g>
   <g id="patch_113">
    <path clip-path="url(#p8584f99d79)" d="M 100.285749 252 
L 103.322372 252 
L 103.322372 58.776869 
L 100.285749 58.776869 
z
" style="fill:#55a868;"/>
   </g>
   <g id="patch_114">
    <path clip-path="url(#p8584f99d79)" d="M 103.322372 252 
L 106.358995 252 
L 106.358995 55.418923 
L 103.322372 55.418923 
z
" style="fill:#55a868;"/>
   </g>
   <g id="patch_115">
    <path clip-path="url(#p8584f99d79)" d="M 106.358995 252 
L 109.395618 252 
L 109.395618 53.253518 
L 106.358995 53.253518 
z
" style="fill:#55a868;"/>
   </g>
   <g id="patch_116">
    <path clip-path="url(#p8584f99d79)" d="M 109.395618 252 
L 112.432241 252 
L 112.432241 51.730032 
L 109.395618 51.730032 
z
" style="fill:#55a868;"/>
   </g>
   <g id="patch_117">
    <path clip-path="url(#p8584f99d79)" d="M 112.432241 252 
L 115.468864 252 
L 115.468864 50.480431 
L 112.432241 50.480431 
z
" style="fill:#55a868;"/>
   </g>
   <g id="patch_118">
    <path clip-path="url(#p8584f99d79)" d="M 115.468864 252 
L 118.505487 252 
L 118.505487 49.570334 
L 115.468864 49.570334 
z
" style="fill:#55a868;"/>
   </g>
   <g id="patch_119">
    <path clip-path="url(#p8584f99d79)" d="M 118.505487 252 
L 121.54211 252 
L 121.54211 48.851385 
L 118.505487 48.851385 
z
" style="fill:#55a868;"/>
   </g>
   <g id="patch_120">
    <path clip-path="url(#p8584f99d79)" d="M 121.54211 252 
L 124.578733 252 
L 124.578733 48.267952 
L 121.54211 48.267952 
z
" style="fill:#55a868;"/>
   </g>
   <g id="patch_121">
    <path clip-path="url(#p8584f99d79)" d="M 124.578733 252 
L 127.615356 252 
L 127.615356 47.921317 
L 124.578733 47.921317 
z
" style="fill:#55a868;"/>
   </g>
   <g id="patch_122">
    <path clip-path="url(#p8584f99d79)" d="M 127.615356 252 
L 130.651979 252 
L 130.651979 47.628887 
L 127.615356 47.628887 
z
" style="fill:#55a868;"/>
   </g>
   <g id="patch_123">
    <path clip-path="url(#p8584f99d79)" d="M 130.651979 252 
L 133.688602 252 
L 133.688602 47.352149 
L 130.651979 47.352149 
z
" style="fill:#55a868;"/>
   </g>
   <g id="patch_124">
    <path clip-path="url(#p8584f99d79)" d="M 133.688602 252 
L 136.725225 252 
L 136.725225 47.082543 
L 133.688602 47.082543 
z
" style="fill:#55a868;"/>
   </g>
   <g id="patch_125">
    <path clip-path="url(#p8584f99d79)" d="M 136.725225 252 
L 139.761848 252 
L 139.761848 46.851453 
L 136.725225 46.851453 
z
" style="fill:#55a868;"/>
   </g>
   <g id="patch_126">
    <path clip-path="url(#p8584f99d79)" d="M 139.761848 252 
L 142.798471 252 
L 142.798471 46.703098 
L 139.761848 46.703098 
z
" style="fill:#55a868;"/>
   </g>
   <g id="patch_127">
    <path clip-path="url(#p8584f99d79)" d="M 142.798471 252 
L 145.835094 252 
L 145.835094 46.554744 
L 142.798471 46.554744 
z
" style="fill:#55a868;"/>
   </g>
   <g id="patch_128">
    <path clip-path="url(#p8584f99d79)" d="M 145.835094 252 
L 148.871717 252 
L 148.871717 46.406389 
L 145.835094 46.406389 
z
" style="fill:#55a868;"/>
   </g>
   <g id="patch_129">
    <path clip-path="url(#p8584f99d79)" d="M 148.871717 252 
L 151.90834 252 
L 151.90834 46.295123 
L 148.871717 46.295123 
z
" style="fill:#55a868;"/>
   </g>
   <g id="patch_130">
    <path clip-path="url(#p8584f99d79)" d="M 151.90834 252 
L 154.944963 252 
L 154.944963 46.21524 
L 151.90834 46.21524 
z
" style="fill:#55a868;"/>
   </g>
   <g id="patch_131">
    <path clip-path="url(#p8584f99d79)" d="M 154.944963 252 
L 157.981586 252 
L 157.981586 46.123945 
L 154.944963 46.123945 
z
" style="fill:#55a868;"/>
   </g>
   <g id="patch_132">
    <path clip-path="url(#p8584f99d79)" d="M 157.981586 252 
L 161.018209 252 
L 161.018209 46.051194 
L 157.981586 46.051194 
z
" style="fill:#55a868;"/>
   </g>
   <g id="patch_133">
    <path clip-path="url(#p8584f99d79)" d="M 161.018209 252 
L 164.054832 252 
L 164.054832 46.0084 
L 161.018209 46.0084 
z
" style="fill:#55a868;"/>
   </g>
   <g id="patch_134">
    <path clip-path="url(#p8584f99d79)" d="M 164.054832 252 
L 167.091455 252 
L 167.091455 45.935649 
L 164.054832 45.935649 
z
" style="fill:#55a868;"/>
   </g>
   <g id="patch_135">
    <path clip-path="url(#p8584f99d79)" d="M 167.091455 252 
L 170.128078 252 
L 170.128078 45.877163 
L 167.091455 45.877163 
z
" style="fill:#55a868;"/>
   </g>
   <g id="patch_136">
    <path clip-path="url(#p8584f99d79)" d="M 170.128078 252 
L 173.164701 252 
L 173.164701 45.845781 
L 170.128078 45.845781 
z
" style="fill:#55a868;"/>
   </g>
   <g id="patch_137">
    <path clip-path="url(#p8584f99d79)" d="M 173.164701 252 
L 176.201324 252 
L 176.201324 45.791574 
L 173.164701 45.791574 
z
" style="fill:#55a868;"/>
   </g>
   <g id="patch_138">
    <path clip-path="url(#p8584f99d79)" d="M 176.201324 252 
L 179.237947 252 
L 179.237947 45.763044 
L 176.201324 45.763044 
z
" style="fill:#55a868;"/>
   </g>
   <g id="patch_139">
    <path clip-path="url(#p8584f99d79)" d="M 179.237947 252 
L 182.27457 252 
L 182.27457 45.704559 
L 179.237947 45.704559 
z
" style="fill:#55a868;"/>
   </g>
   <g id="patch_140">
    <path clip-path="url(#p8584f99d79)" d="M 182.27457 252 
L 185.311193 252 
L 185.311193 45.640367 
L 182.27457 45.640367 
z
" style="fill:#55a868;"/>
   </g>
   <g id="patch_141">
    <path clip-path="url(#p8584f99d79)" d="M 185.311193 252 
L 188.347816 252 
L 188.347816 45.603278 
L 185.311193 45.603278 
z
" style="fill:#55a868;"/>
   </g>
   <g id="patch_142">
    <path clip-path="url(#p8584f99d79)" d="M 188.347816 252 
L 191.384439 252 
L 191.384439 45.574748 
L 188.347816 45.574748 
z
" style="fill:#55a868;"/>
   </g>
   <g id="patch_143">
    <path clip-path="url(#p8584f99d79)" d="M 191.384439 252 
L 194.421062 252 
L 194.421062 45.547645 
L 191.384439 45.547645 
z
" style="fill:#55a868;"/>
   </g>
   <g id="patch_144">
    <path clip-path="url(#p8584f99d79)" d="M 194.421062 252 
L 197.457685 252 
L 197.457685 45.51341 
L 194.421062 45.51341 
z
" style="fill:#55a868;"/>
   </g>
   <g id="patch_145">
    <path clip-path="url(#p8584f99d79)" d="M 197.457685 252 
L 200.494308 252 
L 200.494308 45.477747 
L 197.457685 45.477747 
z
" style="fill:#55a868;"/>
   </g>
   <g id="patch_146">
    <path clip-path="url(#p8584f99d79)" d="M 200.494308 252 
L 203.530931 252 
L 203.530931 45.437806 
L 200.494308 45.437806 
z
" style="fill:#55a868;"/>
   </g>
   <g id="patch_147">
    <path clip-path="url(#p8584f99d79)" d="M 203.530931 252 
L 206.567554 252 
L 206.567554 45.406423 
L 203.530931 45.406423 
z
" style="fill:#55a868;"/>
   </g>
   <g id="patch_148">
    <path clip-path="url(#p8584f99d79)" d="M 206.567554 252 
L 209.604177 252 
L 209.604177 45.376467 
L 206.567554 45.376467 
z
" style="fill:#55a868;"/>
   </g>
   <g id="patch_149">
    <path clip-path="url(#p8584f99d79)" d="M 209.604177 252 
L 212.6408 252 
L 212.6408 45.353643 
L 209.604177 45.353643 
z
" style="fill:#55a868;"/>
   </g>
   <g id="patch_150">
    <path clip-path="url(#p8584f99d79)" d="M 212.6408 252 
L 215.677423 252 
L 215.677423 45.312275 
L 212.6408 45.312275 
z
" style="fill:#55a868;"/>
   </g>
   <g id="patch_151">
    <path clip-path="url(#p8584f99d79)" d="M 215.677423 252 
L 218.714046 252 
L 218.714046 45.286598 
L 215.677423 45.286598 
z
" style="fill:#55a868;"/>
   </g>
   <g id="patch_152">
    <path clip-path="url(#p8584f99d79)" d="M 218.714046 252 
L 221.750669 252 
L 221.750669 45.266628 
L 218.714046 45.266628 
z
" style="fill:#55a868;"/>
   </g>
   <g id="patch_153">
    <path clip-path="url(#p8584f99d79)" d="M 221.750669 252 
L 224.787292 252 
L 224.787292 45.250936 
L 221.750669 45.250936 
z
" style="fill:#55a868;"/>
   </g>
   <g id="patch_154">
    <path clip-path="url(#p8584f99d79)" d="M 224.787292 252 
L 227.823915 252 
L 227.823915 45.232392 
L 224.787292 45.232392 
z
" style="fill:#55a868;"/>
   </g>
   <g id="patch_155">
    <path clip-path="url(#p8584f99d79)" d="M 227.823915 252 
L 230.860538 252 
L 230.860538 45.223833 
L 227.823915 45.223833 
z
" style="fill:#55a868;"/>
   </g>
   <g id="patch_156">
    <path clip-path="url(#p8584f99d79)" d="M 230.860538 252 
L 233.897161 252 
L 233.897161 45.219554 
L 230.860538 45.219554 
z
" style="fill:#55a868;"/>
   </g>
   <g id="patch_157">
    <path clip-path="url(#p8584f99d79)" d="M 233.897161 252 
L 236.933784 252 
L 236.933784 45.191024 
L 233.897161 45.191024 
z
" style="fill:#55a868;"/>
   </g>
   <g id="patch_158">
    <path clip-path="url(#p8584f99d79)" d="M 236.933784 252 
L 239.970407 252 
L 239.970407 45.179612 
L 236.933784 45.179612 
z
" style="fill:#55a868;"/>
   </g>
   <g id="patch_159">
    <path clip-path="url(#p8584f99d79)" d="M 239.970407 252 
L 243.00703 252 
L 243.00703 45.173906 
L 239.970407 45.173906 
z
" style="fill:#55a868;"/>
   </g>
   <g id="patch_160">
    <path clip-path="url(#p8584f99d79)" d="M 243.00703 252 
L 246.043653 252 
L 246.043653 45.148229 
L 243.00703 45.148229 
z
" style="fill:#55a868;"/>
   </g>
   <g id="patch_161">
    <path clip-path="url(#p8584f99d79)" d="M 246.043653 252 
L 249.080275 252 
L 249.080275 45.138244 
L 246.043653 45.138244 
z
" style="fill:#55a868;"/>
   </g>
   <g id="patch_162">
    <path clip-path="url(#p8584f99d79)" d="M 249.080275 252 
L 252.116898 252 
L 252.116898 45.126832 
L 249.080275 45.126832 
z
" style="fill:#55a868;"/>
   </g>
   <g id="patch_163">
    <path clip-path="url(#p8584f99d79)" d="M 252.116898 252 
L 255.153521 252 
L 255.153521 45.11542 
L 252.116898 45.11542 
z
" style="fill:#55a868;"/>
   </g>
   <g id="patch_164">
    <path clip-path="url(#p8584f99d79)" d="M 255.153521 252 
L 258.190144 252 
L 258.190144 45.096876 
L 255.153521 45.096876 
z
" style="fill:#55a868;"/>
   </g>
   <g id="patch_165">
    <path clip-path="url(#p8584f99d79)" d="M 258.190144 252 
L 261.226767 252 
L 261.226767 45.072626 
L 258.190144 45.072626 
z
" style="fill:#55a868;"/>
   </g>
   <g id="patch_166">
    <path clip-path="url(#p8584f99d79)" d="M 261.226767 252 
L 264.26339 252 
L 264.26339 45.06692 
L 261.226767 45.06692 
z
" style="fill:#55a868;"/>
   </g>
   <g id="patch_167">
    <path clip-path="url(#p8584f99d79)" d="M 264.26339 252 
L 267.300013 252 
L 267.300013 45.064067 
L 264.26339 45.064067 
z
" style="fill:#55a868;"/>
   </g>
   <g id="patch_168">
    <path clip-path="url(#p8584f99d79)" d="M 267.300013 252 
L 270.336636 252 
L 270.336636 45.06264 
L 267.300013 45.06264 
z
" style="fill:#55a868;"/>
   </g>
   <g id="patch_169">
    <path clip-path="url(#p8584f99d79)" d="M 270.336636 252 
L 273.373259 252 
L 273.373259 45.061214 
L 270.336636 45.061214 
z
" style="fill:#55a868;"/>
   </g>
   <g id="patch_170">
    <path clip-path="url(#p8584f99d79)" d="M 273.373259 252 
L 276.409882 252 
L 276.409882 45.056934 
L 273.373259 45.056934 
z
" style="fill:#55a868;"/>
   </g>
   <g id="patch_171">
    <path clip-path="url(#p8584f99d79)" d="M 276.409882 252 
L 279.446505 252 
L 279.446505 45.051228 
L 276.409882 45.051228 
z
" style="fill:#55a868;"/>
   </g>
   <g id="patch_172">
    <path clip-path="url(#p8584f99d79)" d="M 279.446505 252 
L 282.483128 252 
L 282.483128 45.046949 
L 279.446505 45.046949 
z
" style="fill:#55a868;"/>
   </g>
   <g id="patch_173">
    <path clip-path="url(#p8584f99d79)" d="M 282.483128 252 
L 285.519751 252 
L 285.519751 45.029831 
L 282.483128 45.029831 
z
" style="fill:#55a868;"/>
   </g>
   <g id="patch_174">
    <path clip-path="url(#p8584f99d79)" d="M 285.519751 252 
L 288.556374 252 
L 288.556374 45.026978 
L 285.519751 45.026978 
z
" style="fill:#55a868;"/>
   </g>
   <g id="patch_175">
    <path clip-path="url(#p8584f99d79)" d="M 288.556374 252 
L 291.592997 252 
L 291.592997 45.012713 
L 288.556374 45.012713 
z
" style="fill:#55a868;"/>
   </g>
   <g id="patch_176">
    <path clip-path="url(#p8584f99d79)" d="M 291.592997 252 
L 294.62962 252 
L 294.62962 45.001301 
L 291.592997 45.001301 
z
" style="fill:#55a868;"/>
   </g>
   <g id="patch_177">
    <path clip-path="url(#p8584f99d79)" d="M 294.62962 252 
L 297.666243 252 
L 297.666243 44.995595 
L 294.62962 44.995595 
z
" style="fill:#55a868;"/>
   </g>
   <g id="patch_178">
    <path clip-path="url(#p8584f99d79)" d="M 297.666243 252 
L 300.702866 252 
L 300.702866 44.989889 
L 297.666243 44.989889 
z
" style="fill:#55a868;"/>
   </g>
   <g id="patch_179">
    <path clip-path="url(#p8584f99d79)" d="M 300.702866 252 
L 303.739489 252 
L 303.739489 44.968492 
L 300.702866 44.968492 
z
" style="fill:#55a868;"/>
   </g>
   <g id="patch_180">
    <path clip-path="url(#p8584f99d79)" d="M 303.739489 252 
L 306.776112 252 
L 306.776112 44.965639 
L 303.739489 44.965639 
z
" style="fill:#55a868;"/>
   </g>
   <g id="patch_181">
    <path clip-path="url(#p8584f99d79)" d="M 306.776112 252 
L 309.812735 252 
L 309.812735 44.964213 
L 306.776112 44.964213 
z
" style="fill:#55a868;"/>
   </g>
   <g id="patch_182">
    <path clip-path="url(#p8584f99d79)" d="M 309.812735 252 
L 312.849358 252 
L 312.849358 44.962786 
L 309.812735 44.962786 
z
" style="fill:#55a868;"/>
   </g>
   <g id="patch_183">
    <path clip-path="url(#p8584f99d79)" d="M 312.849358 252 
L 315.885981 252 
L 315.885981 44.96136 
L 312.849358 44.96136 
z
" style="fill:#55a868;"/>
   </g>
   <g id="patch_184">
    <path clip-path="url(#p8584f99d79)" d="M 315.885981 252 
L 318.922604 252 
L 318.922604 44.958507 
L 315.885981 44.958507 
z
" style="fill:#55a868;"/>
   </g>
   <g id="patch_185">
    <path clip-path="url(#p8584f99d79)" d="M 318.922604 252 
L 321.959227 252 
L 321.959227 44.955654 
L 318.922604 44.955654 
z
" style="fill:#55a868;"/>
   </g>
   <g id="patch_186">
    <path clip-path="url(#p8584f99d79)" d="M 321.959227 252 
L 324.99585 252 
L 324.99585 44.949948 
L 321.959227 44.949948 
z
" style="fill:#55a868;"/>
   </g>
   <g id="patch_187">
    <path clip-path="url(#p8584f99d79)" d="M 324.99585 252 
L 328.032473 252 
L 328.032473 44.944242 
L 324.99585 44.944242 
z
" style="fill:#55a868;"/>
   </g>
   <g id="patch_188">
    <path clip-path="url(#p8584f99d79)" d="M 328.032473 252 
L 331.069096 252 
L 331.069096 44.944242 
L 328.032473 44.944242 
z
" style="fill:#55a868;"/>
   </g>
   <g id="patch_189">
    <path clip-path="url(#p8584f99d79)" d="M 331.069096 252 
L 334.105719 252 
L 334.105719 44.944242 
L 331.069096 44.944242 
z
" style="fill:#55a868;"/>
   </g>
   <g id="patch_190">
    <path clip-path="url(#p8584f99d79)" d="M 334.105719 252 
L 337.142342 252 
L 337.142342 44.944242 
L 334.105719 44.944242 
z
" style="fill:#55a868;"/>
   </g>
   <g id="patch_191">
    <path clip-path="url(#p8584f99d79)" d="M 337.142342 252 
L 340.178965 252 
L 340.178965 44.944242 
L 337.142342 44.944242 
z
" style="fill:#55a868;"/>
   </g>
   <g id="patch_192">
    <path clip-path="url(#p8584f99d79)" d="M 340.178965 252 
L 343.215588 252 
L 343.215588 44.939962 
L 340.178965 44.939962 
z
" style="fill:#55a868;"/>
   </g>
   <g id="patch_193">
    <path clip-path="url(#p8584f99d79)" d="M 343.215588 252 
L 346.252211 252 
L 346.252211 44.939962 
L 343.215588 44.939962 
z
" style="fill:#55a868;"/>
   </g>
   <g id="patch_194">
    <path clip-path="url(#p8584f99d79)" d="M 346.252211 252 
L 349.288834 252 
L 349.288834 44.939962 
L 346.252211 44.939962 
z
" style="fill:#55a868;"/>
   </g>
   <g id="patch_195">
    <path clip-path="url(#p8584f99d79)" d="M 349.288834 252 
L 352.325457 252 
L 352.325457 44.939962 
L 349.288834 44.939962 
z
" style="fill:#55a868;"/>
   </g>
   <g id="patch_196">
    <path clip-path="url(#p8584f99d79)" d="M 352.325457 252 
L 355.36208 252 
L 355.36208 44.924271 
L 352.325457 44.924271 
z
" style="fill:#55a868;"/>
   </g>
   <g id="patch_197">
    <path clip-path="url(#p8584f99d79)" d="M 355.36208 252 
L 358.398703 252 
L 358.398703 44.924271 
L 355.36208 44.924271 
z
" style="fill:#55a868;"/>
   </g>
   <g id="patch_198">
    <path clip-path="url(#p8584f99d79)" d="M 358.398703 252 
L 361.435326 252 
L 361.435326 44.922845 
L 358.398703 44.922845 
z
" style="fill:#55a868;"/>
   </g>
   <g id="patch_199">
    <path clip-path="url(#p8584f99d79)" d="M 361.435326 252 
L 364.471949 252 
L 364.471949 44.919992 
L 361.435326 44.919992 
z
" style="fill:#55a868;"/>
   </g>
   <g id="patch_200">
    <path clip-path="url(#p8584f99d79)" d="M 364.471949 252 
L 367.508572 252 
L 367.508572 44.918565 
L 364.471949 44.918565 
z
" style="fill:#55a868;"/>
   </g>
   <g id="patch_201">
    <path clip-path="url(#p8584f99d79)" d="M 367.508572 252 
L 370.545195 252 
L 370.545195 44.917139 
L 367.508572 44.917139 
z
" style="fill:#55a868;"/>
   </g>
   <g id="patch_202">
    <path clip-path="url(#p8584f99d79)" d="M 370.545195 252 
L 373.581818 252 
L 373.581818 44.914286 
L 370.545195 44.914286 
z
" style="fill:#55a868;"/>
   </g>
   <g id="patch_203">
    <path d="M 54 252 
L 54 34.56 
" style="fill:none;stroke:#cccccc;stroke-linecap:square;stroke-linejoin:miter;"/>
   </g>
   <g id="patch_204">
    <path d="M 54 252 
L 388.8 252 
" style="fill:none;stroke:#cccccc;stroke-linecap:square;stroke-linejoin:miter;"/>
   </g>
   <g id="legend_1">
    <g id="patch_205">
     <path d="M 63 50.56 
L 83 50.56 
L 83 43.56 
L 63 43.56 
z
" style="fill:#4c72b0;"/>
    </g>
    <g id="text_20">
     <!-- Acks -->
     <defs>
      <path d="M 36.296875 68.40625 
C 35.796875 69.703125 35.59375 70 34.59375 70 
C 33.59375 70 33.40625 69.703125 32.90625 68.40625 
L 11.703125 8.84375 
C 9.796875 3.484375 5.796875 2.390625 2.296875 2.390625 
L 2.296875 -0.203125 
C 4.09375 0 8.09375 0 10 0 
C 12.5 0 16.5 0 18.90625 -0.203125 
L 18.90625 2.390625 
C 14.203125 2.390625 13.5 5.640625 13.5 6.859375 
C 13.5 7.765625 13.703125 8.28125 13.90625 8.890625 
L 19.203125 24 
L 45.40625 24 
L 51.40625 6.90625 
C 51.90625 5.703125 51.90625 5.5 51.90625 5.109375 
C 51.90625 2.390625 47.59375 2.390625 45.703125 2.390625 
L 45.703125 0 
C 48.59375 0 53.796875 0 56.90625 0 
C 59.5 0 64.5 0 66.90625 -0.203125 
L 66.90625 2.390625 
C 61.59375 2.390625 59.796875 2.390625 58.5 6.046875 
z
M 32.296875 60.828125 
L 44.5 26.59375 
L 20.09375 26.59375 
z
" id="CMR17-65"/>
      <path d="M 34.90625 35 
C 33 35 30.203125 35 30.203125 31.515625 
C 30.203125 28.71875 32.5 27.921875 33.796875 27.921875 
C 34.5 27.921875 37.40625 28.234375 37.40625 31.625 
C 37.40625 38.546875 30.59375 43.796875 22.90625 43.796875 
C 12.296875 43.796875 3.296875 34.03125 3.296875 21.296875 
C 3.296875 8.0625 12.703125 -1 22.90625 -1 
C 35.296875 -1 38.40625 10.578125 38.40625 11.6875 
C 38.40625 12.09375 38.296875 12.390625 37.59375 12.390625 
C 36.90625 12.390625 36.796875 12.296875 36.40625 10.984375 
C 33.796875 2.8125 28.09375 0.796875 23.796875 0.796875 
C 17.40625 0.796875 9.703125 6.671875 9.703125 21.390625 
C 9.703125 36.53125 17.09375 42 23 42 
C 26.90625 42 32.703125 40.203125 34.90625 35 
z
" id="CMR17-99"/>
      <path d="M 26.09375 26.140625 
C 26 26.34375 25.5 26.9375 25.5 27.234375 
C 25.5 27.4375 32.59375 33.921875 33.5 34.71875 
C 39.203125 39.5 42.796875 40 45.40625 40 
L 45.40625 42.703125 
C 44.796875 42.703125 44.59375 42.703125 44.5 42.5 
L 39.59375 42.5 
C 36.796875 42.5 32.5 42.5 29.796875 42.703125 
L 29.796875 40.09375 
C 31.203125 39.984375 32.203125 39.1875 32.203125 37.796875 
C 32.203125 35.796875 30.203125 33.90625 30.09375 33.90625 
L 15 20.140625 
L 15 68.6875 
L 3.09375 67.59375 
L 3.09375 65 
C 9 65 9.90625 64.40625 9.90625 59.640625 
L 9.90625 6.65625 
C 9.90625 2.875 9.5 2.390625 3.09375 2.390625 
L 3.09375 -0.203125 
C 5.5 0 9.90625 0 12.40625 0 
C 14.90625 0 19.296875 0 21.703125 -0.203125 
L 21.703125 2.390625 
C 15.296875 2.390625 14.90625 2.78125 14.90625 6.6875 
L 14.90625 17.65625 
L 21.796875 23.9375 
L 31.90625 8.96875 
C 33.09375 7.171875 34.09375 5.765625 34.09375 4.46875 
C 34.09375 2.6875 32.296875 2.390625 31.09375 2.390625 
L 31.09375 -0.203125 
C 33.5 0 37.796875 0 40.296875 0 
C 42.09375 0 45.796875 0 47.5 0 
L 47.5 2.390625 
C 42.796875 2.390625 41.703125 3.28125 38.703125 7.671875 
z
" id="CMR17-107"/>
     </defs>
     <g style="fill:#262626;" transform="translate(91 50.56)scale(0.1 -0.1)">
      <use transform="scale(0.996264)" xlink:href="#CMR17-65"/>
      <use transform="translate(69.07243 0)scale(0.996264)" xlink:href="#CMR17-99"/>
      <use transform="translate(106.955636 0)scale(0.996264)" xlink:href="#CMR17-107"/>
      <use transform="translate(155.248552 0)scale(0.996264)" xlink:href="#CMR17-115"/>
     </g>
    </g>
    <g id="patch_206">
     <path d="M 63 64.497178 
L 83 64.497178 
L 83 57.497178 
L 63 57.497178 
z
" style="fill:#55a868;"/>
    </g>
    <g id="text_21">
     <!-- Chunks -->
     <defs>
      <path d="M 41.5 30.203125 
C 41.5 35.296875 40.5 43.59375 28.703125 43.59375 
C 20.5 43.59375 16.5 37 15.296875 33.703125 
L 15.203125 33.703125 
L 15.203125 68.6875 
L 3.296875 67.59375 
L 3.296875 65 
C 9.203125 65 10.09375 64.40625 10.09375 59.640625 
L 10.09375 6.65625 
C 10.09375 2.875 9.703125 2.390625 3.296875 2.390625 
L 3.296875 -0.203125 
C 5.703125 0 10.09375 0 12.703125 0 
C 15.296875 0 19.796875 0 22.203125 -0.203125 
L 22.203125 2.390625 
C 15.796875 2.390625 15.40625 2.78125 15.40625 6.6875 
L 15.40625 25.90625 
C 15.40625 35.109375 21 42 28 42 
C 35.40625 42 36.203125 35.40625 36.203125 30.59375 
L 36.203125 6.6875 
C 36.203125 2.875 35.796875 2.390625 29.40625 2.390625 
L 29.40625 -0.203125 
C 31.796875 0 36.203125 0 38.796875 0 
C 41.40625 0 45.90625 0 48.296875 -0.203125 
L 48.296875 2.390625 
C 41.90625 2.390625 41.5 2.78125 41.5 6.6875 
z
" id="CMR17-104"/>
      <path d="M 29.40625 42.078125 
L 29.40625 39.5 
C 35.296875 39.5 36.203125 38.890625 36.203125 34.15625 
L 36.203125 16.125 
C 36.203125 7.8125 31.703125 0.59375 24.296875 0.59375 
C 16.09375 0.59375 15.40625 5.4375 15.40625 10.59375 
L 15.40625 43.171875 
L 3.296875 42.078125 
L 3.296875 39.5 
C 7.296875 39.5 10 39.5 10.09375 35.53125 
L 10.09375 16.53125 
C 10.09375 9.890625 10.09375 5.640625 12.703125 2.859375 
C 14 1.578125 16.5 -1 23.703125 -1 
C 32.203125 -1 35.5 5.890625 36.296875 7.90625 
L 36.40625 7.90625 
L 36.40625 -0.984375 
L 48.296875 -0.984375 
L 48.296875 2 
C 42.40625 2 41.5 2.59375 41.5 7.390625 
L 41.5 43.171875 
z
" id="CMR17-117"/>
      <path d="M 41.5 30.203125 
C 41.5 35.296875 40.5 43.59375 28.703125 43.59375 
C 20.796875 43.59375 16.703125 37.5 15.203125 33.5 
L 15.09375 33.5 
L 15.09375 43.59375 
L 3.296875 42.5 
L 3.296875 39.90625 
C 9.203125 39.90625 10.09375 39.296875 10.09375 34.5 
L 10.09375 6.6875 
C 10.09375 2.875 9.703125 2.390625 3.296875 2.390625 
L 3.296875 -0.203125 
C 5.703125 0 10.09375 0 12.703125 0 
C 15.296875 0 19.796875 0 22.203125 -0.203125 
L 22.203125 2.390625 
C 15.796875 2.390625 15.40625 2.78125 15.40625 6.6875 
L 15.40625 25.90625 
C 15.40625 35.109375 21 42 28 42 
C 35.40625 42 36.203125 35.40625 36.203125 30.59375 
L 36.203125 6.6875 
C 36.203125 2.875 35.796875 2.390625 29.40625 2.390625 
L 29.40625 -0.203125 
C 31.796875 0 36.203125 0 38.796875 0 
C 41.40625 0 45.90625 0 48.296875 -0.203125 
L 48.296875 2.390625 
C 41.90625 2.390625 41.5 2.78125 41.5 6.6875 
z
" id="CMR17-110"/>
     </defs>
     <g style="fill:#262626;" transform="translate(91 64.497178)scale(0.1 -0.1)">
      <use transform="scale(0.996264)" xlink:href="#CMR17-67"/>
      <use transform="translate(66.509881 0)scale(0.996264)" xlink:href="#CMR17-104"/>
      <use transform="translate(114.802796 0)scale(0.996264)" xlink:href="#CMR17-117"/>
      <use transform="translate(165.698166 0)scale(0.996264)" xlink:href="#CMR17-110"/>
      <use transform="translate(216.593536 0)scale(0.996264)" xlink:href="#CMR17-107"/>
      <use transform="translate(264.886452 0)scale(0.996264)" xlink:href="#CMR17-115"/>
     </g>
    </g>
   </g>
  </g>
  <g id="text_22">
   <!-- Cumulative distribution function of messages transmission time -->
   <defs>
    <path d="M 15.296875 68.6875 
L 3.40625 67.59375 
L 3.40625 65 
C 9.296875 65 10.203125 64.40625 10.203125 59.640625 
L 10.203125 6.65625 
C 10.203125 2.875 9.796875 2.390625 3.40625 2.390625 
L 3.40625 -0.203125 
C 5.796875 0 10.203125 0 12.703125 0 
C 15.296875 0 19.703125 0 22.09375 -0.203125 
L 22.09375 2.390625 
C 15.703125 2.390625 15.296875 2.78125 15.296875 6.65625 
z
" id="CMR17-108"/>
    <path d="M 36 25.828125 
C 36 32.375 36 35.84375 31.796875 39.734375 
C 28.09375 43 23.796875 44 20.40625 44 
C 12.5 44 6.796875 37.609375 6.796875 30.796875 
C 6.796875 27 9.796875 27 10.40625 27 
C 11.703125 27 14 27.78125 14 30.53125 
C 14 33 12.09375 34.078125 10.40625 34.078125 
C 10 34.078125 9.5 33.96875 9.203125 33.875 
C 11.296875 40.5 16.703125 42.40625 20.203125 42.40625 
C 25.203125 42.40625 30.703125 37.953125 30.703125 29.453125 
L 30.703125 25 
C 24.796875 25 17.703125 24.203125 12.09375 21.203125 
C 5.796875 17.703125 4 12.703125 4 8.90625 
C 4 1.203125 13 -1 18.296875 -1 
C 23.796875 -1 28.90625 2.171875 31.09375 7.984375 
C 31.296875 3.640625 34.09375 -0.28125 38.5 -0.28125 
C 40.59375 -0.28125 45.90625 1.09375 45.90625 8.859375 
L 45.90625 14.375 
L 44.09375 14.375 
L 44.09375 8.78125 
C 44.09375 2.78125 41.40625 2 40.09375 2 
C 36 2 36 7.15625 36 11.53125 
z
M 30.703125 13.59375 
C 30.703125 4.953125 24.5 0.59375 19 0.59375 
C 14 0.59375 10.09375 4.296875 10.09375 8.90625 
C 10.09375 11.890625 11.40625 17.1875 17.203125 20.390625 
C 22 23.09375 27.5 23.5 30.703125 23.5 
z
" id="CMR17-97"/>
    <path d="M 15.09375 40 
L 29.09375 40 
L 29.09375 42.578125 
L 15.09375 42.578125 
L 15.09375 61 
L 13.296875 61 
C 13.09375 50.703125 9.59375 41.6875 1.09375 41.6875 
L 1.09375 40 
L 9.796875 40 
L 9.796875 12.046875 
C 9.796875 10.15625 9.796875 -1 21.40625 -1 
C 27.296875 -1 30.703125 4.78125 30.703125 12.140625 
L 30.703125 17.8125 
L 28.90625 17.8125 
L 28.90625 12.234375 
C 28.90625 5.375 26.203125 0.796875 22 0.796875 
C 19.09375 0.796875 15.09375 2.78125 15.09375 11.84375 
z
" id="CMR17-116"/>
    <path d="M 39.09375 33.796875 
C 40 36 41.59375 40 47.40625 40 
L 47.40625 42.59375 
C 45.5 42.59375 43 42.59375 41.09375 42.59375 
C 39 42.59375 35.703125 42.59375 33.703125 42.6875 
L 33.703125 40.09375 
C 36.203125 39.890625 37.59375 38.703125 37.59375 36.109375 
C 37.59375 35.203125 37.59375 35 37 33.609375 
L 26 5.890625 
L 14.09375 35.71875 
C 13.5 37.015625 13.5 37.203125 13.5 37.609375 
C 13.5 40 16.796875 40 18.296875 40 
L 18.296875 42.6875 
C 15.90625 42.59375 11.5 42.59375 9 42.59375 
C 6.296875 42.59375 3.203125 42.59375 1 42.6875 
L 1 40 
C 4.796875 40 6.90625 40 8.09375 36.90625 
L 22.59375 0.6875 
C 23.203125 -0.796875 23.296875 -1 24.203125 -1 
C 25.09375 -1 25.203125 -0.796875 25.796875 0.6875 
z
" id="CMR17-118"/>
    <path d="M 29.203125 67.59375 
L 29.203125 65 
C 35.09375 65 36 64.40625 36 59.6875 
L 36 36.640625 
C 35.59375 37.140625 31.5 43.59375 23.40625 43.59375 
C 13.203125 43.59375 3.296875 34.5 3.296875 21.3125 
C 3.296875 8.203125 12.59375 -1 22.40625 -1 
C 30.90625 -1 35.296875 5.265625 35.796875 5.9375 
L 35.796875 -0.984375 
L 47.90625 -0.984375 
L 47.90625 2 
C 42 2 41.09375 2.59375 41.09375 7.390625 
L 41.09375 68.6875 
z
M 35.796875 11.796875 
C 35.796875 8.796875 34 6.09375 31.703125 4.09375 
C 28.296875 1.09375 24.90625 0.59375 23 0.59375 
C 20.09375 0.59375 9.703125 2.09375 9.703125 21.1875 
C 9.703125 40.8125 21.296875 42 23.90625 42 
C 28.5 42 32.203125 39.40625 34.5 35.796875 
C 35.796875 33.703125 35.796875 33.40625 35.796875 31.609375 
z
" id="CMR17-100"/>
    <path d="M 15 23.390625 
C 15 33 19.09375 42 26.59375 42 
C 27.296875 42 28 41.90625 28.703125 41.59375 
C 28.703125 41.59375 26.5 40.890625 26.5 38.3125 
C 26.5 35.90625 28.40625 34.90625 29.90625 34.90625 
C 31.09375 34.90625 33.296875 35.609375 33.296875 38.40625 
C 33.296875 41.609375 30.09375 43.59375 26.703125 43.59375 
C 19.09375 43.59375 15.796875 36.203125 14.796875 32.703125 
L 14.703125 32.703125 
L 14.703125 43.59375 
L 3.09375 42.5 
L 3.09375 39.90625 
C 9 39.90625 9.90625 39.296875 9.90625 34.5 
L 9.90625 6.6875 
C 9.90625 2.875 9.5 2.390625 3.09375 2.390625 
L 3.09375 -0.203125 
C 5.5 0 10.09375 0 12.703125 0 
C 15.59375 0 20.703125 0 23.40625 -0.203125 
L 23.40625 2.390625 
C 16.203125 2.390625 15 2.390625 15 6.875 
z
" id="CMR17-114"/>
    <path d="M 15 68.6875 
L 3.09375 67.59375 
L 3.09375 65 
C 9 65 9.90625 64.40625 9.90625 59.640625 
L 9.90625 -0.203125 
L 11.703125 -0.203125 
L 14.59375 6.890625 
C 17.5 2.203125 21.796875 -1 27.59375 -1 
C 37.59375 -1 47.703125 7.8125 47.703125 21.40625 
C 47.703125 34.1875 38.703125 43.59375 28.59375 43.59375 
C 22.40625 43.59375 18 40.296875 15 36.40625 
z
M 15.203125 31.3125 
C 15.203125 33.09375 15.203125 33.40625 16.59375 35.5 
C 20.5 41.515625 26.09375 42 28 42 
C 31 42 41.296875 40.390625 41.296875 21.5 
C 41.296875 1.6875 29.5 0.59375 27.09375 0.59375 
C 24 0.59375 19.5 1.78125 16.296875 7.59375 
C 15.203125 9.5 15.203125 9.703125 15.203125 11.484375 
z
" id="CMR17-98"/>
    <path d="M 43.09375 21.1875 
C 43.09375 34 33.796875 44 22.90625 44 
C 12 44 2.703125 34 2.703125 21.1875 
C 2.703125 8.609375 12 -1 22.90625 -1 
C 33.796875 -1 43.09375 8.609375 43.09375 21.1875 
z
M 22.90625 0.796875 
C 18.203125 0.796875 14.203125 3.59375 11.90625 7.5 
C 9.40625 11.984375 9.09375 17.59375 9.09375 22 
C 9.09375 26.203125 9.296875 31.40625 11.90625 35.90625 
C 13.90625 39.203125 17.796875 42.40625 22.90625 42.40625 
C 27.40625 42.40625 31.203125 39.90625 33.59375 36.40625 
C 36.703125 31.703125 36.703125 25.109375 36.703125 22 
C 36.703125 18.09375 36.5 12.109375 33.796875 7.296875 
C 31 2.703125 26.703125 0.796875 22.90625 0.796875 
z
" id="CMR17-111"/>
    <path d="M 15.296875 40 
L 26.703125 40 
L 26.703125 42.578125 
L 15.09375 42.578125 
L 15.09375 54.59375 
C 15.09375 62.84375 19.296875 68 23.59375 68 
C 24.90625 68 26.40625 67.609375 27.40625 66.90625 
C 26.59375 66.703125 24.5 66.015625 24.5 63.546875 
C 24.5 60.953125 26.5 60.15625 27.90625 60.15625 
C 29.296875 60.15625 31.296875 60.953125 31.296875 63.546875 
C 31.296875 67.3125 27.703125 69.59375 23.703125 69.59375 
C 18 69.59375 10.203125 64.9375 10.203125 54.390625 
L 10.203125 42.578125 
L 2.203125 42.578125 
L 2.203125 40 
L 10.203125 40 
L 10.203125 6.671875 
C 10.203125 2.875 9.796875 2.390625 3.40625 2.390625 
L 3.40625 -0.203125 
C 5.796875 0 10.40625 0 13 0 
C 15.90625 0 21 0 23.703125 -0.203125 
L 23.703125 2.390625 
C 16.5 2.390625 15.296875 2.390625 15.296875 6.859375 
z
" id="CMR17-102"/>
    <path d="M 11.09375 18.1875 
C 13 16.6875 16.296875 15 20.296875 15 
C 28.203125 15 35 21.203125 35 29.5 
C 35 32.09375 34.203125 36.09375 31.203125 39.203125 
C 34 42.0625 38.09375 43 40.40625 43 
C 40.796875 43 41.40625 43 41.90625 42.71875 
C 41.5 42.625 40.59375 42.234375 40.59375 40.703125 
C 40.59375 39.484375 41.5 38.609375 42.796875 38.609375 
C 44.296875 38.609375 45.09375 39.578125 45.09375 40.84375 
C 45.09375 42.671875 43.59375 44.59375 40.40625 44.59375 
C 36.40625 44.59375 32.90625 42.78125 30.09375 40.3125 
C 27.09375 43.015625 23.5 44 20.296875 44 
C 12.40625 44 5.59375 37.796875 5.59375 29.5 
C 5.59375 23.78125 8.90625 20.1875 9.90625 19.1875 
C 6.90625 15.6875 6.90625 11.609375 6.90625 11.109375 
C 6.90625 8.515625 7.90625 4.71875 11.296875 2.625 
C 6.09375 1.328125 2 -2.640625 2 -7.59375 
C 2 -14.734375 11.5 -20 22.90625 -20 
C 33.90625 -20 43.796875 -14.9375 43.796875 -7.484375 
C 43.796875 6 29 6 21.296875 6 
C 19 6 14.90625 6 14.40625 6.109375 
C 11.296875 6.609375 9.203125 9.40625 9.203125 12.90625 
C 9.203125 13.796875 9.203125 16 11.09375 18.1875 
z
M 20.296875 16.6875 
C 11.5 16.6875 11.5 27.5 11.5 29.515625 
C 11.5 31.5 11.5 42.3125 20.296875 42.3125 
C 29.09375 42.3125 29.09375 31.5 29.09375 29.515625 
C 29.09375 27.5 29.09375 16.6875 20.296875 16.6875 
z
M 22.90625 -18.296875 
C 12.90625 -18.296875 6 -13.046875 6 -7.59375 
C 6 -4.515625 7.703125 -1.640625 9.90625 -0.0625 
C 12.40625 1.625 13.40625 1.625 20.203125 1.625 
C 28.40625 1.625 39.796875 1.625 39.796875 -7.59375 
C 39.796875 -13.046875 32.90625 -18.296875 22.90625 -18.296875 
z
" id="CMR17-103"/>
   </defs>
   <g style="fill:#262626;" transform="translate(20.432536 15.722625)scale(0.144 -0.144)">
    <use transform="scale(0.996264)" xlink:href="#CMR17-67"/>
    <use transform="translate(66.509881 0)scale(0.996264)" xlink:href="#CMR17-117"/>
    <use transform="translate(117.40525 0)scale(0.996264)" xlink:href="#CMR17-109"/>
    <use transform="translate(191.722386 0)scale(0.996264)" xlink:href="#CMR17-117"/>
    <use transform="translate(242.617756 0)scale(0.996264)" xlink:href="#CMR17-108"/>
    <use transform="translate(267.488815 0)scale(0.996264)" xlink:href="#CMR17-97"/>
    <use transform="translate(313.179292 0)scale(0.996264)" xlink:href="#CMR17-116"/>
    <use transform="translate(348.460059 0)scale(0.996264)" xlink:href="#CMR17-105"/>
    <use transform="translate(373.331118 0)scale(0.996264)" xlink:href="#CMR17-118"/>
    <use transform="translate(419.02158 0)scale(0.996264)" xlink:href="#CMR17-101"/>
    <use transform="translate(489.583207 0)scale(0.996264)" xlink:href="#CMR17-100"/>
    <use transform="translate(540.478576 0)scale(0.996264)" xlink:href="#CMR17-105"/>
    <use transform="translate(565.349635 0)scale(0.996264)" xlink:href="#CMR17-115"/>
    <use transform="translate(601.150973 0)scale(0.996264)" xlink:href="#CMR17-116"/>
    <use transform="translate(636.43174 0)scale(0.996264)" xlink:href="#CMR17-114"/>
    <use transform="translate(671.712508 0)scale(0.996264)" xlink:href="#CMR17-105"/>
    <use transform="translate(696.583567 0)scale(0.996264)" xlink:href="#CMR17-98"/>
    <use transform="translate(747.478936 0)scale(0.996264)" xlink:href="#CMR17-117"/>
    <use transform="translate(798.374306 0)scale(0.996264)" xlink:href="#CMR17-116"/>
    <use transform="translate(833.655074 0)scale(0.996264)" xlink:href="#CMR17-105"/>
    <use transform="translate(858.526132 0)scale(0.996264)" xlink:href="#CMR17-111"/>
    <use transform="translate(904.21661 0)scale(0.996264)" xlink:href="#CMR17-110"/>
    <use transform="translate(985.187946 0)scale(0.996264)" xlink:href="#CMR17-102"/>
    <use transform="translate(1012.661458 0)scale(0.996264)" xlink:href="#CMR17-117"/>
    <use transform="translate(1063.556828 0)scale(0.996264)" xlink:href="#CMR17-110"/>
    <use transform="translate(1114.452198 0)scale(0.996264)" xlink:href="#CMR17-99"/>
    <use transform="translate(1154.937858 0)scale(0.996264)" xlink:href="#CMR17-116"/>
    <use transform="translate(1190.218626 0)scale(0.996264)" xlink:href="#CMR17-105"/>
    <use transform="translate(1215.089684 0)scale(0.996264)" xlink:href="#CMR17-111"/>
    <use transform="translate(1260.780162 0)scale(0.996264)" xlink:href="#CMR17-110"/>
    <use transform="translate(1341.751498 0)scale(0.996264)" xlink:href="#CMR17-111"/>
    <use transform="translate(1387.441975 0)scale(0.996264)" xlink:href="#CMR17-102"/>
    <use transform="translate(1444.991454 0)scale(0.996264)" xlink:href="#CMR17-109"/>
    <use transform="translate(1521.911043 0)scale(0.996264)" xlink:href="#CMR17-101"/>
    <use transform="translate(1562.396704 0)scale(0.996264)" xlink:href="#CMR17-115"/>
    <use transform="translate(1598.198042 0)scale(0.996264)" xlink:href="#CMR17-115"/>
    <use transform="translate(1633.999379 0)scale(0.996264)" xlink:href="#CMR17-97"/>
    <use transform="translate(1679.689856 0)scale(0.996264)" xlink:href="#CMR17-103"/>
    <use transform="translate(1725.380333 0)scale(0.996264)" xlink:href="#CMR17-101"/>
    <use transform="translate(1765.865994 0)scale(0.996264)" xlink:href="#CMR17-115"/>
    <use transform="translate(1831.743298 0)scale(0.996264)" xlink:href="#CMR17-116"/>
    <use transform="translate(1867.024066 0)scale(0.996264)" xlink:href="#CMR17-114"/>
    <use transform="translate(1902.304833 0)scale(0.996264)" xlink:href="#CMR17-97"/>
    <use transform="translate(1947.995311 0)scale(0.996264)" xlink:href="#CMR17-110"/>
    <use transform="translate(1998.89068 0)scale(0.996264)" xlink:href="#CMR17-115"/>
    <use transform="translate(2034.692018 0)scale(0.996264)" xlink:href="#CMR17-109"/>
    <use transform="translate(2111.611608 0)scale(0.996264)" xlink:href="#CMR17-105"/>
    <use transform="translate(2136.482666 0)scale(0.996264)" xlink:href="#CMR17-115"/>
    <use transform="translate(2172.284004 0)scale(0.996264)" xlink:href="#CMR17-115"/>
    <use transform="translate(2208.085342 0)scale(0.996264)" xlink:href="#CMR17-105"/>
    <use transform="translate(2232.9564 0)scale(0.996264)" xlink:href="#CMR17-111"/>
    <use transform="translate(2278.646877 0)scale(0.996264)" xlink:href="#CMR17-110"/>
    <use transform="translate(2359.618213 0)scale(0.996264)" xlink:href="#CMR17-116"/>
    <use transform="translate(2394.898981 0)scale(0.996264)" xlink:href="#CMR17-105"/>
    <use transform="translate(2419.77004 0)scale(0.996264)" xlink:href="#CMR17-109"/>
    <use transform="translate(2496.689629 0)scale(0.996264)" xlink:href="#CMR17-101"/>
   </g>
  </g>
 </g>
 <defs>
  <clipPath id="p8584f99d79">
   <rect height="217.44" width="334.8" x="54" y="34.56"/>
  </clipPath>
 </defs>
</svg>
