<?xml version="1.0" encoding="utf-8" standalone="no"?>
<!DOCTYPE svg PUBLIC "-//W3C//DTD SVG 1.1//EN"
  "http://www.w3.org/Graphics/SVG/1.1/DTD/svg11.dtd">
<!-- Created with matplotlib (http://matplotlib.org/) -->
<svg height="108pt" version="1.1" viewBox="0 0 432 108" width="432pt" xmlns="http://www.w3.org/2000/svg" xmlns:xlink="http://www.w3.org/1999/xlink">
 <defs>
  <style type="text/css">
*{stroke-linecap:butt;stroke-linejoin:round;}
  </style>
 </defs>
 <g id="figure_1">
  <g id="patch_1">
   <path d="M 0 108 
L 432 108 
L 432 0 
L 0 0 
z
" style="fill:#ffffff;"/>
  </g>
  <g id="axes_1">
   <g id="patch_2">
    <path d="M 29.791528 84.844323 
L 421.2 84.844323 
L 421.2 10.8 
L 29.791528 10.8 
z
" style="fill:#ffffff;"/>
   </g>
   <g id="matplotlib.axis_1">
    <g id="xtick_1">
     <g id="line2d_1">
      <path clip-path="url(#pb92dc635cb)" d="M 29.791528 84.844323 
L 29.791528 10.8 
" style="fill:none;stroke:#cccccc;stroke-linecap:round;stroke-width:0.8;"/>
     </g>
     <g id="line2d_2"/>
     <g id="text_1">
      <!-- H -->
      <defs>
       <path d="M 56.09375 61.015625 
C 56.09375 65.5 57.203125 65.5 64.09375 65.5 
L 64.09375 68 
C 61.203125 68 55.90625 68 52.796875 68 
C 49.703125 68 44.40625 68 41.5 68 
L 41.5 65.5 
C 48.40625 65.5 49.5 65.5 49.5 61 
L 49.5 36.578125 
L 19.703125 36.578125 
L 19.703125 61 
C 19.703125 65.5 20.796875 65.5 27.703125 65.5 
L 27.703125 68 
C 24.796875 68 19.5 68 16.40625 68 
C 13.296875 68 8 68 5.09375 68 
L 5.09375 65.5 
C 12 65.5 13.09375 65.5 13.09375 61.015625 
L 13.09375 6.984375 
C 13.09375 2.5 12 2.5 5.09375 2.5 
L 5.09375 0 
C 8 0 13.296875 0 16.40625 0 
C 19.5 0 24.796875 0 27.703125 0 
L 27.703125 2.5 
C 20.796875 2.5 19.703125 2.5 19.703125 6.96875 
L 19.703125 34 
L 49.5 34 
L 49.5 6.96875 
C 49.5 2.5 48.40625 2.5 41.5 2.5 
L 41.5 0 
C 44.40625 0 49.703125 0 52.796875 0 
C 55.90625 0 61.203125 0 64.09375 0 
L 64.09375 2.5 
C 57.203125 2.5 56.09375 2.5 56.09375 6.984375 
z
" id="CMR17-72"/>
      </defs>
      <g style="fill:#262626;" transform="translate(26.055531 95.262822)scale(0.1 -0.1)">
       <use transform="scale(0.996264)" xlink:href="#CMR17-72"/>
      </g>
     </g>
    </g>
    <g id="xtick_2">
     <g id="line2d_3">
      <path clip-path="url(#pb92dc635cb)" d="M 54.254558 84.844323 
L 54.254558 10.8 
" style="fill:none;stroke:#cccccc;stroke-linecap:round;stroke-width:0.8;"/>
     </g>
     <g id="line2d_4"/>
     <g id="text_2">
      <!-- O -->
      <defs>
       <path d="M 67.296875 33.359375 
C 67.296875 53.703125 52.59375 69 36 69 
C 19 69 4.59375 53.5 4.59375 33.359375 
C 4.59375 13.203125 19.203125 -2 35.90625 -2 
C 53 -2 67.296875 13.5 67.296875 33.359375 
z
M 36 -0.203125 
C 24.59375 -0.203125 12.203125 11.109375 12.203125 34.640625 
C 12.203125 58.0625 25.796875 67.203125 35.90625 67.203125 
C 46.5 67.203125 59.703125 57.78125 59.703125 34.640625 
C 59.703125 10.71875 47 -0.203125 36 -0.203125 
z
" id="CMR17-79"/>
      </defs>
      <g style="fill:#262626;" transform="translate(50.380186 95.262822)scale(0.1 -0.1)">
       <use transform="scale(0.996264)" xlink:href="#CMR17-79"/>
      </g>
     </g>
    </g>
    <g id="xtick_3">
     <g id="line2d_5">
      <path clip-path="url(#pb92dc635cb)" d="M 78.717587 84.844323 
L 78.717587 10.8 
" style="fill:none;stroke:#cccccc;stroke-linecap:round;stroke-width:0.8;"/>
     </g>
     <g id="line2d_6"/>
     <g id="text_3">
      <!-- W -->
      <defs>
       <path d="M 86.296875 58.8125 
C 87.203125 61.5 88.703125 65 94.5 65 
L 94.5 67.59375 
C 92.796875 67.59375 89.296875 67.59375 87.5 67.59375 
C 85 67.59375 80.59375 67.59375 78.203125 67.6875 
L 78.203125 65 
C 82.703125 65 84.59375 62.5 84.59375 60.109375 
C 84.59375 59.40625 84.5 59.015625 84.09375 57.921875 
L 68.59375 8.671875 
L 52.296875 60.515625 
C 52 61.515625 51.90625 61.921875 51.90625 62.3125 
C 51.90625 65 56.296875 65 58.203125 65 
L 58.203125 67.59375 
C 55.296875 67.59375 50.296875 67.59375 47.203125 67.59375 
C 44.703125 67.59375 40.203125 67.59375 37.90625 67.6875 
L 37.90625 65 
C 42.5 65 43.703125 64.703125 44.703125 62.921875 
C 45.09375 62.015625 46.703125 56.84375 46.703125 56.546875 
C 46.703125 56.140625 46.5 55.546875 46.40625 55.25 
L 31.703125 8.765625 
L 15.40625 60.421875 
C 14.90625 61.828125 14.90625 62.015625 14.90625 62.21875 
C 14.90625 65 19.296875 65 21.296875 65 
L 21.296875 67.59375 
C 18.40625 67.59375 13.40625 67.59375 10.296875 67.59375 
C 7.703125 67.59375 3.296875 67.59375 0.90625 67.6875 
L 0.90625 65 
C 6.90625 65 7.296875 64.40625 8.296875 61.21875 
L 27.796875 -0.3125 
C 28.296875 -1.796875 28.296875 -2 29.203125 -2 
C 30 -2 30.296875 -1.796875 30.703125 -0.40625 
L 47.703125 53.640625 
L 64.703125 -0.40625 
C 65.09375 -1.796875 65.40625 -2 66.203125 -2 
C 67.09375 -2 67.09375 -1.796875 67.59375 -0.3125 
z
" id="CMR17-87"/>
      </defs>
      <g style="fill:#262626;" transform="translate(73.597885 95.262822)scale(0.1 -0.1)">
       <use transform="scale(0.996264)" xlink:href="#CMR17-87"/>
      </g>
     </g>
    </g>
    <g id="xtick_4">
     <g id="line2d_7">
      <path clip-path="url(#pb92dc635cb)" d="M 103.180617 84.844323 
L 103.180617 10.8 
" style="fill:none;stroke:#cccccc;stroke-linecap:round;stroke-width:0.8;"/>
     </g>
     <g id="line2d_8"/>
     <g id="text_4">
      <!-- W -->
      <g style="fill:#262626;" transform="translate(98.060915 95.262822)scale(0.1 -0.1)">
       <use transform="scale(0.996264)" xlink:href="#CMR17-87"/>
      </g>
     </g>
    </g>
    <g id="xtick_5">
     <g id="line2d_9">
      <path clip-path="url(#pb92dc635cb)" d="M 127.643646 84.844323 
L 127.643646 10.8 
" style="fill:none;stroke:#cccccc;stroke-linecap:round;stroke-width:0.8;"/>
     </g>
     <g id="line2d_10"/>
     <g id="text_5">
      <!-- O -->
      <g style="fill:#262626;" transform="translate(123.769274 95.262822)scale(0.1 -0.1)">
       <use transform="scale(0.996264)" xlink:href="#CMR17-79"/>
      </g>
     </g>
    </g>
    <g id="xtick_6">
     <g id="line2d_11">
      <path clip-path="url(#pb92dc635cb)" d="M 152.106676 84.844323 
L 152.106676 10.8 
" style="fill:none;stroke:#cccccc;stroke-linecap:round;stroke-width:0.8;"/>
     </g>
     <g id="line2d_12"/>
     <g id="text_6">
      <!-- H -->
      <g style="fill:#262626;" transform="translate(148.370678 95.262822)scale(0.1 -0.1)">
       <use transform="scale(0.996264)" xlink:href="#CMR17-72"/>
      </g>
     </g>
    </g>
    <g id="xtick_7">
     <g id="line2d_13">
      <path clip-path="url(#pb92dc635cb)" d="M 176.569705 84.844323 
L 176.569705 10.8 
" style="fill:none;stroke:#cccccc;stroke-linecap:round;stroke-width:0.8;"/>
     </g>
     <g id="line2d_14"/>
     <g id="text_7">
      <!-- H -->
      <g style="fill:#262626;" transform="translate(172.833708 95.262822)scale(0.1 -0.1)">
       <use transform="scale(0.996264)" xlink:href="#CMR17-72"/>
      </g>
     </g>
    </g>
    <g id="xtick_8">
     <g id="line2d_15">
      <path clip-path="url(#pb92dc635cb)" d="M 201.032735 84.844323 
L 201.032735 10.8 
" style="fill:none;stroke:#cccccc;stroke-linecap:round;stroke-width:0.8;"/>
     </g>
     <g id="line2d_16"/>
     <g id="text_8">
      <!-- H -->
      <g style="fill:#262626;" transform="translate(197.296737 95.262822)scale(0.1 -0.1)">
       <use transform="scale(0.996264)" xlink:href="#CMR17-72"/>
      </g>
     </g>
    </g>
    <g id="xtick_9">
     <g id="line2d_17">
      <path clip-path="url(#pb92dc635cb)" d="M 225.495764 84.844323 
L 225.495764 10.8 
" style="fill:none;stroke:#cccccc;stroke-linecap:round;stroke-width:0.8;"/>
     </g>
     <g id="line2d_18"/>
     <g id="text_9">
      <!-- H -->
      <g style="fill:#262626;" transform="translate(221.759767 95.262822)scale(0.1 -0.1)">
       <use transform="scale(0.996264)" xlink:href="#CMR17-72"/>
      </g>
     </g>
    </g>
    <g id="xtick_10">
     <g id="line2d_19">
      <path clip-path="url(#pb92dc635cb)" d="M 249.958794 84.844323 
L 249.958794 10.8 
" style="fill:none;stroke:#cccccc;stroke-linecap:round;stroke-width:0.8;"/>
     </g>
     <g id="line2d_20"/>
     <g id="text_10">
      <!-- O -->
      <g style="fill:#262626;" transform="translate(246.084422 95.262822)scale(0.1 -0.1)">
       <use transform="scale(0.996264)" xlink:href="#CMR17-79"/>
      </g>
     </g>
    </g>
    <g id="xtick_11">
     <g id="line2d_21">
      <path clip-path="url(#pb92dc635cb)" d="M 274.421823 84.844323 
L 274.421823 10.8 
" style="fill:none;stroke:#cccccc;stroke-linecap:round;stroke-width:0.8;"/>
     </g>
     <g id="line2d_22"/>
     <g id="text_11">
      <!-- O -->
      <g style="fill:#262626;" transform="translate(270.547451 95.262822)scale(0.1 -0.1)">
       <use transform="scale(0.996264)" xlink:href="#CMR17-79"/>
      </g>
     </g>
    </g>
    <g id="xtick_12">
     <g id="line2d_23">
      <path clip-path="url(#pb92dc635cb)" d="M 298.884853 84.844323 
L 298.884853 10.8 
" style="fill:none;stroke:#cccccc;stroke-linecap:round;stroke-width:0.8;"/>
     </g>
     <g id="line2d_24"/>
     <g id="text_12">
      <!-- H -->
      <g style="fill:#262626;" transform="translate(295.148855 95.262822)scale(0.1 -0.1)">
       <use transform="scale(0.996264)" xlink:href="#CMR17-72"/>
      </g>
     </g>
    </g>
    <g id="xtick_13">
     <g id="line2d_25">
      <path clip-path="url(#pb92dc635cb)" d="M 323.347882 84.844323 
L 323.347882 10.8 
" style="fill:none;stroke:#cccccc;stroke-linecap:round;stroke-width:0.8;"/>
     </g>
     <g id="line2d_26"/>
     <g id="text_13">
      <!-- O -->
      <g style="fill:#262626;" transform="translate(319.47351 95.262822)scale(0.1 -0.1)">
       <use transform="scale(0.996264)" xlink:href="#CMR17-79"/>
      </g>
     </g>
    </g>
    <g id="xtick_14">
     <g id="line2d_27">
      <path clip-path="url(#pb92dc635cb)" d="M 347.810912 84.844323 
L 347.810912 10.8 
" style="fill:none;stroke:#cccccc;stroke-linecap:round;stroke-width:0.8;"/>
     </g>
     <g id="line2d_28"/>
     <g id="text_14">
      <!-- O -->
      <g style="fill:#262626;" transform="translate(343.93654 95.262822)scale(0.1 -0.1)">
       <use transform="scale(0.996264)" xlink:href="#CMR17-79"/>
      </g>
     </g>
    </g>
    <g id="xtick_15">
     <g id="line2d_29">
      <path clip-path="url(#pb92dc635cb)" d="M 372.273941 84.844323 
L 372.273941 10.8 
" style="fill:none;stroke:#cccccc;stroke-linecap:round;stroke-width:0.8;"/>
     </g>
     <g id="line2d_30"/>
     <g id="text_15">
      <!-- W -->
      <g style="fill:#262626;" transform="translate(367.154239 95.262822)scale(0.1 -0.1)">
       <use transform="scale(0.996264)" xlink:href="#CMR17-87"/>
      </g>
     </g>
    </g>
    <g id="xtick_16">
     <g id="line2d_31">
      <path clip-path="url(#pb92dc635cb)" d="M 396.736971 84.844323 
L 396.736971 10.8 
" style="fill:none;stroke:#cccccc;stroke-linecap:round;stroke-width:0.8;"/>
     </g>
     <g id="line2d_32"/>
     <g id="text_16">
      <!-- W -->
      <g style="fill:#262626;" transform="translate(391.617269 95.262822)scale(0.1 -0.1)">
       <use transform="scale(0.996264)" xlink:href="#CMR17-87"/>
      </g>
     </g>
    </g>
   </g>
   <g id="matplotlib.axis_2">
    <g id="ytick_1">
     <g id="line2d_33">
      <path clip-path="url(#pb92dc635cb)" d="M 29.791528 75.588783 
L 421.2 75.588783 
" style="fill:none;stroke:#cccccc;stroke-linecap:round;stroke-width:0.8;"/>
     </g>
     <g id="line2d_34"/>
     <g id="text_17">
      <!-- $o_{p}$ -->
      <defs>
       <path d="M 45.59375 27.4375 
C 45.59375 36.921875 39.40625 44 30.296875 44 
C 17.09375 44 4.09375 29.640625 4.09375 15.5625 
C 4.09375 6.09375 10.296875 -1 19.40625 -1 
C 32.703125 -1 45.59375 13.375 45.59375 27.4375 
z
M 19.5 1 
C 14.5 1 10.796875 4.984375 10.796875 11.96875 
C 10.796875 16.5625 13.203125 26.75 16 31.734375 
C 20.5 39.421875 26.09375 42.015625 30.203125 42.015625 
C 35.09375 42.015625 38.90625 38.015625 38.90625 31.03125 
C 38.90625 27.046875 36.796875 16.359375 33 10.28125 
C 28.90625 3.59375 23.40625 1 19.5 1 
z
" id="CMMI12-111"/>
       <path d="M 4.296875 -12.328125 
C 3.59375 -15.3125 3.203125 -16.109375 -0.90625 -16.109375 
C -2.09375 -16.109375 -3.09375 -16.109375 -3.09375 -18 
C -3.09375 -18.203125 -3 -19 -1.90625 -19 
C -0.59375 -19 0.796875 -19 2.09375 -19 
L 6.40625 -19 
C 8.5 -19 13.59375 -19 15.703125 -19 
C 16.296875 -19 17.5 -19 17.5 -17.203125 
C 17.5 -16.109375 16.796875 -16.109375 15.09375 -16.109375 
C 10.5 -16.109375 10.203125 -15.421875 10.203125 -14.640625 
C 10.203125 -13.453125 14.703125 3.421875 15.296875 5.6875 
C 16.40625 2.890625 19.09375 -1 24.296875 -1 
C 35.59375 -1 47.796875 13.671875 47.796875 28.34375 
C 47.796875 37.515625 42.59375 44 35.09375 44 
C 28.703125 44 23.296875 37.8125 22.203125 36.421875 
C 21.40625 41.40625 17.5 44 13.5 44 
C 10.59375 44 8.296875 42.609375 6.40625 38.8125 
C 4.59375 35.21875 3.203125 29.140625 3.203125 28.734375 
C 3.203125 28.34375 3.59375 27.84375 4.296875 27.84375 
C 5.09375 27.84375 5.203125 27.9375 5.796875 30.234375 
C 7.296875 36.125 9.203125 42.015625 13.203125 42.015625 
C 15.5 42.015625 16.296875 40.421875 16.296875 37.453125 
C 16.296875 35.078125 16 34.078125 15.59375 32.296875 
z
M 21.59375 31.140625 
C 22.296875 33.921875 25.09375 36.828125 26.703125 38.21875 
C 27.796875 39.21875 31.09375 42.015625 34.90625 42.015625 
C 39.296875 42.015625 41.296875 37.625 41.296875 32.4375 
C 41.296875 27.640625 38.5 16.359375 36 11.171875 
C 33.5 5.78125 28.90625 1 24.296875 1 
C 17.5 1 16.40625 9.578125 16.40625 9.984375 
C 16.40625 10.28125 16.59375 11.078125 16.703125 11.578125 
z
" id="CMMI12-112"/>
      </defs>
      <g style="fill:#262626;" transform="translate(13.174351 81.123577)scale(0.16 -0.16)">
       <use transform="translate(0 14.943915)scale(0.996264)" xlink:href="#CMMI12-111"/>
       <use transform="translate(46.89531 0)scale(0.697382)" xlink:href="#CMMI12-112"/>
      </g>
     </g>
    </g>
    <g id="ytick_2">
     <g id="line2d_35">
      <path clip-path="url(#pb92dc635cb)" d="M 29.791528 57.077702 
L 421.2 57.077702 
" style="fill:none;stroke:#cccccc;stroke-linecap:round;stroke-width:0.8;"/>
     </g>
     <g id="line2d_36"/>
     <g id="text_18">
      <!-- $o_{w}$ -->
      <defs>
       <path d="M 34.40625 6.09375 
C 36.59375 0.09375 42.796875 -1 46.59375 -1 
C 54.203125 -1 58.703125 5.59375 61.5 12.46875 
C 63.796875 18.265625 67.5 31.4375 67.5 37.328125 
C 67.5 43.40625 64.40625 44 63.5 44 
C 61.09375 44 58.90625 41.609375 58.90625 39.609375 
C 58.90625 38.421875 59.59375 37.71875 60.09375 37.328125 
C 61 36.421875 63.59375 33.734375 63.59375 28.546875 
C 63.59375 25.140625 60.796875 15.765625 58.703125 11.078125 
C 55.90625 4.984375 52.203125 1 47 1 
C 41.40625 1 39.59375 5.1875 39.59375 9.78125 
C 39.59375 12.671875 40.5 16.171875 40.90625 17.859375 
L 45.09375 34.625 
C 45.59375 36.625 46.5 40.109375 46.5 40.515625 
C 46.5 42.015625 45.296875 43.015625 43.796875 43.015625 
C 40.90625 43.015625 40.203125 40.515625 39.59375 38.125 
C 38.59375 34.234375 34.40625 17.359375 34 15.171875 
C 33.59375 13.46875 33.59375 12.375 33.59375 10.171875 
C 33.59375 7.78125 30.40625 3.984375 30.296875 3.796875 
C 29.203125 2.6875 27.59375 1 24.5 1 
C 16.59375 1 16.59375 8.484375 16.59375 10.171875 
C 16.59375 13.375 17.296875 17.765625 21.796875 29.640625 
C 23 32.734375 23.5 34.03125 23.5 36.015625 
C 23.5 40.21875 20.5 44 15.59375 44 
C 6.40625 44 2.703125 29.53125 2.703125 28.734375 
C 2.703125 28.34375 3.09375 27.84375 3.796875 27.84375 
C 4.703125 27.84375 4.796875 28.234375 5.203125 29.625 
C 7.703125 38.34375 11.59375 41.90625 15.296875 41.90625 
C 16.296875 41.90625 17.90625 41.90625 17.90625 38.71875 
C 17.90625 38.21875 17.90625 36.125 16.203125 31.734375 
C 11.5 19.265625 10.5 15.171875 10.5 11.375 
C 10.5 0.890625 19.09375 -1 24.203125 -1 
C 25.90625 -1 30.40625 -1 34.40625 6.09375 
z
" id="CMMI12-119"/>
      </defs>
      <g style="fill:#262626;" transform="translate(10.8 62.612496)scale(0.16 -0.16)">
       <use transform="translate(0 14.943915)scale(0.996264)" xlink:href="#CMMI12-111"/>
       <use transform="translate(46.89531 0)scale(0.697382)" xlink:href="#CMMI12-119"/>
      </g>
     </g>
    </g>
    <g id="ytick_3">
     <g id="line2d_37">
      <path clip-path="url(#pb92dc635cb)" d="M 29.791528 38.566621 
L 421.2 38.566621 
" style="fill:none;stroke:#cccccc;stroke-linecap:round;stroke-width:0.8;"/>
     </g>
     <g id="line2d_38"/>
     <g id="text_19">
      <!-- $o_{h}$ -->
      <defs>
       <path d="M 28.09375 66.515625 
C 28.203125 66.921875 28.40625 67.515625 28.40625 68 
C 28.40625 69 27.40625 69 27.203125 69 
C 27.09375 69 22.203125 68.5625 21.703125 68.4375 
C 20 68.328125 18.5 68.09375 16.703125 68.09375 
C 14.203125 67.890625 13.5 67.796875 13.5 66 
C 13.5 65 14.296875 65 15.703125 65 
C 20.59375 65 20.703125 64.109375 20.703125 63.125 
C 20.703125 62.53125 20.5 61.734375 20.40625 61.4375 
L 5.90625 3.875 
C 5.5 2.375 5.5 2.1875 5.5 1.578125 
C 5.5 -0.59375 7.203125 -1 8.203125 -1 
C 9.90625 -1 11.203125 0.296875 11.703125 1.390625 
L 16.203125 19.453125 
C 16.703125 21.65625 17.296875 23.75 17.796875 25.9375 
C 18.90625 30.140625 18.90625 30.234375 20.796875 33.125 
C 22.703125 36.015625 27.203125 42.015625 34.90625 42.015625 
C 38.90625 42.015625 40.296875 39.015625 40.296875 35.03125 
C 40.296875 29.4375 36.40625 18.5625 34.203125 12.578125 
C 33.296875 10.171875 32.796875 8.875 32.796875 7.078125 
C 32.796875 2.59375 35.90625 -1 40.703125 -1 
C 50 -1 53.5 13.671875 53.5 14.265625 
C 53.5 14.765625 53.09375 15.171875 52.5 15.171875 
C 51.59375 15.171875 51.5 14.875 51 13.171875 
C 48.703125 5.1875 45 1 41 1 
C 40 1 38.40625 1 38.40625 4.203125 
C 38.40625 6.8125 39.59375 10 40 11.09375 
C 41.796875 15.90625 46.296875 27.703125 46.296875 33.515625 
C 46.296875 39.5 42.796875 44 35.203125 44 
C 29.5 44 24.5 41.3125 20.40625 36.125 
z
" id="CMMI12-104"/>
      </defs>
      <g style="fill:#262626;" transform="translate(12.359429 44.101415)scale(0.16 -0.16)">
       <use transform="translate(0 14.943915)scale(0.996264)" xlink:href="#CMMI12-111"/>
       <use transform="translate(46.89531 0)scale(0.697382)" xlink:href="#CMMI12-104"/>
      </g>
     </g>
    </g>
    <g id="ytick_4">
     <g id="line2d_39">
      <path clip-path="url(#pb92dc635cb)" d="M 29.791528 20.05554 
L 421.2 20.05554 
" style="fill:none;stroke:#cccccc;stroke-linecap:round;stroke-width:0.8;"/>
     </g>
     <g id="line2d_40"/>
     <g id="text_20">
      <!-- $o_{l}$ -->
      <defs>
       <path d="M 25.40625 66.515625 
C 25.5 66.90625 25.703125 67.5 25.703125 68 
C 25.703125 69 24.703125 69 24.5 69 
C 24.40625 69 20.796875 68.640625 19 68.390625 
C 17.296875 68.390625 15.796875 68.09375 14 68.09375 
C 11.59375 67.890625 10.90625 67.796875 10.90625 66 
C 10.90625 65 11.90625 65 12.90625 65 
C 18 65 18 64.09375 18 63.109375 
C 18 62.71875 18 62.515625 17.5 60.734375 
L 5.09375 11.421875 
C 4.796875 10.328125 4.59375 9.53125 4.59375 7.953125 
C 4.59375 2.984375 8.296875 -1 13.40625 -1 
C 16.703125 -1 18.90625 1.1875 20.5 4.28125 
C 22.203125 7.546875 23.59375 13.8125 23.59375 14.203125 
C 23.59375 14.703125 23.203125 15.109375 22.59375 15.109375 
C 21.703125 15.109375 21.59375 14.609375 21.203125 13.125 
C 19.40625 6.265625 17.59375 1 13.59375 1 
C 10.59375 1 10.59375 4.171875 10.59375 5.578125 
C 10.59375 5.96875 10.59375 8.046875 11.296875 10.84375 
z
" id="CMMI12-108"/>
      </defs>
      <g style="fill:#262626;" transform="translate(15.458936 25.590335)scale(0.16 -0.16)">
       <use transform="translate(0 14.943915)scale(0.996264)" xlink:href="#CMMI12-111"/>
       <use transform="translate(46.89531 0)scale(0.697382)" xlink:href="#CMMI12-108"/>
      </g>
     </g>
    </g>
   </g>
   <g id="patch_3">
    <path clip-path="url(#pb92dc635cb)" d="M 29.791528 80.216553 
L 54.254558 80.216553 
L 54.254558 70.961013 
L 29.791528 70.961013 
z
" style="fill:#444444;"/>
   </g>
   <g id="patch_4">
    <path clip-path="url(#pb92dc635cb)" d="M 29.791528 43.194391 
L 54.254558 43.194391 
L 54.254558 33.938851 
L 29.791528 33.938851 
z
" style="fill:#444444;"/>
   </g>
   <g id="patch_5">
    <path clip-path="url(#pb92dc635cb)" d="M 29.791528 24.683311 
L 54.254558 24.683311 
L 54.254558 15.42777 
L 29.791528 15.42777 
z
" style="fill:#444444;"/>
   </g>
   <g id="patch_6">
    <path clip-path="url(#pb92dc635cb)" d="M 78.717587 61.705472 
L 103.180617 61.705472 
L 103.180617 52.449932 
L 78.717587 52.449932 
z
" style="fill:#444444;"/>
   </g>
   <g id="patch_7">
    <path clip-path="url(#pb92dc635cb)" d="M 103.180617 80.216553 
L 127.643646 80.216553 
L 127.643646 70.961013 
L 103.180617 70.961013 
z
" style="fill:#444444;"/>
   </g>
   <g id="patch_8">
    <path clip-path="url(#pb92dc635cb)" d="M 152.106676 80.216553 
L 176.569705 80.216553 
L 176.569705 70.961013 
L 152.106676 70.961013 
z
" style="fill:#444444;"/>
   </g>
   <g id="patch_9">
    <path clip-path="url(#pb92dc635cb)" d="M 152.106676 43.194391 
L 176.569705 43.194391 
L 176.569705 33.938851 
L 152.106676 33.938851 
z
" style="fill:#444444;"/>
   </g>
   <g id="patch_10">
    <path clip-path="url(#pb92dc635cb)" d="M 152.106676 24.683311 
L 176.569705 24.683311 
L 176.569705 15.42777 
L 152.106676 15.42777 
z
" style="fill:#444444;"/>
   </g>
   <g id="patch_11">
    <path clip-path="url(#pb92dc635cb)" d="M 176.569705 80.216553 
L 201.032735 80.216553 
L 201.032735 70.961013 
L 176.569705 70.961013 
z
" style="fill:#444444;"/>
   </g>
   <g id="patch_12">
    <path clip-path="url(#pb92dc635cb)" d="M 176.569705 43.194391 
L 201.032735 43.194391 
L 201.032735 33.938851 
L 176.569705 33.938851 
z
" style="fill:#444444;"/>
   </g>
   <g id="patch_13">
    <path clip-path="url(#pb92dc635cb)" d="M 176.569705 24.683311 
L 201.032735 24.683311 
L 201.032735 15.42777 
L 176.569705 15.42777 
z
" style="fill:#444444;"/>
   </g>
   <g id="patch_14">
    <path clip-path="url(#pb92dc635cb)" d="M 201.032735 80.216553 
L 225.495764 80.216553 
L 225.495764 70.961013 
L 201.032735 70.961013 
z
" style="fill:#444444;"/>
   </g>
   <g id="patch_15">
    <path clip-path="url(#pb92dc635cb)" d="M 201.032735 24.683311 
L 225.495764 24.683311 
L 225.495764 15.42777 
L 201.032735 15.42777 
z
" style="fill:#444444;"/>
   </g>
   <g id="patch_16">
    <path clip-path="url(#pb92dc635cb)" d="M 225.495764 80.216553 
L 249.958794 80.216553 
L 249.958794 70.961013 
L 225.495764 70.961013 
z
" style="fill:#444444;"/>
   </g>
   <g id="patch_17">
    <path clip-path="url(#pb92dc635cb)" d="M 274.421823 80.216553 
L 298.884853 80.216553 
L 298.884853 70.961013 
L 274.421823 70.961013 
z
" style="fill:#444444;"/>
   </g>
   <g id="patch_18">
    <path clip-path="url(#pb92dc635cb)" d="M 274.421823 24.683311 
L 298.884853 24.683311 
L 298.884853 15.42777 
L 274.421823 15.42777 
z
" style="fill:#444444;"/>
   </g>
   <g id="patch_19">
    <path clip-path="url(#pb92dc635cb)" d="M 298.884853 80.216553 
L 323.347882 80.216553 
L 323.347882 70.961013 
L 298.884853 70.961013 
z
" style="fill:#444444;"/>
   </g>
   <g id="patch_20">
    <path clip-path="url(#pb92dc635cb)" d="M 323.347882 24.683311 
L 347.810912 24.683311 
L 347.810912 15.42777 
L 323.347882 15.42777 
z
" style="fill:#444444;"/>
   </g>
   <g id="patch_21">
    <path clip-path="url(#pb92dc635cb)" d="M 372.273941 80.216553 
L 396.736971 80.216553 
L 396.736971 70.961013 
L 372.273941 70.961013 
z
" style="fill:#444444;"/>
   </g>
   <g id="patch_22">
    <path clip-path="url(#pb92dc635cb)" d="M 372.273941 61.705472 
L 396.736971 61.705472 
L 396.736971 52.449932 
L 372.273941 52.449932 
z
" style="fill:#444444;"/>
   </g>
   <g id="patch_23">
    <path clip-path="url(#pb92dc635cb)" d="M 396.736971 80.216553 
L 421.2 80.216553 
L 421.2 70.961013 
L 396.736971 70.961013 
z
" style="fill:#444444;"/>
   </g>
   <g id="patch_24">
    <path clip-path="url(#pb92dc635cb)" d="M 396.736971 61.705472 
L 421.2 61.705472 
L 421.2 52.449932 
L 396.736971 52.449932 
z
" style="fill:#444444;"/>
   </g>
   <g id="patch_25">
    <path d="M 29.791528 84.844323 
L 29.791528 10.8 
" style="fill:none;stroke:#cccccc;stroke-linecap:square;stroke-linejoin:miter;"/>
   </g>
   <g id="patch_26">
    <path d="M 29.791528 84.844323 
L 421.2 84.844323 
" style="fill:none;stroke:#cccccc;stroke-linecap:square;stroke-linejoin:miter;"/>
   </g>
  </g>
 </g>
 <defs>
  <clipPath id="pb92dc635cb">
   <rect height="74.044323" width="391.408472" x="29.791528" y="10.8"/>
  </clipPath>
 </defs>
</svg>
