<?xml version="1.0" encoding="utf-8" standalone="no"?>
<!DOCTYPE svg PUBLIC "-//W3C//DTD SVG 1.1//EN"
  "http://www.w3.org/Graphics/SVG/1.1/DTD/svg11.dtd">
<!-- Created with matplotlib (http://matplotlib.org/) -->
<svg height="259pt" version="1.1" viewBox="0 0 414 259" width="414pt" xmlns="http://www.w3.org/2000/svg" xmlns:xlink="http://www.w3.org/1999/xlink">
 <defs>
  <style type="text/css">
*{stroke-linecap:butt;stroke-linejoin:round;}
  </style>
 </defs>
 <g id="figure_1">
  <g id="patch_1">
   <path d="M 0 259.2 
L 414.72 259.2 
L 414.72 0 
L 0 0 
z
" style="fill:#ffffff;"/>
  </g>
  <g id="axes_1">
   <g id="patch_2">
    <path d="M 38.682577 77.690307 
L 118.271722 77.690307 
L 118.271722 26.570347 
L 38.682577 26.570347 
z
" style="fill:#ffffff;"/>
   </g>
   <g id="matplotlib.axis_1">
    <g id="xtick_1">
     <g id="line2d_1">
      <path clip-path="url(#p166dce026a)" d="M 74.457495 77.690307 
L 74.457495 26.570347 
" style="fill:none;stroke:#cccccc;stroke-linecap:round;"/>
     </g>
     <g id="line2d_2"/>
    </g>
    <g id="xtick_2">
     <g id="line2d_3">
      <path clip-path="url(#p166dce026a)" d="M 114.654033 77.690307 
L 114.654033 26.570347 
" style="fill:none;stroke:#cccccc;stroke-linecap:round;"/>
     </g>
     <g id="line2d_4"/>
    </g>
   </g>
   <g id="matplotlib.axis_2">
    <g id="ytick_1">
     <g id="line2d_5">
      <path clip-path="url(#p166dce026a)" d="M 38.682577 77.690307 
L 118.271722 77.690307 
" style="fill:none;stroke:#cccccc;stroke-linecap:round;"/>
     </g>
     <g id="line2d_6"/>
     <g id="text_1">
      <!-- $0$ -->
      <defs>
       <path d="M 42 31.640625 
C 42 37.75 41.90625 48.125 37.703125 56.109375 
C 34 63.109375 28.09375 65.59375 22.90625 65.59375 
C 18.09375 65.59375 12 63.40625 8.203125 56.203125 
C 4.203125 48.71875 3.796875 39.4375 3.796875 31.640625 
C 3.796875 25.953125 3.90625 17.28125 7 9.671875 
C 11.296875 -0.609375 19 -2 22.90625 -2 
C 27.5 -2 34.5 -0.109375 38.59375 9.375 
C 41.59375 16.28125 42 24.359375 42 31.640625 
z
M 22.90625 -0.40625 
C 16.5 -0.40625 12.703125 5.078125 11.296875 12.6875 
C 10.203125 18.5625 10.203125 27.15625 10.203125 32.75 
C 10.203125 40.4375 10.203125 46.828125 11.5 52.921875 
C 13.40625 61.390625 19 64 22.90625 64 
C 27 64 32.296875 61.296875 34.203125 53.125 
C 35.5 47.4375 35.59375 40.734375 35.59375 32.75 
C 35.59375 26.25 35.59375 18.265625 34.40625 12.375 
C 32.296875 1.484375 26.40625 -0.40625 22.90625 -0.40625 
z
" id="CMR17-48"/>
      </defs>
      <g style="fill:#262626;" transform="translate(26.701241 81.149556)scale(0.1 -0.1)">
       <use transform="scale(0.996264)" xlink:href="#CMR17-48"/>
      </g>
     </g>
    </g>
    <g id="ytick_2">
     <g id="line2d_7">
      <path clip-path="url(#p166dce026a)" d="M 38.682577 36.794339 
L 118.271722 36.794339 
" style="fill:none;stroke:#cccccc;stroke-linecap:round;"/>
     </g>
     <g id="line2d_8"/>
     <g id="text_2">
      <!-- $1$ -->
      <defs>
       <path d="M 26.59375 63.40625 
C 26.59375 65.5 26.5 65.5 25.09375 65.5 
C 21.203125 61.1875 15.296875 59.796875 9.703125 59.796875 
C 9.40625 59.796875 8.90625 59.796875 8.796875 59.5 
C 8.703125 59.296875 8.703125 59.09375 8.703125 57 
C 11.796875 57 17 57.59375 21 59.984375 
L 21 7.203125 
C 21 3.6875 20.796875 2.5 12.203125 2.5 
L 9.203125 2.5 
L 9.203125 0 
C 14 0 19 0 23.796875 0 
C 28.59375 0 33.59375 0 38.40625 0 
L 38.40625 2.5 
L 35.40625 2.5 
C 26.796875 2.5 26.59375 3.59375 26.59375 7.15625 
z
" id="CMR17-49"/>
      </defs>
      <g style="fill:#262626;" transform="translate(26.701241 40.253588)scale(0.1 -0.1)">
       <use transform="scale(0.996264)" xlink:href="#CMR17-49"/>
      </g>
     </g>
    </g>
    <g id="text_3">
     <!-- avail. rate -->
     <defs>
      <path d="M 36 25.828125 
C 36 32.375 36 35.84375 31.796875 39.734375 
C 28.09375 43 23.796875 44 20.40625 44 
C 12.5 44 6.796875 37.609375 6.796875 30.796875 
C 6.796875 27 9.796875 27 10.40625 27 
C 11.703125 27 14 27.78125 14 30.53125 
C 14 33 12.09375 34.078125 10.40625 34.078125 
C 10 34.078125 9.5 33.96875 9.203125 33.875 
C 11.296875 40.5 16.703125 42.40625 20.203125 42.40625 
C 25.203125 42.40625 30.703125 37.953125 30.703125 29.453125 
L 30.703125 25 
C 24.796875 25 17.703125 24.203125 12.09375 21.203125 
C 5.796875 17.703125 4 12.703125 4 8.90625 
C 4 1.203125 13 -1 18.296875 -1 
C 23.796875 -1 28.90625 2.171875 31.09375 7.984375 
C 31.296875 3.640625 34.09375 -0.28125 38.5 -0.28125 
C 40.59375 -0.28125 45.90625 1.09375 45.90625 8.859375 
L 45.90625 14.375 
L 44.09375 14.375 
L 44.09375 8.78125 
C 44.09375 2.78125 41.40625 2 40.09375 2 
C 36 2 36 7.15625 36 11.53125 
z
M 30.703125 13.59375 
C 30.703125 4.953125 24.5 0.59375 19 0.59375 
C 14 0.59375 10.09375 4.296875 10.09375 8.90625 
C 10.09375 11.890625 11.40625 17.1875 17.203125 20.390625 
C 22 23.09375 27.5 23.5 30.703125 23.5 
z
" id="CMR17-97"/>
      <path d="M 39.09375 33.796875 
C 40 36 41.59375 40 47.40625 40 
L 47.40625 42.59375 
C 45.5 42.59375 43 42.59375 41.09375 42.59375 
C 39 42.59375 35.703125 42.59375 33.703125 42.6875 
L 33.703125 40.09375 
C 36.203125 39.890625 37.59375 38.703125 37.59375 36.109375 
C 37.59375 35.203125 37.59375 35 37 33.609375 
L 26 5.890625 
L 14.09375 35.71875 
C 13.5 37.015625 13.5 37.203125 13.5 37.609375 
C 13.5 40 16.796875 40 18.296875 40 
L 18.296875 42.6875 
C 15.90625 42.59375 11.5 42.59375 9 42.59375 
C 6.296875 42.59375 3.203125 42.59375 1 42.6875 
L 1 40 
C 4.796875 40 6.90625 40 8.09375 36.90625 
L 22.59375 0.6875 
C 23.203125 -0.796875 23.296875 -1 24.203125 -1 
C 25.09375 -1 25.203125 -0.796875 25.796875 0.6875 
z
" id="CMR17-118"/>
      <path d="M 15.5 61.078125 
C 15.5 63.265625 13.703125 65.15625 11.40625 65.15625 
C 9.203125 65.15625 7.296875 63.375 7.296875 61.078125 
C 7.296875 58.890625 9.09375 57 11.40625 57 
C 13.59375 57 15.5 58.796875 15.5 61.078125 
z
M 3.796875 42.28125 
L 3.796875 39.703125 
C 9.40625 39.703125 10.203125 39.09375 10.203125 34.328125 
L 10.203125 6.671875 
C 10.203125 2.875 9.796875 2.390625 3.40625 2.390625 
L 3.40625 -0.203125 
C 5.796875 0 10.09375 0 12.59375 0 
C 15 0 19.09375 0 21.40625 -0.203125 
L 21.40625 2.390625 
C 15.5 2.390625 15.296875 2.984375 15.296875 6.5625 
L 15.296875 43.375 
z
" id="CMR17-105"/>
      <path d="M 15.296875 68.6875 
L 3.40625 67.59375 
L 3.40625 65 
C 9.296875 65 10.203125 64.40625 10.203125 59.640625 
L 10.203125 6.65625 
C 10.203125 2.875 9.796875 2.390625 3.40625 2.390625 
L 3.40625 -0.203125 
C 5.796875 0 10.203125 0 12.703125 0 
C 15.296875 0 19.703125 0 22.09375 -0.203125 
L 22.09375 2.390625 
C 15.703125 2.390625 15.296875 2.78125 15.296875 6.65625 
z
" id="CMR17-108"/>
      <path d="M 16.59375 4.078125 
C 16.59375 6.5625 14.59375 8.15625 12.5 8.15625 
C 10.5 8.15625 8.40625 6.5625 8.40625 4.078125 
C 8.40625 1.59375 10.40625 0 12.5 0 
C 14.5 0 16.59375 1.59375 16.59375 4.078125 
z
" id="CMR17-46"/>
      <path d="M 15 23.390625 
C 15 33 19.09375 42 26.59375 42 
C 27.296875 42 28 41.90625 28.703125 41.59375 
C 28.703125 41.59375 26.5 40.890625 26.5 38.3125 
C 26.5 35.90625 28.40625 34.90625 29.90625 34.90625 
C 31.09375 34.90625 33.296875 35.609375 33.296875 38.40625 
C 33.296875 41.609375 30.09375 43.59375 26.703125 43.59375 
C 19.09375 43.59375 15.796875 36.203125 14.796875 32.703125 
L 14.703125 32.703125 
L 14.703125 43.59375 
L 3.09375 42.5 
L 3.09375 39.90625 
C 9 39.90625 9.90625 39.296875 9.90625 34.5 
L 9.90625 6.6875 
C 9.90625 2.875 9.5 2.390625 3.09375 2.390625 
L 3.09375 -0.203125 
C 5.5 0 10.09375 0 12.703125 0 
C 15.59375 0 20.703125 0 23.40625 -0.203125 
L 23.40625 2.390625 
C 16.203125 2.390625 15 2.390625 15 6.875 
z
" id="CMR17-114"/>
      <path d="M 15.09375 40 
L 29.09375 40 
L 29.09375 42.578125 
L 15.09375 42.578125 
L 15.09375 61 
L 13.296875 61 
C 13.09375 50.703125 9.59375 41.6875 1.09375 41.6875 
L 1.09375 40 
L 9.796875 40 
L 9.796875 12.046875 
C 9.796875 10.15625 9.796875 -1 21.40625 -1 
C 27.296875 -1 30.703125 4.78125 30.703125 12.140625 
L 30.703125 17.8125 
L 28.90625 17.8125 
L 28.90625 12.234375 
C 28.90625 5.375 26.203125 0.796875 22 0.796875 
C 19.09375 0.796875 15.09375 2.78125 15.09375 11.84375 
z
" id="CMR17-116"/>
      <path d="M 38.09375 23 
C 38.5 23.40625 38.5 23.609375 38.5 24.625 
C 38.5 34.96875 33.09375 44 21.703125 44 
C 11.09375 44 2.703125 33.890625 2.703125 21.609375 
C 2.703125 8.609375 12.203125 -1 22.796875 -1 
C 34 -1 38.40625 9.484375 38.40625 11.5625 
C 38.40625 12.25 37.796875 12.25 37.59375 12.25 
C 36.90625 12.25 36.796875 12.046875 36.40625 10.875 
C 34.203125 4.140625 28.703125 0.796875 23.5 0.796875 
C 19.203125 0.796875 14.90625 3.171875 12.203125 7.5 
C 9.09375 12.546875 9.09375 18.375 9.09375 23 
z
M 9.203125 24.5 
C 9.90625 39.140625 17.59375 42.40625 21.59375 42.40625 
C 28.40625 42.40625 33 35.890625 33.09375 24.5 
z
" id="CMR17-101"/>
     </defs>
     <g style="fill:#262626;" transform="translate(20.570347 76.498708)rotate(-90)scale(0.11 -0.11)">
      <use transform="scale(0.996264)" xlink:href="#CMR17-97"/>
      <use transform="translate(43.088023 0)scale(0.996264)" xlink:href="#CMR17-118"/>
      <use transform="translate(86.176122 0)scale(0.996264)" xlink:href="#CMR17-97"/>
      <use transform="translate(131.866599 0)scale(0.996264)" xlink:href="#CMR17-105"/>
      <use transform="translate(156.737658 0)scale(0.996264)" xlink:href="#CMR17-108"/>
      <use transform="translate(181.608716 0)scale(0.996264)" xlink:href="#CMR17-46"/>
      <use transform="translate(246.965435 0)scale(0.996264)" xlink:href="#CMR17-114"/>
      <use transform="translate(282.246203 0)scale(0.996264)" xlink:href="#CMR17-97"/>
      <use transform="translate(327.93668 0)scale(0.996264)" xlink:href="#CMR17-116"/>
      <use transform="translate(363.217448 0)scale(0.996264)" xlink:href="#CMR17-101"/>
     </g>
    </g>
   </g>
   <g id="LineCollection_1">
    <path clip-path="url(#p166dce026a)" d="M 42.300265 36.794339 
L 42.300265 36.794339 
" style="fill:none;stroke:#808080;stroke-width:1.75;"/>
    <path clip-path="url(#p166dce026a)" d="M 50.339573 36.794339 
L 50.339573 36.794339 
" style="fill:none;stroke:#808080;stroke-width:1.75;"/>
    <path clip-path="url(#p166dce026a)" d="M 58.37888 36.794339 
L 58.37888 36.794339 
" style="fill:none;stroke:#808080;stroke-width:1.75;"/>
    <path clip-path="url(#p166dce026a)" d="M 66.418188 36.794339 
L 66.418188 36.794339 
" style="fill:none;stroke:#808080;stroke-width:1.75;"/>
    <path clip-path="url(#p166dce026a)" d="M 74.457495 36.794339 
L 74.457495 36.794339 
" style="fill:none;stroke:#808080;stroke-width:1.75;"/>
    <path clip-path="url(#p166dce026a)" d="M 82.496803 36.794339 
L 82.496803 36.794339 
" style="fill:none;stroke:#808080;stroke-width:1.75;"/>
    <path clip-path="url(#p166dce026a)" d="M 90.53611 36.794339 
L 90.53611 36.794339 
" style="fill:none;stroke:#808080;stroke-width:1.75;"/>
    <path clip-path="url(#p166dce026a)" d="M 98.575418 36.794339 
L 98.575418 36.794339 
" style="fill:none;stroke:#808080;stroke-width:1.75;"/>
    <path clip-path="url(#p166dce026a)" d="M 106.614726 36.794339 
L 106.614726 36.794339 
" style="fill:none;stroke:#808080;stroke-width:1.75;"/>
    <path clip-path="url(#p166dce026a)" d="M 114.654033 36.794339 
L 114.654033 36.794339 
" style="fill:none;stroke:#808080;stroke-width:1.75;"/>
   </g>
   <g id="line2d_9">
    <path clip-path="url(#p166dce026a)" d="M 42.300265 36.794339 
L 50.339573 36.794339 
L 58.37888 36.794339 
L 66.418188 36.794339 
L 74.457495 36.794339 
L 82.496803 36.794339 
L 90.53611 36.794339 
L 98.575418 36.794339 
L 106.614726 36.794339 
L 114.654033 36.794339 
" style="fill:none;stroke:#808080;stroke-linecap:round;stroke-width:1.75;"/>
   </g>
   <g id="patch_3">
    <path d="M 38.682577 77.690307 
L 38.682577 26.570347 
" style="fill:none;stroke:#cccccc;stroke-linecap:square;stroke-linejoin:miter;"/>
   </g>
   <g id="patch_4">
    <path d="M 38.682577 77.690307 
L 118.271722 77.690307 
" style="fill:none;stroke:#cccccc;stroke-linecap:square;stroke-linejoin:miter;"/>
   </g>
   <g id="text_4">
    <!-- $\theta$ = 0.0001 -->
    <defs>
     <path d="M 44.296875 50 
C 44.296875 60.15625 41.09375 70 32.90625 70 
C 18.90625 70 4 40.859375 4 19 
C 4 14.421875 5 -1 15.5 -1 
C 29.09375 -1 44.296875 27.4375 44.296875 50 
z
M 14 36 
C 15.5 41.859375 17.59375 50.21875 21.59375 57.265625 
C 24.90625 63.234375 28.40625 68 32.796875 68 
C 36.09375 68 38.296875 65.21875 38.296875 55.6875 
C 38.296875 52.09375 38 47.140625 35.09375 36 
z
M 34.40625 33.015625 
C 31.90625 23.28125 29.796875 17 26.203125 10.734375 
C 23.296875 5.671875 19.796875 1 15.59375 1 
C 12.5 1 10 3.390625 10 13.21875 
C 10 19.6875 11.59375 26.453125 13.203125 33.015625 
z
" id="CMMI12-18"/>
     <path d="M 64.296875 31.515625 
C 65.796875 31.515625 67.296875 31.515625 67.296875 33.203125 
C 67.296875 35 65.59375 35 63.90625 35 
L 8 35 
C 6.296875 35 4.59375 35 4.59375 33.203125 
C 4.59375 31.515625 6.09375 31.515625 7.59375 31.515625 
z
M 63.90625 14 
C 65.59375 14 67.296875 14 67.296875 15.796875 
C 67.296875 17.484375 65.796875 17.484375 64.296875 17.484375 
L 7.59375 17.484375 
C 6.09375 17.484375 4.59375 17.484375 4.59375 15.796875 
C 4.59375 14 6.296875 14 8 14 
z
" id="CMR17-61"/>
    </defs>
    <g style="fill:#262626;" transform="translate(52.617131 20.570347)scale(0.11 -0.11)">
     <use transform="scale(0.996264)" xlink:href="#CMMI12-18"/>
     <use transform="translate(78.245474 0)scale(0.996264)" xlink:href="#CMR17-61"/>
     <use transform="translate(180.036229 0)scale(0.996264)" xlink:href="#CMR17-48"/>
     <use transform="translate(225.726706 0)scale(0.996264)" xlink:href="#CMR17-46"/>
     <use transform="translate(250.597764 0)scale(0.996264)" xlink:href="#CMR17-48"/>
     <use transform="translate(296.288242 0)scale(0.996264)" xlink:href="#CMR17-48"/>
     <use transform="translate(341.978719 0)scale(0.996264)" xlink:href="#CMR17-48"/>
     <use transform="translate(387.669196 0)scale(0.996264)" xlink:href="#CMR17-49"/>
    </g>
   </g>
  </g>
  <g id="axes_2">
   <g id="patch_5">
    <path d="M 132.691932 77.690307 
L 212.281077 77.690307 
L 212.281077 26.570347 
L 132.691932 26.570347 
z
" style="fill:#ffffff;"/>
   </g>
   <g id="matplotlib.axis_3">
    <g id="xtick_3">
     <g id="line2d_10">
      <path clip-path="url(#pe5f829c0f9)" d="M 168.466851 77.690307 
L 168.466851 26.570347 
" style="fill:none;stroke:#cccccc;stroke-linecap:round;"/>
     </g>
     <g id="line2d_11"/>
    </g>
    <g id="xtick_4">
     <g id="line2d_12">
      <path clip-path="url(#pe5f829c0f9)" d="M 208.663389 77.690307 
L 208.663389 26.570347 
" style="fill:none;stroke:#cccccc;stroke-linecap:round;"/>
     </g>
     <g id="line2d_13"/>
    </g>
   </g>
   <g id="matplotlib.axis_4">
    <g id="ytick_3">
     <g id="line2d_14">
      <path clip-path="url(#pe5f829c0f9)" d="M 132.691932 77.690307 
L 212.281077 77.690307 
" style="fill:none;stroke:#cccccc;stroke-linecap:round;"/>
     </g>
     <g id="line2d_15"/>
    </g>
    <g id="ytick_4">
     <g id="line2d_16">
      <path clip-path="url(#pe5f829c0f9)" d="M 132.691932 36.794339 
L 212.281077 36.794339 
" style="fill:none;stroke:#cccccc;stroke-linecap:round;"/>
     </g>
     <g id="line2d_17"/>
    </g>
   </g>
   <g id="LineCollection_2">
    <path clip-path="url(#pe5f829c0f9)" d="M 136.309621 36.794339 
L 136.309621 36.794339 
" style="fill:none;stroke:#808080;stroke-width:1.75;"/>
    <path clip-path="url(#pe5f829c0f9)" d="M 144.348928 39.8906 
L 144.348928 34.107037 
" style="fill:none;stroke:#808080;stroke-width:1.75;"/>
    <path clip-path="url(#pe5f829c0f9)" d="M 152.388236 39.8906 
L 152.388236 34.107037 
" style="fill:none;stroke:#808080;stroke-width:1.75;"/>
    <path clip-path="url(#pe5f829c0f9)" d="M 160.427544 36.794339 
L 160.427544 36.794339 
" style="fill:none;stroke:#808080;stroke-width:1.75;"/>
    <path clip-path="url(#pe5f829c0f9)" d="M 168.466851 41.282607 
L 168.466851 33.12399 
" style="fill:none;stroke:#808080;stroke-width:1.75;"/>
    <path clip-path="url(#pe5f829c0f9)" d="M 176.506159 39.8906 
L 176.506159 34.107037 
" style="fill:none;stroke:#808080;stroke-width:1.75;"/>
    <path clip-path="url(#pe5f829c0f9)" d="M 184.545466 36.794339 
L 184.545466 36.794339 
" style="fill:none;stroke:#808080;stroke-width:1.75;"/>
    <path clip-path="url(#pe5f829c0f9)" d="M 192.584774 36.794339 
L 192.584774 36.794339 
" style="fill:none;stroke:#808080;stroke-width:1.75;"/>
    <path clip-path="url(#pe5f829c0f9)" d="M 200.624081 36.794339 
L 200.624081 36.794339 
" style="fill:none;stroke:#808080;stroke-width:1.75;"/>
    <path clip-path="url(#pe5f829c0f9)" d="M 208.663389 41.282607 
L 208.663389 33.12399 
" style="fill:none;stroke:#808080;stroke-width:1.75;"/>
   </g>
   <g id="line2d_18">
    <path clip-path="url(#pe5f829c0f9)" d="M 136.309621 36.794339 
L 144.348928 36.998819 
L 152.388236 36.998819 
L 160.427544 36.794339 
L 168.466851 37.203298 
L 176.506159 36.998819 
L 184.545466 36.794339 
L 192.584774 36.794339 
L 200.624081 36.794339 
L 208.663389 37.203298 
" style="fill:none;stroke:#808080;stroke-linecap:round;stroke-width:1.75;"/>
   </g>
   <g id="patch_6">
    <path d="M 132.691932 77.690307 
L 132.691932 26.570347 
" style="fill:none;stroke:#cccccc;stroke-linecap:square;stroke-linejoin:miter;"/>
   </g>
   <g id="patch_7">
    <path d="M 132.691932 77.690307 
L 212.281077 77.690307 
" style="fill:none;stroke:#cccccc;stroke-linecap:square;stroke-linejoin:miter;"/>
   </g>
   <g id="text_5">
    <!-- $\theta$ = 0.001 -->
    <g style="fill:#262626;" transform="translate(149.366221 20.570347)scale(0.11 -0.11)">
     <use transform="scale(0.996264)" xlink:href="#CMMI12-18"/>
     <use transform="translate(78.245474 0)scale(0.996264)" xlink:href="#CMR17-61"/>
     <use transform="translate(180.036229 0)scale(0.996264)" xlink:href="#CMR17-48"/>
     <use transform="translate(225.726706 0)scale(0.996264)" xlink:href="#CMR17-46"/>
     <use transform="translate(250.597764 0)scale(0.996264)" xlink:href="#CMR17-48"/>
     <use transform="translate(296.288242 0)scale(0.996264)" xlink:href="#CMR17-48"/>
     <use transform="translate(341.978719 0)scale(0.996264)" xlink:href="#CMR17-49"/>
    </g>
   </g>
  </g>
  <g id="axes_3">
   <g id="patch_8">
    <path d="M 226.701288 77.690307 
L 306.290433 77.690307 
L 306.290433 26.570347 
L 226.701288 26.570347 
z
" style="fill:#ffffff;"/>
   </g>
   <g id="matplotlib.axis_5">
    <g id="xtick_5">
     <g id="line2d_19">
      <path clip-path="url(#p02aeaec8e1)" d="M 262.476207 77.690307 
L 262.476207 26.570347 
" style="fill:none;stroke:#cccccc;stroke-linecap:round;"/>
     </g>
     <g id="line2d_20"/>
    </g>
    <g id="xtick_6">
     <g id="line2d_21">
      <path clip-path="url(#p02aeaec8e1)" d="M 302.672745 77.690307 
L 302.672745 26.570347 
" style="fill:none;stroke:#cccccc;stroke-linecap:round;"/>
     </g>
     <g id="line2d_22"/>
    </g>
   </g>
   <g id="matplotlib.axis_6">
    <g id="ytick_5">
     <g id="line2d_23">
      <path clip-path="url(#p02aeaec8e1)" d="M 226.701288 77.690307 
L 306.290433 77.690307 
" style="fill:none;stroke:#cccccc;stroke-linecap:round;"/>
     </g>
     <g id="line2d_24"/>
    </g>
    <g id="ytick_6">
     <g id="line2d_25">
      <path clip-path="url(#p02aeaec8e1)" d="M 226.701288 36.794339 
L 306.290433 36.794339 
" style="fill:none;stroke:#cccccc;stroke-linecap:round;"/>
     </g>
     <g id="line2d_26"/>
    </g>
   </g>
   <g id="LineCollection_3">
    <path clip-path="url(#p02aeaec8e1)" d="M 230.318977 41.282607 
L 230.318977 33.12399 
" style="fill:none;stroke:#808080;stroke-width:1.75;"/>
    <path clip-path="url(#p02aeaec8e1)" d="M 238.358284 36.794339 
L 238.358284 36.794339 
" style="fill:none;stroke:#808080;stroke-width:1.75;"/>
    <path clip-path="url(#p02aeaec8e1)" d="M 246.397592 42.391258 
L 246.397592 32.424298 
" style="fill:none;stroke:#808080;stroke-width:1.75;"/>
    <path clip-path="url(#p02aeaec8e1)" d="M 254.436899 41.282607 
L 254.436899 33.12399 
" style="fill:none;stroke:#808080;stroke-width:1.75;"/>
    <path clip-path="url(#p02aeaec8e1)" d="M 262.476207 42.391258 
L 262.476207 32.424298 
" style="fill:none;stroke:#808080;stroke-width:1.75;"/>
    <path clip-path="url(#p02aeaec8e1)" d="M 270.515515 42.391258 
L 270.515515 32.424298 
" style="fill:none;stroke:#808080;stroke-width:1.75;"/>
    <path clip-path="url(#p02aeaec8e1)" d="M 278.554822 43.352061 
L 278.554822 31.872455 
" style="fill:none;stroke:#808080;stroke-width:1.75;"/>
    <path clip-path="url(#p02aeaec8e1)" d="M 286.59413 44.217641 
L 286.59413 31.415835 
" style="fill:none;stroke:#808080;stroke-width:1.75;"/>
    <path clip-path="url(#p02aeaec8e1)" d="M 294.633437 45.015054 
L 294.633437 31.027382 
" style="fill:none;stroke:#808080;stroke-width:1.75;"/>
    <path clip-path="url(#p02aeaec8e1)" d="M 302.672745 41.282607 
L 302.672745 33.12399 
" style="fill:none;stroke:#808080;stroke-width:1.75;"/>
   </g>
   <g id="line2d_27">
    <path clip-path="url(#p02aeaec8e1)" d="M 230.318977 37.203298 
L 238.358284 36.794339 
L 246.397592 37.407778 
L 254.436899 37.203298 
L 262.476207 37.407778 
L 270.515515 37.407778 
L 278.554822 37.612258 
L 286.59413 37.816738 
L 294.633437 38.021218 
L 302.672745 37.203298 
" style="fill:none;stroke:#808080;stroke-linecap:round;stroke-width:1.75;"/>
   </g>
   <g id="patch_9">
    <path d="M 226.701288 77.690307 
L 226.701288 26.570347 
" style="fill:none;stroke:#cccccc;stroke-linecap:square;stroke-linejoin:miter;"/>
   </g>
   <g id="patch_10">
    <path d="M 226.701288 77.690307 
L 306.290433 77.690307 
" style="fill:none;stroke:#cccccc;stroke-linecap:square;stroke-linejoin:miter;"/>
   </g>
   <g id="text_6">
    <!-- $\theta$ = 0.01 -->
    <g style="fill:#262626;" transform="translate(246.11531 20.570347)scale(0.11 -0.11)">
     <use transform="scale(0.996264)" xlink:href="#CMMI12-18"/>
     <use transform="translate(78.245474 0)scale(0.996264)" xlink:href="#CMR17-61"/>
     <use transform="translate(180.036229 0)scale(0.996264)" xlink:href="#CMR17-48"/>
     <use transform="translate(225.726706 0)scale(0.996264)" xlink:href="#CMR17-46"/>
     <use transform="translate(250.597764 0)scale(0.996264)" xlink:href="#CMR17-48"/>
     <use transform="translate(296.288242 0)scale(0.996264)" xlink:href="#CMR17-49"/>
    </g>
   </g>
  </g>
  <g id="axes_4">
   <g id="patch_11">
    <path d="M 320.710644 77.690307 
L 400.299789 77.690307 
L 400.299789 26.570347 
L 320.710644 26.570347 
z
" style="fill:#ffffff;"/>
   </g>
   <g id="matplotlib.axis_7">
    <g id="xtick_7">
     <g id="line2d_28">
      <path clip-path="url(#pc57896d6b6)" d="M 356.485563 77.690307 
L 356.485563 26.570347 
" style="fill:none;stroke:#cccccc;stroke-linecap:round;"/>
     </g>
     <g id="line2d_29"/>
    </g>
    <g id="xtick_8">
     <g id="line2d_30">
      <path clip-path="url(#pc57896d6b6)" d="M 396.682101 77.690307 
L 396.682101 26.570347 
" style="fill:none;stroke:#cccccc;stroke-linecap:round;"/>
     </g>
     <g id="line2d_31"/>
    </g>
   </g>
   <g id="matplotlib.axis_8">
    <g id="ytick_7">
     <g id="line2d_32">
      <path clip-path="url(#pc57896d6b6)" d="M 320.710644 77.690307 
L 400.299789 77.690307 
" style="fill:none;stroke:#cccccc;stroke-linecap:round;"/>
     </g>
     <g id="line2d_33"/>
    </g>
    <g id="ytick_8">
     <g id="line2d_34">
      <path clip-path="url(#pc57896d6b6)" d="M 320.710644 36.794339 
L 400.299789 36.794339 
" style="fill:none;stroke:#cccccc;stroke-linecap:round;"/>
     </g>
     <g id="line2d_35"/>
    </g>
   </g>
   <g id="LineCollection_4">
    <path clip-path="url(#pc57896d6b6)" d="M 324.328333 57.159893 
L 324.328333 28.288615 
" style="fill:none;stroke:#808080;stroke-width:1.75;"/>
    <path clip-path="url(#pc57896d6b6)" d="M 332.36764 58.368026 
L 332.36764 28.307361 
" style="fill:none;stroke:#808080;stroke-width:1.75;"/>
    <path clip-path="url(#pc57896d6b6)" d="M 340.406948 57.970797 
L 340.406948 28.295631 
" style="fill:none;stroke:#808080;stroke-width:1.75;"/>
    <path clip-path="url(#pc57896d6b6)" d="M 348.446255 59.14707 
L 348.446255 28.346237 
" style="fill:none;stroke:#808080;stroke-width:1.75;"/>
    <path clip-path="url(#pc57896d6b6)" d="M 356.485563 59.14707 
L 356.485563 28.346237 
" style="fill:none;stroke:#808080;stroke-width:1.75;"/>
    <path clip-path="url(#pc57896d6b6)" d="M 364.52487 59.14707 
L 364.52487 28.346237 
" style="fill:none;stroke:#808080;stroke-width:1.75;"/>
    <path clip-path="url(#pc57896d6b6)" d="M 372.564178 60.648358 
L 372.564178 28.480788 
" style="fill:none;stroke:#808080;stroke-width:1.75;"/>
    <path clip-path="url(#pc57896d6b6)" d="M 380.603486 55.465345 
L 380.603486 28.347325 
" style="fill:none;stroke:#808080;stroke-width:1.75;"/>
    <path clip-path="url(#pc57896d6b6)" d="M 388.642793 57.56816 
L 388.642793 28.289308 
" style="fill:none;stroke:#808080;stroke-width:1.75;"/>
    <path clip-path="url(#pc57896d6b6)" d="M 396.682101 53.183513 
L 396.682101 28.584358 
" style="fill:none;stroke:#808080;stroke-width:1.75;"/>
   </g>
   <g id="line2d_36">
    <path clip-path="url(#pc57896d6b6)" d="M 324.328333 42.724254 
L 332.36764 43.337694 
L 340.406948 43.133214 
L 348.446255 43.746653 
L 356.485563 43.746653 
L 364.52487 43.746653 
L 372.564178 44.564573 
L 380.603486 41.906335 
L 388.642793 42.928734 
L 396.682101 40.883936 
" style="fill:none;stroke:#808080;stroke-linecap:round;stroke-width:1.75;"/>
   </g>
   <g id="patch_12">
    <path d="M 320.710644 77.690307 
L 320.710644 26.570347 
" style="fill:none;stroke:#cccccc;stroke-linecap:square;stroke-linejoin:miter;"/>
   </g>
   <g id="patch_13">
    <path d="M 320.710644 77.690307 
L 400.299789 77.690307 
" style="fill:none;stroke:#cccccc;stroke-linecap:square;stroke-linejoin:miter;"/>
   </g>
   <g id="text_7">
    <g id="patch_14">
     <path d="M 398.261572 34.42115 
L 398.261572 69.839503 
L 415.262813 69.839503 
L 415.262813 34.42115 
z
" style="fill:#ffffff;stroke:#ffffff;stroke-linejoin:miter;stroke-width:0.3;"/>
    </g>
    <!-- L = 3 -->
    <defs>
     <path d="M 54.203125 25.234375 
L 52.40625 25.234375 
C 51.59375 15.359375 50.296875 2.59375 33.203125 2.59375 
L 23.90625 2.59375 
C 19.90625 2.59375 19.703125 3.078125 19.703125 6.46875 
L 19.703125 60.90625 
C 19.703125 64.515625 19.90625 65.5 27.5 65.5 
L 29.703125 65.5 
L 29.703125 68 
C 25.59375 68 20.796875 68 16.703125 68 
C 13.59375 68 8 68 5.09375 68 
L 5.09375 65.5 
C 12 65.5 13.09375 65.5 13.09375 61.015625 
L 13.09375 7.0625 
C 13.09375 2.59375 12 2.59375 5.09375 2.59375 
L 5.09375 0 
L 51.796875 0 
z
" id="CMR17-76"/>
     <path d="M 22.09375 33.703125 
C 31 33.703125 34.90625 25.96875 34.90625 17.03125 
C 34.90625 5 28.5 0.390625 22.703125 0.390625 
C 17.40625 0.390625 8.796875 3.03125 6.09375 10.828125 
C 6.59375 10.625 7.09375 10.625 7.59375 10.625 
C 10 10.625 11.796875 12.21875 11.796875 14.8125 
C 11.796875 17.703125 9.59375 19 7.59375 19 
C 5.90625 19 3.296875 18.203125 3.296875 14.46875 
C 3.296875 5.234375 12.296875 -2 22.90625 -2 
C 34 -2 42.5 6.71875 42.5 16.953125 
C 42.5 26.671875 34.5 33.703125 25 34.796875 
C 32.59375 36.375 39.90625 43.0625 39.90625 52.015625 
C 39.90625 59.6875 32 65.296875 23 65.296875 
C 13.90625 65.296875 5.90625 59.828125 5.90625 52.015625 
C 5.90625 48.59375 8.5 48 9.796875 48 
C 11.90625 48 13.703125 49.296875 13.703125 51.890625 
C 13.703125 54.46875 11.90625 55.765625 9.796875 55.765625 
C 9.40625 55.765625 8.90625 55.765625 8.5 55.578125 
C 11.40625 61.859375 19.296875 63 22.796875 63 
C 26.296875 63 32.90625 61.328125 32.90625 51.875 
C 32.90625 49.109375 32.5 44.1875 29.09375 39.84375 
C 26.09375 36 22.703125 36 19.40625 35.6875 
C 18.90625 35.6875 16.59375 35.453125 16.203125 35.453125 
C 15.5 35.359375 15.09375 35.265625 15.09375 34.5 
C 15.09375 33.796875 15.203125 33.703125 17.203125 33.703125 
z
" id="CMR17-51"/>
    </defs>
    <g style="fill:#262626;" transform="translate(404.022467 38.05115)rotate(-270)scale(0.11 -0.11)">
     <use transform="scale(0.996264)" xlink:href="#CMR17-76"/>
     <use transform="translate(87.457374 0)scale(0.996264)" xlink:href="#CMR17-61"/>
     <use transform="translate(189.248129 0)scale(0.996264)" xlink:href="#CMR17-51"/>
    </g>
   </g>
   <g id="text_8">
    <!-- $\theta$ = 0.1 -->
    <g style="fill:#262626;" transform="translate(342.864399 20.570347)scale(0.11 -0.11)">
     <use transform="scale(0.996264)" xlink:href="#CMMI12-18"/>
     <use transform="translate(78.245474 0)scale(0.996264)" xlink:href="#CMR17-61"/>
     <use transform="translate(180.036229 0)scale(0.996264)" xlink:href="#CMR17-48"/>
     <use transform="translate(225.726706 0)scale(0.996264)" xlink:href="#CMR17-46"/>
     <use transform="translate(250.597764 0)scale(0.996264)" xlink:href="#CMR17-49"/>
    </g>
   </g>
  </g>
  <g id="axes_5">
   <g id="patch_15">
    <path d="M 38.682577 147.166694 
L 118.271722 147.166694 
L 118.271722 96.046734 
L 38.682577 96.046734 
z
" style="fill:#ffffff;"/>
   </g>
   <g id="matplotlib.axis_9">
    <g id="xtick_9">
     <g id="line2d_37">
      <path clip-path="url(#p96b1a53350)" d="M 74.457495 147.166694 
L 74.457495 96.046734 
" style="fill:none;stroke:#cccccc;stroke-linecap:round;"/>
     </g>
     <g id="line2d_38"/>
    </g>
    <g id="xtick_10">
     <g id="line2d_39">
      <path clip-path="url(#p96b1a53350)" d="M 114.654033 147.166694 
L 114.654033 96.046734 
" style="fill:none;stroke:#cccccc;stroke-linecap:round;"/>
     </g>
     <g id="line2d_40"/>
    </g>
   </g>
   <g id="matplotlib.axis_10">
    <g id="ytick_9">
     <g id="line2d_41">
      <path clip-path="url(#p96b1a53350)" d="M 38.682577 147.166694 
L 118.271722 147.166694 
" style="fill:none;stroke:#cccccc;stroke-linecap:round;"/>
     </g>
     <g id="line2d_42"/>
     <g id="text_9">
      <!-- $0$ -->
      <g style="fill:#262626;" transform="translate(26.701241 150.625944)scale(0.1 -0.1)">
       <use transform="scale(0.996264)" xlink:href="#CMR17-48"/>
      </g>
     </g>
    </g>
    <g id="ytick_10">
     <g id="line2d_43">
      <path clip-path="url(#p96b1a53350)" d="M 38.682577 106.270726 
L 118.271722 106.270726 
" style="fill:none;stroke:#cccccc;stroke-linecap:round;"/>
     </g>
     <g id="line2d_44"/>
     <g id="text_10">
      <!-- $1$ -->
      <g style="fill:#262626;" transform="translate(26.701241 109.729975)scale(0.1 -0.1)">
       <use transform="scale(0.996264)" xlink:href="#CMR17-49"/>
      </g>
     </g>
    </g>
    <g id="text_11">
     <!-- avail. rate -->
     <g style="fill:#262626;" transform="translate(20.570347 145.975095)rotate(-90)scale(0.11 -0.11)">
      <use transform="scale(0.996264)" xlink:href="#CMR17-97"/>
      <use transform="translate(43.088023 0)scale(0.996264)" xlink:href="#CMR17-118"/>
      <use transform="translate(86.176122 0)scale(0.996264)" xlink:href="#CMR17-97"/>
      <use transform="translate(131.866599 0)scale(0.996264)" xlink:href="#CMR17-105"/>
      <use transform="translate(156.737658 0)scale(0.996264)" xlink:href="#CMR17-108"/>
      <use transform="translate(181.608716 0)scale(0.996264)" xlink:href="#CMR17-46"/>
      <use transform="translate(246.965435 0)scale(0.996264)" xlink:href="#CMR17-114"/>
      <use transform="translate(282.246203 0)scale(0.996264)" xlink:href="#CMR17-97"/>
      <use transform="translate(327.93668 0)scale(0.996264)" xlink:href="#CMR17-116"/>
      <use transform="translate(363.217448 0)scale(0.996264)" xlink:href="#CMR17-101"/>
     </g>
    </g>
   </g>
   <g id="LineCollection_5">
    <path clip-path="url(#p96b1a53350)" d="M 42.300265 106.270726 
L 42.300265 106.270726 
" style="fill:none;stroke:#808080;stroke-width:1.75;"/>
    <path clip-path="url(#p96b1a53350)" d="M 50.339573 106.270726 
L 50.339573 106.270726 
" style="fill:none;stroke:#808080;stroke-width:1.75;"/>
    <path clip-path="url(#p96b1a53350)" d="M 58.37888 106.270726 
L 58.37888 106.270726 
" style="fill:none;stroke:#808080;stroke-width:1.75;"/>
    <path clip-path="url(#p96b1a53350)" d="M 66.418188 106.270726 
L 66.418188 106.270726 
" style="fill:none;stroke:#808080;stroke-width:1.75;"/>
    <path clip-path="url(#p96b1a53350)" d="M 74.457495 106.270726 
L 74.457495 106.270726 
" style="fill:none;stroke:#808080;stroke-width:1.75;"/>
    <path clip-path="url(#p96b1a53350)" d="M 82.496803 106.270726 
L 82.496803 106.270726 
" style="fill:none;stroke:#808080;stroke-width:1.75;"/>
    <path clip-path="url(#p96b1a53350)" d="M 90.53611 106.270726 
L 90.53611 106.270726 
" style="fill:none;stroke:#808080;stroke-width:1.75;"/>
    <path clip-path="url(#p96b1a53350)" d="M 98.575418 106.270726 
L 98.575418 106.270726 
" style="fill:none;stroke:#808080;stroke-width:1.75;"/>
    <path clip-path="url(#p96b1a53350)" d="M 106.614726 106.270726 
L 106.614726 106.270726 
" style="fill:none;stroke:#808080;stroke-width:1.75;"/>
    <path clip-path="url(#p96b1a53350)" d="M 114.654033 106.270726 
L 114.654033 106.270726 
" style="fill:none;stroke:#808080;stroke-width:1.75;"/>
   </g>
   <g id="line2d_45">
    <path clip-path="url(#p96b1a53350)" d="M 42.300265 106.270726 
L 50.339573 106.270726 
L 58.37888 106.270726 
L 66.418188 106.270726 
L 74.457495 106.270726 
L 82.496803 106.270726 
L 90.53611 106.270726 
L 98.575418 106.270726 
L 106.614726 106.270726 
L 114.654033 106.270726 
" style="fill:none;stroke:#808080;stroke-linecap:round;stroke-width:1.75;"/>
   </g>
   <g id="patch_16">
    <path d="M 38.682577 147.166694 
L 38.682577 96.046734 
" style="fill:none;stroke:#cccccc;stroke-linecap:square;stroke-linejoin:miter;"/>
   </g>
   <g id="patch_17">
    <path d="M 38.682577 147.166694 
L 118.271722 147.166694 
" style="fill:none;stroke:#cccccc;stroke-linecap:square;stroke-linejoin:miter;"/>
   </g>
  </g>
  <g id="axes_6">
   <g id="patch_18">
    <path d="M 132.691932 147.166694 
L 212.281077 147.166694 
L 212.281077 96.046734 
L 132.691932 96.046734 
z
" style="fill:#ffffff;"/>
   </g>
   <g id="matplotlib.axis_11">
    <g id="xtick_11">
     <g id="line2d_46">
      <path clip-path="url(#p88ba39b2db)" d="M 168.466851 147.166694 
L 168.466851 96.046734 
" style="fill:none;stroke:#cccccc;stroke-linecap:round;"/>
     </g>
     <g id="line2d_47"/>
    </g>
    <g id="xtick_12">
     <g id="line2d_48">
      <path clip-path="url(#p88ba39b2db)" d="M 208.663389 147.166694 
L 208.663389 96.046734 
" style="fill:none;stroke:#cccccc;stroke-linecap:round;"/>
     </g>
     <g id="line2d_49"/>
    </g>
   </g>
   <g id="matplotlib.axis_12">
    <g id="ytick_11">
     <g id="line2d_50">
      <path clip-path="url(#p88ba39b2db)" d="M 132.691932 147.166694 
L 212.281077 147.166694 
" style="fill:none;stroke:#cccccc;stroke-linecap:round;"/>
     </g>
     <g id="line2d_51"/>
    </g>
    <g id="ytick_12">
     <g id="line2d_52">
      <path clip-path="url(#p88ba39b2db)" d="M 132.691932 106.270726 
L 212.281077 106.270726 
" style="fill:none;stroke:#cccccc;stroke-linecap:round;"/>
     </g>
     <g id="line2d_53"/>
    </g>
   </g>
   <g id="LineCollection_6">
    <path clip-path="url(#p88ba39b2db)" d="M 136.309621 106.270726 
L 136.309621 106.270726 
" style="fill:none;stroke:#808080;stroke-width:1.75;"/>
    <path clip-path="url(#p88ba39b2db)" d="M 144.348928 106.270726 
L 144.348928 106.270726 
" style="fill:none;stroke:#808080;stroke-width:1.75;"/>
    <path clip-path="url(#p88ba39b2db)" d="M 152.388236 106.270726 
L 152.388236 106.270726 
" style="fill:none;stroke:#808080;stroke-width:1.75;"/>
    <path clip-path="url(#p88ba39b2db)" d="M 160.427544 106.270726 
L 160.427544 106.270726 
" style="fill:none;stroke:#808080;stroke-width:1.75;"/>
    <path clip-path="url(#p88ba39b2db)" d="M 168.466851 110.758994 
L 168.466851 102.600377 
" style="fill:none;stroke:#808080;stroke-width:1.75;"/>
    <path clip-path="url(#p88ba39b2db)" d="M 176.506159 110.758994 
L 176.506159 102.600377 
" style="fill:none;stroke:#808080;stroke-width:1.75;"/>
    <path clip-path="url(#p88ba39b2db)" d="M 184.545466 106.270726 
L 184.545466 106.270726 
" style="fill:none;stroke:#808080;stroke-width:1.75;"/>
    <path clip-path="url(#p88ba39b2db)" d="M 192.584774 106.270726 
L 192.584774 106.270726 
" style="fill:none;stroke:#808080;stroke-width:1.75;"/>
    <path clip-path="url(#p88ba39b2db)" d="M 200.624081 109.366988 
L 200.624081 103.583425 
" style="fill:none;stroke:#808080;stroke-width:1.75;"/>
    <path clip-path="url(#p88ba39b2db)" d="M 208.663389 111.867646 
L 208.663389 101.900686 
" style="fill:none;stroke:#808080;stroke-width:1.75;"/>
   </g>
   <g id="line2d_54">
    <path clip-path="url(#p88ba39b2db)" d="M 136.309621 106.270726 
L 144.348928 106.270726 
L 152.388236 106.270726 
L 160.427544 106.270726 
L 168.466851 106.679686 
L 176.506159 106.679686 
L 184.545466 106.270726 
L 192.584774 106.270726 
L 200.624081 106.475206 
L 208.663389 106.884166 
" style="fill:none;stroke:#808080;stroke-linecap:round;stroke-width:1.75;"/>
   </g>
   <g id="patch_19">
    <path d="M 132.691932 147.166694 
L 132.691932 96.046734 
" style="fill:none;stroke:#cccccc;stroke-linecap:square;stroke-linejoin:miter;"/>
   </g>
   <g id="patch_20">
    <path d="M 132.691932 147.166694 
L 212.281077 147.166694 
" style="fill:none;stroke:#cccccc;stroke-linecap:square;stroke-linejoin:miter;"/>
   </g>
  </g>
  <g id="axes_7">
   <g id="patch_21">
    <path d="M 226.701288 147.166694 
L 306.290433 147.166694 
L 306.290433 96.046734 
L 226.701288 96.046734 
z
" style="fill:#ffffff;"/>
   </g>
   <g id="matplotlib.axis_13">
    <g id="xtick_13">
     <g id="line2d_55">
      <path clip-path="url(#pf82dd25c13)" d="M 262.476207 147.166694 
L 262.476207 96.046734 
" style="fill:none;stroke:#cccccc;stroke-linecap:round;"/>
     </g>
     <g id="line2d_56"/>
    </g>
    <g id="xtick_14">
     <g id="line2d_57">
      <path clip-path="url(#pf82dd25c13)" d="M 302.672745 147.166694 
L 302.672745 96.046734 
" style="fill:none;stroke:#cccccc;stroke-linecap:round;"/>
     </g>
     <g id="line2d_58"/>
    </g>
   </g>
   <g id="matplotlib.axis_14">
    <g id="ytick_13">
     <g id="line2d_59">
      <path clip-path="url(#pf82dd25c13)" d="M 226.701288 147.166694 
L 306.290433 147.166694 
" style="fill:none;stroke:#cccccc;stroke-linecap:round;"/>
     </g>
     <g id="line2d_60"/>
    </g>
    <g id="ytick_14">
     <g id="line2d_61">
      <path clip-path="url(#pf82dd25c13)" d="M 226.701288 106.270726 
L 306.290433 106.270726 
" style="fill:none;stroke:#cccccc;stroke-linecap:round;"/>
     </g>
     <g id="line2d_62"/>
    </g>
   </g>
   <g id="LineCollection_7">
    <path clip-path="url(#pf82dd25c13)" d="M 230.318977 112.828449 
L 230.318977 101.348843 
" style="fill:none;stroke:#808080;stroke-width:1.75;"/>
    <path clip-path="url(#pf82dd25c13)" d="M 238.358284 115.236797 
L 238.358284 100.167374 
" style="fill:none;stroke:#808080;stroke-width:1.75;"/>
    <path clip-path="url(#pf82dd25c13)" d="M 246.397592 109.366988 
L 246.397592 103.583425 
" style="fill:none;stroke:#808080;stroke-width:1.75;"/>
    <path clip-path="url(#pf82dd25c13)" d="M 254.436899 115.236797 
L 254.436899 100.167374 
" style="fill:none;stroke:#808080;stroke-width:1.75;"/>
    <path clip-path="url(#pf82dd25c13)" d="M 262.476207 111.867646 
L 262.476207 101.900686 
" style="fill:none;stroke:#808080;stroke-width:1.75;"/>
    <path clip-path="url(#pf82dd25c13)" d="M 270.515515 115.940616 
L 270.515515 99.872514 
" style="fill:none;stroke:#808080;stroke-width:1.75;"/>
    <path clip-path="url(#pf82dd25c13)" d="M 278.554822 114.491441 
L 278.554822 100.503769 
" style="fill:none;stroke:#808080;stroke-width:1.75;"/>
    <path clip-path="url(#pf82dd25c13)" d="M 286.59413 113.694029 
L 286.59413 100.892222 
" style="fill:none;stroke:#808080;stroke-width:1.75;"/>
    <path clip-path="url(#pf82dd25c13)" d="M 294.633437 116.610222 
L 294.633437 99.611867 
" style="fill:none;stroke:#808080;stroke-width:1.75;"/>
    <path clip-path="url(#pf82dd25c13)" d="M 302.672745 115.940616 
L 302.672745 99.872514 
" style="fill:none;stroke:#808080;stroke-width:1.75;"/>
   </g>
   <g id="line2d_63">
    <path clip-path="url(#pf82dd25c13)" d="M 230.318977 107.088646 
L 238.358284 107.702085 
L 246.397592 106.475206 
L 254.436899 107.702085 
L 262.476207 106.884166 
L 270.515515 107.906565 
L 278.554822 107.497605 
L 286.59413 107.293126 
L 294.633437 108.111045 
L 302.672745 107.906565 
" style="fill:none;stroke:#808080;stroke-linecap:round;stroke-width:1.75;"/>
   </g>
   <g id="patch_22">
    <path d="M 226.701288 147.166694 
L 226.701288 96.046734 
" style="fill:none;stroke:#cccccc;stroke-linecap:square;stroke-linejoin:miter;"/>
   </g>
   <g id="patch_23">
    <path d="M 226.701288 147.166694 
L 306.290433 147.166694 
" style="fill:none;stroke:#cccccc;stroke-linecap:square;stroke-linejoin:miter;"/>
   </g>
  </g>
  <g id="axes_8">
   <g id="patch_24">
    <path d="M 320.710644 147.166694 
L 400.299789 147.166694 
L 400.299789 96.046734 
L 320.710644 96.046734 
z
" style="fill:#ffffff;"/>
   </g>
   <g id="matplotlib.axis_15">
    <g id="xtick_15">
     <g id="line2d_64">
      <path clip-path="url(#p0f5038f498)" d="M 356.485563 147.166694 
L 356.485563 96.046734 
" style="fill:none;stroke:#cccccc;stroke-linecap:round;"/>
     </g>
     <g id="line2d_65"/>
    </g>
    <g id="xtick_16">
     <g id="line2d_66">
      <path clip-path="url(#p0f5038f498)" d="M 396.682101 147.166694 
L 396.682101 96.046734 
" style="fill:none;stroke:#cccccc;stroke-linecap:round;"/>
     </g>
     <g id="line2d_67"/>
    </g>
   </g>
   <g id="matplotlib.axis_16">
    <g id="ytick_15">
     <g id="line2d_68">
      <path clip-path="url(#p0f5038f498)" d="M 320.710644 147.166694 
L 400.299789 147.166694 
" style="fill:none;stroke:#cccccc;stroke-linecap:round;"/>
     </g>
     <g id="line2d_69"/>
    </g>
    <g id="ytick_16">
     <g id="line2d_70">
      <path clip-path="url(#p0f5038f498)" d="M 320.710644 106.270726 
L 400.299789 106.270726 
" style="fill:none;stroke:#cccccc;stroke-linecap:round;"/>
     </g>
     <g id="line2d_71"/>
    </g>
   </g>
   <g id="LineCollection_8">
    <path clip-path="url(#p0f5038f498)" d="M 324.328333 132.592607 
L 324.328333 98.352031 
" style="fill:none;stroke:#808080;stroke-width:1.75;"/>
    <path clip-path="url(#p0f5038f498)" d="M 332.36764 127.844414 
L 332.36764 97.783749 
" style="fill:none;stroke:#808080;stroke-width:1.75;"/>
    <path clip-path="url(#p0f5038f498)" d="M 340.406948 131.205598 
L 340.406948 98.103201 
" style="fill:none;stroke:#808080;stroke-width:1.75;"/>
    <path clip-path="url(#p0f5038f498)" d="M 348.446255 129.756134 
L 348.446255 97.916827 
" style="fill:none;stroke:#808080;stroke-width:1.75;"/>
    <path clip-path="url(#p0f5038f498)" d="M 356.485563 129.756134 
L 356.485563 97.916827 
" style="fill:none;stroke:#808080;stroke-width:1.75;"/>
    <path clip-path="url(#p0f5038f498)" d="M 364.52487 130.124745 
L 364.52487 97.957175 
" style="fill:none;stroke:#808080;stroke-width:1.75;"/>
    <path clip-path="url(#p0f5038f498)" d="M 372.564178 131.205598 
L 372.564178 98.103201 
" style="fill:none;stroke:#808080;stroke-width:1.75;"/>
    <path clip-path="url(#p0f5038f498)" d="M 380.603486 130.849357 
L 380.603486 98.050483 
" style="fill:none;stroke:#808080;stroke-width:1.75;"/>
    <path clip-path="url(#p0f5038f498)" d="M 388.642793 131.557944 
L 388.642793 98.159815 
" style="fill:none;stroke:#808080;stroke-width:1.75;"/>
    <path clip-path="url(#p0f5038f498)" d="M 396.682101 131.906498 
L 396.682101 98.220221 
" style="fill:none;stroke:#808080;stroke-width:1.75;"/>
   </g>
   <g id="line2d_72">
    <path clip-path="url(#p0f5038f498)" d="M 324.328333 115.472319 
L 332.36764 112.814081 
L 340.406948 114.6544 
L 348.446255 113.83648 
L 356.485563 113.83648 
L 364.52487 114.04096 
L 372.564178 114.6544 
L 380.603486 114.44992 
L 388.642793 114.85888 
L 396.682101 115.063359 
" style="fill:none;stroke:#808080;stroke-linecap:round;stroke-width:1.75;"/>
   </g>
   <g id="patch_25">
    <path d="M 320.710644 147.166694 
L 320.710644 96.046734 
" style="fill:none;stroke:#cccccc;stroke-linecap:square;stroke-linejoin:miter;"/>
   </g>
   <g id="patch_26">
    <path d="M 320.710644 147.166694 
L 400.299789 147.166694 
" style="fill:none;stroke:#cccccc;stroke-linecap:square;stroke-linejoin:miter;"/>
   </g>
   <g id="text_12">
    <g id="patch_27">
     <path d="M 398.261572 103.897538 
L 398.261572 139.315891 
L 415.262813 139.315891 
L 415.262813 103.897538 
z
" style="fill:#ffffff;stroke:#ffffff;stroke-linejoin:miter;stroke-width:0.3;"/>
    </g>
    <!-- L = 5 -->
    <defs>
     <path d="M 11.40625 57.6875 
C 12.40625 57.28125 16.5 56 20.703125 56 
C 30 56 35.09375 61.109375 38 64.0625 
C 38 64.953125 38 65.5 37.40625 65.5 
C 37.296875 65.5 37.09375 65.5 36.296875 65.046875 
C 32.796875 63.40625 28.703125 62.078125 23.703125 62.078125 
C 20.703125 62.078125 16.203125 62.484375 11.296875 64.671875 
C 10.203125 65.171875 10 65.171875 9.90625 65.171875 
C 9.40625 65.171875 9.296875 65.0625 9.296875 63.078125 
L 9.296875 34.421875 
C 9.296875 32.640625 9.296875 32.140625 10.296875 32.140625 
C 10.796875 32.140625 11 32.34375 11.5 33.03125 
C 14.703125 37.515625 19.09375 39.40625 24.09375 39.40625 
C 27.59375 39.40625 35.09375 37.21875 35.09375 20.140625 
C 35.09375 16.953125 35.09375 11.171875 32.09375 6.578125 
C 29.59375 2.484375 25.703125 0.390625 21.40625 0.390625 
C 14.796875 0.390625 8.09375 5 6.296875 12.71875 
C 6.703125 12.609375 7.5 12.421875 7.90625 12.421875 
C 9.203125 12.421875 11.703125 13.125 11.703125 16.21875 
C 11.703125 18.90625 9.796875 20 7.90625 20 
C 5.59375 20 4.09375 18.59375 4.09375 15.796875 
C 4.09375 7.09375 11 -2 21.59375 -2 
C 31.90625 -2 41.703125 6.875 41.703125 19.75 
C 41.703125 31.71875 33.90625 41 24.203125 41 
C 19.09375 41 14.796875 39.109375 11.40625 35.53125 
z
" id="CMR17-53"/>
    </defs>
    <g style="fill:#262626;" transform="translate(404.022467 107.527538)rotate(-270)scale(0.11 -0.11)">
     <use transform="scale(0.996264)" xlink:href="#CMR17-76"/>
     <use transform="translate(87.457374 0)scale(0.996264)" xlink:href="#CMR17-61"/>
     <use transform="translate(189.248129 0)scale(0.996264)" xlink:href="#CMR17-53"/>
    </g>
   </g>
  </g>
  <g id="axes_9">
   <g id="patch_28">
    <path d="M 38.682577 216.643082 
L 118.271722 216.643082 
L 118.271722 165.523122 
L 38.682577 165.523122 
z
" style="fill:#ffffff;"/>
   </g>
   <g id="matplotlib.axis_17">
    <g id="xtick_17">
     <g id="line2d_73">
      <path clip-path="url(#p518a55ebb2)" d="M 74.457495 216.643082 
L 74.457495 165.523122 
" style="fill:none;stroke:#cccccc;stroke-linecap:round;"/>
     </g>
     <g id="line2d_74"/>
     <g id="text_13">
      <!-- $5$ -->
      <g style="fill:#262626;" transform="translate(71.966828 230.56158)scale(0.1 -0.1)">
       <use transform="scale(0.996264)" xlink:href="#CMR17-53"/>
      </g>
     </g>
    </g>
    <g id="xtick_18">
     <g id="line2d_75">
      <path clip-path="url(#p518a55ebb2)" d="M 114.654033 216.643082 
L 114.654033 165.523122 
" style="fill:none;stroke:#cccccc;stroke-linecap:round;"/>
     </g>
     <g id="line2d_76"/>
     <g id="text_14">
      <!-- $10$ -->
      <g style="fill:#262626;" transform="translate(109.672698 230.56158)scale(0.1 -0.1)">
       <use transform="scale(0.996264)" xlink:href="#CMR17-49"/>
       <use transform="translate(45.690477 0)scale(0.996264)" xlink:href="#CMR17-48"/>
      </g>
     </g>
    </g>
    <g id="text_15">
     <!-- t -->
     <g style="fill:#262626;" transform="translate(76.346247 244.109105)scale(0.11 -0.11)">
      <use transform="scale(0.996264)" xlink:href="#CMR17-116"/>
     </g>
    </g>
   </g>
   <g id="matplotlib.axis_18">
    <g id="ytick_17">
     <g id="line2d_77">
      <path clip-path="url(#p518a55ebb2)" d="M 38.682577 216.643082 
L 118.271722 216.643082 
" style="fill:none;stroke:#cccccc;stroke-linecap:round;"/>
     </g>
     <g id="line2d_78"/>
     <g id="text_16">
      <!-- $0$ -->
      <g style="fill:#262626;" transform="translate(26.701241 220.102331)scale(0.1 -0.1)">
       <use transform="scale(0.996264)" xlink:href="#CMR17-48"/>
      </g>
     </g>
    </g>
    <g id="ytick_18">
     <g id="line2d_79">
      <path clip-path="url(#p518a55ebb2)" d="M 38.682577 175.747114 
L 118.271722 175.747114 
" style="fill:none;stroke:#cccccc;stroke-linecap:round;"/>
     </g>
     <g id="line2d_80"/>
     <g id="text_17">
      <!-- $1$ -->
      <g style="fill:#262626;" transform="translate(26.701241 179.206363)scale(0.1 -0.1)">
       <use transform="scale(0.996264)" xlink:href="#CMR17-49"/>
      </g>
     </g>
    </g>
    <g id="text_18">
     <!-- avail. rate -->
     <g style="fill:#262626;" transform="translate(20.570347 215.451483)rotate(-90)scale(0.11 -0.11)">
      <use transform="scale(0.996264)" xlink:href="#CMR17-97"/>
      <use transform="translate(43.088023 0)scale(0.996264)" xlink:href="#CMR17-118"/>
      <use transform="translate(86.176122 0)scale(0.996264)" xlink:href="#CMR17-97"/>
      <use transform="translate(131.866599 0)scale(0.996264)" xlink:href="#CMR17-105"/>
      <use transform="translate(156.737658 0)scale(0.996264)" xlink:href="#CMR17-108"/>
      <use transform="translate(181.608716 0)scale(0.996264)" xlink:href="#CMR17-46"/>
      <use transform="translate(246.965435 0)scale(0.996264)" xlink:href="#CMR17-114"/>
      <use transform="translate(282.246203 0)scale(0.996264)" xlink:href="#CMR17-97"/>
      <use transform="translate(327.93668 0)scale(0.996264)" xlink:href="#CMR17-116"/>
      <use transform="translate(363.217448 0)scale(0.996264)" xlink:href="#CMR17-101"/>
     </g>
    </g>
   </g>
   <g id="LineCollection_9">
    <path clip-path="url(#p518a55ebb2)" d="M 42.300265 175.747114 
L 42.300265 175.747114 
" style="fill:none;stroke:#808080;stroke-width:1.75;"/>
    <path clip-path="url(#p518a55ebb2)" d="M 50.339573 175.747114 
L 50.339573 175.747114 
" style="fill:none;stroke:#808080;stroke-width:1.75;"/>
    <path clip-path="url(#p518a55ebb2)" d="M 58.37888 175.747114 
L 58.37888 175.747114 
" style="fill:none;stroke:#808080;stroke-width:1.75;"/>
    <path clip-path="url(#p518a55ebb2)" d="M 66.418188 175.747114 
L 66.418188 175.747114 
" style="fill:none;stroke:#808080;stroke-width:1.75;"/>
    <path clip-path="url(#p518a55ebb2)" d="M 74.457495 175.747114 
L 74.457495 175.747114 
" style="fill:none;stroke:#808080;stroke-width:1.75;"/>
    <path clip-path="url(#p518a55ebb2)" d="M 82.496803 175.747114 
L 82.496803 175.747114 
" style="fill:none;stroke:#808080;stroke-width:1.75;"/>
    <path clip-path="url(#p518a55ebb2)" d="M 90.53611 175.747114 
L 90.53611 175.747114 
" style="fill:none;stroke:#808080;stroke-width:1.75;"/>
    <path clip-path="url(#p518a55ebb2)" d="M 98.575418 175.747114 
L 98.575418 175.747114 
" style="fill:none;stroke:#808080;stroke-width:1.75;"/>
    <path clip-path="url(#p518a55ebb2)" d="M 106.614726 175.747114 
L 106.614726 175.747114 
" style="fill:none;stroke:#808080;stroke-width:1.75;"/>
    <path clip-path="url(#p518a55ebb2)" d="M 114.654033 175.747114 
L 114.654033 175.747114 
" style="fill:none;stroke:#808080;stroke-width:1.75;"/>
   </g>
   <g id="line2d_81">
    <path clip-path="url(#p518a55ebb2)" d="M 42.300265 175.747114 
L 50.339573 175.747114 
L 58.37888 175.747114 
L 66.418188 175.747114 
L 74.457495 175.747114 
L 82.496803 175.747114 
L 90.53611 175.747114 
L 98.575418 175.747114 
L 106.614726 175.747114 
L 114.654033 175.747114 
" style="fill:none;stroke:#808080;stroke-linecap:round;stroke-width:1.75;"/>
   </g>
   <g id="patch_29">
    <path d="M 38.682577 216.643082 
L 38.682577 165.523122 
" style="fill:none;stroke:#cccccc;stroke-linecap:square;stroke-linejoin:miter;"/>
   </g>
   <g id="patch_30">
    <path d="M 38.682577 216.643082 
L 118.271722 216.643082 
" style="fill:none;stroke:#cccccc;stroke-linecap:square;stroke-linejoin:miter;"/>
   </g>
  </g>
  <g id="axes_10">
   <g id="patch_31">
    <path d="M 132.691932 216.643082 
L 212.281077 216.643082 
L 212.281077 165.523122 
L 132.691932 165.523122 
z
" style="fill:#ffffff;"/>
   </g>
   <g id="matplotlib.axis_19">
    <g id="xtick_19">
     <g id="line2d_82">
      <path clip-path="url(#p5626d01cd7)" d="M 168.466851 216.643082 
L 168.466851 165.523122 
" style="fill:none;stroke:#cccccc;stroke-linecap:round;"/>
     </g>
     <g id="line2d_83"/>
     <g id="text_19">
      <!-- $5$ -->
      <g style="fill:#262626;" transform="translate(165.976184 230.56158)scale(0.1 -0.1)">
       <use transform="scale(0.996264)" xlink:href="#CMR17-53"/>
      </g>
     </g>
    </g>
    <g id="xtick_20">
     <g id="line2d_84">
      <path clip-path="url(#p5626d01cd7)" d="M 208.663389 216.643082 
L 208.663389 165.523122 
" style="fill:none;stroke:#cccccc;stroke-linecap:round;"/>
     </g>
     <g id="line2d_85"/>
     <g id="text_20">
      <!-- $10$ -->
      <g style="fill:#262626;" transform="translate(203.682054 230.56158)scale(0.1 -0.1)">
       <use transform="scale(0.996264)" xlink:href="#CMR17-49"/>
       <use transform="translate(45.690477 0)scale(0.996264)" xlink:href="#CMR17-48"/>
      </g>
     </g>
    </g>
    <g id="text_21">
     <!-- t -->
     <g style="fill:#262626;" transform="translate(170.355603 244.109105)scale(0.11 -0.11)">
      <use transform="scale(0.996264)" xlink:href="#CMR17-116"/>
     </g>
    </g>
   </g>
   <g id="matplotlib.axis_20">
    <g id="ytick_19">
     <g id="line2d_86">
      <path clip-path="url(#p5626d01cd7)" d="M 132.691932 216.643082 
L 212.281077 216.643082 
" style="fill:none;stroke:#cccccc;stroke-linecap:round;"/>
     </g>
     <g id="line2d_87"/>
    </g>
    <g id="ytick_20">
     <g id="line2d_88">
      <path clip-path="url(#p5626d01cd7)" d="M 132.691932 175.747114 
L 212.281077 175.747114 
" style="fill:none;stroke:#cccccc;stroke-linecap:round;"/>
     </g>
     <g id="line2d_89"/>
    </g>
   </g>
   <g id="LineCollection_10">
    <path clip-path="url(#p5626d01cd7)" d="M 136.309621 178.843375 
L 136.309621 173.059812 
" style="fill:none;stroke:#808080;stroke-width:1.75;"/>
    <path clip-path="url(#p5626d01cd7)" d="M 144.348928 175.747114 
L 144.348928 175.747114 
" style="fill:none;stroke:#808080;stroke-width:1.75;"/>
    <path clip-path="url(#p5626d01cd7)" d="M 152.388236 175.747114 
L 152.388236 175.747114 
" style="fill:none;stroke:#808080;stroke-width:1.75;"/>
    <path clip-path="url(#p5626d01cd7)" d="M 160.427544 178.843375 
L 160.427544 173.059812 
" style="fill:none;stroke:#808080;stroke-width:1.75;"/>
    <path clip-path="url(#p5626d01cd7)" d="M 168.466851 175.747114 
L 168.466851 175.747114 
" style="fill:none;stroke:#808080;stroke-width:1.75;"/>
    <path clip-path="url(#p5626d01cd7)" d="M 176.506159 175.747114 
L 176.506159 175.747114 
" style="fill:none;stroke:#808080;stroke-width:1.75;"/>
    <path clip-path="url(#p5626d01cd7)" d="M 184.545466 178.843375 
L 184.545466 173.059812 
" style="fill:none;stroke:#808080;stroke-width:1.75;"/>
    <path clip-path="url(#p5626d01cd7)" d="M 192.584774 178.843375 
L 192.584774 173.059812 
" style="fill:none;stroke:#808080;stroke-width:1.75;"/>
    <path clip-path="url(#p5626d01cd7)" d="M 200.624081 180.235382 
L 200.624081 172.076765 
" style="fill:none;stroke:#808080;stroke-width:1.75;"/>
    <path clip-path="url(#p5626d01cd7)" d="M 208.663389 182.304836 
L 208.663389 170.82523 
" style="fill:none;stroke:#808080;stroke-width:1.75;"/>
   </g>
   <g id="line2d_90">
    <path clip-path="url(#p5626d01cd7)" d="M 136.309621 175.951594 
L 144.348928 175.747114 
L 152.388236 175.747114 
L 160.427544 175.951594 
L 168.466851 175.747114 
L 176.506159 175.747114 
L 184.545466 175.951594 
L 192.584774 175.951594 
L 200.624081 176.156074 
L 208.663389 176.565033 
" style="fill:none;stroke:#808080;stroke-linecap:round;stroke-width:1.75;"/>
   </g>
   <g id="patch_32">
    <path d="M 132.691932 216.643082 
L 132.691932 165.523122 
" style="fill:none;stroke:#cccccc;stroke-linecap:square;stroke-linejoin:miter;"/>
   </g>
   <g id="patch_33">
    <path d="M 132.691932 216.643082 
L 212.281077 216.643082 
" style="fill:none;stroke:#cccccc;stroke-linecap:square;stroke-linejoin:miter;"/>
   </g>
  </g>
  <g id="axes_11">
   <g id="patch_34">
    <path d="M 226.701288 216.643082 
L 306.290433 216.643082 
L 306.290433 165.523122 
L 226.701288 165.523122 
z
" style="fill:#ffffff;"/>
   </g>
   <g id="matplotlib.axis_21">
    <g id="xtick_21">
     <g id="line2d_91">
      <path clip-path="url(#p3627d71242)" d="M 262.476207 216.643082 
L 262.476207 165.523122 
" style="fill:none;stroke:#cccccc;stroke-linecap:round;"/>
     </g>
     <g id="line2d_92"/>
     <g id="text_22">
      <!-- $5$ -->
      <g style="fill:#262626;" transform="translate(259.985539 230.56158)scale(0.1 -0.1)">
       <use transform="scale(0.996264)" xlink:href="#CMR17-53"/>
      </g>
     </g>
    </g>
    <g id="xtick_22">
     <g id="line2d_93">
      <path clip-path="url(#p3627d71242)" d="M 302.672745 216.643082 
L 302.672745 165.523122 
" style="fill:none;stroke:#cccccc;stroke-linecap:round;"/>
     </g>
     <g id="line2d_94"/>
     <g id="text_23">
      <!-- $10$ -->
      <g style="fill:#262626;" transform="translate(297.69141 230.56158)scale(0.1 -0.1)">
       <use transform="scale(0.996264)" xlink:href="#CMR17-49"/>
       <use transform="translate(45.690477 0)scale(0.996264)" xlink:href="#CMR17-48"/>
      </g>
     </g>
    </g>
    <g id="text_24">
     <!-- t -->
     <g style="fill:#262626;" transform="translate(264.364959 244.109105)scale(0.11 -0.11)">
      <use transform="scale(0.996264)" xlink:href="#CMR17-116"/>
     </g>
    </g>
   </g>
   <g id="matplotlib.axis_22">
    <g id="ytick_21">
     <g id="line2d_95">
      <path clip-path="url(#p3627d71242)" d="M 226.701288 216.643082 
L 306.290433 216.643082 
" style="fill:none;stroke:#cccccc;stroke-linecap:round;"/>
     </g>
     <g id="line2d_96"/>
    </g>
    <g id="ytick_22">
     <g id="line2d_97">
      <path clip-path="url(#p3627d71242)" d="M 226.701288 175.747114 
L 306.290433 175.747114 
" style="fill:none;stroke:#cccccc;stroke-linecap:round;"/>
     </g>
     <g id="line2d_98"/>
    </g>
   </g>
   <g id="LineCollection_11">
    <path clip-path="url(#p3627d71242)" d="M 230.318977 183.170416 
L 230.318977 170.36861 
" style="fill:none;stroke:#808080;stroke-width:1.75;"/>
    <path clip-path="url(#p3627d71242)" d="M 238.358284 183.967829 
L 238.358284 169.980157 
" style="fill:none;stroke:#808080;stroke-width:1.75;"/>
    <path clip-path="url(#p3627d71242)" d="M 246.397592 187.937498 
L 246.397592 168.464246 
" style="fill:none;stroke:#808080;stroke-width:1.75;"/>
    <path clip-path="url(#p3627d71242)" d="M 254.436899 187.343262 
L 254.436899 168.649522 
" style="fill:none;stroke:#808080;stroke-width:1.75;"/>
    <path clip-path="url(#p3627d71242)" d="M 262.476207 183.170416 
L 262.476207 170.36861 
" style="fill:none;stroke:#808080;stroke-width:1.75;"/>
    <path clip-path="url(#p3627d71242)" d="M 270.515515 183.170416 
L 270.515515 170.36861 
" style="fill:none;stroke:#808080;stroke-width:1.75;"/>
    <path clip-path="url(#p3627d71242)" d="M 278.554822 189.0705 
L 278.554822 168.149163 
" style="fill:none;stroke:#808080;stroke-width:1.75;"/>
    <path clip-path="url(#p3627d71242)" d="M 286.59413 182.304836 
L 286.59413 170.82523 
" style="fill:none;stroke:#808080;stroke-width:1.75;"/>
    <path clip-path="url(#p3627d71242)" d="M 294.633437 186.727348 
L 294.633437 168.856476 
" style="fill:none;stroke:#808080;stroke-width:1.75;"/>
    <path clip-path="url(#p3627d71242)" d="M 302.672745 187.343262 
L 302.672745 168.649522 
" style="fill:none;stroke:#808080;stroke-width:1.75;"/>
   </g>
   <g id="line2d_99">
    <path clip-path="url(#p3627d71242)" d="M 230.318977 176.769513 
L 238.358284 176.973993 
L 246.397592 178.200872 
L 254.436899 177.996392 
L 262.476207 176.769513 
L 270.515515 176.769513 
L 278.554822 178.609832 
L 286.59413 176.565033 
L 294.633437 177.791912 
L 302.672745 177.996392 
" style="fill:none;stroke:#808080;stroke-linecap:round;stroke-width:1.75;"/>
   </g>
   <g id="patch_35">
    <path d="M 226.701288 216.643082 
L 226.701288 165.523122 
" style="fill:none;stroke:#cccccc;stroke-linecap:square;stroke-linejoin:miter;"/>
   </g>
   <g id="patch_36">
    <path d="M 226.701288 216.643082 
L 306.290433 216.643082 
" style="fill:none;stroke:#cccccc;stroke-linecap:square;stroke-linejoin:miter;"/>
   </g>
  </g>
  <g id="axes_12">
   <g id="patch_37">
    <path d="M 320.710644 216.643082 
L 400.299789 216.643082 
L 400.299789 165.523122 
L 320.710644 165.523122 
z
" style="fill:#ffffff;"/>
   </g>
   <g id="matplotlib.axis_23">
    <g id="xtick_23">
     <g id="line2d_100">
      <path clip-path="url(#p400aa3b48f)" d="M 356.485563 216.643082 
L 356.485563 165.523122 
" style="fill:none;stroke:#cccccc;stroke-linecap:round;"/>
     </g>
     <g id="line2d_101"/>
     <g id="text_25">
      <!-- $5$ -->
      <g style="fill:#262626;" transform="translate(353.994895 230.56158)scale(0.1 -0.1)">
       <use transform="scale(0.996264)" xlink:href="#CMR17-53"/>
      </g>
     </g>
    </g>
    <g id="xtick_24">
     <g id="line2d_102">
      <path clip-path="url(#p400aa3b48f)" d="M 396.682101 216.643082 
L 396.682101 165.523122 
" style="fill:none;stroke:#cccccc;stroke-linecap:round;"/>
     </g>
     <g id="line2d_103"/>
     <g id="text_26">
      <!-- $10$ -->
      <g style="fill:#262626;" transform="translate(391.700765 230.56158)scale(0.1 -0.1)">
       <use transform="scale(0.996264)" xlink:href="#CMR17-49"/>
       <use transform="translate(45.690477 0)scale(0.996264)" xlink:href="#CMR17-48"/>
      </g>
     </g>
    </g>
    <g id="text_27">
     <!-- t -->
     <g style="fill:#262626;" transform="translate(358.374314 244.109105)scale(0.11 -0.11)">
      <use transform="scale(0.996264)" xlink:href="#CMR17-116"/>
     </g>
    </g>
   </g>
   <g id="matplotlib.axis_24">
    <g id="ytick_23">
     <g id="line2d_104">
      <path clip-path="url(#p400aa3b48f)" d="M 320.710644 216.643082 
L 400.299789 216.643082 
" style="fill:none;stroke:#cccccc;stroke-linecap:round;"/>
     </g>
     <g id="line2d_105"/>
    </g>
    <g id="ytick_24">
     <g id="line2d_106">
      <path clip-path="url(#p400aa3b48f)" d="M 320.710644 175.747114 
L 400.299789 175.747114 
" style="fill:none;stroke:#cccccc;stroke-linecap:round;"/>
     </g>
     <g id="line2d_107"/>
    </g>
   </g>
   <g id="LineCollection_12">
    <path clip-path="url(#p400aa3b48f)" d="M 324.328333 202.406727 
L 324.328333 167.899646 
" style="fill:none;stroke:#808080;stroke-width:1.75;"/>
    <path clip-path="url(#p400aa3b48f)" d="M 332.36764 204.990738 
L 332.36764 168.587312 
" style="fill:none;stroke:#808080;stroke-width:1.75;"/>
    <path clip-path="url(#p400aa3b48f)" d="M 340.406948 210.672919 
L 340.406948 171.084325 
" style="fill:none;stroke:#808080;stroke-width:1.75;"/>
    <path clip-path="url(#p400aa3b48f)" d="M 348.446255 209.615785 
L 348.446255 170.50562 
" style="fill:none;stroke:#808080;stroke-width:1.75;"/>
    <path clip-path="url(#p400aa3b48f)" d="M 356.485563 205.606308 
L 356.485563 168.789662 
" style="fill:none;stroke:#808080;stroke-width:1.75;"/>
    <path clip-path="url(#p400aa3b48f)" d="M 364.52487 205.606308 
L 364.52487 168.789662 
" style="fill:none;stroke:#808080;stroke-width:1.75;"/>
    <path clip-path="url(#p400aa3b48f)" d="M 372.564178 209.883556 
L 372.564178 170.64681 
" style="fill:none;stroke:#808080;stroke-width:1.75;"/>
    <path clip-path="url(#p400aa3b48f)" d="M 380.603486 207.95869 
L 380.603486 169.708958 
" style="fill:none;stroke:#808080;stroke-width:1.75;"/>
    <path clip-path="url(#p400aa3b48f)" d="M 388.642793 208.520843 
L 388.642793 169.964724 
" style="fill:none;stroke:#808080;stroke-width:1.75;"/>
    <path clip-path="url(#p400aa3b48f)" d="M 396.682101 204.363452 
L 396.682101 168.396679 
" style="fill:none;stroke:#808080;stroke-width:1.75;"/>
   </g>
   <g id="line2d_108">
    <path clip-path="url(#p400aa3b48f)" d="M 324.328333 185.153187 
L 332.36764 186.789025 
L 340.406948 190.878622 
L 348.446255 190.060703 
L 356.485563 187.197985 
L 364.52487 187.197985 
L 372.564178 190.265183 
L 380.603486 188.833824 
L 388.642793 189.242783 
L 396.682101 186.380066 
" style="fill:none;stroke:#808080;stroke-linecap:round;stroke-width:1.75;"/>
   </g>
   <g id="patch_38">
    <path d="M 320.710644 216.643082 
L 320.710644 165.523122 
" style="fill:none;stroke:#cccccc;stroke-linecap:square;stroke-linejoin:miter;"/>
   </g>
   <g id="patch_39">
    <path d="M 320.710644 216.643082 
L 400.299789 216.643082 
" style="fill:none;stroke:#cccccc;stroke-linecap:square;stroke-linejoin:miter;"/>
   </g>
   <g id="text_28">
    <g id="patch_40">
     <path d="M 398.261572 173.373926 
L 398.261572 208.792278 
L 415.262813 208.792278 
L 415.262813 173.373926 
z
" style="fill:#ffffff;stroke:#ffffff;stroke-linejoin:miter;stroke-width:0.3;"/>
    </g>
    <!-- L = 7 -->
    <defs>
     <path d="M 45.09375 61.578125 
L 45.09375 63.765625 
L 21.59375 63.765625 
C 9.90625 63.765625 9.703125 65.078125 9.296875 67 
L 7.5 67 
L 4.59375 48.34375 
L 6.40625 48.34375 
C 6.703125 50.234375 7.40625 55.3125 8.59375 57.203125 
C 9.203125 58 16.59375 58 18.296875 58 
L 40.296875 58 
L 29.203125 41.578125 
C 21.796875 30.53125 16.703125 15.609375 16.703125 2.578125 
C 16.703125 1.390625 16.703125 -2 20.296875 -2 
C 23.90625 -2 23.90625 1.390625 23.90625 2.671875 
L 23.90625 7.265625 
C 23.90625 23.5625 26.703125 34.3125 31.296875 41.1875 
z
" id="CMR17-55"/>
    </defs>
    <g style="fill:#262626;" transform="translate(404.022467 177.003926)rotate(-270)scale(0.11 -0.11)">
     <use transform="scale(0.996264)" xlink:href="#CMR17-76"/>
     <use transform="translate(87.457374 0)scale(0.996264)" xlink:href="#CMR17-61"/>
     <use transform="translate(189.248129 0)scale(0.996264)" xlink:href="#CMR17-55"/>
    </g>
   </g>
  </g>
 </g>
 <defs>
  <clipPath id="p166dce026a">
   <rect height="51.11996" width="79.589145" x="38.682577" y="26.570347"/>
  </clipPath>
  <clipPath id="pe5f829c0f9">
   <rect height="51.11996" width="79.589145" x="132.691932" y="26.570347"/>
  </clipPath>
  <clipPath id="p02aeaec8e1">
   <rect height="51.11996" width="79.589145" x="226.701288" y="26.570347"/>
  </clipPath>
  <clipPath id="pc57896d6b6">
   <rect height="51.11996" width="79.589145" x="320.710644" y="26.570347"/>
  </clipPath>
  <clipPath id="p96b1a53350">
   <rect height="51.11996" width="79.589145" x="38.682577" y="96.046734"/>
  </clipPath>
  <clipPath id="p88ba39b2db">
   <rect height="51.11996" width="79.589145" x="132.691932" y="96.046734"/>
  </clipPath>
  <clipPath id="pf82dd25c13">
   <rect height="51.11996" width="79.589145" x="226.701288" y="96.046734"/>
  </clipPath>
  <clipPath id="p0f5038f498">
   <rect height="51.11996" width="79.589145" x="320.710644" y="96.046734"/>
  </clipPath>
  <clipPath id="p518a55ebb2">
   <rect height="51.11996" width="79.589145" x="38.682577" y="165.523122"/>
  </clipPath>
  <clipPath id="p5626d01cd7">
   <rect height="51.11996" width="79.589145" x="132.691932" y="165.523122"/>
  </clipPath>
  <clipPath id="p3627d71242">
   <rect height="51.11996" width="79.589145" x="226.701288" y="165.523122"/>
  </clipPath>
  <clipPath id="p400aa3b48f">
   <rect height="51.11996" width="79.589145" x="320.710644" y="165.523122"/>
  </clipPath>
 </defs>
</svg>
