<?xml version="1.0" encoding="UTF-8" standalone="no"?>
<!-- Created with matplotlib (http://matplotlib.org/) -->

<svg
   xmlns:dc="http://purl.org/dc/elements/1.1/"
   xmlns:cc="http://creativecommons.org/ns#"
   xmlns:rdf="http://www.w3.org/1999/02/22-rdf-syntax-ns#"
   xmlns:svg="http://www.w3.org/2000/svg"
   xmlns="http://www.w3.org/2000/svg"
   xmlns:xlink="http://www.w3.org/1999/xlink"
   xmlns:sodipodi="http://sodipodi.sourceforge.net/DTD/sodipodi-0.dtd"
   xmlns:inkscape="http://www.inkscape.org/namespaces/inkscape"
   height="86pt"
   version="1.1"
   viewBox="0 0 432 86"
   width="432pt"
   id="svg2"
   inkscape:version="0.91 r13725"
   sodipodi:docname="sample_usage.svg">
  <metadata
     id="metadata314">
    <rdf:RDF>
      <cc:Work
         rdf:about="">
        <dc:format>image/svg+xml</dc:format>
        <dc:type
           rdf:resource="http://purl.org/dc/dcmitype/StillImage" />
        <dc:title></dc:title>
      </cc:Work>
    </rdf:RDF>
  </metadata>
  <sodipodi:namedview
     pagecolor="#ffffff"
     bordercolor="#666666"
     borderopacity="1"
     objecttolerance="10"
     gridtolerance="10"
     guidetolerance="10"
     inkscape:pageopacity="0"
     inkscape:pageshadow="2"
     inkscape:window-width="1920"
     inkscape:window-height="1053"
     id="namedview312"
     showgrid="false"
     inkscape:zoom="2.6293897"
     inkscape:cx="275.66729"
     inkscape:cy="45.734156"
     inkscape:window-x="0"
     inkscape:window-y="0"
     inkscape:window-maximized="1"
     inkscape:current-layer="figure_1" />
  <defs
     id="defs4">
    <style
       type="text/css"
       id="style6">
*{stroke-linecap:butt;stroke-linejoin:round;}
  </style>
    <defs
       id="defs193">
      <path
         d="m 4.109375,0 0,5.171875 8.09375,0 0,65.625 -8.59375,0 0,5.1875 17.578125,0 0,-33.3125 q 2.5,5.28125 6.46875,7.96875 3.984375,2.6875 9.265625,2.6875 8.59375,0 12.640625,-4.9375 4.046875,-4.9375 4.046875,-15.375 l 0,-27.84375 8.015625,0 0,-5.171875 -24.8125,0 0,5.171875 7.765625,0 0,25 q 0,9.53125 -2.328125,13.015625 -2.3125,3.5 -8.265625,3.5 -6.25,0 -9.53125,-4.546875 Q 21.1875,37.59375 21.1875,28.90625 l 0,-23.734375 7.8125,0 L 29,0 Z"
         id="DejaVuSerif-68"
         inkscape:connector-curvature="0"
         style="stroke-linecap:butt;stroke-linejoin:round" />
    </defs>
    <defs
       id="defs206">
      <path
         d="m 20.515625,28.515625 0,-5.125 q 0,-9.375 3.578125,-14.28125 3.59375,-4.90625 10.421875,-4.90625 6.890625,0 10.421875,5.515625 3.546875,5.515625 3.546875,16.265625 0,10.78125 -3.546875,16.25 -3.53125,5.46875 -10.421875,5.46875 -6.828125,0 -10.421875,-4.9375 -3.578125,-4.921875 -3.578125,-14.25 z M 11.53125,46.6875 l -8.65625,0 0,5.21875 17.640625,0 0,-8.109375 Q 23.140625,48.6875 27.21875,51 q 4.078125,2.328125 10.09375,2.328125 9.5625,0 15.609375,-7.578125 6.0625,-7.5625 6.0625,-19.765625 0,-12.21875 -6.0625,-19.8125 -6.046875,-7.59375 -15.609375,-7.59375 -6.015625,0 -10.09375,2.3125 -4.078125,2.328125 -6.703125,7.21875 l 0,-23.6875 8.484375,0 0,-5.21875 -26.125,0 0,5.21875 8.65625,0 z"
         id="DejaVuSerif-70"
         inkscape:connector-curvature="0"
         style="stroke-linecap:butt;stroke-linejoin:round" />
    </defs>
    <defs
       id="defs219">
      <path
         d="M 48,51.90625 61.28125,11.375 73,46.6875 l -7.515625,0 0,5.21875 18.796875,0 0,-5.21875 -5.765625,0 L 63.09375,0 55.609375,0 42.828125,38.8125 29.984375,0 l -7.1875,0 -15.375,46.6875 -5.8125,0 0,5.21875 23.484375,0 0,-5.21875 -8.390625,0 11.625,-35.3125 13.375,40.53125 z"
         id="DejaVuSerif-77"
         inkscape:connector-curvature="0"
         style="stroke-linecap:butt;stroke-linejoin:round" />
    </defs>
    <defs
       id="defs23">
      <path
         d="m 5.515625,0 0,5.171875 9.28125,0 0,62.5 -9.28125,0 0,5.234375 28.46875,0 0,-5.234375 -9.28125,0 0,-25.1875 37.796875,0 0,25.1875 -9.28125,0 0,5.234375 28.46875,0 0,-5.234375 -9.28125,0 0,-62.5 9.28125,0 0,-5.171875 -28.46875,0 0,5.171875 9.28125,0 0,31.359375 -37.796875,0 0,-31.359375 9.28125,0 0,-5.171875 z"
         id="DejaVuSerif-48"
         inkscape:connector-curvature="0"
         style="stroke-linecap:butt;stroke-linejoin:round" />
    </defs>
    <defs
       id="defs56">
      <path
         d="m 41.015625,3.8125 q 11.96875,0 18.0625,8.21875 6.109375,8.234375 6.109375,24.34375 0,16.171875 -6.109375,24.390625 Q 52.984375,69 41.015625,69 29,69 22.890625,60.765625 16.796875,52.546875 16.796875,36.375 q 0,-16.109375 6.09375,-24.34375 Q 29,3.8125 41.015625,3.8125 Z m 0,-5.234375 q -7.421875,0 -13.65625,2.4375 -6.21875,2.453125 -10.953125,7.1875 -5.46875,5.46875 -8.140625,12.40625 -2.65625,6.9375 -2.65625,15.765625 0,8.84375 2.65625,15.796875 2.671875,6.953125 8.140625,12.421875 4.78125,4.796875 10.9375,7.203125 6.15625,2.421875 13.671875,2.421875 15.875,0 25.640625,-10.40625 9.765625,-10.390625 9.765625,-27.4375 0,-8.734375 -2.6875,-15.75 -2.6875,-7 -8.15625,-12.421875 Q 60.796875,3.421875 54.640625,1 q -6.15625,-2.421875 -13.625,-2.421875 z"
         id="DejaVuSerif-4f"
         inkscape:connector-curvature="0"
         style="stroke-linecap:butt;stroke-linejoin:round" />
    </defs>
    <defs
       id="defs69">
      <path
         d="m 76.21875,0 -8,0 L 51.515625,59.28125 34.8125,0 l -8,0 -19.09375,67.671875 -7.234375,0 0,5.234375 26.609375,0 0,-5.234375 -9.078125,0 15.1875,-53.859375 16.609375,59.09375 7.90625,0 16.890625,-59.71875 15.28125,54.484375 -8.390625,0 0,5.234375 20.98438,0 0,-5.234375 -7.17188,0 z"
         id="DejaVuSerif-57"
         inkscape:connector-curvature="0"
         style="stroke-linecap:butt;stroke-linejoin:round" />
    </defs>
  </defs>
  <g
     id="figure_1">
    <path
       d="m 54,75.6 334.8,0 0,-65.232 -334.8,0 z"
       style="fill:#ffffff;stroke-linecap:butt;stroke-linejoin:round"
       id="path14"
       inkscape:connector-curvature="0" />
    <path
       clip-path="url(#p1b73a15a31)"
       d="M 54,75.6 54,10.368"
       style="fill:none;stroke:#cccccc;stroke-width:0.80000001;stroke-linecap:round;stroke-linejoin:round"
       id="path19"
       inkscape:connector-curvature="0" />
    <g
       style="fill:#262626;stroke-linecap:butt;stroke-linejoin:round"
       transform="matrix(0.1,0,0,-0.1,59.84835,86.698437)"
       id="g26">
      <use
         xlink:href="#DejaVuSerif-48"
         id="use28"
         style="stroke-linecap:butt;stroke-linejoin:round"
         x="0"
         y="0"
         width="100%"
         height="100%" />
    </g>
    <path
       clip-path="url(#p1b73a15a31)"
       d="m 74.925,75.6 0,-65.232"
       style="fill:none;stroke:#cccccc;stroke-width:0.80000001;stroke-linecap:round;stroke-linejoin:round"
       id="path32"
       inkscape:connector-curvature="0" />
    <g
       style="fill:#262626;stroke-linecap:butt;stroke-linejoin:round"
       transform="matrix(0.1,0,0,-0.1,80.77335,86.698437)"
       id="g36">
      <use
         xlink:href="#DejaVuSerif-48"
         id="use38"
         style="stroke-linecap:butt;stroke-linejoin:round"
         x="0"
         y="0"
         width="100%"
         height="100%" />
    </g>
    <path
       clip-path="url(#p1b73a15a31)"
       d="m 95.85,75.6 0,-65.232"
       style="fill:none;stroke:#cccccc;stroke-width:0.80000001;stroke-linecap:round;stroke-linejoin:round"
       id="path42"
       inkscape:connector-curvature="0" />
    <g
       style="fill:#262626;stroke-linecap:butt;stroke-linejoin:round"
       transform="matrix(0.1,0,0,-0.1,101.69834,86.698437)"
       id="g46">
      <use
         xlink:href="#DejaVuSerif-48"
         id="use48"
         style="stroke-linecap:butt;stroke-linejoin:round"
         x="0"
         y="0"
         width="100%"
         height="100%" />
    </g>
    <path
       clip-path="url(#p1b73a15a31)"
       d="m 116.775,75.6 0,-65.232"
       style="fill:none;stroke:#cccccc;stroke-width:0.80000001;stroke-linecap:round;stroke-linejoin:round"
       id="path52"
       inkscape:connector-curvature="0" />
    <g
       style="fill:#262626;stroke-linecap:butt;stroke-linejoin:round"
       transform="matrix(0.1,0,0,-0.1,122.88428,86.698437)"
       id="g59">
      <use
         xlink:href="#DejaVuSerif-4f"
         id="use61"
         style="stroke-linecap:butt;stroke-linejoin:round"
         x="0"
         y="0"
         width="100%"
         height="100%" />
    </g>
    <path
       clip-path="url(#p1b73a15a31)"
       d="m 137.7,75.6 0,-65.232"
       style="fill:none;stroke:#cccccc;stroke-width:0.80000001;stroke-linecap:round;stroke-linejoin:round"
       id="path65"
       inkscape:connector-curvature="0" />
    <g
       style="fill:#262626;stroke-linecap:butt;stroke-linejoin:round"
       transform="matrix(0.1,0,0,-0.1,142.76944,86.698437)"
       id="g72">
      <use
         xlink:href="#DejaVuSerif-57"
         id="use74"
         style="stroke-linecap:butt;stroke-linejoin:round"
         x="0"
         y="0"
         width="100%"
         height="100%" />
    </g>
    <path
       clip-path="url(#p1b73a15a31)"
       d="m 158.625,75.6 0,-65.232"
       style="fill:none;stroke:#cccccc;stroke-width:0.80000001;stroke-linecap:round;stroke-linejoin:round"
       id="path78"
       inkscape:connector-curvature="0" />
    <g
       style="fill:#262626;stroke-linecap:butt;stroke-linejoin:round"
       transform="matrix(0.1,0,0,-0.1,164.73428,86.698437)"
       id="g82">
      <use
         xlink:href="#DejaVuSerif-4f"
         id="use84"
         style="stroke-linecap:butt;stroke-linejoin:round"
         x="0"
         y="0"
         width="100%"
         height="100%" />
    </g>
    <path
       clip-path="url(#p1b73a15a31)"
       d="m 179.55,75.6 0,-65.232"
       style="fill:none;stroke:#cccccc;stroke-width:0.80000001;stroke-linecap:round;stroke-linejoin:round"
       id="path88"
       inkscape:connector-curvature="0" />
    <g
       style="fill:#262626;stroke-linecap:butt;stroke-linejoin:round"
       transform="matrix(0.1,0,0,-0.1,185.65928,86.698437)"
       id="g92">
      <use
         xlink:href="#DejaVuSerif-4f"
         id="use94"
         style="stroke-linecap:butt;stroke-linejoin:round"
         x="0"
         y="0"
         width="100%"
         height="100%" />
    </g>
    <path
       clip-path="url(#p1b73a15a31)"
       d="m 200.475,75.6 0,-65.232"
       style="fill:none;stroke:#cccccc;stroke-width:0.80000001;stroke-linecap:round;stroke-linejoin:round"
       id="path98"
       inkscape:connector-curvature="0" />
    <g
       style="fill:#262626;stroke-linecap:butt;stroke-linejoin:round"
       transform="matrix(0.1,0,0,-0.1,205.54444,86.698437)"
       id="g102">
      <use
         xlink:href="#DejaVuSerif-57"
         id="use104"
         style="stroke-linecap:butt;stroke-linejoin:round"
         x="0"
         y="0"
         width="100%"
         height="100%" />
    </g>
    <path
       clip-path="url(#p1b73a15a31)"
       d="m 221.4,75.6 0,-65.232"
       style="fill:none;stroke:#cccccc;stroke-width:0.80000001;stroke-linecap:round;stroke-linejoin:round"
       id="path108"
       inkscape:connector-curvature="0" />
    <g
       style="fill:#262626;stroke-linecap:butt;stroke-linejoin:round"
       transform="matrix(0.1,0,0,-0.1,226.46944,86.698437)"
       id="g112">
      <use
         xlink:href="#DejaVuSerif-57"
         id="use114"
         style="stroke-linecap:butt;stroke-linejoin:round"
         x="0"
         y="0"
         width="100%"
         height="100%" />
    </g>
    <path
       clip-path="url(#p1b73a15a31)"
       d="m 242.325,75.6 0,-65.232"
       style="fill:none;stroke:#cccccc;stroke-width:0.80000001;stroke-linecap:round;stroke-linejoin:round"
       id="path118"
       inkscape:connector-curvature="0" />
    <g
       style="fill:#262626;stroke-linecap:butt;stroke-linejoin:round"
       transform="matrix(0.1,0,0,-0.1,248.43428,86.698437)"
       id="g122">
      <use
         xlink:href="#DejaVuSerif-4f"
         id="use124"
         style="stroke-linecap:butt;stroke-linejoin:round"
         x="0"
         y="0"
         width="100%"
         height="100%" />
    </g>
    <path
       clip-path="url(#p1b73a15a31)"
       d="m 263.25,75.6 0,-65.232"
       style="fill:none;stroke:#cccccc;stroke-width:0.80000001;stroke-linecap:round;stroke-linejoin:round"
       id="path128"
       inkscape:connector-curvature="0" />
    <g
       style="fill:#262626;stroke-linecap:butt;stroke-linejoin:round"
       transform="matrix(0.1,0,0,-0.1,269.35928,86.698437)"
       id="g132">
      <use
         xlink:href="#DejaVuSerif-4f"
         id="use134"
         style="stroke-linecap:butt;stroke-linejoin:round"
         x="0"
         y="0"
         width="100%"
         height="100%" />
    </g>
    <path
       clip-path="url(#p1b73a15a31)"
       d="m 284.175,75.6 0,-65.232"
       style="fill:none;stroke:#cccccc;stroke-width:0.80000001;stroke-linecap:round;stroke-linejoin:round"
       id="path138"
       inkscape:connector-curvature="0" />
    <g
       style="fill:#262626;stroke-linecap:butt;stroke-linejoin:round"
       transform="matrix(0.1,0,0,-0.1,290.02334,86.698437)"
       id="g142">
      <use
         xlink:href="#DejaVuSerif-48"
         id="use144"
         style="stroke-linecap:butt;stroke-linejoin:round"
         x="0"
         y="0"
         width="100%"
         height="100%" />
    </g>
    <path
       clip-path="url(#p1b73a15a31)"
       d="m 305.1,75.6 0,-65.232"
       style="fill:none;stroke:#cccccc;stroke-width:0.80000001;stroke-linecap:round;stroke-linejoin:round"
       id="path148"
       inkscape:connector-curvature="0" />
    <g
       style="fill:#262626;stroke-linecap:butt;stroke-linejoin:round"
       transform="matrix(0.1,0,0,-0.1,310.94834,86.698437)"
       id="g152">
      <use
         xlink:href="#DejaVuSerif-48"
         id="use154"
         style="stroke-linecap:butt;stroke-linejoin:round"
         x="0"
         y="0"
         width="100%"
         height="100%" />
    </g>
    <path
       clip-path="url(#p1b73a15a31)"
       d="m 326.025,75.6 0,-65.232"
       style="fill:none;stroke:#cccccc;stroke-width:0.80000001;stroke-linecap:round;stroke-linejoin:round"
       id="path158"
       inkscape:connector-curvature="0" />
    <g
       style="fill:#262626;stroke-linecap:butt;stroke-linejoin:round"
       transform="matrix(0.1,0,0,-0.1,331.87334,86.698437)"
       id="g162">
      <use
         xlink:href="#DejaVuSerif-48"
         id="use164"
         style="stroke-linecap:butt;stroke-linejoin:round"
         x="0"
         y="0"
         width="100%"
         height="100%" />
    </g>
    <path
       clip-path="url(#p1b73a15a31)"
       d="m 346.95,75.6 0,-65.232"
       style="fill:none;stroke:#cccccc;stroke-width:0.80000001;stroke-linecap:round;stroke-linejoin:round"
       id="path168"
       inkscape:connector-curvature="0" />
    <g
       style="fill:#262626;stroke-linecap:butt;stroke-linejoin:round"
       transform="matrix(0.1,0,0,-0.1,353.05928,86.698437)"
       id="g172">
      <use
         xlink:href="#DejaVuSerif-4f"
         id="use174"
         style="stroke-linecap:butt;stroke-linejoin:round"
         x="0"
         y="0"
         width="100%"
         height="100%" />
    </g>
    <path
       clip-path="url(#p1b73a15a31)"
       d="m 367.875,75.6 0,-65.232"
       style="fill:none;stroke:#cccccc;stroke-width:0.80000001;stroke-linecap:round;stroke-linejoin:round"
       id="path178"
       inkscape:connector-curvature="0" />
    <g
       style="fill:#262626;stroke-linecap:butt;stroke-linejoin:round"
       transform="matrix(0.1,0,0,-0.1,373.98428,86.698437)"
       id="g182">
      <use
         xlink:href="#DejaVuSerif-4f"
         id="use184"
         style="stroke-linecap:butt;stroke-linejoin:round"
         x="0"
         y="0"
         width="100%"
         height="100%" />
    </g>
    <path
       clip-path="url(#p1b73a15a31)"
       d="m 54,64.728 334.8,0"
       style="fill:none;stroke:#cccccc;stroke-width:0.80000001;stroke-linecap:round;stroke-linejoin:round"
       id="path189"
       inkscape:connector-curvature="0" />
    <g
       style="fill:#262626;stroke-linecap:butt;stroke-linejoin:round"
       transform="matrix(0.1,0,0,-0.1,44.059375,68.527219)"
       id="g196">
      <use
         xlink:href="#DejaVuSerif-68"
         id="use198"
         style="stroke-linecap:butt;stroke-linejoin:round"
         x="0"
         y="0"
         width="100%"
         height="100%" />
    </g>
    <path
       clip-path="url(#p1b73a15a31)"
       d="m 54,42.984 334.8,0"
       style="fill:none;stroke:#cccccc;stroke-width:0.80000001;stroke-linecap:round;stroke-linejoin:round"
       id="path202"
       inkscape:connector-curvature="0" />
    <g
       style="fill:#262626;stroke-linecap:butt;stroke-linejoin:round"
       transform="matrix(0.1,0,0,-0.1,44.098438,46.783219)"
       id="g209">
      <use
         xlink:href="#DejaVuSerif-70"
         id="use211"
         style="stroke-linecap:butt;stroke-linejoin:round"
         x="0"
         y="0"
         width="100%"
         height="100%" />
    </g>
    <path
       clip-path="url(#p1b73a15a31)"
       d="m 54,21.24 334.8,0"
       style="fill:none;stroke:#cccccc;stroke-width:0.80000001;stroke-linecap:round;stroke-linejoin:round"
       id="path215"
       inkscape:connector-curvature="0" />
    <g
       style="fill:#262626;stroke-linecap:butt;stroke-linejoin:round"
       transform="matrix(0.1,0,0,-0.1,41.940625,25.039219)"
       id="g222">
      <use
         xlink:href="#DejaVuSerif-77"
         id="use224"
         style="stroke-linecap:butt;stroke-linejoin:round"
         x="0"
         y="0"
         width="100%"
         height="100%" />
    </g>
    <path
       clip-path="url(#p1b73a15a31)"
       d="m 54,70.164 20.925,0 0,-10.872 -20.925,0 z"
       style="fill:#444444;stroke-linecap:butt;stroke-linejoin:round"
       id="path227"
       inkscape:connector-curvature="0" />
    <path
       clip-path="url(#p1b73a15a31)"
       d="m 74.925,70.164 20.925,0 0,-10.872 -20.925,0 z"
       style="fill:#444444;stroke-linecap:butt;stroke-linejoin:round"
       id="path230"
       inkscape:connector-curvature="0" />
    <path
       clip-path="url(#p1b73a15a31)"
       d="m 74.925,48.42 20.925,0 0,-10.872 -20.925,0 z"
       style="fill:#444444;stroke-linecap:butt;stroke-linejoin:round"
       id="path233"
       inkscape:connector-curvature="0" />
    <path
       clip-path="url(#p1b73a15a31)"
       d="m 95.85,70.164 20.925,0 0,-10.872 -20.925,0 z"
       style="fill:#444444;stroke-linecap:butt;stroke-linejoin:round"
       id="path236"
       inkscape:connector-curvature="0" />
    <path
       clip-path="url(#p1b73a15a31)"
       d="m 116.775,70.164 20.925,0 0,-10.872 -20.925,0 z"
       style="fill:#444444;stroke-linecap:butt;stroke-linejoin:round"
       id="path239"
       inkscape:connector-curvature="0" />
    <path
       clip-path="url(#p1b73a15a31)"
       d="m 137.7,70.164 20.925,0 0,-10.872 -20.925,0 z"
       style="fill:#444444;stroke-linecap:butt;stroke-linejoin:round"
       id="path242"
       inkscape:connector-curvature="0" />
    <path
       clip-path="url(#p1b73a15a31)"
       d="m 137.7,48.42 20.925,0 0,-10.872 -20.925,0 z"
       style="fill:#444444;stroke-linecap:butt;stroke-linejoin:round"
       id="path245"
       inkscape:connector-curvature="0" />
    <path
       clip-path="url(#p1b73a15a31)"
       d="m 158.625,70.164 20.925,0 0,-10.872 -20.925,0 z"
       style="fill:#444444;stroke-linecap:butt;stroke-linejoin:round"
       id="path248"
       inkscape:connector-curvature="0" />
    <path
       clip-path="url(#p1b73a15a31)"
       d="m 179.55,70.164 20.925,0 0,-10.872 -20.925,0 z"
       style="fill:#444444;stroke-linecap:butt;stroke-linejoin:round"
       id="path251"
       inkscape:connector-curvature="0" />
    <path
       clip-path="url(#p1b73a15a31)"
       d="m 179.55,48.42 20.925,0 0,-10.872 -20.925,0 z"
       style="fill:#444444;stroke-linecap:butt;stroke-linejoin:round"
       id="path254"
       inkscape:connector-curvature="0" />
    <path
       clip-path="url(#p1b73a15a31)"
       d="m 200.475,70.164 20.925,0 0,-10.872 -20.925,0 z"
       style="fill:#444444;stroke-linecap:butt;stroke-linejoin:round"
       id="path257"
       inkscape:connector-curvature="0" />
    <path
       clip-path="url(#p1b73a15a31)"
       d="m 200.475,48.42 20.925,0 0,-10.872 -20.925,0 z"
       style="fill:#444444;stroke-linecap:butt;stroke-linejoin:round"
       id="path260"
       inkscape:connector-curvature="0" />
    <path
       clip-path="url(#p1b73a15a31)"
       d="m 200.475,26.676 20.925,0 0,-10.872 -20.925,0 z"
       style="fill:#444444;stroke-linecap:butt;stroke-linejoin:round"
       id="path263"
       inkscape:connector-curvature="0" />
    <path
       clip-path="url(#p1b73a15a31)"
       d="m 221.4,70.164 20.925,0 0,-10.872 -20.925,0 z"
       style="fill:#444444;stroke-linecap:butt;stroke-linejoin:round"
       id="path266"
       inkscape:connector-curvature="0" />
    <path
       clip-path="url(#p1b73a15a31)"
       d="m 221.4,48.42 20.925,0 0,-10.872 -20.925,0 z"
       style="fill:#444444;stroke-linecap:butt;stroke-linejoin:round"
       id="path269"
       inkscape:connector-curvature="0" />
    <path
       clip-path="url(#p1b73a15a31)"
       d="m 242.325,70.164 20.925,0 0,-10.872 -20.925,0 z"
       style="fill:#444444;stroke-linecap:butt;stroke-linejoin:round"
       id="path272"
       inkscape:connector-curvature="0" />
    <path
       clip-path="url(#p1b73a15a31)"
       d="m 242.325,48.42 20.925,0 0,-10.872 -20.925,0 z"
       style="fill:#444444;stroke-linecap:butt;stroke-linejoin:round"
       id="path275"
       inkscape:connector-curvature="0" />
    <path
       clip-path="url(#p1b73a15a31)"
       d="m 263.25,70.164 20.925,0 0,-10.872 -20.925,0 z"
       style="fill:#444444;stroke-linecap:butt;stroke-linejoin:round"
       id="path278"
       inkscape:connector-curvature="0" />
    <path
       clip-path="url(#p1b73a15a31)"
       d="m 284.175,70.164 20.925,0 0,-10.872 -20.925,0 z"
       style="fill:#444444;stroke-linecap:butt;stroke-linejoin:round"
       id="path281"
       inkscape:connector-curvature="0" />
    <path
       clip-path="url(#p1b73a15a31)"
       d="m 284.175,48.42 20.925,0 0,-10.872 -20.925,0 z"
       style="fill:#444444;stroke-linecap:butt;stroke-linejoin:round"
       id="path284"
       inkscape:connector-curvature="0" />
    <path
       clip-path="url(#p1b73a15a31)"
       d="m 305.1,48.42 20.925,0 0,-10.872 -20.925,0 z"
       style="fill:#444444;stroke-linecap:butt;stroke-linejoin:round"
       id="path287"
       inkscape:connector-curvature="0" />
    <path
       clip-path="url(#p1b73a15a31)"
       d="m 326.025,48.42 20.925,0 0,-10.872 -20.925,0 z"
       style="fill:#444444;stroke-linecap:butt;stroke-linejoin:round"
       id="path290"
       inkscape:connector-curvature="0" />
    <path
       clip-path="url(#p1b73a15a31)"
       d="m 367.875,48.42 20.925,0 0,-10.872 -20.925,0 z"
       style="fill:#444444;stroke-linecap:butt;stroke-linejoin:round"
       id="path293"
       inkscape:connector-curvature="0" />
    <path
       d="M 54,75.6 54,10.368"
       style="fill:none;stroke:#cccccc;stroke-linecap:square;stroke-linejoin:miter"
       id="path296"
       inkscape:connector-curvature="0" />
    <path
       d="m 54,75.6 334.8,0"
       style="fill:none;stroke:#cccccc;stroke-linecap:square;stroke-linejoin:miter"
       id="path302"
       inkscape:connector-curvature="0" />
  </g>
  <defs
     id="defs307">
    <clipPath
       id="p1b73a15a31">
      <rect
         height="65.232"
         width="334.8"
         x="54"
         y="10.368"
         id="rect310" />
    </clipPath>
  </defs>
</svg>
