<?xml version="1.0" encoding="utf-8" standalone="no"?>
<!DOCTYPE svg PUBLIC "-//W3C//DTD SVG 1.1//EN"
  "http://www.w3.org/Graphics/SVG/1.1/DTD/svg11.dtd">
<!-- Created with matplotlib (http://matplotlib.org/) -->
<svg height="288pt" version="1.1" viewBox="0 0 432 288" width="432pt" xmlns="http://www.w3.org/2000/svg" xmlns:xlink="http://www.w3.org/1999/xlink">
 <defs>
  <style type="text/css">
*{stroke-linecap:butt;stroke-linejoin:round;}
  </style>
 </defs>
 <g id="figure_1">
  <g id="patch_1">
   <path d="M 0 288 
L 432 288 
L 432 0 
L 0 0 
z
" style="fill:#ffffff;"/>
  </g>
  <g id="axes_1">
   <g id="patch_2">
    <path d="M 54 252 
L 388.8 252 
L 388.8 34.56 
L 54 34.56 
z
" style="fill:#ffffff;"/>
   </g>
   <g id="matplotlib.axis_1">
    <g id="xtick_1">
     <g id="line2d_1">
      <path clip-path="url(#pd3cf42c12d)" d="M 67.012648 252 
L 67.012648 34.56 
" style="fill:none;stroke:#cccccc;stroke-linecap:round;stroke-width:0.8;"/>
     </g>
     <g id="line2d_2"/>
     <g id="text_1">
      <!-- 0 -->
      <defs>
       <path d="M 31.78125 66.40625 
Q 24.171875 66.40625 20.328125 58.90625 
Q 16.5 51.421875 16.5 36.375 
Q 16.5 21.390625 20.328125 13.890625 
Q 24.171875 6.390625 31.78125 6.390625 
Q 39.453125 6.390625 43.28125 13.890625 
Q 47.125 21.390625 47.125 36.375 
Q 47.125 51.421875 43.28125 58.90625 
Q 39.453125 66.40625 31.78125 66.40625 
z
M 31.78125 74.21875 
Q 44.046875 74.21875 50.515625 64.515625 
Q 56.984375 54.828125 56.984375 36.375 
Q 56.984375 17.96875 50.515625 8.265625 
Q 44.046875 -1.421875 31.78125 -1.421875 
Q 19.53125 -1.421875 13.0625 8.265625 
Q 6.59375 17.96875 6.59375 36.375 
Q 6.59375 54.828125 13.0625 64.515625 
Q 19.53125 74.21875 31.78125 74.21875 
z
" id="DejaVuSans-30"/>
      </defs>
      <g style="fill:#262626;" transform="translate(63.831398 263.098437)scale(0.1 -0.1)">
       <use xlink:href="#DejaVuSans-30"/>
      </g>
     </g>
    </g>
    <g id="xtick_2">
     <g id="line2d_3">
      <path clip-path="url(#pd3cf42c12d)" d="M 111.12332 252 
L 111.12332 34.56 
" style="fill:none;stroke:#cccccc;stroke-linecap:round;stroke-width:0.8;"/>
     </g>
     <g id="line2d_4"/>
     <g id="text_2">
      <!-- 20 -->
      <defs>
       <path d="M 19.1875 8.296875 
L 53.609375 8.296875 
L 53.609375 0 
L 7.328125 0 
L 7.328125 8.296875 
Q 12.9375 14.109375 22.625 23.890625 
Q 32.328125 33.6875 34.8125 36.53125 
Q 39.546875 41.84375 41.421875 45.53125 
Q 43.3125 49.21875 43.3125 52.78125 
Q 43.3125 58.59375 39.234375 62.25 
Q 35.15625 65.921875 28.609375 65.921875 
Q 23.96875 65.921875 18.8125 64.3125 
Q 13.671875 62.703125 7.8125 59.421875 
L 7.8125 69.390625 
Q 13.765625 71.78125 18.9375 73 
Q 24.125 74.21875 28.421875 74.21875 
Q 39.75 74.21875 46.484375 68.546875 
Q 53.21875 62.890625 53.21875 53.421875 
Q 53.21875 48.921875 51.53125 44.890625 
Q 49.859375 40.875 45.40625 35.40625 
Q 44.1875 33.984375 37.640625 27.21875 
Q 31.109375 20.453125 19.1875 8.296875 
z
" id="DejaVuSans-32"/>
      </defs>
      <g style="fill:#262626;" transform="translate(104.76082 263.098437)scale(0.1 -0.1)">
       <use xlink:href="#DejaVuSans-32"/>
       <use x="63.623047" xlink:href="#DejaVuSans-30"/>
      </g>
     </g>
    </g>
    <g id="xtick_3">
     <g id="line2d_5">
      <path clip-path="url(#pd3cf42c12d)" d="M 155.233992 252 
L 155.233992 34.56 
" style="fill:none;stroke:#cccccc;stroke-linecap:round;stroke-width:0.8;"/>
     </g>
     <g id="line2d_6"/>
     <g id="text_3">
      <!-- 40 -->
      <defs>
       <path d="M 37.796875 64.3125 
L 12.890625 25.390625 
L 37.796875 25.390625 
z
M 35.203125 72.90625 
L 47.609375 72.90625 
L 47.609375 25.390625 
L 58.015625 25.390625 
L 58.015625 17.1875 
L 47.609375 17.1875 
L 47.609375 0 
L 37.796875 0 
L 37.796875 17.1875 
L 4.890625 17.1875 
L 4.890625 26.703125 
z
" id="DejaVuSans-34"/>
      </defs>
      <g style="fill:#262626;" transform="translate(148.871492 263.098437)scale(0.1 -0.1)">
       <use xlink:href="#DejaVuSans-34"/>
       <use x="63.623047" xlink:href="#DejaVuSans-30"/>
      </g>
     </g>
    </g>
    <g id="xtick_4">
     <g id="line2d_7">
      <path clip-path="url(#pd3cf42c12d)" d="M 199.344664 252 
L 199.344664 34.56 
" style="fill:none;stroke:#cccccc;stroke-linecap:round;stroke-width:0.8;"/>
     </g>
     <g id="line2d_8"/>
     <g id="text_4">
      <!-- 60 -->
      <defs>
       <path d="M 33.015625 40.375 
Q 26.375 40.375 22.484375 35.828125 
Q 18.609375 31.296875 18.609375 23.390625 
Q 18.609375 15.53125 22.484375 10.953125 
Q 26.375 6.390625 33.015625 6.390625 
Q 39.65625 6.390625 43.53125 10.953125 
Q 47.40625 15.53125 47.40625 23.390625 
Q 47.40625 31.296875 43.53125 35.828125 
Q 39.65625 40.375 33.015625 40.375 
z
M 52.59375 71.296875 
L 52.59375 62.3125 
Q 48.875 64.0625 45.09375 64.984375 
Q 41.3125 65.921875 37.59375 65.921875 
Q 27.828125 65.921875 22.671875 59.328125 
Q 17.53125 52.734375 16.796875 39.40625 
Q 19.671875 43.65625 24.015625 45.921875 
Q 28.375 48.1875 33.59375 48.1875 
Q 44.578125 48.1875 50.953125 41.515625 
Q 57.328125 34.859375 57.328125 23.390625 
Q 57.328125 12.15625 50.6875 5.359375 
Q 44.046875 -1.421875 33.015625 -1.421875 
Q 20.359375 -1.421875 13.671875 8.265625 
Q 6.984375 17.96875 6.984375 36.375 
Q 6.984375 53.65625 15.1875 63.9375 
Q 23.390625 74.21875 37.203125 74.21875 
Q 40.921875 74.21875 44.703125 73.484375 
Q 48.484375 72.75 52.59375 71.296875 
z
" id="DejaVuSans-36"/>
      </defs>
      <g style="fill:#262626;" transform="translate(192.982164 263.098437)scale(0.1 -0.1)">
       <use xlink:href="#DejaVuSans-36"/>
       <use x="63.623047" xlink:href="#DejaVuSans-30"/>
      </g>
     </g>
    </g>
    <g id="xtick_5">
     <g id="line2d_9">
      <path clip-path="url(#pd3cf42c12d)" d="M 243.455336 252 
L 243.455336 34.56 
" style="fill:none;stroke:#cccccc;stroke-linecap:round;stroke-width:0.8;"/>
     </g>
     <g id="line2d_10"/>
     <g id="text_5">
      <!-- 80 -->
      <defs>
       <path d="M 31.78125 34.625 
Q 24.75 34.625 20.71875 30.859375 
Q 16.703125 27.09375 16.703125 20.515625 
Q 16.703125 13.921875 20.71875 10.15625 
Q 24.75 6.390625 31.78125 6.390625 
Q 38.8125 6.390625 42.859375 10.171875 
Q 46.921875 13.96875 46.921875 20.515625 
Q 46.921875 27.09375 42.890625 30.859375 
Q 38.875 34.625 31.78125 34.625 
z
M 21.921875 38.8125 
Q 15.578125 40.375 12.03125 44.71875 
Q 8.5 49.078125 8.5 55.328125 
Q 8.5 64.0625 14.71875 69.140625 
Q 20.953125 74.21875 31.78125 74.21875 
Q 42.671875 74.21875 48.875 69.140625 
Q 55.078125 64.0625 55.078125 55.328125 
Q 55.078125 49.078125 51.53125 44.71875 
Q 48 40.375 41.703125 38.8125 
Q 48.828125 37.15625 52.796875 32.3125 
Q 56.78125 27.484375 56.78125 20.515625 
Q 56.78125 9.90625 50.3125 4.234375 
Q 43.84375 -1.421875 31.78125 -1.421875 
Q 19.734375 -1.421875 13.25 4.234375 
Q 6.78125 9.90625 6.78125 20.515625 
Q 6.78125 27.484375 10.78125 32.3125 
Q 14.796875 37.15625 21.921875 38.8125 
z
M 18.3125 54.390625 
Q 18.3125 48.734375 21.84375 45.5625 
Q 25.390625 42.390625 31.78125 42.390625 
Q 38.140625 42.390625 41.71875 45.5625 
Q 45.3125 48.734375 45.3125 54.390625 
Q 45.3125 60.0625 41.71875 63.234375 
Q 38.140625 66.40625 31.78125 66.40625 
Q 25.390625 66.40625 21.84375 63.234375 
Q 18.3125 60.0625 18.3125 54.390625 
z
" id="DejaVuSans-38"/>
      </defs>
      <g style="fill:#262626;" transform="translate(237.092836 263.098437)scale(0.1 -0.1)">
       <use xlink:href="#DejaVuSans-38"/>
       <use x="63.623047" xlink:href="#DejaVuSans-30"/>
      </g>
     </g>
    </g>
    <g id="xtick_6">
     <g id="line2d_11">
      <path clip-path="url(#pd3cf42c12d)" d="M 287.566008 252 
L 287.566008 34.56 
" style="fill:none;stroke:#cccccc;stroke-linecap:round;stroke-width:0.8;"/>
     </g>
     <g id="line2d_12"/>
     <g id="text_6">
      <!-- 100 -->
      <defs>
       <path d="M 12.40625 8.296875 
L 28.515625 8.296875 
L 28.515625 63.921875 
L 10.984375 60.40625 
L 10.984375 69.390625 
L 28.421875 72.90625 
L 38.28125 72.90625 
L 38.28125 8.296875 
L 54.390625 8.296875 
L 54.390625 0 
L 12.40625 0 
z
" id="DejaVuSans-31"/>
      </defs>
      <g style="fill:#262626;" transform="translate(278.022258 263.098437)scale(0.1 -0.1)">
       <use xlink:href="#DejaVuSans-31"/>
       <use x="63.623047" xlink:href="#DejaVuSans-30"/>
       <use x="127.246094" xlink:href="#DejaVuSans-30"/>
      </g>
     </g>
    </g>
    <g id="xtick_7">
     <g id="line2d_13">
      <path clip-path="url(#pd3cf42c12d)" d="M 331.67668 252 
L 331.67668 34.56 
" style="fill:none;stroke:#cccccc;stroke-linecap:round;stroke-width:0.8;"/>
     </g>
     <g id="line2d_14"/>
     <g id="text_7">
      <!-- 120 -->
      <g style="fill:#262626;" transform="translate(322.13293 263.098437)scale(0.1 -0.1)">
       <use xlink:href="#DejaVuSans-31"/>
       <use x="63.623047" xlink:href="#DejaVuSans-32"/>
       <use x="127.246094" xlink:href="#DejaVuSans-30"/>
      </g>
     </g>
    </g>
    <g id="xtick_8">
     <g id="line2d_15">
      <path clip-path="url(#pd3cf42c12d)" d="M 375.787352 252 
L 375.787352 34.56 
" style="fill:none;stroke:#cccccc;stroke-linecap:round;stroke-width:0.8;"/>
     </g>
     <g id="line2d_16"/>
     <g id="text_8">
      <!-- 140 -->
      <g style="fill:#262626;" transform="translate(366.243602 263.098437)scale(0.1 -0.1)">
       <use xlink:href="#DejaVuSans-31"/>
       <use x="63.623047" xlink:href="#DejaVuSans-34"/>
       <use x="127.246094" xlink:href="#DejaVuSans-30"/>
      </g>
     </g>
    </g>
    <g id="text_9">
     <!-- time (s) -->
     <defs>
      <path d="M 18.3125 70.21875 
L 18.3125 54.6875 
L 36.8125 54.6875 
L 36.8125 47.703125 
L 18.3125 47.703125 
L 18.3125 18.015625 
Q 18.3125 11.328125 20.140625 9.421875 
Q 21.96875 7.515625 27.59375 7.515625 
L 36.8125 7.515625 
L 36.8125 0 
L 27.59375 0 
Q 17.1875 0 13.234375 3.875 
Q 9.28125 7.765625 9.28125 18.015625 
L 9.28125 47.703125 
L 2.6875 47.703125 
L 2.6875 54.6875 
L 9.28125 54.6875 
L 9.28125 70.21875 
z
" id="DejaVuSans-74"/>
      <path d="M 9.421875 54.6875 
L 18.40625 54.6875 
L 18.40625 0 
L 9.421875 0 
z
M 9.421875 75.984375 
L 18.40625 75.984375 
L 18.40625 64.59375 
L 9.421875 64.59375 
z
" id="DejaVuSans-69"/>
      <path d="M 52 44.1875 
Q 55.375 50.25 60.0625 53.125 
Q 64.75 56 71.09375 56 
Q 79.640625 56 84.28125 50.015625 
Q 88.921875 44.046875 88.921875 33.015625 
L 88.921875 0 
L 79.890625 0 
L 79.890625 32.71875 
Q 79.890625 40.578125 77.09375 44.375 
Q 74.3125 48.1875 68.609375 48.1875 
Q 61.625 48.1875 57.5625 43.546875 
Q 53.515625 38.921875 53.515625 30.90625 
L 53.515625 0 
L 44.484375 0 
L 44.484375 32.71875 
Q 44.484375 40.625 41.703125 44.40625 
Q 38.921875 48.1875 33.109375 48.1875 
Q 26.21875 48.1875 22.15625 43.53125 
Q 18.109375 38.875 18.109375 30.90625 
L 18.109375 0 
L 9.078125 0 
L 9.078125 54.6875 
L 18.109375 54.6875 
L 18.109375 46.1875 
Q 21.1875 51.21875 25.484375 53.609375 
Q 29.78125 56 35.6875 56 
Q 41.65625 56 45.828125 52.96875 
Q 50 49.953125 52 44.1875 
z
" id="DejaVuSans-6d"/>
      <path d="M 56.203125 29.59375 
L 56.203125 25.203125 
L 14.890625 25.203125 
Q 15.484375 15.921875 20.484375 11.0625 
Q 25.484375 6.203125 34.421875 6.203125 
Q 39.59375 6.203125 44.453125 7.46875 
Q 49.3125 8.734375 54.109375 11.28125 
L 54.109375 2.78125 
Q 49.265625 0.734375 44.1875 -0.34375 
Q 39.109375 -1.421875 33.890625 -1.421875 
Q 20.796875 -1.421875 13.15625 6.1875 
Q 5.515625 13.8125 5.515625 26.8125 
Q 5.515625 40.234375 12.765625 48.109375 
Q 20.015625 56 32.328125 56 
Q 43.359375 56 49.78125 48.890625 
Q 56.203125 41.796875 56.203125 29.59375 
z
M 47.21875 32.234375 
Q 47.125 39.59375 43.09375 43.984375 
Q 39.0625 48.390625 32.421875 48.390625 
Q 24.90625 48.390625 20.390625 44.140625 
Q 15.875 39.890625 15.1875 32.171875 
z
" id="DejaVuSans-65"/>
      <path id="DejaVuSans-20"/>
      <path d="M 31 75.875 
Q 24.46875 64.65625 21.28125 53.65625 
Q 18.109375 42.671875 18.109375 31.390625 
Q 18.109375 20.125 21.3125 9.0625 
Q 24.515625 -2 31 -13.1875 
L 23.1875 -13.1875 
Q 15.875 -1.703125 12.234375 9.375 
Q 8.59375 20.453125 8.59375 31.390625 
Q 8.59375 42.28125 12.203125 53.3125 
Q 15.828125 64.359375 23.1875 75.875 
z
" id="DejaVuSans-28"/>
      <path d="M 44.28125 53.078125 
L 44.28125 44.578125 
Q 40.484375 46.53125 36.375 47.5 
Q 32.28125 48.484375 27.875 48.484375 
Q 21.1875 48.484375 17.84375 46.4375 
Q 14.5 44.390625 14.5 40.28125 
Q 14.5 37.15625 16.890625 35.375 
Q 19.28125 33.59375 26.515625 31.984375 
L 29.59375 31.296875 
Q 39.15625 29.25 43.1875 25.515625 
Q 47.21875 21.78125 47.21875 15.09375 
Q 47.21875 7.46875 41.1875 3.015625 
Q 35.15625 -1.421875 24.609375 -1.421875 
Q 20.21875 -1.421875 15.453125 -0.5625 
Q 10.6875 0.296875 5.421875 2 
L 5.421875 11.28125 
Q 10.40625 8.6875 15.234375 7.390625 
Q 20.0625 6.109375 24.8125 6.109375 
Q 31.15625 6.109375 34.5625 8.28125 
Q 37.984375 10.453125 37.984375 14.40625 
Q 37.984375 18.0625 35.515625 20.015625 
Q 33.0625 21.96875 24.703125 23.78125 
L 21.578125 24.515625 
Q 13.234375 26.265625 9.515625 29.90625 
Q 5.8125 33.546875 5.8125 39.890625 
Q 5.8125 47.609375 11.28125 51.796875 
Q 16.75 56 26.8125 56 
Q 31.78125 56 36.171875 55.265625 
Q 40.578125 54.546875 44.28125 53.078125 
z
" id="DejaVuSans-73"/>
      <path d="M 8.015625 75.875 
L 15.828125 75.875 
Q 23.140625 64.359375 26.78125 53.3125 
Q 30.421875 42.28125 30.421875 31.390625 
Q 30.421875 20.453125 26.78125 9.375 
Q 23.140625 -1.703125 15.828125 -13.1875 
L 8.015625 -13.1875 
Q 14.5 -2 17.703125 9.0625 
Q 20.90625 20.125 20.90625 31.390625 
Q 20.90625 42.671875 17.703125 53.65625 
Q 14.5 64.65625 8.015625 75.875 
z
" id="DejaVuSans-29"/>
     </defs>
     <g style="fill:#262626;" transform="translate(202.008594 276.776563)scale(0.1 -0.1)">
      <use xlink:href="#DejaVuSans-74"/>
      <use x="39.208984" xlink:href="#DejaVuSans-69"/>
      <use x="66.992188" xlink:href="#DejaVuSans-6d"/>
      <use x="164.404297" xlink:href="#DejaVuSans-65"/>
      <use x="225.927734" xlink:href="#DejaVuSans-20"/>
      <use x="257.714844" xlink:href="#DejaVuSans-28"/>
      <use x="296.728516" xlink:href="#DejaVuSans-73"/>
      <use x="348.828125" xlink:href="#DejaVuSans-29"/>
     </g>
    </g>
   </g>
   <g id="matplotlib.axis_2">
    <g id="ytick_1">
     <g id="line2d_17">
      <path clip-path="url(#pd3cf42c12d)" d="M 54 252 
L 388.8 252 
" style="fill:none;stroke:#cccccc;stroke-linecap:round;stroke-width:0.8;"/>
     </g>
     <g id="line2d_18"/>
     <g id="text_10">
      <!-- 0 -->
      <g style="fill:#262626;" transform="translate(44.1375 255.799219)scale(0.1 -0.1)">
       <use xlink:href="#DejaVuSans-30"/>
      </g>
     </g>
    </g>
    <g id="ytick_2">
     <g id="line2d_19">
      <path clip-path="url(#pd3cf42c12d)" d="M 54 205.609831 
L 388.8 205.609831 
" style="fill:none;stroke:#cccccc;stroke-linecap:round;stroke-width:0.8;"/>
     </g>
     <g id="line2d_20"/>
     <g id="text_11">
      <!-- 1000 -->
      <g style="fill:#262626;" transform="translate(25.05 209.40905)scale(0.1 -0.1)">
       <use xlink:href="#DejaVuSans-31"/>
       <use x="63.623047" xlink:href="#DejaVuSans-30"/>
       <use x="127.246094" xlink:href="#DejaVuSans-30"/>
       <use x="190.869141" xlink:href="#DejaVuSans-30"/>
      </g>
     </g>
    </g>
    <g id="ytick_3">
     <g id="line2d_21">
      <path clip-path="url(#pd3cf42c12d)" d="M 54 159.219662 
L 388.8 159.219662 
" style="fill:none;stroke:#cccccc;stroke-linecap:round;stroke-width:0.8;"/>
     </g>
     <g id="line2d_22"/>
     <g id="text_12">
      <!-- 2000 -->
      <g style="fill:#262626;" transform="translate(25.05 163.018881)scale(0.1 -0.1)">
       <use xlink:href="#DejaVuSans-32"/>
       <use x="63.623047" xlink:href="#DejaVuSans-30"/>
       <use x="127.246094" xlink:href="#DejaVuSans-30"/>
       <use x="190.869141" xlink:href="#DejaVuSans-30"/>
      </g>
     </g>
    </g>
    <g id="ytick_4">
     <g id="line2d_23">
      <path clip-path="url(#pd3cf42c12d)" d="M 54 112.829493 
L 388.8 112.829493 
" style="fill:none;stroke:#cccccc;stroke-linecap:round;stroke-width:0.8;"/>
     </g>
     <g id="line2d_24"/>
     <g id="text_13">
      <!-- 3000 -->
      <defs>
       <path d="M 40.578125 39.3125 
Q 47.65625 37.796875 51.625 33 
Q 55.609375 28.21875 55.609375 21.1875 
Q 55.609375 10.40625 48.1875 4.484375 
Q 40.765625 -1.421875 27.09375 -1.421875 
Q 22.515625 -1.421875 17.65625 -0.515625 
Q 12.796875 0.390625 7.625 2.203125 
L 7.625 11.71875 
Q 11.71875 9.328125 16.59375 8.109375 
Q 21.484375 6.890625 26.8125 6.890625 
Q 36.078125 6.890625 40.9375 10.546875 
Q 45.796875 14.203125 45.796875 21.1875 
Q 45.796875 27.640625 41.28125 31.265625 
Q 36.765625 34.90625 28.71875 34.90625 
L 20.21875 34.90625 
L 20.21875 43.015625 
L 29.109375 43.015625 
Q 36.375 43.015625 40.234375 45.921875 
Q 44.09375 48.828125 44.09375 54.296875 
Q 44.09375 59.90625 40.109375 62.90625 
Q 36.140625 65.921875 28.71875 65.921875 
Q 24.65625 65.921875 20.015625 65.03125 
Q 15.375 64.15625 9.8125 62.3125 
L 9.8125 71.09375 
Q 15.4375 72.65625 20.34375 73.4375 
Q 25.25 74.21875 29.59375 74.21875 
Q 40.828125 74.21875 47.359375 69.109375 
Q 53.90625 64.015625 53.90625 55.328125 
Q 53.90625 49.265625 50.4375 45.09375 
Q 46.96875 40.921875 40.578125 39.3125 
z
" id="DejaVuSans-33"/>
      </defs>
      <g style="fill:#262626;" transform="translate(25.05 116.628712)scale(0.1 -0.1)">
       <use xlink:href="#DejaVuSans-33"/>
       <use x="63.623047" xlink:href="#DejaVuSans-30"/>
       <use x="127.246094" xlink:href="#DejaVuSans-30"/>
       <use x="190.869141" xlink:href="#DejaVuSans-30"/>
      </g>
     </g>
    </g>
    <g id="ytick_5">
     <g id="line2d_25">
      <path clip-path="url(#pd3cf42c12d)" d="M 54 66.439324 
L 388.8 66.439324 
" style="fill:none;stroke:#cccccc;stroke-linecap:round;stroke-width:0.8;"/>
     </g>
     <g id="line2d_26"/>
     <g id="text_14">
      <!-- 4000 -->
      <g style="fill:#262626;" transform="translate(25.05 70.238543)scale(0.1 -0.1)">
       <use xlink:href="#DejaVuSans-34"/>
       <use x="63.623047" xlink:href="#DejaVuSans-30"/>
       <use x="127.246094" xlink:href="#DejaVuSans-30"/>
       <use x="190.869141" xlink:href="#DejaVuSans-30"/>
      </g>
     </g>
    </g>
    <g id="text_15">
     <!-- traffic (kB/s) -->
     <defs>
      <path d="M 41.109375 46.296875 
Q 39.59375 47.171875 37.8125 47.578125 
Q 36.03125 48 33.890625 48 
Q 26.265625 48 22.1875 43.046875 
Q 18.109375 38.09375 18.109375 28.8125 
L 18.109375 0 
L 9.078125 0 
L 9.078125 54.6875 
L 18.109375 54.6875 
L 18.109375 46.1875 
Q 20.953125 51.171875 25.484375 53.578125 
Q 30.03125 56 36.53125 56 
Q 37.453125 56 38.578125 55.875 
Q 39.703125 55.765625 41.0625 55.515625 
z
" id="DejaVuSans-72"/>
      <path d="M 34.28125 27.484375 
Q 23.390625 27.484375 19.1875 25 
Q 14.984375 22.515625 14.984375 16.5 
Q 14.984375 11.71875 18.140625 8.90625 
Q 21.296875 6.109375 26.703125 6.109375 
Q 34.1875 6.109375 38.703125 11.40625 
Q 43.21875 16.703125 43.21875 25.484375 
L 43.21875 27.484375 
z
M 52.203125 31.203125 
L 52.203125 0 
L 43.21875 0 
L 43.21875 8.296875 
Q 40.140625 3.328125 35.546875 0.953125 
Q 30.953125 -1.421875 24.3125 -1.421875 
Q 15.921875 -1.421875 10.953125 3.296875 
Q 6 8.015625 6 15.921875 
Q 6 25.140625 12.171875 29.828125 
Q 18.359375 34.515625 30.609375 34.515625 
L 43.21875 34.515625 
L 43.21875 35.40625 
Q 43.21875 41.609375 39.140625 45 
Q 35.0625 48.390625 27.6875 48.390625 
Q 23 48.390625 18.546875 47.265625 
Q 14.109375 46.140625 10.015625 43.890625 
L 10.015625 52.203125 
Q 14.9375 54.109375 19.578125 55.046875 
Q 24.21875 56 28.609375 56 
Q 40.484375 56 46.34375 49.84375 
Q 52.203125 43.703125 52.203125 31.203125 
z
" id="DejaVuSans-61"/>
      <path d="M 37.109375 75.984375 
L 37.109375 68.5 
L 28.515625 68.5 
Q 23.6875 68.5 21.796875 66.546875 
Q 19.921875 64.59375 19.921875 59.515625 
L 19.921875 54.6875 
L 34.71875 54.6875 
L 34.71875 47.703125 
L 19.921875 47.703125 
L 19.921875 0 
L 10.890625 0 
L 10.890625 47.703125 
L 2.296875 47.703125 
L 2.296875 54.6875 
L 10.890625 54.6875 
L 10.890625 58.5 
Q 10.890625 67.625 15.140625 71.796875 
Q 19.390625 75.984375 28.609375 75.984375 
z
" id="DejaVuSans-66"/>
      <path d="M 48.78125 52.59375 
L 48.78125 44.1875 
Q 44.96875 46.296875 41.140625 47.34375 
Q 37.3125 48.390625 33.40625 48.390625 
Q 24.65625 48.390625 19.8125 42.84375 
Q 14.984375 37.3125 14.984375 27.296875 
Q 14.984375 17.28125 19.8125 11.734375 
Q 24.65625 6.203125 33.40625 6.203125 
Q 37.3125 6.203125 41.140625 7.25 
Q 44.96875 8.296875 48.78125 10.40625 
L 48.78125 2.09375 
Q 45.015625 0.34375 40.984375 -0.53125 
Q 36.96875 -1.421875 32.421875 -1.421875 
Q 20.0625 -1.421875 12.78125 6.34375 
Q 5.515625 14.109375 5.515625 27.296875 
Q 5.515625 40.671875 12.859375 48.328125 
Q 20.21875 56 33.015625 56 
Q 37.15625 56 41.109375 55.140625 
Q 45.0625 54.296875 48.78125 52.59375 
z
" id="DejaVuSans-63"/>
      <path d="M 9.078125 75.984375 
L 18.109375 75.984375 
L 18.109375 31.109375 
L 44.921875 54.6875 
L 56.390625 54.6875 
L 27.390625 29.109375 
L 57.625 0 
L 45.90625 0 
L 18.109375 26.703125 
L 18.109375 0 
L 9.078125 0 
z
" id="DejaVuSans-6b"/>
      <path d="M 19.671875 34.8125 
L 19.671875 8.109375 
L 35.5 8.109375 
Q 43.453125 8.109375 47.28125 11.40625 
Q 51.125 14.703125 51.125 21.484375 
Q 51.125 28.328125 47.28125 31.5625 
Q 43.453125 34.8125 35.5 34.8125 
z
M 19.671875 64.796875 
L 19.671875 42.828125 
L 34.28125 42.828125 
Q 41.5 42.828125 45.03125 45.53125 
Q 48.578125 48.25 48.578125 53.8125 
Q 48.578125 59.328125 45.03125 62.0625 
Q 41.5 64.796875 34.28125 64.796875 
z
M 9.8125 72.90625 
L 35.015625 72.90625 
Q 46.296875 72.90625 52.390625 68.21875 
Q 58.5 63.53125 58.5 54.890625 
Q 58.5 48.1875 55.375 44.234375 
Q 52.25 40.28125 46.1875 39.3125 
Q 53.46875 37.75 57.5 32.78125 
Q 61.53125 27.828125 61.53125 20.40625 
Q 61.53125 10.640625 54.890625 5.3125 
Q 48.25 0 35.984375 0 
L 9.8125 0 
z
" id="DejaVuSans-42"/>
      <path d="M 25.390625 72.90625 
L 33.6875 72.90625 
L 8.296875 -9.28125 
L 0 -9.28125 
z
" id="DejaVuSans-2f"/>
     </defs>
     <g style="fill:#262626;" transform="translate(18.970312 174.12375)rotate(-90)scale(0.1 -0.1)">
      <use xlink:href="#DejaVuSans-74"/>
      <use x="39.208984" xlink:href="#DejaVuSans-72"/>
      <use x="80.322266" xlink:href="#DejaVuSans-61"/>
      <use x="141.601562" xlink:href="#DejaVuSans-66"/>
      <use x="176.806641" xlink:href="#DejaVuSans-66"/>
      <use x="212.011719" xlink:href="#DejaVuSans-69"/>
      <use x="239.794922" xlink:href="#DejaVuSans-63"/>
      <use x="294.775391" xlink:href="#DejaVuSans-20"/>
      <use x="326.5625" xlink:href="#DejaVuSans-28"/>
      <use x="365.576172" xlink:href="#DejaVuSans-6b"/>
      <use x="423.486328" xlink:href="#DejaVuSans-42"/>
      <use x="492.089844" xlink:href="#DejaVuSans-2f"/>
      <use x="525.78125" xlink:href="#DejaVuSans-73"/>
      <use x="577.880859" xlink:href="#DejaVuSans-29"/>
     </g>
    </g>
   </g>
   <g id="PolyCollection_1">
    <path clip-path="url(#pd3cf42c12d)" d="M 69.218182 220.269124 
L 69.218182 252 
L 71.423715 252 
L 73.629249 252 
L 75.834783 252 
L 78.040316 252 
L 80.24585 252 
L 82.451383 252 
L 84.656917 252 
L 86.862451 252 
L 89.067984 252 
L 91.273518 252 
L 93.479051 252 
L 95.684585 252 
L 97.890119 252 
L 100.095652 252 
L 102.301186 252 
L 104.506719 252 
L 106.712253 252 
L 108.917787 252 
L 111.12332 252 
L 113.328854 252 
L 115.534387 252 
L 117.739921 252 
L 119.945455 252 
L 122.150988 252 
L 124.356522 252 
L 126.562055 252 
L 128.767589 252 
L 130.973123 252 
L 133.178656 252 
L 135.38419 252 
L 137.589723 252 
L 139.795257 252 
L 142.000791 252 
L 144.206324 252 
L 146.411858 252 
L 148.617391 252 
L 150.822925 252 
L 153.028458 252 
L 155.233992 252 
L 157.439526 252 
L 159.645059 252 
L 161.850593 252 
L 164.056126 252 
L 166.26166 252 
L 168.467194 252 
L 170.672727 252 
L 172.878261 252 
L 175.083794 252 
L 177.289328 252 
L 179.494862 252 
L 181.700395 252 
L 183.905929 252 
L 186.111462 252 
L 188.316996 252 
L 190.52253 252 
L 192.728063 252 
L 194.933597 252 
L 197.13913 252 
L 199.344664 252 
L 201.550198 252 
L 203.755731 252 
L 205.961265 252 
L 208.166798 252 
L 210.372332 252 
L 212.577866 252 
L 214.783399 252 
L 216.988933 252 
L 219.194466 252 
L 221.4 252 
L 223.605534 252 
L 225.811067 252 
L 228.016601 252 
L 230.222134 252 
L 232.427668 252 
L 234.633202 252 
L 236.838735 252 
L 239.044269 252 
L 241.249802 252 
L 243.455336 252 
L 245.66087 252 
L 247.866403 252 
L 250.071937 252 
L 252.27747 252 
L 254.483004 252 
L 256.688538 252 
L 258.894071 252 
L 261.099605 252 
L 263.305138 252 
L 265.510672 252 
L 267.716206 252 
L 269.921739 252 
L 272.127273 252 
L 274.332806 252 
L 276.53834 252 
L 278.743874 252 
L 280.949407 252 
L 283.154941 252 
L 285.360474 252 
L 287.566008 252 
L 289.771542 252 
L 291.977075 252 
L 294.182609 252 
L 296.388142 252 
L 298.593676 252 
L 300.799209 252 
L 303.004743 252 
L 305.210277 252 
L 307.41581 252 
L 309.621344 252 
L 311.826877 252 
L 314.032411 252 
L 316.237945 252 
L 318.443478 252 
L 320.649012 252 
L 322.854545 252 
L 325.060079 252 
L 327.265613 252 
L 329.471146 252 
L 331.67668 252 
L 333.882213 252 
L 336.087747 252 
L 338.293281 252 
L 340.498814 252 
L 342.704348 252 
L 344.909881 252 
L 347.115415 252 
L 349.320949 252 
L 351.526482 252 
L 353.732016 252 
L 355.937549 252 
L 358.143083 252 
L 360.348617 252 
L 362.55415 252 
L 364.759684 252 
L 366.965217 252 
L 369.170751 252 
L 371.376285 252 
L 373.581818 252 
L 373.581818 247.360983 
L 373.581818 247.360983 
L 371.376285 252 
L 369.170751 252 
L 366.965217 252 
L 364.759684 252 
L 362.55415 252 
L 360.348617 252 
L 358.143083 214.887865 
L 355.937549 227.505991 
L 353.732016 205.053149 
L 351.526482 174.621198 
L 349.320949 171.281106 
L 347.115415 159.405223 
L 344.909881 171.281106 
L 342.704348 179.260215 
L 340.498814 186.497081 
L 338.293281 144.189247 
L 336.087747 205.053149 
L 333.882213 220.269124 
L 331.67668 220.269124 
L 329.471146 252 
L 327.265613 252 
L 325.060079 252 
L 322.854545 252 
L 320.649012 252 
L 318.443478 252 
L 316.237945 252 
L 314.032411 222.866974 
L 311.826877 216.929032 
L 309.621344 215.630108 
L 307.41581 177.96129 
L 305.210277 199.115207 
L 303.004743 177.96129 
L 300.799209 209.692166 
L 298.593676 167.384332 
L 296.388142 209.692166 
L 294.182609 188.538249 
L 291.977075 188.538249 
L 289.771542 209.692166 
L 287.566008 220.269124 
L 285.360474 252 
L 283.154941 252 
L 280.949407 252 
L 278.743874 252 
L 276.53834 252 
L 274.332806 252 
L 272.127273 252 
L 269.921739 252 
L 267.716206 252 
L 265.510672 252 
L 263.305138 252 
L 261.099605 252 
L 258.894071 252 
L 256.688538 252 
L 254.483004 252 
L 252.27747 252 
L 250.071937 252 
L 247.866403 252 
L 245.66087 252 
L 243.455336 252 
L 241.249802 252 
L 239.044269 252 
L 236.838735 252 
L 234.633202 252 
L 232.427668 252 
L 230.222134 252 
L 228.016601 252 
L 225.811067 252 
L 223.605534 252 
L 221.4 252 
L 219.194466 252 
L 216.988933 252 
L 214.783399 252 
L 212.577866 218.227957 
L 210.372332 232.145008 
L 208.166798 218.227957 
L 205.961265 221.568049 
L 203.755731 206.352074 
L 201.550198 203.011982 
L 199.344664 200.414132 
L 197.13913 194.47619 
L 194.933597 180.55914 
L 192.728063 167.941014 
L 190.52253 160.704147 
L 188.316996 158.66298 
L 186.111462 157.364055 
L 183.905929 151.426114 
L 181.700395 151.426114 
L 179.494862 119.695238 
L 177.289328 150.127189 
L 175.083794 145.488172 
L 172.878261 206.352074 
L 170.672727 154.766206 
L 168.467194 179.260215 
L 166.26166 191.136098 
L 164.056126 185.198157 
L 161.850593 195.775115 
L 159.645059 164.04424 
L 157.439526 189.837174 
L 155.233992 165.343164 
L 153.028458 169.982181 
L 150.822925 146.230415 
L 148.617391 206.352074 
L 146.411858 164.04424 
L 144.206324 180.55914 
L 142.000791 194.47619 
L 139.795257 159.405223 
L 137.589723 206.352074 
L 135.38419 138.251306 
L 133.178656 215.630108 
L 130.973123 200.414132 
L 128.767589 160.704147 
L 126.562055 185.198157 
L 124.356522 162.003072 
L 122.150988 169.982181 
L 119.945455 174.621198 
L 117.739921 189.837174 
L 115.534387 173.322273 
L 113.328854 230.846083 
L 111.12332 220.269124 
L 108.917787 252 
L 106.712253 252 
L 104.506719 252 
L 102.301186 252 
L 100.095652 252 
L 97.890119 252 
L 95.684585 228.804916 
L 93.479051 222.866974 
L 91.273518 222.866974 
L 89.067984 175.920123 
L 86.862451 172.580031 
L 84.656917 139.55023 
L 82.451383 194.47619 
L 80.24585 191.136098 
L 78.040316 179.260215 
L 75.834783 195.775115 
L 73.629249 158.106298 
L 71.423715 220.269124 
L 69.218182 220.269124 
z
" style="fill:#f77189;"/>
   </g>
   <g id="PolyCollection_2">
    <path clip-path="url(#pd3cf42c12d)" d="M 69.218182 188.538249 
L 69.218182 220.269124 
L 71.423715 220.269124 
L 73.629249 158.106298 
L 75.834783 195.775115 
L 78.040316 179.260215 
L 80.24585 191.136098 
L 82.451383 194.47619 
L 84.656917 139.55023 
L 86.862451 172.580031 
L 89.067984 175.920123 
L 91.273518 222.866974 
L 93.479051 222.866974 
L 95.684585 228.804916 
L 97.890119 252 
L 100.095652 252 
L 102.301186 252 
L 104.506719 252 
L 106.712253 252 
L 108.917787 252 
L 111.12332 220.269124 
L 113.328854 230.846083 
L 115.534387 173.322273 
L 117.739921 189.837174 
L 119.945455 174.621198 
L 122.150988 169.982181 
L 124.356522 162.003072 
L 126.562055 185.198157 
L 128.767589 160.704147 
L 130.973123 200.414132 
L 133.178656 215.630108 
L 135.38419 138.251306 
L 137.589723 206.352074 
L 139.795257 159.405223 
L 142.000791 194.47619 
L 144.206324 180.55914 
L 146.411858 164.04424 
L 148.617391 206.352074 
L 150.822925 146.230415 
L 153.028458 169.982181 
L 155.233992 165.343164 
L 157.439526 189.837174 
L 159.645059 164.04424 
L 161.850593 195.775115 
L 164.056126 185.198157 
L 166.26166 191.136098 
L 168.467194 179.260215 
L 170.672727 154.766206 
L 172.878261 206.352074 
L 175.083794 145.488172 
L 177.289328 150.127189 
L 179.494862 119.695238 
L 181.700395 151.426114 
L 183.905929 151.426114 
L 186.111462 157.364055 
L 188.316996 158.66298 
L 190.52253 160.704147 
L 192.728063 167.941014 
L 194.933597 180.55914 
L 197.13913 194.47619 
L 199.344664 200.414132 
L 201.550198 203.011982 
L 203.755731 206.352074 
L 205.961265 221.568049 
L 208.166798 218.227957 
L 210.372332 232.145008 
L 212.577866 218.227957 
L 214.783399 252 
L 216.988933 252 
L 219.194466 252 
L 221.4 252 
L 223.605534 252 
L 225.811067 252 
L 228.016601 252 
L 230.222134 252 
L 232.427668 252 
L 234.633202 252 
L 236.838735 252 
L 239.044269 252 
L 241.249802 252 
L 243.455336 252 
L 245.66087 252 
L 247.866403 252 
L 250.071937 252 
L 252.27747 252 
L 254.483004 252 
L 256.688538 252 
L 258.894071 252 
L 261.099605 252 
L 263.305138 252 
L 265.510672 252 
L 267.716206 252 
L 269.921739 252 
L 272.127273 252 
L 274.332806 252 
L 276.53834 252 
L 278.743874 252 
L 280.949407 252 
L 283.154941 252 
L 285.360474 252 
L 287.566008 220.269124 
L 289.771542 209.692166 
L 291.977075 188.538249 
L 294.182609 188.538249 
L 296.388142 209.692166 
L 298.593676 167.384332 
L 300.799209 209.692166 
L 303.004743 177.96129 
L 305.210277 199.115207 
L 307.41581 177.96129 
L 309.621344 215.630108 
L 311.826877 216.929032 
L 314.032411 222.866974 
L 316.237945 252 
L 318.443478 252 
L 320.649012 252 
L 322.854545 252 
L 325.060079 252 
L 327.265613 252 
L 329.471146 252 
L 331.67668 220.269124 
L 333.882213 220.269124 
L 336.087747 205.053149 
L 338.293281 144.189247 
L 340.498814 186.497081 
L 342.704348 179.260215 
L 344.909881 171.281106 
L 347.115415 159.405223 
L 349.320949 171.281106 
L 351.526482 174.621198 
L 353.732016 205.053149 
L 355.937549 227.505991 
L 358.143083 214.887865 
L 360.348617 252 
L 362.55415 252 
L 364.759684 252 
L 366.965217 252 
L 369.170751 252 
L 371.376285 252 
L 373.581818 247.360983 
L 373.581818 247.360983 
L 373.581818 247.360983 
L 371.376285 252 
L 369.170751 252 
L 366.965217 252 
L 364.759684 252 
L 362.55415 252 
L 360.348617 252 
L 358.143083 214.887865 
L 355.937549 227.505991 
L 353.732016 205.053149 
L 351.526482 174.621198 
L 349.320949 171.281106 
L 347.115415 159.405223 
L 344.909881 171.281106 
L 342.704348 179.260215 
L 340.498814 186.497081 
L 338.293281 144.189247 
L 336.087747 205.053149 
L 333.882213 220.269124 
L 331.67668 220.269124 
L 329.471146 252 
L 327.265613 252 
L 325.060079 252 
L 322.854545 252 
L 320.649012 252 
L 318.443478 252 
L 316.237945 252 
L 314.032411 222.866974 
L 311.826877 216.929032 
L 309.621344 215.630108 
L 307.41581 177.96129 
L 305.210277 199.115207 
L 303.004743 177.96129 
L 300.799209 209.692166 
L 298.593676 167.384332 
L 296.388142 209.692166 
L 294.182609 188.538249 
L 291.977075 188.538249 
L 289.771542 209.692166 
L 287.566008 220.269124 
L 285.360474 242.721966 
L 283.154941 252 
L 280.949407 252 
L 278.743874 242.721966 
L 276.53834 206.352074 
L 274.332806 216.929032 
L 272.127273 221.568049 
L 269.921739 171.281106 
L 267.716206 186.497081 
L 265.510672 160.704147 
L 263.305138 171.281106 
L 261.099605 165.343164 
L 258.894071 195.775115 
L 256.688538 174.621198 
L 254.483004 210.991091 
L 252.27747 205.053149 
L 250.071937 165.343164 
L 247.866403 191.136098 
L 245.66087 169.982181 
L 243.455336 205.053149 
L 241.249802 165.343164 
L 239.044269 192.435023 
L 236.838735 154.766206 
L 234.633202 195.775115 
L 232.427668 191.136098 
L 230.222134 169.982181 
L 228.016601 201.713057 
L 225.811067 180.55914 
L 223.605534 215.630108 
L 221.4 209.692166 
L 219.194466 252 
L 216.988933 252 
L 214.783399 252 
L 212.577866 218.227957 
L 210.372332 232.145008 
L 208.166798 213.58894 
L 205.961265 198.372965 
L 203.755731 152.725038 
L 201.550198 138.807988 
L 199.344664 105.778187 
L 197.13913 128.973272 
L 194.933597 109.11828 
L 192.728063 94.458986 
L 190.52253 83.325346 
L 188.316996 111.716129 
L 186.111462 105.778187 
L 183.905929 72.748387 
L 181.700395 120.994163 
L 179.494862 44.914286 
L 177.289328 124.334255 
L 175.083794 62.171429 
L 172.878261 142.14808 
L 170.672727 72.748387 
L 168.467194 118.396313 
L 166.26166 131.571121 
L 164.056126 97.242396 
L 161.850593 139.55023 
L 159.645059 86.665438 
L 157.439526 153.467281 
L 155.233992 133.612289 
L 153.028458 169.982181 
L 150.822925 146.230415 
L 148.617391 206.352074 
L 146.411858 164.04424 
L 144.206324 180.55914 
L 142.000791 194.47619 
L 139.795257 150.127189 
L 137.589723 172.580031 
L 135.38419 118.396313 
L 133.178656 169.982181 
L 130.973123 156.065131 
L 128.767589 72.748387 
L 126.562055 98.541321 
L 124.356522 99.840246 
L 122.150988 119.695238 
L 119.945455 78.686329 
L 117.739921 133.612289 
L 115.534387 112.458372 
L 113.328854 153.467281 
L 111.12332 159.405223 
L 108.917787 154.766206 
L 106.712253 191.136098 
L 104.506719 171.281106 
L 102.301186 201.713057 
L 100.095652 165.343164 
L 97.890119 186.497081 
L 95.684585 152.725038 
L 93.479051 144.189247 
L 91.273518 181.858065 
L 89.067984 110.417204 
L 86.862451 101.139171 
L 84.656917 58.831336 
L 82.451383 142.890323 
L 80.24585 126.932104 
L 78.040316 86.665438 
L 75.834783 139.55023 
L 73.629249 64.212596 
L 71.423715 188.538249 
L 69.218182 188.538249 
z
" style="fill:#36ada4;"/>
   </g>
   <g id="patch_3">
    <path d="M 54 252 
L 54 34.56 
" style="fill:none;stroke:#cccccc;stroke-linecap:square;stroke-linejoin:miter;"/>
   </g>
   <g id="patch_4">
    <path d="M 388.8 252 
L 388.8 34.56 
" style="fill:none;stroke:#cccccc;stroke-linecap:square;stroke-linejoin:miter;"/>
   </g>
   <g id="patch_5">
    <path d="M 54 252 
L 388.8 252 
" style="fill:none;stroke:#cccccc;stroke-linecap:square;stroke-linejoin:miter;"/>
   </g>
   <g id="patch_6">
    <path d="M 54 34.56 
L 388.8 34.56 
" style="fill:none;stroke:#cccccc;stroke-linecap:square;stroke-linejoin:miter;"/>
   </g>
  </g>
  <g id="text_16">
   <!-- Traffic per file -->
   <defs>
    <path d="M -0.296875 72.90625 
L 61.375 72.90625 
L 61.375 64.59375 
L 35.5 64.59375 
L 35.5 0 
L 25.59375 0 
L 25.59375 64.59375 
L -0.296875 64.59375 
z
" id="DejaVuSans-54"/>
    <path d="M 18.109375 8.203125 
L 18.109375 -20.796875 
L 9.078125 -20.796875 
L 9.078125 54.6875 
L 18.109375 54.6875 
L 18.109375 46.390625 
Q 20.953125 51.265625 25.265625 53.625 
Q 29.59375 56 35.59375 56 
Q 45.5625 56 51.78125 48.09375 
Q 58.015625 40.1875 58.015625 27.296875 
Q 58.015625 14.40625 51.78125 6.484375 
Q 45.5625 -1.421875 35.59375 -1.421875 
Q 29.59375 -1.421875 25.265625 0.953125 
Q 20.953125 3.328125 18.109375 8.203125 
z
M 48.6875 27.296875 
Q 48.6875 37.203125 44.609375 42.84375 
Q 40.53125 48.484375 33.40625 48.484375 
Q 26.265625 48.484375 22.1875 42.84375 
Q 18.109375 37.203125 18.109375 27.296875 
Q 18.109375 17.390625 22.1875 11.75 
Q 26.265625 6.109375 33.40625 6.109375 
Q 40.53125 6.109375 44.609375 11.75 
Q 48.6875 17.390625 48.6875 27.296875 
z
" id="DejaVuSans-70"/>
    <path d="M 9.421875 75.984375 
L 18.40625 75.984375 
L 18.40625 0 
L 9.421875 0 
z
" id="DejaVuSans-6c"/>
   </defs>
   <g style="fill:#262626;" transform="translate(174.095625 14.878125)scale(0.12 -0.12)">
    <use xlink:href="#DejaVuSans-54"/>
    <use x="60.865234" xlink:href="#DejaVuSans-72"/>
    <use x="101.978516" xlink:href="#DejaVuSans-61"/>
    <use x="163.257812" xlink:href="#DejaVuSans-66"/>
    <use x="198.462891" xlink:href="#DejaVuSans-66"/>
    <use x="233.667969" xlink:href="#DejaVuSans-69"/>
    <use x="261.451172" xlink:href="#DejaVuSans-63"/>
    <use x="316.431641" xlink:href="#DejaVuSans-20"/>
    <use x="348.21875" xlink:href="#DejaVuSans-70"/>
    <use x="411.695312" xlink:href="#DejaVuSans-65"/>
    <use x="473.21875" xlink:href="#DejaVuSans-72"/>
    <use x="514.332031" xlink:href="#DejaVuSans-20"/>
    <use x="546.119141" xlink:href="#DejaVuSans-66"/>
    <use x="581.324219" xlink:href="#DejaVuSans-69"/>
    <use x="609.107422" xlink:href="#DejaVuSans-6c"/>
    <use x="636.890625" xlink:href="#DejaVuSans-65"/>
   </g>
  </g>
 </g>
 <defs>
  <clipPath id="pd3cf42c12d">
   <rect height="217.44" width="334.8" x="54" y="34.56"/>
  </clipPath>
 </defs>
</svg>
